G04 #@! TF.GenerationSoftware,KiCad,Pcbnew,(5.1.10)-1*
G04 #@! TF.CreationDate,2022-05-27T16:58:45+02:00*
G04 #@! TF.ProjectId,STM_programming_ports,53544d5f-7072-46f6-9772-616d6d696e67,rev?*
G04 #@! TF.SameCoordinates,Original*
G04 #@! TF.FileFunction,Soldermask,Top*
G04 #@! TF.FilePolarity,Negative*
%FSLAX46Y46*%
G04 Gerber Fmt 4.6, Leading zero omitted, Abs format (unit mm)*
G04 Created by KiCad (PCBNEW (5.1.10)-1) date 2022-05-27 16:58:45*
%MOMM*%
%LPD*%
G01*
G04 APERTURE LIST*
%ADD10C,1.800000*%
%ADD11O,1.800000X1.800000*%
G04 APERTURE END LIST*
D10*
X160040000Y-57660000D03*
X160040000Y-55120000D03*
X160040000Y-52580000D03*
X160040000Y-50040000D03*
X160040000Y-47500000D03*
X157500000Y-57660000D03*
X157500000Y-55120000D03*
X157500000Y-52580000D03*
X157500000Y-50040000D03*
G36*
G01*
X156600000Y-48135295D02*
X156600000Y-46864705D01*
G75*
G02*
X156864705Y-46600000I264705J0D01*
G01*
X158135295Y-46600000D01*
G75*
G02*
X158400000Y-46864705I0J-264705D01*
G01*
X158400000Y-48135295D01*
G75*
G02*
X158135295Y-48400000I-264705J0D01*
G01*
X156864705Y-48400000D01*
G75*
G02*
X156600000Y-48135295I0J264705D01*
G01*
G37*
X148160000Y-45710000D03*
X145620000Y-45710000D03*
X143080000Y-45710000D03*
X140540000Y-45710000D03*
X138000000Y-45710000D03*
X148160000Y-48250000D03*
X145620000Y-48250000D03*
X143080000Y-48250000D03*
X140540000Y-48250000D03*
G36*
G01*
X138635295Y-49150000D02*
X137364705Y-49150000D01*
G75*
G02*
X137100000Y-48885295I0J264705D01*
G01*
X137100000Y-47614705D01*
G75*
G02*
X137364705Y-47350000I264705J0D01*
G01*
X138635295Y-47350000D01*
G75*
G02*
X138900000Y-47614705I0J-264705D01*
G01*
X138900000Y-48885295D01*
G75*
G02*
X138635295Y-49150000I-264705J0D01*
G01*
G37*
G36*
G01*
X153050000Y-61475000D02*
X152450000Y-61475000D01*
G75*
G02*
X152400000Y-61425000I0J50000D01*
G01*
X152400000Y-59925000D01*
G75*
G02*
X152450000Y-59875000I50000J0D01*
G01*
X153050000Y-59875000D01*
G75*
G02*
X153100000Y-59925000I0J-50000D01*
G01*
X153100000Y-61425000D01*
G75*
G02*
X153050000Y-61475000I-50000J0D01*
G01*
G37*
G36*
G01*
X153050000Y-69125000D02*
X152450000Y-69125000D01*
G75*
G02*
X152400000Y-69075000I0J50000D01*
G01*
X152400000Y-67575000D01*
G75*
G02*
X152450000Y-67525000I50000J0D01*
G01*
X153050000Y-67525000D01*
G75*
G02*
X153100000Y-67575000I0J-50000D01*
G01*
X153100000Y-69075000D01*
G75*
G02*
X153050000Y-69125000I-50000J0D01*
G01*
G37*
G36*
G01*
X144850000Y-66655770D02*
X144850000Y-65344230D01*
G75*
G02*
X145119230Y-65075000I269230J0D01*
G01*
X145980770Y-65075000D01*
G75*
G02*
X146250000Y-65344230I0J-269230D01*
G01*
X146250000Y-66655770D01*
G75*
G02*
X145980770Y-66925000I-269230J0D01*
G01*
X145119230Y-66925000D01*
G75*
G02*
X144850000Y-66655770I0J269230D01*
G01*
G37*
G36*
G01*
X141750000Y-66655770D02*
X141750000Y-65344230D01*
G75*
G02*
X142019230Y-65075000I269230J0D01*
G01*
X142880770Y-65075000D01*
G75*
G02*
X143150000Y-65344230I0J-269230D01*
G01*
X143150000Y-66655770D01*
G75*
G02*
X142880770Y-66925000I-269230J0D01*
G01*
X142019230Y-66925000D01*
G75*
G02*
X141750000Y-66655770I0J269230D01*
G01*
G37*
D11*
X98160000Y-66500000D03*
X95620000Y-66500000D03*
X93080000Y-66500000D03*
X90540000Y-66500000D03*
G36*
G01*
X88850000Y-67400000D02*
X87150000Y-67400000D01*
G75*
G02*
X87100000Y-67350000I0J50000D01*
G01*
X87100000Y-65650000D01*
G75*
G02*
X87150000Y-65600000I50000J0D01*
G01*
X88850000Y-65600000D01*
G75*
G02*
X88900000Y-65650000I0J-50000D01*
G01*
X88900000Y-67350000D01*
G75*
G02*
X88850000Y-67400000I-50000J0D01*
G01*
G37*
X111580000Y-66500000D03*
X109040000Y-66500000D03*
X106500000Y-66500000D03*
G36*
G01*
X104810000Y-67400000D02*
X103110000Y-67400000D01*
G75*
G02*
X103060000Y-67350000I0J50000D01*
G01*
X103060000Y-65650000D01*
G75*
G02*
X103110000Y-65600000I50000J0D01*
G01*
X104810000Y-65600000D01*
G75*
G02*
X104860000Y-65650000I0J-50000D01*
G01*
X104860000Y-67350000D01*
G75*
G02*
X104810000Y-67400000I-50000J0D01*
G01*
G37*
D10*
X125040000Y-62000000D03*
X122500000Y-62000000D03*
X119960000Y-62000000D03*
X125040000Y-64540000D03*
X122500000Y-64540000D03*
G36*
G01*
X120595295Y-65440000D02*
X119324705Y-65440000D01*
G75*
G02*
X119060000Y-65175295I0J264705D01*
G01*
X119060000Y-63904705D01*
G75*
G02*
X119324705Y-63640000I264705J0D01*
G01*
X120595295Y-63640000D01*
G75*
G02*
X120860000Y-63904705I0J-264705D01*
G01*
X120860000Y-65175295D01*
G75*
G02*
X120595295Y-65440000I-264705J0D01*
G01*
G37*
D11*
X137000000Y-65540000D03*
G36*
G01*
X136100000Y-63850000D02*
X136100000Y-62150000D01*
G75*
G02*
X136150000Y-62100000I50000J0D01*
G01*
X137850000Y-62100000D01*
G75*
G02*
X137900000Y-62150000I0J-50000D01*
G01*
X137900000Y-63850000D01*
G75*
G02*
X137850000Y-63900000I-50000J0D01*
G01*
X136150000Y-63900000D01*
G75*
G02*
X136100000Y-63850000I0J50000D01*
G01*
G37*
D10*
X125860000Y-45740000D03*
X123320000Y-45740000D03*
X120780000Y-45740000D03*
X118240000Y-45740000D03*
X115700000Y-45740000D03*
X113160000Y-45740000D03*
X110620000Y-45740000D03*
X108080000Y-45740000D03*
X105540000Y-45740000D03*
X103000000Y-45740000D03*
X125860000Y-48280000D03*
X123320000Y-48280000D03*
X120780000Y-48280000D03*
X118240000Y-48280000D03*
X115700000Y-48280000D03*
X113160000Y-48280000D03*
X110620000Y-48280000D03*
X108080000Y-48280000D03*
X105540000Y-48280000D03*
G36*
G01*
X103635295Y-49180000D02*
X102364705Y-49180000D01*
G75*
G02*
X102100000Y-48915295I0J264705D01*
G01*
X102100000Y-47644705D01*
G75*
G02*
X102364705Y-47380000I264705J0D01*
G01*
X103635295Y-47380000D01*
G75*
G02*
X103900000Y-47644705I0J-264705D01*
G01*
X103900000Y-48915295D01*
G75*
G02*
X103635295Y-49180000I-264705J0D01*
G01*
G37*
X91080001Y-45960000D03*
X88540001Y-45960000D03*
X86000001Y-45960000D03*
X83460001Y-45960000D03*
X80920001Y-45960000D03*
X91080001Y-48500000D03*
X88540001Y-48500000D03*
X86000001Y-48500000D03*
X83460001Y-48500000D03*
G36*
G01*
X81555296Y-49400000D02*
X80284706Y-49400000D01*
G75*
G02*
X80020001Y-49135295I0J264705D01*
G01*
X80020001Y-47864705D01*
G75*
G02*
X80284706Y-47600000I264705J0D01*
G01*
X81555296Y-47600000D01*
G75*
G02*
X81820001Y-47864705I0J-264705D01*
G01*
X81820001Y-49135295D01*
G75*
G02*
X81555296Y-49400000I-264705J0D01*
G01*
G37*
G36*
G01*
X144725000Y-63657457D02*
X144725000Y-62342543D01*
G75*
G02*
X144992543Y-62075000I267543J0D01*
G01*
X145982457Y-62075000D01*
G75*
G02*
X146250000Y-62342543I0J-267543D01*
G01*
X146250000Y-63657457D01*
G75*
G02*
X145982457Y-63925000I-267543J0D01*
G01*
X144992543Y-63925000D01*
G75*
G02*
X144725000Y-63657457I0J267543D01*
G01*
G37*
G36*
G01*
X141750000Y-63657457D02*
X141750000Y-62342543D01*
G75*
G02*
X142017543Y-62075000I267543J0D01*
G01*
X143007457Y-62075000D01*
G75*
G02*
X143275000Y-62342543I0J-267543D01*
G01*
X143275000Y-63657457D01*
G75*
G02*
X143007457Y-63925000I-267543J0D01*
G01*
X142017543Y-63925000D01*
G75*
G02*
X141750000Y-63657457I0J267543D01*
G01*
G37*
M02*
