G04 #@! TF.GenerationSoftware,KiCad,Pcbnew,(5.1.10)-1*
G04 #@! TF.CreationDate,2021-11-05T12:16:12+01:00*
G04 #@! TF.ProjectId,STM_programming_ports,53544d5f-7072-46f6-9772-616d6d696e67,rev?*
G04 #@! TF.SameCoordinates,Original*
G04 #@! TF.FileFunction,Copper,L1,Top*
G04 #@! TF.FilePolarity,Positive*
%FSLAX46Y46*%
G04 Gerber Fmt 4.6, Leading zero omitted, Abs format (unit mm)*
G04 Created by KiCad (PCBNEW (5.1.10)-1) date 2021-11-05 12:16:12*
%MOMM*%
%LPD*%
G01*
G04 APERTURE LIST*
G04 #@! TA.AperFunction,ComponentPad*
%ADD10C,1.700000*%
G04 #@! TD*
G04 #@! TA.AperFunction,ComponentPad*
%ADD11O,1.700000X1.700000*%
G04 #@! TD*
G04 #@! TA.AperFunction,ComponentPad*
%ADD12R,1.700000X1.700000*%
G04 #@! TD*
G04 #@! TA.AperFunction,ViaPad*
%ADD13C,0.800000*%
G04 #@! TD*
G04 #@! TA.AperFunction,Conductor*
%ADD14C,0.254000*%
G04 #@! TD*
G04 #@! TA.AperFunction,Conductor*
%ADD15C,1.270000*%
G04 #@! TD*
G04 #@! TA.AperFunction,Conductor*
%ADD16C,0.150000*%
G04 #@! TD*
G04 APERTURE END LIST*
D10*
X125560000Y-59690000D03*
X125560000Y-57150000D03*
X125560000Y-54610000D03*
X125560000Y-52070000D03*
X125560000Y-49530000D03*
X123020000Y-59690000D03*
X123020000Y-57150000D03*
X123020000Y-54610000D03*
X123020000Y-52070000D03*
G04 #@! TA.AperFunction,ComponentPad*
G36*
G01*
X122170000Y-50130000D02*
X122170000Y-48930000D01*
G75*
G02*
X122420000Y-48680000I250000J0D01*
G01*
X123620000Y-48680000D01*
G75*
G02*
X123870000Y-48930000I0J-250000D01*
G01*
X123870000Y-50130000D01*
G75*
G02*
X123620000Y-50380000I-250000J0D01*
G01*
X122420000Y-50380000D01*
G75*
G02*
X122170000Y-50130000I0J250000D01*
G01*
G37*
G04 #@! TD.AperFunction*
X143510000Y-59690000D03*
X143510000Y-57150000D03*
X143510000Y-54610000D03*
X143510000Y-52070000D03*
X143510000Y-49530000D03*
X140970000Y-59690000D03*
X140970000Y-57150000D03*
X140970000Y-54610000D03*
X140970000Y-52070000D03*
G04 #@! TA.AperFunction,ComponentPad*
G36*
G01*
X140120000Y-50130000D02*
X140120000Y-48930000D01*
G75*
G02*
X140370000Y-48680000I250000J0D01*
G01*
X141570000Y-48680000D01*
G75*
G02*
X141820000Y-48930000I0J-250000D01*
G01*
X141820000Y-50130000D01*
G75*
G02*
X141570000Y-50380000I-250000J0D01*
G01*
X140370000Y-50380000D01*
G75*
G02*
X140120000Y-50130000I0J250000D01*
G01*
G37*
G04 #@! TD.AperFunction*
D11*
X119380000Y-73660000D03*
X116840000Y-73660000D03*
X114300000Y-73660000D03*
D12*
X111760000Y-73660000D03*
D11*
X133350000Y-73660000D03*
D12*
X135890000Y-73660000D03*
D10*
X91440000Y-72390000D03*
X91440000Y-69850000D03*
X91440000Y-67310000D03*
X91440000Y-64770000D03*
X91440000Y-62230000D03*
X91440000Y-59690000D03*
X91440000Y-57150000D03*
X91440000Y-54610000D03*
X91440000Y-52070000D03*
X91440000Y-49530000D03*
X88900000Y-72390000D03*
X88900000Y-69850000D03*
X88900000Y-67310000D03*
X88900000Y-64770000D03*
X88900000Y-62230000D03*
X88900000Y-59690000D03*
X88900000Y-57150000D03*
X88900000Y-54610000D03*
X88900000Y-52070000D03*
G04 #@! TA.AperFunction,ComponentPad*
G36*
G01*
X88050000Y-50130000D02*
X88050000Y-48930000D01*
G75*
G02*
X88300000Y-48680000I250000J0D01*
G01*
X89500000Y-48680000D01*
G75*
G02*
X89750000Y-48930000I0J-250000D01*
G01*
X89750000Y-50130000D01*
G75*
G02*
X89500000Y-50380000I-250000J0D01*
G01*
X88300000Y-50380000D01*
G75*
G02*
X88050000Y-50130000I0J250000D01*
G01*
G37*
G04 #@! TD.AperFunction*
X107950000Y-59690000D03*
X107950000Y-57150000D03*
X107950000Y-54610000D03*
X107950000Y-52070000D03*
X107950000Y-49530000D03*
X105410000Y-59690000D03*
X105410000Y-57150000D03*
X105410000Y-54610000D03*
X105410000Y-52070000D03*
G04 #@! TA.AperFunction,ComponentPad*
G36*
G01*
X104560000Y-50130000D02*
X104560000Y-48930000D01*
G75*
G02*
X104810000Y-48680000I250000J0D01*
G01*
X106010000Y-48680000D01*
G75*
G02*
X106260000Y-48930000I0J-250000D01*
G01*
X106260000Y-50130000D01*
G75*
G02*
X106010000Y-50380000I-250000J0D01*
G01*
X104810000Y-50380000D01*
G75*
G02*
X104560000Y-50130000I0J250000D01*
G01*
G37*
G04 #@! TD.AperFunction*
D13*
X113030000Y-50800000D03*
D14*
X124251001Y-48298999D02*
X123020000Y-49530000D01*
X139738999Y-48298999D02*
X124251001Y-48298999D01*
X140970000Y-49530000D02*
X139738999Y-48298999D01*
X113030000Y-54610000D02*
X107950000Y-59690000D01*
X113030000Y-50800000D02*
X113030000Y-54610000D01*
X99098999Y-68541001D02*
X107950000Y-59690000D01*
X90131001Y-68541001D02*
X99098999Y-68541001D01*
X88900000Y-67310000D02*
X90131001Y-68541001D01*
X123020000Y-54610000D02*
X124290000Y-53340000D01*
X139700000Y-53340000D02*
X140970000Y-54610000D01*
X124290000Y-53340000D02*
X139700000Y-53340000D01*
X97199119Y-63538999D02*
X104897117Y-55841001D01*
X106718999Y-55841001D02*
X107950000Y-54610000D01*
X104897117Y-55841001D02*
X106718999Y-55841001D01*
X90131001Y-63538999D02*
X97199119Y-63538999D01*
X88900000Y-64770000D02*
X90131001Y-63538999D01*
X142278999Y-55841001D02*
X126791001Y-55841001D01*
X126791001Y-55841001D02*
X125560000Y-54610000D01*
X143510000Y-54610000D02*
X142278999Y-55841001D01*
X91952883Y-58458999D02*
X90131001Y-58458999D01*
X97032883Y-53378999D02*
X91952883Y-58458999D01*
X106641001Y-53378999D02*
X97032883Y-53378999D01*
X90131001Y-58458999D02*
X88900000Y-59690000D01*
X107950000Y-52070000D02*
X106641001Y-53378999D01*
X126868999Y-50838999D02*
X125560000Y-49530000D01*
X142201001Y-50838999D02*
X126868999Y-50838999D01*
X143510000Y-49530000D02*
X142201001Y-50838999D01*
X90131001Y-55918999D02*
X88900000Y-57150000D01*
X92030881Y-55918999D02*
X90131001Y-55918999D01*
X97110881Y-50838999D02*
X92030881Y-55918999D01*
X106641001Y-50838999D02*
X97110881Y-50838999D01*
X107950000Y-49530000D02*
X106641001Y-50838999D01*
D15*
X125560000Y-57150000D02*
X123020000Y-57150000D01*
X133350000Y-64940000D02*
X125560000Y-57150000D01*
X133350000Y-73660000D02*
X133350000Y-64940000D01*
X113660999Y-47790999D02*
X123020000Y-57150000D01*
X107149001Y-47790999D02*
X113660999Y-47790999D01*
X105410000Y-49530000D02*
X107149001Y-47790999D01*
X88900000Y-49530000D02*
X91440000Y-49530000D01*
X91440000Y-49530000D02*
X105410000Y-49530000D01*
X113499001Y-75399001D02*
X111760000Y-73660000D01*
X131610999Y-75399001D02*
X113499001Y-75399001D01*
X133350000Y-73660000D02*
X131610999Y-75399001D01*
X143510000Y-57150000D02*
X140970000Y-57150000D01*
X135890000Y-62230000D02*
X135890000Y-73660000D01*
X140970000Y-57150000D02*
X135890000Y-62230000D01*
D14*
X147942300Y-79362300D02*
X80657700Y-79362300D01*
X80657700Y-48930000D01*
X87411928Y-48930000D01*
X87411928Y-50130000D01*
X87428992Y-50303254D01*
X87479528Y-50469850D01*
X87561595Y-50623386D01*
X87672038Y-50757962D01*
X87806614Y-50868405D01*
X87933608Y-50936285D01*
X87746525Y-51123368D01*
X87584010Y-51366589D01*
X87472068Y-51636842D01*
X87415000Y-51923740D01*
X87415000Y-52216260D01*
X87472068Y-52503158D01*
X87584010Y-52773411D01*
X87746525Y-53016632D01*
X87953368Y-53223475D01*
X88127760Y-53340000D01*
X87953368Y-53456525D01*
X87746525Y-53663368D01*
X87584010Y-53906589D01*
X87472068Y-54176842D01*
X87415000Y-54463740D01*
X87415000Y-54756260D01*
X87472068Y-55043158D01*
X87584010Y-55313411D01*
X87746525Y-55556632D01*
X87953368Y-55763475D01*
X88127760Y-55880000D01*
X87953368Y-55996525D01*
X87746525Y-56203368D01*
X87584010Y-56446589D01*
X87472068Y-56716842D01*
X87415000Y-57003740D01*
X87415000Y-57296260D01*
X87472068Y-57583158D01*
X87584010Y-57853411D01*
X87746525Y-58096632D01*
X87953368Y-58303475D01*
X88127760Y-58420000D01*
X87953368Y-58536525D01*
X87746525Y-58743368D01*
X87584010Y-58986589D01*
X87472068Y-59256842D01*
X87415000Y-59543740D01*
X87415000Y-59836260D01*
X87472068Y-60123158D01*
X87584010Y-60393411D01*
X87746525Y-60636632D01*
X87953368Y-60843475D01*
X88127760Y-60960000D01*
X87953368Y-61076525D01*
X87746525Y-61283368D01*
X87584010Y-61526589D01*
X87472068Y-61796842D01*
X87415000Y-62083740D01*
X87415000Y-62376260D01*
X87472068Y-62663158D01*
X87584010Y-62933411D01*
X87746525Y-63176632D01*
X87953368Y-63383475D01*
X88127760Y-63500000D01*
X87953368Y-63616525D01*
X87746525Y-63823368D01*
X87584010Y-64066589D01*
X87472068Y-64336842D01*
X87415000Y-64623740D01*
X87415000Y-64916260D01*
X87472068Y-65203158D01*
X87584010Y-65473411D01*
X87746525Y-65716632D01*
X87953368Y-65923475D01*
X88127760Y-66040000D01*
X87953368Y-66156525D01*
X87746525Y-66363368D01*
X87584010Y-66606589D01*
X87472068Y-66876842D01*
X87415000Y-67163740D01*
X87415000Y-67456260D01*
X87472068Y-67743158D01*
X87584010Y-68013411D01*
X87746525Y-68256632D01*
X87953368Y-68463475D01*
X88127760Y-68580000D01*
X87953368Y-68696525D01*
X87746525Y-68903368D01*
X87584010Y-69146589D01*
X87472068Y-69416842D01*
X87415000Y-69703740D01*
X87415000Y-69996260D01*
X87472068Y-70283158D01*
X87584010Y-70553411D01*
X87746525Y-70796632D01*
X87953368Y-71003475D01*
X88127760Y-71120000D01*
X87953368Y-71236525D01*
X87746525Y-71443368D01*
X87584010Y-71686589D01*
X87472068Y-71956842D01*
X87415000Y-72243740D01*
X87415000Y-72536260D01*
X87472068Y-72823158D01*
X87584010Y-73093411D01*
X87746525Y-73336632D01*
X87953368Y-73543475D01*
X88196589Y-73705990D01*
X88466842Y-73817932D01*
X88753740Y-73875000D01*
X89046260Y-73875000D01*
X89333158Y-73817932D01*
X89603411Y-73705990D01*
X89846632Y-73543475D01*
X89971710Y-73418397D01*
X90591208Y-73418397D01*
X90668843Y-73667472D01*
X90932883Y-73793371D01*
X91216411Y-73865339D01*
X91508531Y-73880611D01*
X91798019Y-73838599D01*
X92073747Y-73740919D01*
X92211157Y-73667472D01*
X92288792Y-73418397D01*
X91440000Y-72569605D01*
X90591208Y-73418397D01*
X89971710Y-73418397D01*
X90053475Y-73336632D01*
X90169311Y-73163271D01*
X90411603Y-73238792D01*
X91260395Y-72390000D01*
X91619605Y-72390000D01*
X92468397Y-73238792D01*
X92717472Y-73161157D01*
X92843371Y-72897117D01*
X92915339Y-72613589D01*
X92930611Y-72321469D01*
X92888599Y-72031981D01*
X92790919Y-71756253D01*
X92717472Y-71618843D01*
X92468397Y-71541208D01*
X91619605Y-72390000D01*
X91260395Y-72390000D01*
X90411603Y-71541208D01*
X90169311Y-71616729D01*
X90053475Y-71443368D01*
X89846632Y-71236525D01*
X89672240Y-71120000D01*
X89846632Y-71003475D01*
X89971710Y-70878397D01*
X90591208Y-70878397D01*
X90666514Y-71120000D01*
X90591208Y-71361603D01*
X91440000Y-72210395D01*
X92288792Y-71361603D01*
X92213486Y-71120000D01*
X92288792Y-70878397D01*
X91440000Y-70029605D01*
X90591208Y-70878397D01*
X89971710Y-70878397D01*
X90053475Y-70796632D01*
X90169311Y-70623271D01*
X90411603Y-70698792D01*
X91260395Y-69850000D01*
X91246253Y-69835858D01*
X91425858Y-69656253D01*
X91440000Y-69670395D01*
X91454143Y-69656253D01*
X91633748Y-69835858D01*
X91619605Y-69850000D01*
X92468397Y-70698792D01*
X92717472Y-70621157D01*
X92843371Y-70357117D01*
X92915339Y-70073589D01*
X92930611Y-69781469D01*
X92888599Y-69491981D01*
X92821651Y-69303001D01*
X99061576Y-69303001D01*
X99098999Y-69306687D01*
X99136422Y-69303001D01*
X99136425Y-69303001D01*
X99248377Y-69291975D01*
X99392014Y-69248403D01*
X99524391Y-69177646D01*
X99640421Y-69082423D01*
X99664283Y-69053347D01*
X107585951Y-61131679D01*
X107803740Y-61175000D01*
X108096260Y-61175000D01*
X108383158Y-61117932D01*
X108653411Y-61005990D01*
X108896632Y-60843475D01*
X109103475Y-60636632D01*
X109265990Y-60393411D01*
X109377932Y-60123158D01*
X109435000Y-59836260D01*
X109435000Y-59543740D01*
X109391679Y-59325951D01*
X113542352Y-55175279D01*
X113571422Y-55151422D01*
X113621807Y-55090028D01*
X113666645Y-55035393D01*
X113704465Y-54964636D01*
X113737402Y-54903015D01*
X113780974Y-54759378D01*
X113792000Y-54647426D01*
X113792000Y-54647423D01*
X113795686Y-54610000D01*
X113792000Y-54572577D01*
X113792000Y-51501711D01*
X113833937Y-51459774D01*
X113947205Y-51290256D01*
X114025226Y-51101898D01*
X114065000Y-50901939D01*
X114065000Y-50698061D01*
X114025226Y-50498102D01*
X113947205Y-50309744D01*
X113833937Y-50140226D01*
X113689774Y-49996063D01*
X113520256Y-49882795D01*
X113331898Y-49804774D01*
X113131939Y-49765000D01*
X112928061Y-49765000D01*
X112728102Y-49804774D01*
X112539744Y-49882795D01*
X112370226Y-49996063D01*
X112226063Y-50140226D01*
X112112795Y-50309744D01*
X112034774Y-50498102D01*
X111995000Y-50698061D01*
X111995000Y-50901939D01*
X112034774Y-51101898D01*
X112112795Y-51290256D01*
X112226063Y-51459774D01*
X112268000Y-51501711D01*
X112268001Y-54294368D01*
X109435000Y-57127370D01*
X109435000Y-57003740D01*
X109377932Y-56716842D01*
X109265990Y-56446589D01*
X109103475Y-56203368D01*
X108896632Y-55996525D01*
X108722240Y-55880000D01*
X108896632Y-55763475D01*
X109103475Y-55556632D01*
X109265990Y-55313411D01*
X109377932Y-55043158D01*
X109435000Y-54756260D01*
X109435000Y-54463740D01*
X109377932Y-54176842D01*
X109265990Y-53906589D01*
X109103475Y-53663368D01*
X108896632Y-53456525D01*
X108722240Y-53340000D01*
X108896632Y-53223475D01*
X109103475Y-53016632D01*
X109265990Y-52773411D01*
X109377932Y-52503158D01*
X109435000Y-52216260D01*
X109435000Y-51923740D01*
X109377932Y-51636842D01*
X109265990Y-51366589D01*
X109103475Y-51123368D01*
X108896632Y-50916525D01*
X108722240Y-50800000D01*
X108896632Y-50683475D01*
X109103475Y-50476632D01*
X109265990Y-50233411D01*
X109377932Y-49963158D01*
X109435000Y-49676260D01*
X109435000Y-49383740D01*
X109377932Y-49096842D01*
X109363085Y-49060999D01*
X113134949Y-49060999D01*
X121575918Y-57501969D01*
X121592068Y-57583158D01*
X121704010Y-57853411D01*
X121866525Y-58096632D01*
X122073368Y-58303475D01*
X122247760Y-58420000D01*
X122073368Y-58536525D01*
X121866525Y-58743368D01*
X121704010Y-58986589D01*
X121592068Y-59256842D01*
X121535000Y-59543740D01*
X121535000Y-59836260D01*
X121592068Y-60123158D01*
X121704010Y-60393411D01*
X121866525Y-60636632D01*
X122073368Y-60843475D01*
X122316589Y-61005990D01*
X122586842Y-61117932D01*
X122873740Y-61175000D01*
X123166260Y-61175000D01*
X123453158Y-61117932D01*
X123723411Y-61005990D01*
X123966632Y-60843475D01*
X124173475Y-60636632D01*
X124290000Y-60462240D01*
X124406525Y-60636632D01*
X124613368Y-60843475D01*
X124856589Y-61005990D01*
X125126842Y-61117932D01*
X125413740Y-61175000D01*
X125706260Y-61175000D01*
X125993158Y-61117932D01*
X126263411Y-61005990D01*
X126506632Y-60843475D01*
X126713475Y-60636632D01*
X126875990Y-60393411D01*
X126914467Y-60300518D01*
X132080001Y-65466053D01*
X132080000Y-72887760D01*
X132034010Y-72956589D01*
X131922068Y-73226842D01*
X131905919Y-73308030D01*
X131084949Y-74129001D01*
X120781712Y-74129001D01*
X120821481Y-74016891D01*
X120700814Y-73787000D01*
X119507000Y-73787000D01*
X119507000Y-73807000D01*
X119253000Y-73807000D01*
X119253000Y-73787000D01*
X119233000Y-73787000D01*
X119233000Y-73533000D01*
X119253000Y-73533000D01*
X119253000Y-72339845D01*
X119507000Y-72339845D01*
X119507000Y-73533000D01*
X120700814Y-73533000D01*
X120821481Y-73303109D01*
X120724157Y-73028748D01*
X120575178Y-72778645D01*
X120380269Y-72562412D01*
X120146920Y-72388359D01*
X119884099Y-72263175D01*
X119736890Y-72218524D01*
X119507000Y-72339845D01*
X119253000Y-72339845D01*
X119023110Y-72218524D01*
X118875901Y-72263175D01*
X118613080Y-72388359D01*
X118379731Y-72562412D01*
X118184822Y-72778645D01*
X118115195Y-72895534D01*
X117993475Y-72713368D01*
X117786632Y-72506525D01*
X117543411Y-72344010D01*
X117273158Y-72232068D01*
X116986260Y-72175000D01*
X116693740Y-72175000D01*
X116406842Y-72232068D01*
X116136589Y-72344010D01*
X115893368Y-72506525D01*
X115686525Y-72713368D01*
X115570000Y-72887760D01*
X115453475Y-72713368D01*
X115246632Y-72506525D01*
X115003411Y-72344010D01*
X114733158Y-72232068D01*
X114446260Y-72175000D01*
X114153740Y-72175000D01*
X113866842Y-72232068D01*
X113596589Y-72344010D01*
X113353368Y-72506525D01*
X113221513Y-72638380D01*
X113199502Y-72565820D01*
X113140537Y-72455506D01*
X113061185Y-72358815D01*
X112964494Y-72279463D01*
X112854180Y-72220498D01*
X112734482Y-72184188D01*
X112610000Y-72171928D01*
X110910000Y-72171928D01*
X110785518Y-72184188D01*
X110665820Y-72220498D01*
X110555506Y-72279463D01*
X110458815Y-72358815D01*
X110379463Y-72455506D01*
X110320498Y-72565820D01*
X110284188Y-72685518D01*
X110271928Y-72810000D01*
X110271928Y-74510000D01*
X110284188Y-74634482D01*
X110320498Y-74754180D01*
X110379463Y-74864494D01*
X110458815Y-74961185D01*
X110555506Y-75040537D01*
X110665820Y-75099502D01*
X110785518Y-75135812D01*
X110910000Y-75148072D01*
X111452021Y-75148072D01*
X112556868Y-76252920D01*
X112596631Y-76301371D01*
X112645081Y-76341133D01*
X112645084Y-76341136D01*
X112695087Y-76382172D01*
X112790013Y-76460076D01*
X113010640Y-76578003D01*
X113010642Y-76578004D01*
X113250038Y-76650624D01*
X113499001Y-76675145D01*
X113561381Y-76669001D01*
X131548626Y-76669001D01*
X131610999Y-76675144D01*
X131673372Y-76669001D01*
X131673379Y-76669001D01*
X131859962Y-76650624D01*
X132099358Y-76578004D01*
X132319987Y-76460076D01*
X132513369Y-76301371D01*
X132553140Y-76252910D01*
X133701970Y-75104081D01*
X133783158Y-75087932D01*
X134053411Y-74975990D01*
X134296632Y-74813475D01*
X134428487Y-74681620D01*
X134450498Y-74754180D01*
X134509463Y-74864494D01*
X134588815Y-74961185D01*
X134685506Y-75040537D01*
X134795820Y-75099502D01*
X134915518Y-75135812D01*
X135040000Y-75148072D01*
X136740000Y-75148072D01*
X136864482Y-75135812D01*
X136984180Y-75099502D01*
X137094494Y-75040537D01*
X137191185Y-74961185D01*
X137270537Y-74864494D01*
X137329502Y-74754180D01*
X137365812Y-74634482D01*
X137378072Y-74510000D01*
X137378072Y-72810000D01*
X137365812Y-72685518D01*
X137329502Y-72565820D01*
X137270537Y-72455506D01*
X137191185Y-72358815D01*
X137160000Y-72333222D01*
X137160000Y-62756050D01*
X139615533Y-60300518D01*
X139654010Y-60393411D01*
X139816525Y-60636632D01*
X140023368Y-60843475D01*
X140266589Y-61005990D01*
X140536842Y-61117932D01*
X140823740Y-61175000D01*
X141116260Y-61175000D01*
X141403158Y-61117932D01*
X141673411Y-61005990D01*
X141916632Y-60843475D01*
X142123475Y-60636632D01*
X142240000Y-60462240D01*
X142356525Y-60636632D01*
X142563368Y-60843475D01*
X142806589Y-61005990D01*
X143076842Y-61117932D01*
X143363740Y-61175000D01*
X143656260Y-61175000D01*
X143943158Y-61117932D01*
X144213411Y-61005990D01*
X144456632Y-60843475D01*
X144663475Y-60636632D01*
X144825990Y-60393411D01*
X144937932Y-60123158D01*
X144995000Y-59836260D01*
X144995000Y-59543740D01*
X144937932Y-59256842D01*
X144825990Y-58986589D01*
X144663475Y-58743368D01*
X144456632Y-58536525D01*
X144282240Y-58420000D01*
X144456632Y-58303475D01*
X144663475Y-58096632D01*
X144825990Y-57853411D01*
X144937932Y-57583158D01*
X144995000Y-57296260D01*
X144995000Y-57003740D01*
X144937932Y-56716842D01*
X144825990Y-56446589D01*
X144663475Y-56203368D01*
X144456632Y-55996525D01*
X144282240Y-55880000D01*
X144456632Y-55763475D01*
X144663475Y-55556632D01*
X144825990Y-55313411D01*
X144937932Y-55043158D01*
X144995000Y-54756260D01*
X144995000Y-54463740D01*
X144937932Y-54176842D01*
X144825990Y-53906589D01*
X144663475Y-53663368D01*
X144456632Y-53456525D01*
X144283271Y-53340689D01*
X144358792Y-53098397D01*
X143510000Y-52249605D01*
X142661208Y-53098397D01*
X142736729Y-53340689D01*
X142563368Y-53456525D01*
X142356525Y-53663368D01*
X142240000Y-53837760D01*
X142123475Y-53663368D01*
X141916632Y-53456525D01*
X141743271Y-53340689D01*
X141818792Y-53098397D01*
X140970000Y-52249605D01*
X140955858Y-52263748D01*
X140776253Y-52084143D01*
X140790395Y-52070000D01*
X140776253Y-52055858D01*
X140955858Y-51876253D01*
X140970000Y-51890395D01*
X140984143Y-51876253D01*
X141163748Y-52055858D01*
X141149605Y-52070000D01*
X141998397Y-52918792D01*
X142240000Y-52843486D01*
X142481603Y-52918792D01*
X143330395Y-52070000D01*
X143689605Y-52070000D01*
X144538397Y-52918792D01*
X144787472Y-52841157D01*
X144913371Y-52577117D01*
X144985339Y-52293589D01*
X145000611Y-52001469D01*
X144958599Y-51711981D01*
X144860919Y-51436253D01*
X144787472Y-51298843D01*
X144538397Y-51221208D01*
X143689605Y-52070000D01*
X143330395Y-52070000D01*
X143316253Y-52055858D01*
X143495858Y-51876253D01*
X143510000Y-51890395D01*
X144358792Y-51041603D01*
X144283271Y-50799311D01*
X144456632Y-50683475D01*
X144663475Y-50476632D01*
X144825990Y-50233411D01*
X144937932Y-49963158D01*
X144995000Y-49676260D01*
X144995000Y-49383740D01*
X144937932Y-49096842D01*
X144825990Y-48826589D01*
X144663475Y-48583368D01*
X144456632Y-48376525D01*
X144213411Y-48214010D01*
X143943158Y-48102068D01*
X143656260Y-48045000D01*
X143363740Y-48045000D01*
X143076842Y-48102068D01*
X142806589Y-48214010D01*
X142563368Y-48376525D01*
X142376285Y-48563608D01*
X142308405Y-48436614D01*
X142197962Y-48302038D01*
X142063386Y-48191595D01*
X141909850Y-48109528D01*
X141743254Y-48058992D01*
X141570000Y-48041928D01*
X140559558Y-48041928D01*
X140304283Y-47786653D01*
X140280421Y-47757577D01*
X140164391Y-47662354D01*
X140032014Y-47591597D01*
X139888377Y-47548025D01*
X139776425Y-47536999D01*
X139776422Y-47536999D01*
X139738999Y-47533313D01*
X139701576Y-47536999D01*
X124288423Y-47536999D01*
X124251000Y-47533313D01*
X124213577Y-47536999D01*
X124213575Y-47536999D01*
X124101623Y-47548025D01*
X123957986Y-47591597D01*
X123825609Y-47662354D01*
X123709579Y-47757577D01*
X123685722Y-47786647D01*
X123430441Y-48041928D01*
X122420000Y-48041928D01*
X122246746Y-48058992D01*
X122080150Y-48109528D01*
X121926614Y-48191595D01*
X121792038Y-48302038D01*
X121681595Y-48436614D01*
X121599528Y-48590150D01*
X121548992Y-48756746D01*
X121531928Y-48930000D01*
X121531928Y-50130000D01*
X121548992Y-50303254D01*
X121599528Y-50469850D01*
X121681595Y-50623386D01*
X121792038Y-50757962D01*
X121926614Y-50868405D01*
X122080150Y-50950472D01*
X122189293Y-50983580D01*
X122171208Y-51041603D01*
X123020000Y-51890395D01*
X123868792Y-51041603D01*
X123850707Y-50983580D01*
X123959850Y-50950472D01*
X124113386Y-50868405D01*
X124247962Y-50757962D01*
X124358405Y-50623386D01*
X124426285Y-50496392D01*
X124613368Y-50683475D01*
X124786729Y-50799311D01*
X124711208Y-51041603D01*
X125560000Y-51890395D01*
X125574143Y-51876253D01*
X125753748Y-52055858D01*
X125739605Y-52070000D01*
X125753748Y-52084143D01*
X125574143Y-52263748D01*
X125560000Y-52249605D01*
X125545858Y-52263748D01*
X125366253Y-52084143D01*
X125380395Y-52070000D01*
X124531603Y-51221208D01*
X124290000Y-51296514D01*
X124048397Y-51221208D01*
X123199605Y-52070000D01*
X123213748Y-52084143D01*
X123034143Y-52263748D01*
X123020000Y-52249605D01*
X122171208Y-53098397D01*
X122246729Y-53340689D01*
X122073368Y-53456525D01*
X121866525Y-53663368D01*
X121704010Y-53906589D01*
X121665533Y-53999482D01*
X119804582Y-52138531D01*
X121529389Y-52138531D01*
X121571401Y-52428019D01*
X121669081Y-52703747D01*
X121742528Y-52841157D01*
X121991603Y-52918792D01*
X122840395Y-52070000D01*
X121991603Y-51221208D01*
X121742528Y-51298843D01*
X121616629Y-51562883D01*
X121544661Y-51846411D01*
X121529389Y-52138531D01*
X119804582Y-52138531D01*
X114603140Y-46937090D01*
X114563369Y-46888629D01*
X114369987Y-46729924D01*
X114149358Y-46611996D01*
X113909962Y-46539376D01*
X113723379Y-46520999D01*
X113723372Y-46520999D01*
X113660999Y-46514856D01*
X113598626Y-46520999D01*
X107211381Y-46520999D01*
X107149001Y-46514855D01*
X107086621Y-46520999D01*
X106900038Y-46539376D01*
X106660642Y-46611996D01*
X106440013Y-46729924D01*
X106345087Y-46807828D01*
X106295084Y-46848864D01*
X106295083Y-46848865D01*
X106246631Y-46888629D01*
X106206868Y-46937080D01*
X105102021Y-48041928D01*
X104810000Y-48041928D01*
X104636746Y-48058992D01*
X104470150Y-48109528D01*
X104316614Y-48191595D01*
X104233262Y-48260000D01*
X92212240Y-48260000D01*
X92143411Y-48214010D01*
X91873158Y-48102068D01*
X91586260Y-48045000D01*
X91293740Y-48045000D01*
X91006842Y-48102068D01*
X90736589Y-48214010D01*
X90667760Y-48260000D01*
X90076738Y-48260000D01*
X89993386Y-48191595D01*
X89839850Y-48109528D01*
X89673254Y-48058992D01*
X89500000Y-48041928D01*
X88300000Y-48041928D01*
X88126746Y-48058992D01*
X87960150Y-48109528D01*
X87806614Y-48191595D01*
X87672038Y-48302038D01*
X87561595Y-48436614D01*
X87479528Y-48590150D01*
X87428992Y-48756746D01*
X87411928Y-48930000D01*
X80657700Y-48930000D01*
X80657700Y-42557700D01*
X147942301Y-42557700D01*
X147942300Y-79362300D01*
G04 #@! TA.AperFunction,Conductor*
D16*
G36*
X147942300Y-79362300D02*
G01*
X80657700Y-79362300D01*
X80657700Y-48930000D01*
X87411928Y-48930000D01*
X87411928Y-50130000D01*
X87428992Y-50303254D01*
X87479528Y-50469850D01*
X87561595Y-50623386D01*
X87672038Y-50757962D01*
X87806614Y-50868405D01*
X87933608Y-50936285D01*
X87746525Y-51123368D01*
X87584010Y-51366589D01*
X87472068Y-51636842D01*
X87415000Y-51923740D01*
X87415000Y-52216260D01*
X87472068Y-52503158D01*
X87584010Y-52773411D01*
X87746525Y-53016632D01*
X87953368Y-53223475D01*
X88127760Y-53340000D01*
X87953368Y-53456525D01*
X87746525Y-53663368D01*
X87584010Y-53906589D01*
X87472068Y-54176842D01*
X87415000Y-54463740D01*
X87415000Y-54756260D01*
X87472068Y-55043158D01*
X87584010Y-55313411D01*
X87746525Y-55556632D01*
X87953368Y-55763475D01*
X88127760Y-55880000D01*
X87953368Y-55996525D01*
X87746525Y-56203368D01*
X87584010Y-56446589D01*
X87472068Y-56716842D01*
X87415000Y-57003740D01*
X87415000Y-57296260D01*
X87472068Y-57583158D01*
X87584010Y-57853411D01*
X87746525Y-58096632D01*
X87953368Y-58303475D01*
X88127760Y-58420000D01*
X87953368Y-58536525D01*
X87746525Y-58743368D01*
X87584010Y-58986589D01*
X87472068Y-59256842D01*
X87415000Y-59543740D01*
X87415000Y-59836260D01*
X87472068Y-60123158D01*
X87584010Y-60393411D01*
X87746525Y-60636632D01*
X87953368Y-60843475D01*
X88127760Y-60960000D01*
X87953368Y-61076525D01*
X87746525Y-61283368D01*
X87584010Y-61526589D01*
X87472068Y-61796842D01*
X87415000Y-62083740D01*
X87415000Y-62376260D01*
X87472068Y-62663158D01*
X87584010Y-62933411D01*
X87746525Y-63176632D01*
X87953368Y-63383475D01*
X88127760Y-63500000D01*
X87953368Y-63616525D01*
X87746525Y-63823368D01*
X87584010Y-64066589D01*
X87472068Y-64336842D01*
X87415000Y-64623740D01*
X87415000Y-64916260D01*
X87472068Y-65203158D01*
X87584010Y-65473411D01*
X87746525Y-65716632D01*
X87953368Y-65923475D01*
X88127760Y-66040000D01*
X87953368Y-66156525D01*
X87746525Y-66363368D01*
X87584010Y-66606589D01*
X87472068Y-66876842D01*
X87415000Y-67163740D01*
X87415000Y-67456260D01*
X87472068Y-67743158D01*
X87584010Y-68013411D01*
X87746525Y-68256632D01*
X87953368Y-68463475D01*
X88127760Y-68580000D01*
X87953368Y-68696525D01*
X87746525Y-68903368D01*
X87584010Y-69146589D01*
X87472068Y-69416842D01*
X87415000Y-69703740D01*
X87415000Y-69996260D01*
X87472068Y-70283158D01*
X87584010Y-70553411D01*
X87746525Y-70796632D01*
X87953368Y-71003475D01*
X88127760Y-71120000D01*
X87953368Y-71236525D01*
X87746525Y-71443368D01*
X87584010Y-71686589D01*
X87472068Y-71956842D01*
X87415000Y-72243740D01*
X87415000Y-72536260D01*
X87472068Y-72823158D01*
X87584010Y-73093411D01*
X87746525Y-73336632D01*
X87953368Y-73543475D01*
X88196589Y-73705990D01*
X88466842Y-73817932D01*
X88753740Y-73875000D01*
X89046260Y-73875000D01*
X89333158Y-73817932D01*
X89603411Y-73705990D01*
X89846632Y-73543475D01*
X89971710Y-73418397D01*
X90591208Y-73418397D01*
X90668843Y-73667472D01*
X90932883Y-73793371D01*
X91216411Y-73865339D01*
X91508531Y-73880611D01*
X91798019Y-73838599D01*
X92073747Y-73740919D01*
X92211157Y-73667472D01*
X92288792Y-73418397D01*
X91440000Y-72569605D01*
X90591208Y-73418397D01*
X89971710Y-73418397D01*
X90053475Y-73336632D01*
X90169311Y-73163271D01*
X90411603Y-73238792D01*
X91260395Y-72390000D01*
X91619605Y-72390000D01*
X92468397Y-73238792D01*
X92717472Y-73161157D01*
X92843371Y-72897117D01*
X92915339Y-72613589D01*
X92930611Y-72321469D01*
X92888599Y-72031981D01*
X92790919Y-71756253D01*
X92717472Y-71618843D01*
X92468397Y-71541208D01*
X91619605Y-72390000D01*
X91260395Y-72390000D01*
X90411603Y-71541208D01*
X90169311Y-71616729D01*
X90053475Y-71443368D01*
X89846632Y-71236525D01*
X89672240Y-71120000D01*
X89846632Y-71003475D01*
X89971710Y-70878397D01*
X90591208Y-70878397D01*
X90666514Y-71120000D01*
X90591208Y-71361603D01*
X91440000Y-72210395D01*
X92288792Y-71361603D01*
X92213486Y-71120000D01*
X92288792Y-70878397D01*
X91440000Y-70029605D01*
X90591208Y-70878397D01*
X89971710Y-70878397D01*
X90053475Y-70796632D01*
X90169311Y-70623271D01*
X90411603Y-70698792D01*
X91260395Y-69850000D01*
X91246253Y-69835858D01*
X91425858Y-69656253D01*
X91440000Y-69670395D01*
X91454143Y-69656253D01*
X91633748Y-69835858D01*
X91619605Y-69850000D01*
X92468397Y-70698792D01*
X92717472Y-70621157D01*
X92843371Y-70357117D01*
X92915339Y-70073589D01*
X92930611Y-69781469D01*
X92888599Y-69491981D01*
X92821651Y-69303001D01*
X99061576Y-69303001D01*
X99098999Y-69306687D01*
X99136422Y-69303001D01*
X99136425Y-69303001D01*
X99248377Y-69291975D01*
X99392014Y-69248403D01*
X99524391Y-69177646D01*
X99640421Y-69082423D01*
X99664283Y-69053347D01*
X107585951Y-61131679D01*
X107803740Y-61175000D01*
X108096260Y-61175000D01*
X108383158Y-61117932D01*
X108653411Y-61005990D01*
X108896632Y-60843475D01*
X109103475Y-60636632D01*
X109265990Y-60393411D01*
X109377932Y-60123158D01*
X109435000Y-59836260D01*
X109435000Y-59543740D01*
X109391679Y-59325951D01*
X113542352Y-55175279D01*
X113571422Y-55151422D01*
X113621807Y-55090028D01*
X113666645Y-55035393D01*
X113704465Y-54964636D01*
X113737402Y-54903015D01*
X113780974Y-54759378D01*
X113792000Y-54647426D01*
X113792000Y-54647423D01*
X113795686Y-54610000D01*
X113792000Y-54572577D01*
X113792000Y-51501711D01*
X113833937Y-51459774D01*
X113947205Y-51290256D01*
X114025226Y-51101898D01*
X114065000Y-50901939D01*
X114065000Y-50698061D01*
X114025226Y-50498102D01*
X113947205Y-50309744D01*
X113833937Y-50140226D01*
X113689774Y-49996063D01*
X113520256Y-49882795D01*
X113331898Y-49804774D01*
X113131939Y-49765000D01*
X112928061Y-49765000D01*
X112728102Y-49804774D01*
X112539744Y-49882795D01*
X112370226Y-49996063D01*
X112226063Y-50140226D01*
X112112795Y-50309744D01*
X112034774Y-50498102D01*
X111995000Y-50698061D01*
X111995000Y-50901939D01*
X112034774Y-51101898D01*
X112112795Y-51290256D01*
X112226063Y-51459774D01*
X112268000Y-51501711D01*
X112268001Y-54294368D01*
X109435000Y-57127370D01*
X109435000Y-57003740D01*
X109377932Y-56716842D01*
X109265990Y-56446589D01*
X109103475Y-56203368D01*
X108896632Y-55996525D01*
X108722240Y-55880000D01*
X108896632Y-55763475D01*
X109103475Y-55556632D01*
X109265990Y-55313411D01*
X109377932Y-55043158D01*
X109435000Y-54756260D01*
X109435000Y-54463740D01*
X109377932Y-54176842D01*
X109265990Y-53906589D01*
X109103475Y-53663368D01*
X108896632Y-53456525D01*
X108722240Y-53340000D01*
X108896632Y-53223475D01*
X109103475Y-53016632D01*
X109265990Y-52773411D01*
X109377932Y-52503158D01*
X109435000Y-52216260D01*
X109435000Y-51923740D01*
X109377932Y-51636842D01*
X109265990Y-51366589D01*
X109103475Y-51123368D01*
X108896632Y-50916525D01*
X108722240Y-50800000D01*
X108896632Y-50683475D01*
X109103475Y-50476632D01*
X109265990Y-50233411D01*
X109377932Y-49963158D01*
X109435000Y-49676260D01*
X109435000Y-49383740D01*
X109377932Y-49096842D01*
X109363085Y-49060999D01*
X113134949Y-49060999D01*
X121575918Y-57501969D01*
X121592068Y-57583158D01*
X121704010Y-57853411D01*
X121866525Y-58096632D01*
X122073368Y-58303475D01*
X122247760Y-58420000D01*
X122073368Y-58536525D01*
X121866525Y-58743368D01*
X121704010Y-58986589D01*
X121592068Y-59256842D01*
X121535000Y-59543740D01*
X121535000Y-59836260D01*
X121592068Y-60123158D01*
X121704010Y-60393411D01*
X121866525Y-60636632D01*
X122073368Y-60843475D01*
X122316589Y-61005990D01*
X122586842Y-61117932D01*
X122873740Y-61175000D01*
X123166260Y-61175000D01*
X123453158Y-61117932D01*
X123723411Y-61005990D01*
X123966632Y-60843475D01*
X124173475Y-60636632D01*
X124290000Y-60462240D01*
X124406525Y-60636632D01*
X124613368Y-60843475D01*
X124856589Y-61005990D01*
X125126842Y-61117932D01*
X125413740Y-61175000D01*
X125706260Y-61175000D01*
X125993158Y-61117932D01*
X126263411Y-61005990D01*
X126506632Y-60843475D01*
X126713475Y-60636632D01*
X126875990Y-60393411D01*
X126914467Y-60300518D01*
X132080001Y-65466053D01*
X132080000Y-72887760D01*
X132034010Y-72956589D01*
X131922068Y-73226842D01*
X131905919Y-73308030D01*
X131084949Y-74129001D01*
X120781712Y-74129001D01*
X120821481Y-74016891D01*
X120700814Y-73787000D01*
X119507000Y-73787000D01*
X119507000Y-73807000D01*
X119253000Y-73807000D01*
X119253000Y-73787000D01*
X119233000Y-73787000D01*
X119233000Y-73533000D01*
X119253000Y-73533000D01*
X119253000Y-72339845D01*
X119507000Y-72339845D01*
X119507000Y-73533000D01*
X120700814Y-73533000D01*
X120821481Y-73303109D01*
X120724157Y-73028748D01*
X120575178Y-72778645D01*
X120380269Y-72562412D01*
X120146920Y-72388359D01*
X119884099Y-72263175D01*
X119736890Y-72218524D01*
X119507000Y-72339845D01*
X119253000Y-72339845D01*
X119023110Y-72218524D01*
X118875901Y-72263175D01*
X118613080Y-72388359D01*
X118379731Y-72562412D01*
X118184822Y-72778645D01*
X118115195Y-72895534D01*
X117993475Y-72713368D01*
X117786632Y-72506525D01*
X117543411Y-72344010D01*
X117273158Y-72232068D01*
X116986260Y-72175000D01*
X116693740Y-72175000D01*
X116406842Y-72232068D01*
X116136589Y-72344010D01*
X115893368Y-72506525D01*
X115686525Y-72713368D01*
X115570000Y-72887760D01*
X115453475Y-72713368D01*
X115246632Y-72506525D01*
X115003411Y-72344010D01*
X114733158Y-72232068D01*
X114446260Y-72175000D01*
X114153740Y-72175000D01*
X113866842Y-72232068D01*
X113596589Y-72344010D01*
X113353368Y-72506525D01*
X113221513Y-72638380D01*
X113199502Y-72565820D01*
X113140537Y-72455506D01*
X113061185Y-72358815D01*
X112964494Y-72279463D01*
X112854180Y-72220498D01*
X112734482Y-72184188D01*
X112610000Y-72171928D01*
X110910000Y-72171928D01*
X110785518Y-72184188D01*
X110665820Y-72220498D01*
X110555506Y-72279463D01*
X110458815Y-72358815D01*
X110379463Y-72455506D01*
X110320498Y-72565820D01*
X110284188Y-72685518D01*
X110271928Y-72810000D01*
X110271928Y-74510000D01*
X110284188Y-74634482D01*
X110320498Y-74754180D01*
X110379463Y-74864494D01*
X110458815Y-74961185D01*
X110555506Y-75040537D01*
X110665820Y-75099502D01*
X110785518Y-75135812D01*
X110910000Y-75148072D01*
X111452021Y-75148072D01*
X112556868Y-76252920D01*
X112596631Y-76301371D01*
X112645081Y-76341133D01*
X112645084Y-76341136D01*
X112695087Y-76382172D01*
X112790013Y-76460076D01*
X113010640Y-76578003D01*
X113010642Y-76578004D01*
X113250038Y-76650624D01*
X113499001Y-76675145D01*
X113561381Y-76669001D01*
X131548626Y-76669001D01*
X131610999Y-76675144D01*
X131673372Y-76669001D01*
X131673379Y-76669001D01*
X131859962Y-76650624D01*
X132099358Y-76578004D01*
X132319987Y-76460076D01*
X132513369Y-76301371D01*
X132553140Y-76252910D01*
X133701970Y-75104081D01*
X133783158Y-75087932D01*
X134053411Y-74975990D01*
X134296632Y-74813475D01*
X134428487Y-74681620D01*
X134450498Y-74754180D01*
X134509463Y-74864494D01*
X134588815Y-74961185D01*
X134685506Y-75040537D01*
X134795820Y-75099502D01*
X134915518Y-75135812D01*
X135040000Y-75148072D01*
X136740000Y-75148072D01*
X136864482Y-75135812D01*
X136984180Y-75099502D01*
X137094494Y-75040537D01*
X137191185Y-74961185D01*
X137270537Y-74864494D01*
X137329502Y-74754180D01*
X137365812Y-74634482D01*
X137378072Y-74510000D01*
X137378072Y-72810000D01*
X137365812Y-72685518D01*
X137329502Y-72565820D01*
X137270537Y-72455506D01*
X137191185Y-72358815D01*
X137160000Y-72333222D01*
X137160000Y-62756050D01*
X139615533Y-60300518D01*
X139654010Y-60393411D01*
X139816525Y-60636632D01*
X140023368Y-60843475D01*
X140266589Y-61005990D01*
X140536842Y-61117932D01*
X140823740Y-61175000D01*
X141116260Y-61175000D01*
X141403158Y-61117932D01*
X141673411Y-61005990D01*
X141916632Y-60843475D01*
X142123475Y-60636632D01*
X142240000Y-60462240D01*
X142356525Y-60636632D01*
X142563368Y-60843475D01*
X142806589Y-61005990D01*
X143076842Y-61117932D01*
X143363740Y-61175000D01*
X143656260Y-61175000D01*
X143943158Y-61117932D01*
X144213411Y-61005990D01*
X144456632Y-60843475D01*
X144663475Y-60636632D01*
X144825990Y-60393411D01*
X144937932Y-60123158D01*
X144995000Y-59836260D01*
X144995000Y-59543740D01*
X144937932Y-59256842D01*
X144825990Y-58986589D01*
X144663475Y-58743368D01*
X144456632Y-58536525D01*
X144282240Y-58420000D01*
X144456632Y-58303475D01*
X144663475Y-58096632D01*
X144825990Y-57853411D01*
X144937932Y-57583158D01*
X144995000Y-57296260D01*
X144995000Y-57003740D01*
X144937932Y-56716842D01*
X144825990Y-56446589D01*
X144663475Y-56203368D01*
X144456632Y-55996525D01*
X144282240Y-55880000D01*
X144456632Y-55763475D01*
X144663475Y-55556632D01*
X144825990Y-55313411D01*
X144937932Y-55043158D01*
X144995000Y-54756260D01*
X144995000Y-54463740D01*
X144937932Y-54176842D01*
X144825990Y-53906589D01*
X144663475Y-53663368D01*
X144456632Y-53456525D01*
X144283271Y-53340689D01*
X144358792Y-53098397D01*
X143510000Y-52249605D01*
X142661208Y-53098397D01*
X142736729Y-53340689D01*
X142563368Y-53456525D01*
X142356525Y-53663368D01*
X142240000Y-53837760D01*
X142123475Y-53663368D01*
X141916632Y-53456525D01*
X141743271Y-53340689D01*
X141818792Y-53098397D01*
X140970000Y-52249605D01*
X140955858Y-52263748D01*
X140776253Y-52084143D01*
X140790395Y-52070000D01*
X140776253Y-52055858D01*
X140955858Y-51876253D01*
X140970000Y-51890395D01*
X140984143Y-51876253D01*
X141163748Y-52055858D01*
X141149605Y-52070000D01*
X141998397Y-52918792D01*
X142240000Y-52843486D01*
X142481603Y-52918792D01*
X143330395Y-52070000D01*
X143689605Y-52070000D01*
X144538397Y-52918792D01*
X144787472Y-52841157D01*
X144913371Y-52577117D01*
X144985339Y-52293589D01*
X145000611Y-52001469D01*
X144958599Y-51711981D01*
X144860919Y-51436253D01*
X144787472Y-51298843D01*
X144538397Y-51221208D01*
X143689605Y-52070000D01*
X143330395Y-52070000D01*
X143316253Y-52055858D01*
X143495858Y-51876253D01*
X143510000Y-51890395D01*
X144358792Y-51041603D01*
X144283271Y-50799311D01*
X144456632Y-50683475D01*
X144663475Y-50476632D01*
X144825990Y-50233411D01*
X144937932Y-49963158D01*
X144995000Y-49676260D01*
X144995000Y-49383740D01*
X144937932Y-49096842D01*
X144825990Y-48826589D01*
X144663475Y-48583368D01*
X144456632Y-48376525D01*
X144213411Y-48214010D01*
X143943158Y-48102068D01*
X143656260Y-48045000D01*
X143363740Y-48045000D01*
X143076842Y-48102068D01*
X142806589Y-48214010D01*
X142563368Y-48376525D01*
X142376285Y-48563608D01*
X142308405Y-48436614D01*
X142197962Y-48302038D01*
X142063386Y-48191595D01*
X141909850Y-48109528D01*
X141743254Y-48058992D01*
X141570000Y-48041928D01*
X140559558Y-48041928D01*
X140304283Y-47786653D01*
X140280421Y-47757577D01*
X140164391Y-47662354D01*
X140032014Y-47591597D01*
X139888377Y-47548025D01*
X139776425Y-47536999D01*
X139776422Y-47536999D01*
X139738999Y-47533313D01*
X139701576Y-47536999D01*
X124288423Y-47536999D01*
X124251000Y-47533313D01*
X124213577Y-47536999D01*
X124213575Y-47536999D01*
X124101623Y-47548025D01*
X123957986Y-47591597D01*
X123825609Y-47662354D01*
X123709579Y-47757577D01*
X123685722Y-47786647D01*
X123430441Y-48041928D01*
X122420000Y-48041928D01*
X122246746Y-48058992D01*
X122080150Y-48109528D01*
X121926614Y-48191595D01*
X121792038Y-48302038D01*
X121681595Y-48436614D01*
X121599528Y-48590150D01*
X121548992Y-48756746D01*
X121531928Y-48930000D01*
X121531928Y-50130000D01*
X121548992Y-50303254D01*
X121599528Y-50469850D01*
X121681595Y-50623386D01*
X121792038Y-50757962D01*
X121926614Y-50868405D01*
X122080150Y-50950472D01*
X122189293Y-50983580D01*
X122171208Y-51041603D01*
X123020000Y-51890395D01*
X123868792Y-51041603D01*
X123850707Y-50983580D01*
X123959850Y-50950472D01*
X124113386Y-50868405D01*
X124247962Y-50757962D01*
X124358405Y-50623386D01*
X124426285Y-50496392D01*
X124613368Y-50683475D01*
X124786729Y-50799311D01*
X124711208Y-51041603D01*
X125560000Y-51890395D01*
X125574143Y-51876253D01*
X125753748Y-52055858D01*
X125739605Y-52070000D01*
X125753748Y-52084143D01*
X125574143Y-52263748D01*
X125560000Y-52249605D01*
X125545858Y-52263748D01*
X125366253Y-52084143D01*
X125380395Y-52070000D01*
X124531603Y-51221208D01*
X124290000Y-51296514D01*
X124048397Y-51221208D01*
X123199605Y-52070000D01*
X123213748Y-52084143D01*
X123034143Y-52263748D01*
X123020000Y-52249605D01*
X122171208Y-53098397D01*
X122246729Y-53340689D01*
X122073368Y-53456525D01*
X121866525Y-53663368D01*
X121704010Y-53906589D01*
X121665533Y-53999482D01*
X119804582Y-52138531D01*
X121529389Y-52138531D01*
X121571401Y-52428019D01*
X121669081Y-52703747D01*
X121742528Y-52841157D01*
X121991603Y-52918792D01*
X122840395Y-52070000D01*
X121991603Y-51221208D01*
X121742528Y-51298843D01*
X121616629Y-51562883D01*
X121544661Y-51846411D01*
X121529389Y-52138531D01*
X119804582Y-52138531D01*
X114603140Y-46937090D01*
X114563369Y-46888629D01*
X114369987Y-46729924D01*
X114149358Y-46611996D01*
X113909962Y-46539376D01*
X113723379Y-46520999D01*
X113723372Y-46520999D01*
X113660999Y-46514856D01*
X113598626Y-46520999D01*
X107211381Y-46520999D01*
X107149001Y-46514855D01*
X107086621Y-46520999D01*
X106900038Y-46539376D01*
X106660642Y-46611996D01*
X106440013Y-46729924D01*
X106345087Y-46807828D01*
X106295084Y-46848864D01*
X106295083Y-46848865D01*
X106246631Y-46888629D01*
X106206868Y-46937080D01*
X105102021Y-48041928D01*
X104810000Y-48041928D01*
X104636746Y-48058992D01*
X104470150Y-48109528D01*
X104316614Y-48191595D01*
X104233262Y-48260000D01*
X92212240Y-48260000D01*
X92143411Y-48214010D01*
X91873158Y-48102068D01*
X91586260Y-48045000D01*
X91293740Y-48045000D01*
X91006842Y-48102068D01*
X90736589Y-48214010D01*
X90667760Y-48260000D01*
X90076738Y-48260000D01*
X89993386Y-48191595D01*
X89839850Y-48109528D01*
X89673254Y-48058992D01*
X89500000Y-48041928D01*
X88300000Y-48041928D01*
X88126746Y-48058992D01*
X87960150Y-48109528D01*
X87806614Y-48191595D01*
X87672038Y-48302038D01*
X87561595Y-48436614D01*
X87479528Y-48590150D01*
X87428992Y-48756746D01*
X87411928Y-48930000D01*
X80657700Y-48930000D01*
X80657700Y-42557700D01*
X147942301Y-42557700D01*
X147942300Y-79362300D01*
G37*
G04 #@! TD.AperFunction*
D14*
X104094010Y-57853411D02*
X104256525Y-58096632D01*
X104463368Y-58303475D01*
X104636729Y-58419311D01*
X104561208Y-58661603D01*
X105410000Y-59510395D01*
X106258792Y-58661603D01*
X106183271Y-58419311D01*
X106356632Y-58303475D01*
X106563475Y-58096632D01*
X106680000Y-57922240D01*
X106796525Y-58096632D01*
X107003368Y-58303475D01*
X107177760Y-58420000D01*
X107003368Y-58536525D01*
X106796525Y-58743368D01*
X106680689Y-58916729D01*
X106438397Y-58841208D01*
X105589605Y-59690000D01*
X105603748Y-59704143D01*
X105424143Y-59883748D01*
X105410000Y-59869605D01*
X104561208Y-60718397D01*
X104638843Y-60967472D01*
X104902883Y-61093371D01*
X105186411Y-61165339D01*
X105386567Y-61175803D01*
X98783369Y-67779001D01*
X92853046Y-67779001D01*
X92915339Y-67533589D01*
X92930611Y-67241469D01*
X92888599Y-66951981D01*
X92790919Y-66676253D01*
X92717472Y-66538843D01*
X92468397Y-66461208D01*
X91619605Y-67310000D01*
X91633748Y-67324143D01*
X91454143Y-67503748D01*
X91440000Y-67489605D01*
X91425858Y-67503748D01*
X91246253Y-67324143D01*
X91260395Y-67310000D01*
X90411603Y-66461208D01*
X90169311Y-66536729D01*
X90053475Y-66363368D01*
X89846632Y-66156525D01*
X89672240Y-66040000D01*
X89846632Y-65923475D01*
X89971710Y-65798397D01*
X90591208Y-65798397D01*
X90666514Y-66040000D01*
X90591208Y-66281603D01*
X91440000Y-67130395D01*
X92288792Y-66281603D01*
X92213486Y-66040000D01*
X92288792Y-65798397D01*
X91440000Y-64949605D01*
X90591208Y-65798397D01*
X89971710Y-65798397D01*
X90053475Y-65716632D01*
X90169311Y-65543271D01*
X90411603Y-65618792D01*
X91260395Y-64770000D01*
X91246253Y-64755858D01*
X91425858Y-64576253D01*
X91440000Y-64590395D01*
X91454143Y-64576253D01*
X91633748Y-64755858D01*
X91619605Y-64770000D01*
X92468397Y-65618792D01*
X92717472Y-65541157D01*
X92843371Y-65277117D01*
X92915339Y-64993589D01*
X92930611Y-64701469D01*
X92888599Y-64411981D01*
X92849282Y-64300999D01*
X97161696Y-64300999D01*
X97199119Y-64304685D01*
X97236542Y-64300999D01*
X97236545Y-64300999D01*
X97348497Y-64289973D01*
X97492134Y-64246401D01*
X97624511Y-64175644D01*
X97740541Y-64080421D01*
X97764403Y-64051345D01*
X102057217Y-59758531D01*
X103919389Y-59758531D01*
X103961401Y-60048019D01*
X104059081Y-60323747D01*
X104132528Y-60461157D01*
X104381603Y-60538792D01*
X105230395Y-59690000D01*
X104381603Y-58841208D01*
X104132528Y-58918843D01*
X104006629Y-59182883D01*
X103934661Y-59466411D01*
X103919389Y-59758531D01*
X102057217Y-59758531D01*
X104055444Y-57760305D01*
X104094010Y-57853411D01*
G04 #@! TA.AperFunction,Conductor*
D16*
G36*
X104094010Y-57853411D02*
G01*
X104256525Y-58096632D01*
X104463368Y-58303475D01*
X104636729Y-58419311D01*
X104561208Y-58661603D01*
X105410000Y-59510395D01*
X106258792Y-58661603D01*
X106183271Y-58419311D01*
X106356632Y-58303475D01*
X106563475Y-58096632D01*
X106680000Y-57922240D01*
X106796525Y-58096632D01*
X107003368Y-58303475D01*
X107177760Y-58420000D01*
X107003368Y-58536525D01*
X106796525Y-58743368D01*
X106680689Y-58916729D01*
X106438397Y-58841208D01*
X105589605Y-59690000D01*
X105603748Y-59704143D01*
X105424143Y-59883748D01*
X105410000Y-59869605D01*
X104561208Y-60718397D01*
X104638843Y-60967472D01*
X104902883Y-61093371D01*
X105186411Y-61165339D01*
X105386567Y-61175803D01*
X98783369Y-67779001D01*
X92853046Y-67779001D01*
X92915339Y-67533589D01*
X92930611Y-67241469D01*
X92888599Y-66951981D01*
X92790919Y-66676253D01*
X92717472Y-66538843D01*
X92468397Y-66461208D01*
X91619605Y-67310000D01*
X91633748Y-67324143D01*
X91454143Y-67503748D01*
X91440000Y-67489605D01*
X91425858Y-67503748D01*
X91246253Y-67324143D01*
X91260395Y-67310000D01*
X90411603Y-66461208D01*
X90169311Y-66536729D01*
X90053475Y-66363368D01*
X89846632Y-66156525D01*
X89672240Y-66040000D01*
X89846632Y-65923475D01*
X89971710Y-65798397D01*
X90591208Y-65798397D01*
X90666514Y-66040000D01*
X90591208Y-66281603D01*
X91440000Y-67130395D01*
X92288792Y-66281603D01*
X92213486Y-66040000D01*
X92288792Y-65798397D01*
X91440000Y-64949605D01*
X90591208Y-65798397D01*
X89971710Y-65798397D01*
X90053475Y-65716632D01*
X90169311Y-65543271D01*
X90411603Y-65618792D01*
X91260395Y-64770000D01*
X91246253Y-64755858D01*
X91425858Y-64576253D01*
X91440000Y-64590395D01*
X91454143Y-64576253D01*
X91633748Y-64755858D01*
X91619605Y-64770000D01*
X92468397Y-65618792D01*
X92717472Y-65541157D01*
X92843371Y-65277117D01*
X92915339Y-64993589D01*
X92930611Y-64701469D01*
X92888599Y-64411981D01*
X92849282Y-64300999D01*
X97161696Y-64300999D01*
X97199119Y-64304685D01*
X97236542Y-64300999D01*
X97236545Y-64300999D01*
X97348497Y-64289973D01*
X97492134Y-64246401D01*
X97624511Y-64175644D01*
X97740541Y-64080421D01*
X97764403Y-64051345D01*
X102057217Y-59758531D01*
X103919389Y-59758531D01*
X103961401Y-60048019D01*
X104059081Y-60323747D01*
X104132528Y-60461157D01*
X104381603Y-60538792D01*
X105230395Y-59690000D01*
X104381603Y-58841208D01*
X104132528Y-58918843D01*
X104006629Y-59182883D01*
X103934661Y-59466411D01*
X103919389Y-59758531D01*
X102057217Y-59758531D01*
X104055444Y-57760305D01*
X104094010Y-57853411D01*
G37*
G04 #@! TD.AperFunction*
D14*
X103934661Y-54386411D02*
X103919389Y-54678531D01*
X103961401Y-54968019D01*
X104059081Y-55243747D01*
X104132528Y-55381157D01*
X104244446Y-55416041D01*
X96883489Y-62776999D01*
X92824355Y-62776999D01*
X92843371Y-62737117D01*
X92915339Y-62453589D01*
X92930611Y-62161469D01*
X92888599Y-61871981D01*
X92790919Y-61596253D01*
X92717472Y-61458843D01*
X92468397Y-61381208D01*
X91619605Y-62230000D01*
X91633748Y-62244143D01*
X91454143Y-62423748D01*
X91440000Y-62409605D01*
X91425858Y-62423748D01*
X91246253Y-62244143D01*
X91260395Y-62230000D01*
X90411603Y-61381208D01*
X90169311Y-61456729D01*
X90053475Y-61283368D01*
X89846632Y-61076525D01*
X89672240Y-60960000D01*
X89846632Y-60843475D01*
X89971710Y-60718397D01*
X90591208Y-60718397D01*
X90666514Y-60960000D01*
X90591208Y-61201603D01*
X91440000Y-62050395D01*
X92288792Y-61201603D01*
X92213486Y-60960000D01*
X92288792Y-60718397D01*
X91440000Y-59869605D01*
X90591208Y-60718397D01*
X89971710Y-60718397D01*
X90053475Y-60636632D01*
X90169311Y-60463271D01*
X90411603Y-60538792D01*
X91260395Y-59690000D01*
X91246253Y-59675858D01*
X91425858Y-59496253D01*
X91440000Y-59510395D01*
X91454143Y-59496253D01*
X91633748Y-59675858D01*
X91619605Y-59690000D01*
X92468397Y-60538792D01*
X92717472Y-60461157D01*
X92843371Y-60197117D01*
X92915339Y-59913589D01*
X92930611Y-59621469D01*
X92888599Y-59331981D01*
X92790919Y-59056253D01*
X92717472Y-58918843D01*
X92605553Y-58883959D01*
X97348514Y-54140999D01*
X103996954Y-54140999D01*
X103934661Y-54386411D01*
G04 #@! TA.AperFunction,Conductor*
D16*
G36*
X103934661Y-54386411D02*
G01*
X103919389Y-54678531D01*
X103961401Y-54968019D01*
X104059081Y-55243747D01*
X104132528Y-55381157D01*
X104244446Y-55416041D01*
X96883489Y-62776999D01*
X92824355Y-62776999D01*
X92843371Y-62737117D01*
X92915339Y-62453589D01*
X92930611Y-62161469D01*
X92888599Y-61871981D01*
X92790919Y-61596253D01*
X92717472Y-61458843D01*
X92468397Y-61381208D01*
X91619605Y-62230000D01*
X91633748Y-62244143D01*
X91454143Y-62423748D01*
X91440000Y-62409605D01*
X91425858Y-62423748D01*
X91246253Y-62244143D01*
X91260395Y-62230000D01*
X90411603Y-61381208D01*
X90169311Y-61456729D01*
X90053475Y-61283368D01*
X89846632Y-61076525D01*
X89672240Y-60960000D01*
X89846632Y-60843475D01*
X89971710Y-60718397D01*
X90591208Y-60718397D01*
X90666514Y-60960000D01*
X90591208Y-61201603D01*
X91440000Y-62050395D01*
X92288792Y-61201603D01*
X92213486Y-60960000D01*
X92288792Y-60718397D01*
X91440000Y-59869605D01*
X90591208Y-60718397D01*
X89971710Y-60718397D01*
X90053475Y-60636632D01*
X90169311Y-60463271D01*
X90411603Y-60538792D01*
X91260395Y-59690000D01*
X91246253Y-59675858D01*
X91425858Y-59496253D01*
X91440000Y-59510395D01*
X91454143Y-59496253D01*
X91633748Y-59675858D01*
X91619605Y-59690000D01*
X92468397Y-60538792D01*
X92717472Y-60461157D01*
X92843371Y-60197117D01*
X92915339Y-59913589D01*
X92930611Y-59621469D01*
X92888599Y-59331981D01*
X92790919Y-59056253D01*
X92717472Y-58918843D01*
X92605553Y-58883959D01*
X97348514Y-54140999D01*
X103996954Y-54140999D01*
X103934661Y-54386411D01*
G37*
G04 #@! TD.AperFunction*
D14*
X91633748Y-57135858D02*
X91619605Y-57150000D01*
X91633748Y-57164143D01*
X91454143Y-57343748D01*
X91440000Y-57329605D01*
X91425858Y-57343748D01*
X91246253Y-57164143D01*
X91260395Y-57150000D01*
X91246253Y-57135858D01*
X91425858Y-56956253D01*
X91440000Y-56970395D01*
X91454143Y-56956253D01*
X91633748Y-57135858D01*
G04 #@! TA.AperFunction,Conductor*
D16*
G36*
X91633748Y-57135858D02*
G01*
X91619605Y-57150000D01*
X91633748Y-57164143D01*
X91454143Y-57343748D01*
X91440000Y-57329605D01*
X91425858Y-57343748D01*
X91246253Y-57164143D01*
X91260395Y-57150000D01*
X91246253Y-57135858D01*
X91425858Y-56956253D01*
X91440000Y-56970395D01*
X91454143Y-56956253D01*
X91633748Y-57135858D01*
G37*
G04 #@! TD.AperFunction*
D14*
X105603748Y-54595858D02*
X105589605Y-54610000D01*
X105603748Y-54624143D01*
X105424143Y-54803748D01*
X105410000Y-54789605D01*
X105395858Y-54803748D01*
X105216253Y-54624143D01*
X105230395Y-54610000D01*
X105216253Y-54595858D01*
X105395858Y-54416253D01*
X105410000Y-54430395D01*
X105424143Y-54416253D01*
X105603748Y-54595858D01*
G04 #@! TA.AperFunction,Conductor*
D16*
G36*
X105603748Y-54595858D02*
G01*
X105589605Y-54610000D01*
X105603748Y-54624143D01*
X105424143Y-54803748D01*
X105410000Y-54789605D01*
X105395858Y-54803748D01*
X105216253Y-54624143D01*
X105230395Y-54610000D01*
X105216253Y-54595858D01*
X105395858Y-54416253D01*
X105410000Y-54430395D01*
X105424143Y-54416253D01*
X105603748Y-54595858D01*
G37*
G04 #@! TD.AperFunction*
D14*
X90591208Y-51041603D02*
X91440000Y-51890395D01*
X92288792Y-51041603D01*
X92213486Y-50800000D01*
X96072249Y-50800000D01*
X92818406Y-54053843D01*
X92790919Y-53976253D01*
X92717472Y-53838843D01*
X92468397Y-53761208D01*
X91619605Y-54610000D01*
X91633748Y-54624143D01*
X91454143Y-54803748D01*
X91440000Y-54789605D01*
X91425858Y-54803748D01*
X91246253Y-54624143D01*
X91260395Y-54610000D01*
X90411603Y-53761208D01*
X90169311Y-53836729D01*
X90053475Y-53663368D01*
X89846632Y-53456525D01*
X89672240Y-53340000D01*
X89846632Y-53223475D01*
X89971710Y-53098397D01*
X90591208Y-53098397D01*
X90666514Y-53340000D01*
X90591208Y-53581603D01*
X91440000Y-54430395D01*
X92288792Y-53581603D01*
X92213486Y-53340000D01*
X92288792Y-53098397D01*
X91440000Y-52249605D01*
X90591208Y-53098397D01*
X89971710Y-53098397D01*
X90053475Y-53016632D01*
X90169311Y-52843271D01*
X90411603Y-52918792D01*
X91260395Y-52070000D01*
X91619605Y-52070000D01*
X92468397Y-52918792D01*
X92717472Y-52841157D01*
X92843371Y-52577117D01*
X92915339Y-52293589D01*
X92930611Y-52001469D01*
X92888599Y-51711981D01*
X92790919Y-51436253D01*
X92717472Y-51298843D01*
X92468397Y-51221208D01*
X91619605Y-52070000D01*
X91260395Y-52070000D01*
X90411603Y-51221208D01*
X90169311Y-51296729D01*
X90053475Y-51123368D01*
X89866392Y-50936285D01*
X89993386Y-50868405D01*
X90076738Y-50800000D01*
X90666514Y-50800000D01*
X90591208Y-51041603D01*
G04 #@! TA.AperFunction,Conductor*
D16*
G36*
X90591208Y-51041603D02*
G01*
X91440000Y-51890395D01*
X92288792Y-51041603D01*
X92213486Y-50800000D01*
X96072249Y-50800000D01*
X92818406Y-54053843D01*
X92790919Y-53976253D01*
X92717472Y-53838843D01*
X92468397Y-53761208D01*
X91619605Y-54610000D01*
X91633748Y-54624143D01*
X91454143Y-54803748D01*
X91440000Y-54789605D01*
X91425858Y-54803748D01*
X91246253Y-54624143D01*
X91260395Y-54610000D01*
X90411603Y-53761208D01*
X90169311Y-53836729D01*
X90053475Y-53663368D01*
X89846632Y-53456525D01*
X89672240Y-53340000D01*
X89846632Y-53223475D01*
X89971710Y-53098397D01*
X90591208Y-53098397D01*
X90666514Y-53340000D01*
X90591208Y-53581603D01*
X91440000Y-54430395D01*
X92288792Y-53581603D01*
X92213486Y-53340000D01*
X92288792Y-53098397D01*
X91440000Y-52249605D01*
X90591208Y-53098397D01*
X89971710Y-53098397D01*
X90053475Y-53016632D01*
X90169311Y-52843271D01*
X90411603Y-52918792D01*
X91260395Y-52070000D01*
X91619605Y-52070000D01*
X92468397Y-52918792D01*
X92717472Y-52841157D01*
X92843371Y-52577117D01*
X92915339Y-52293589D01*
X92930611Y-52001469D01*
X92888599Y-51711981D01*
X92790919Y-51436253D01*
X92717472Y-51298843D01*
X92468397Y-51221208D01*
X91619605Y-52070000D01*
X91260395Y-52070000D01*
X90411603Y-51221208D01*
X90169311Y-51296729D01*
X90053475Y-51123368D01*
X89866392Y-50936285D01*
X89993386Y-50868405D01*
X90076738Y-50800000D01*
X90666514Y-50800000D01*
X90591208Y-51041603D01*
G37*
G04 #@! TD.AperFunction*
D14*
X105603748Y-52055858D02*
X105589605Y-52070000D01*
X105603748Y-52084143D01*
X105424143Y-52263748D01*
X105410000Y-52249605D01*
X105395858Y-52263748D01*
X105216253Y-52084143D01*
X105230395Y-52070000D01*
X105216253Y-52055858D01*
X105395858Y-51876253D01*
X105410000Y-51890395D01*
X105424143Y-51876253D01*
X105603748Y-52055858D01*
G04 #@! TA.AperFunction,Conductor*
D16*
G36*
X105603748Y-52055858D02*
G01*
X105589605Y-52070000D01*
X105603748Y-52084143D01*
X105424143Y-52263748D01*
X105410000Y-52249605D01*
X105395858Y-52263748D01*
X105216253Y-52084143D01*
X105230395Y-52070000D01*
X105216253Y-52055858D01*
X105395858Y-51876253D01*
X105410000Y-51890395D01*
X105424143Y-51876253D01*
X105603748Y-52055858D01*
G37*
G04 #@! TD.AperFunction*
M02*
