G04 #@! TF.GenerationSoftware,KiCad,Pcbnew,(5.1.10)-1*
G04 #@! TF.CreationDate,2021-11-05T12:16:12+01:00*
G04 #@! TF.ProjectId,STM_programming_ports,53544d5f-7072-46f6-9772-616d6d696e67,rev?*
G04 #@! TF.SameCoordinates,Original*
G04 #@! TF.FileFunction,Legend,Bot*
G04 #@! TF.FilePolarity,Positive*
%FSLAX46Y46*%
G04 Gerber Fmt 4.6, Leading zero omitted, Abs format (unit mm)*
G04 Created by KiCad (PCBNEW (5.1.10)-1) date 2021-11-05 12:16:12*
%MOMM*%
%LPD*%
G01*
G04 APERTURE LIST*
%ADD10C,0.150000*%
%ADD11C,1.800000*%
%ADD12O,1.800000X1.800000*%
G04 APERTURE END LIST*
D10*
X143746904Y-66254761D02*
X143604047Y-66302380D01*
X143365952Y-66302380D01*
X143270714Y-66254761D01*
X143223095Y-66207142D01*
X143175476Y-66111904D01*
X143175476Y-66016666D01*
X143223095Y-65921428D01*
X143270714Y-65873809D01*
X143365952Y-65826190D01*
X143556428Y-65778571D01*
X143651666Y-65730952D01*
X143699285Y-65683333D01*
X143746904Y-65588095D01*
X143746904Y-65492857D01*
X143699285Y-65397619D01*
X143651666Y-65350000D01*
X143556428Y-65302380D01*
X143318333Y-65302380D01*
X143175476Y-65350000D01*
X142889761Y-65302380D02*
X142318333Y-65302380D01*
X142604047Y-66302380D02*
X142604047Y-65302380D01*
X141985000Y-66302380D02*
X141985000Y-65302380D01*
X141651666Y-66016666D01*
X141318333Y-65302380D01*
X141318333Y-66302380D01*
X140937380Y-65302380D02*
X140318333Y-65302380D01*
X140651666Y-65683333D01*
X140508809Y-65683333D01*
X140413571Y-65730952D01*
X140365952Y-65778571D01*
X140318333Y-65873809D01*
X140318333Y-66111904D01*
X140365952Y-66207142D01*
X140413571Y-66254761D01*
X140508809Y-66302380D01*
X140794523Y-66302380D01*
X140889761Y-66254761D01*
X140937380Y-66207142D01*
X139937380Y-65397619D02*
X139889761Y-65350000D01*
X139794523Y-65302380D01*
X139556428Y-65302380D01*
X139461190Y-65350000D01*
X139413571Y-65397619D01*
X139365952Y-65492857D01*
X139365952Y-65588095D01*
X139413571Y-65730952D01*
X139985000Y-66302380D01*
X139365952Y-66302380D01*
X139175476Y-66397619D02*
X138413571Y-66397619D01*
X138175476Y-65635714D02*
X138175476Y-66635714D01*
X138175476Y-65683333D02*
X138080238Y-65635714D01*
X137889761Y-65635714D01*
X137794523Y-65683333D01*
X137746904Y-65730952D01*
X137699285Y-65826190D01*
X137699285Y-66111904D01*
X137746904Y-66207142D01*
X137794523Y-66254761D01*
X137889761Y-66302380D01*
X138080238Y-66302380D01*
X138175476Y-66254761D01*
X137270714Y-66302380D02*
X137270714Y-65635714D01*
X137270714Y-65826190D02*
X137223095Y-65730952D01*
X137175476Y-65683333D01*
X137080238Y-65635714D01*
X136985000Y-65635714D01*
X136508809Y-66302380D02*
X136604047Y-66254761D01*
X136651666Y-66207142D01*
X136699285Y-66111904D01*
X136699285Y-65826190D01*
X136651666Y-65730952D01*
X136604047Y-65683333D01*
X136508809Y-65635714D01*
X136365952Y-65635714D01*
X136270714Y-65683333D01*
X136223095Y-65730952D01*
X136175476Y-65826190D01*
X136175476Y-66111904D01*
X136223095Y-66207142D01*
X136270714Y-66254761D01*
X136365952Y-66302380D01*
X136508809Y-66302380D01*
X135318333Y-65635714D02*
X135318333Y-66445238D01*
X135365952Y-66540476D01*
X135413571Y-66588095D01*
X135508809Y-66635714D01*
X135651666Y-66635714D01*
X135746904Y-66588095D01*
X135318333Y-66254761D02*
X135413571Y-66302380D01*
X135604047Y-66302380D01*
X135699285Y-66254761D01*
X135746904Y-66207142D01*
X135794523Y-66111904D01*
X135794523Y-65826190D01*
X135746904Y-65730952D01*
X135699285Y-65683333D01*
X135604047Y-65635714D01*
X135413571Y-65635714D01*
X135318333Y-65683333D01*
X134842142Y-66302380D02*
X134842142Y-65635714D01*
X134842142Y-65826190D02*
X134794523Y-65730952D01*
X134746904Y-65683333D01*
X134651666Y-65635714D01*
X134556428Y-65635714D01*
X133794523Y-66302380D02*
X133794523Y-65778571D01*
X133842142Y-65683333D01*
X133937380Y-65635714D01*
X134127857Y-65635714D01*
X134223095Y-65683333D01*
X133794523Y-66254761D02*
X133889761Y-66302380D01*
X134127857Y-66302380D01*
X134223095Y-66254761D01*
X134270714Y-66159523D01*
X134270714Y-66064285D01*
X134223095Y-65969047D01*
X134127857Y-65921428D01*
X133889761Y-65921428D01*
X133794523Y-65873809D01*
X133318333Y-66302380D02*
X133318333Y-65635714D01*
X133318333Y-65730952D02*
X133270714Y-65683333D01*
X133175476Y-65635714D01*
X133032619Y-65635714D01*
X132937380Y-65683333D01*
X132889761Y-65778571D01*
X132889761Y-66302380D01*
X132889761Y-65778571D02*
X132842142Y-65683333D01*
X132746904Y-65635714D01*
X132604047Y-65635714D01*
X132508809Y-65683333D01*
X132461190Y-65778571D01*
X132461190Y-66302380D01*
X131985000Y-66302380D02*
X131985000Y-65635714D01*
X131985000Y-65730952D02*
X131937380Y-65683333D01*
X131842142Y-65635714D01*
X131699285Y-65635714D01*
X131604047Y-65683333D01*
X131556428Y-65778571D01*
X131556428Y-66302380D01*
X131556428Y-65778571D02*
X131508809Y-65683333D01*
X131413571Y-65635714D01*
X131270714Y-65635714D01*
X131175476Y-65683333D01*
X131127857Y-65778571D01*
X131127857Y-66302380D01*
X130651666Y-66302380D02*
X130651666Y-65635714D01*
X130651666Y-65302380D02*
X130699285Y-65350000D01*
X130651666Y-65397619D01*
X130604047Y-65350000D01*
X130651666Y-65302380D01*
X130651666Y-65397619D01*
X130175476Y-65635714D02*
X130175476Y-66302380D01*
X130175476Y-65730952D02*
X130127857Y-65683333D01*
X130032619Y-65635714D01*
X129889761Y-65635714D01*
X129794523Y-65683333D01*
X129746904Y-65778571D01*
X129746904Y-66302380D01*
X128842142Y-65635714D02*
X128842142Y-66445238D01*
X128889761Y-66540476D01*
X128937380Y-66588095D01*
X129032619Y-66635714D01*
X129175476Y-66635714D01*
X129270714Y-66588095D01*
X128842142Y-66254761D02*
X128937380Y-66302380D01*
X129127857Y-66302380D01*
X129223095Y-66254761D01*
X129270714Y-66207142D01*
X129318333Y-66111904D01*
X129318333Y-65826190D01*
X129270714Y-65730952D01*
X129223095Y-65683333D01*
X129127857Y-65635714D01*
X128937380Y-65635714D01*
X128842142Y-65683333D01*
X128604047Y-66397619D02*
X127842142Y-66397619D01*
X127604047Y-65635714D02*
X127604047Y-66635714D01*
X127604047Y-65683333D02*
X127508809Y-65635714D01*
X127318333Y-65635714D01*
X127223095Y-65683333D01*
X127175476Y-65730952D01*
X127127857Y-65826190D01*
X127127857Y-66111904D01*
X127175476Y-66207142D01*
X127223095Y-66254761D01*
X127318333Y-66302380D01*
X127508809Y-66302380D01*
X127604047Y-66254761D01*
X126556428Y-66302380D02*
X126651666Y-66254761D01*
X126699285Y-66207142D01*
X126746904Y-66111904D01*
X126746904Y-65826190D01*
X126699285Y-65730952D01*
X126651666Y-65683333D01*
X126556428Y-65635714D01*
X126413571Y-65635714D01*
X126318333Y-65683333D01*
X126270714Y-65730952D01*
X126223095Y-65826190D01*
X126223095Y-66111904D01*
X126270714Y-66207142D01*
X126318333Y-66254761D01*
X126413571Y-66302380D01*
X126556428Y-66302380D01*
X125794523Y-66302380D02*
X125794523Y-65635714D01*
X125794523Y-65826190D02*
X125746904Y-65730952D01*
X125699285Y-65683333D01*
X125604047Y-65635714D01*
X125508809Y-65635714D01*
X125318333Y-65635714D02*
X124937380Y-65635714D01*
X125175476Y-65302380D02*
X125175476Y-66159523D01*
X125127857Y-66254761D01*
X125032619Y-66302380D01*
X124937380Y-66302380D01*
X124651666Y-66254761D02*
X124556428Y-66302380D01*
X124365952Y-66302380D01*
X124270714Y-66254761D01*
X124223095Y-66159523D01*
X124223095Y-66111904D01*
X124270714Y-66016666D01*
X124365952Y-65969047D01*
X124508809Y-65969047D01*
X124604047Y-65921428D01*
X124651666Y-65826190D01*
X124651666Y-65778571D01*
X124604047Y-65683333D01*
X124508809Y-65635714D01*
X124365952Y-65635714D01*
X124270714Y-65683333D01*
X137532619Y-67952380D02*
X137532619Y-66952380D01*
X137532619Y-67333333D02*
X137437380Y-67285714D01*
X137246904Y-67285714D01*
X137151666Y-67333333D01*
X137104047Y-67380952D01*
X137056428Y-67476190D01*
X137056428Y-67761904D01*
X137104047Y-67857142D01*
X137151666Y-67904761D01*
X137246904Y-67952380D01*
X137437380Y-67952380D01*
X137532619Y-67904761D01*
X136723095Y-67285714D02*
X136485000Y-67952380D01*
X136246904Y-67285714D02*
X136485000Y-67952380D01*
X136580238Y-68190476D01*
X136627857Y-68238095D01*
X136723095Y-68285714D01*
X135104047Y-67952380D02*
X135104047Y-66952380D01*
X134770714Y-67666666D01*
X134437380Y-66952380D01*
X134437380Y-67952380D01*
X133961190Y-67952380D02*
X133961190Y-66952380D01*
X133389761Y-67952380D02*
X133818333Y-67380952D01*
X133389761Y-66952380D02*
X133961190Y-67523809D01*
X132961190Y-67952380D02*
X132961190Y-67285714D01*
X132961190Y-67476190D02*
X132913571Y-67380952D01*
X132865952Y-67333333D01*
X132770714Y-67285714D01*
X132675476Y-67285714D01*
X132437380Y-67285714D02*
X132199285Y-67952380D01*
X131961190Y-67285714D02*
X132199285Y-67952380D01*
X132294523Y-68190476D01*
X132342142Y-68238095D01*
X132437380Y-68285714D01*
X131627857Y-67904761D02*
X131532619Y-67952380D01*
X131342142Y-67952380D01*
X131246904Y-67904761D01*
X131199285Y-67809523D01*
X131199285Y-67761904D01*
X131246904Y-67666666D01*
X131342142Y-67619047D01*
X131485000Y-67619047D01*
X131580238Y-67571428D01*
X131627857Y-67476190D01*
X131627857Y-67428571D01*
X131580238Y-67333333D01*
X131485000Y-67285714D01*
X131342142Y-67285714D01*
X131246904Y-67333333D01*
X130865952Y-67285714D02*
X130342142Y-67285714D01*
X130865952Y-67952380D01*
X130342142Y-67952380D01*
X83835714Y-77557380D02*
X83502380Y-78557380D01*
X83169047Y-77557380D01*
X82645238Y-77557380D02*
X82550000Y-77557380D01*
X82454761Y-77605000D01*
X82407142Y-77652619D01*
X82359523Y-77747857D01*
X82311904Y-77938333D01*
X82311904Y-78176428D01*
X82359523Y-78366904D01*
X82407142Y-78462142D01*
X82454761Y-78509761D01*
X82550000Y-78557380D01*
X82645238Y-78557380D01*
X82740476Y-78509761D01*
X82788095Y-78462142D01*
X82835714Y-78366904D01*
X82883333Y-78176428D01*
X82883333Y-77938333D01*
X82835714Y-77747857D01*
X82788095Y-77652619D01*
X82740476Y-77605000D01*
X82645238Y-77557380D01*
X81359523Y-78557380D02*
X81930952Y-78557380D01*
X81645238Y-78557380D02*
X81645238Y-77557380D01*
X81740476Y-77700238D01*
X81835714Y-77795476D01*
X81930952Y-77843095D01*
%LPC*%
D11*
X125560000Y-59690000D03*
X125560000Y-57150000D03*
X125560000Y-54610000D03*
X125560000Y-52070000D03*
X125560000Y-49530000D03*
X123020000Y-59690000D03*
X123020000Y-57150000D03*
X123020000Y-54610000D03*
X123020000Y-52070000D03*
G36*
G01*
X122120000Y-50165295D02*
X122120000Y-48894705D01*
G75*
G02*
X122384705Y-48630000I264705J0D01*
G01*
X123655295Y-48630000D01*
G75*
G02*
X123920000Y-48894705I0J-264705D01*
G01*
X123920000Y-50165295D01*
G75*
G02*
X123655295Y-50430000I-264705J0D01*
G01*
X122384705Y-50430000D01*
G75*
G02*
X122120000Y-50165295I0J264705D01*
G01*
G37*
X143510000Y-59690000D03*
X143510000Y-57150000D03*
X143510000Y-54610000D03*
X143510000Y-52070000D03*
X143510000Y-49530000D03*
X140970000Y-59690000D03*
X140970000Y-57150000D03*
X140970000Y-54610000D03*
X140970000Y-52070000D03*
G36*
G01*
X140070000Y-50165295D02*
X140070000Y-48894705D01*
G75*
G02*
X140334705Y-48630000I264705J0D01*
G01*
X141605295Y-48630000D01*
G75*
G02*
X141870000Y-48894705I0J-264705D01*
G01*
X141870000Y-50165295D01*
G75*
G02*
X141605295Y-50430000I-264705J0D01*
G01*
X140334705Y-50430000D01*
G75*
G02*
X140070000Y-50165295I0J264705D01*
G01*
G37*
D12*
X119380000Y-73660000D03*
X116840000Y-73660000D03*
X114300000Y-73660000D03*
G36*
G01*
X112610000Y-74560000D02*
X110910000Y-74560000D01*
G75*
G02*
X110860000Y-74510000I0J50000D01*
G01*
X110860000Y-72810000D01*
G75*
G02*
X110910000Y-72760000I50000J0D01*
G01*
X112610000Y-72760000D01*
G75*
G02*
X112660000Y-72810000I0J-50000D01*
G01*
X112660000Y-74510000D01*
G75*
G02*
X112610000Y-74560000I-50000J0D01*
G01*
G37*
X133350000Y-73660000D03*
G36*
G01*
X135040000Y-72760000D02*
X136740000Y-72760000D01*
G75*
G02*
X136790000Y-72810000I0J-50000D01*
G01*
X136790000Y-74510000D01*
G75*
G02*
X136740000Y-74560000I-50000J0D01*
G01*
X135040000Y-74560000D01*
G75*
G02*
X134990000Y-74510000I0J50000D01*
G01*
X134990000Y-72810000D01*
G75*
G02*
X135040000Y-72760000I50000J0D01*
G01*
G37*
D11*
X91440000Y-72390000D03*
X91440000Y-69850000D03*
X91440000Y-67310000D03*
X91440000Y-64770000D03*
X91440000Y-62230000D03*
X91440000Y-59690000D03*
X91440000Y-57150000D03*
X91440000Y-54610000D03*
X91440000Y-52070000D03*
X91440000Y-49530000D03*
X88900000Y-72390000D03*
X88900000Y-69850000D03*
X88900000Y-67310000D03*
X88900000Y-64770000D03*
X88900000Y-62230000D03*
X88900000Y-59690000D03*
X88900000Y-57150000D03*
X88900000Y-54610000D03*
X88900000Y-52070000D03*
G36*
G01*
X88000000Y-50165295D02*
X88000000Y-48894705D01*
G75*
G02*
X88264705Y-48630000I264705J0D01*
G01*
X89535295Y-48630000D01*
G75*
G02*
X89800000Y-48894705I0J-264705D01*
G01*
X89800000Y-50165295D01*
G75*
G02*
X89535295Y-50430000I-264705J0D01*
G01*
X88264705Y-50430000D01*
G75*
G02*
X88000000Y-50165295I0J264705D01*
G01*
G37*
X107950000Y-59690000D03*
X107950000Y-57150000D03*
X107950000Y-54610000D03*
X107950000Y-52070000D03*
X107950000Y-49530000D03*
X105410000Y-59690000D03*
X105410000Y-57150000D03*
X105410000Y-54610000D03*
X105410000Y-52070000D03*
G36*
G01*
X104510000Y-50165295D02*
X104510000Y-48894705D01*
G75*
G02*
X104774705Y-48630000I264705J0D01*
G01*
X106045295Y-48630000D01*
G75*
G02*
X106310000Y-48894705I0J-264705D01*
G01*
X106310000Y-50165295D01*
G75*
G02*
X106045295Y-50430000I-264705J0D01*
G01*
X104774705Y-50430000D01*
G75*
G02*
X104510000Y-50165295I0J264705D01*
G01*
G37*
M02*
