G04 #@! TF.GenerationSoftware,KiCad,Pcbnew,(5.1.10)-1*
G04 #@! TF.CreationDate,2022-05-07T20:41:14+02:00*
G04 #@! TF.ProjectId,STM_programming_ports,53544d5f-7072-46f6-9772-616d6d696e67,rev?*
G04 #@! TF.SameCoordinates,Original*
G04 #@! TF.FileFunction,Legend,Top*
G04 #@! TF.FilePolarity,Positive*
%FSLAX46Y46*%
G04 Gerber Fmt 4.6, Leading zero omitted, Abs format (unit mm)*
G04 Created by KiCad (PCBNEW (5.1.10)-1) date 2022-05-07 20:41:14*
%MOMM*%
%LPD*%
G01*
G04 APERTURE LIST*
%ADD10C,0.150000*%
%ADD11C,0.120000*%
%ADD12O,1.800000X1.800000*%
%ADD13C,1.800000*%
G04 APERTURE END LIST*
D10*
X77809523Y-61704761D02*
X77952380Y-61752380D01*
X78190476Y-61752380D01*
X78285714Y-61704761D01*
X78333333Y-61657142D01*
X78380952Y-61561904D01*
X78380952Y-61466666D01*
X78333333Y-61371428D01*
X78285714Y-61323809D01*
X78190476Y-61276190D01*
X78000000Y-61228571D01*
X77904761Y-61180952D01*
X77857142Y-61133333D01*
X77809523Y-61038095D01*
X77809523Y-60942857D01*
X77857142Y-60847619D01*
X77904761Y-60800000D01*
X78000000Y-60752380D01*
X78238095Y-60752380D01*
X78380952Y-60800000D01*
X78666666Y-60752380D02*
X79238095Y-60752380D01*
X78952380Y-61752380D02*
X78952380Y-60752380D01*
X79571428Y-61752380D02*
X79571428Y-60752380D01*
X79904761Y-61466666D01*
X80238095Y-60752380D01*
X80238095Y-61752380D01*
X80619047Y-60752380D02*
X81238095Y-60752380D01*
X80904761Y-61133333D01*
X81047619Y-61133333D01*
X81142857Y-61180952D01*
X81190476Y-61228571D01*
X81238095Y-61323809D01*
X81238095Y-61561904D01*
X81190476Y-61657142D01*
X81142857Y-61704761D01*
X81047619Y-61752380D01*
X80761904Y-61752380D01*
X80666666Y-61704761D01*
X80619047Y-61657142D01*
X81619047Y-60847619D02*
X81666666Y-60800000D01*
X81761904Y-60752380D01*
X82000000Y-60752380D01*
X82095238Y-60800000D01*
X82142857Y-60847619D01*
X82190476Y-60942857D01*
X82190476Y-61038095D01*
X82142857Y-61180952D01*
X81571428Y-61752380D01*
X82190476Y-61752380D01*
X75285714Y-63402380D02*
X75285714Y-62402380D01*
X75666666Y-62402380D01*
X75761904Y-62450000D01*
X75809523Y-62497619D01*
X75857142Y-62592857D01*
X75857142Y-62735714D01*
X75809523Y-62830952D01*
X75761904Y-62878571D01*
X75666666Y-62926190D01*
X75285714Y-62926190D01*
X76285714Y-63402380D02*
X76285714Y-62735714D01*
X76285714Y-62926190D02*
X76333333Y-62830952D01*
X76380952Y-62783333D01*
X76476190Y-62735714D01*
X76571428Y-62735714D01*
X77047619Y-63402380D02*
X76952380Y-63354761D01*
X76904761Y-63307142D01*
X76857142Y-63211904D01*
X76857142Y-62926190D01*
X76904761Y-62830952D01*
X76952380Y-62783333D01*
X77047619Y-62735714D01*
X77190476Y-62735714D01*
X77285714Y-62783333D01*
X77333333Y-62830952D01*
X77380952Y-62926190D01*
X77380952Y-63211904D01*
X77333333Y-63307142D01*
X77285714Y-63354761D01*
X77190476Y-63402380D01*
X77047619Y-63402380D01*
X78238095Y-62735714D02*
X78238095Y-63545238D01*
X78190476Y-63640476D01*
X78142857Y-63688095D01*
X78047619Y-63735714D01*
X77904761Y-63735714D01*
X77809523Y-63688095D01*
X78238095Y-63354761D02*
X78142857Y-63402380D01*
X77952380Y-63402380D01*
X77857142Y-63354761D01*
X77809523Y-63307142D01*
X77761904Y-63211904D01*
X77761904Y-62926190D01*
X77809523Y-62830952D01*
X77857142Y-62783333D01*
X77952380Y-62735714D01*
X78142857Y-62735714D01*
X78238095Y-62783333D01*
X78714285Y-63402380D02*
X78714285Y-62735714D01*
X78714285Y-62926190D02*
X78761904Y-62830952D01*
X78809523Y-62783333D01*
X78904761Y-62735714D01*
X79000000Y-62735714D01*
X79761904Y-63402380D02*
X79761904Y-62878571D01*
X79714285Y-62783333D01*
X79619047Y-62735714D01*
X79428571Y-62735714D01*
X79333333Y-62783333D01*
X79761904Y-63354761D02*
X79666666Y-63402380D01*
X79428571Y-63402380D01*
X79333333Y-63354761D01*
X79285714Y-63259523D01*
X79285714Y-63164285D01*
X79333333Y-63069047D01*
X79428571Y-63021428D01*
X79666666Y-63021428D01*
X79761904Y-62973809D01*
X80238095Y-63402380D02*
X80238095Y-62735714D01*
X80238095Y-62830952D02*
X80285714Y-62783333D01*
X80380952Y-62735714D01*
X80523809Y-62735714D01*
X80619047Y-62783333D01*
X80666666Y-62878571D01*
X80666666Y-63402380D01*
X80666666Y-62878571D02*
X80714285Y-62783333D01*
X80809523Y-62735714D01*
X80952380Y-62735714D01*
X81047619Y-62783333D01*
X81095238Y-62878571D01*
X81095238Y-63402380D01*
X81571428Y-63402380D02*
X81571428Y-62735714D01*
X81571428Y-62830952D02*
X81619047Y-62783333D01*
X81714285Y-62735714D01*
X81857142Y-62735714D01*
X81952380Y-62783333D01*
X82000000Y-62878571D01*
X82000000Y-63402380D01*
X82000000Y-62878571D02*
X82047619Y-62783333D01*
X82142857Y-62735714D01*
X82285714Y-62735714D01*
X82380952Y-62783333D01*
X82428571Y-62878571D01*
X82428571Y-63402380D01*
X82904761Y-63402380D02*
X82904761Y-62735714D01*
X82904761Y-62402380D02*
X82857142Y-62450000D01*
X82904761Y-62497619D01*
X82952380Y-62450000D01*
X82904761Y-62402380D01*
X82904761Y-62497619D01*
X83380952Y-62735714D02*
X83380952Y-63402380D01*
X83380952Y-62830952D02*
X83428571Y-62783333D01*
X83523809Y-62735714D01*
X83666666Y-62735714D01*
X83761904Y-62783333D01*
X83809523Y-62878571D01*
X83809523Y-63402380D01*
X84714285Y-62735714D02*
X84714285Y-63545238D01*
X84666666Y-63640476D01*
X84619047Y-63688095D01*
X84523809Y-63735714D01*
X84380952Y-63735714D01*
X84285714Y-63688095D01*
X84714285Y-63354761D02*
X84619047Y-63402380D01*
X84428571Y-63402380D01*
X84333333Y-63354761D01*
X84285714Y-63307142D01*
X84238095Y-63211904D01*
X84238095Y-62926190D01*
X84285714Y-62830952D01*
X84333333Y-62783333D01*
X84428571Y-62735714D01*
X84619047Y-62735714D01*
X84714285Y-62783333D01*
X78285714Y-65052380D02*
X78285714Y-64052380D01*
X78666666Y-64052380D01*
X78761904Y-64100000D01*
X78809523Y-64147619D01*
X78857142Y-64242857D01*
X78857142Y-64385714D01*
X78809523Y-64480952D01*
X78761904Y-64528571D01*
X78666666Y-64576190D01*
X78285714Y-64576190D01*
X79428571Y-65052380D02*
X79333333Y-65004761D01*
X79285714Y-64957142D01*
X79238095Y-64861904D01*
X79238095Y-64576190D01*
X79285714Y-64480952D01*
X79333333Y-64433333D01*
X79428571Y-64385714D01*
X79571428Y-64385714D01*
X79666666Y-64433333D01*
X79714285Y-64480952D01*
X79761904Y-64576190D01*
X79761904Y-64861904D01*
X79714285Y-64957142D01*
X79666666Y-65004761D01*
X79571428Y-65052380D01*
X79428571Y-65052380D01*
X80190476Y-65052380D02*
X80190476Y-64385714D01*
X80190476Y-64576190D02*
X80238095Y-64480952D01*
X80285714Y-64433333D01*
X80380952Y-64385714D01*
X80476190Y-64385714D01*
X80666666Y-64385714D02*
X81047619Y-64385714D01*
X80809523Y-64052380D02*
X80809523Y-64909523D01*
X80857142Y-65004761D01*
X80952380Y-65052380D01*
X81047619Y-65052380D01*
X81333333Y-65004761D02*
X81428571Y-65052380D01*
X81619047Y-65052380D01*
X81714285Y-65004761D01*
X81761904Y-64909523D01*
X81761904Y-64861904D01*
X81714285Y-64766666D01*
X81619047Y-64719047D01*
X81476190Y-64719047D01*
X81380952Y-64671428D01*
X81333333Y-64576190D01*
X81333333Y-64528571D01*
X81380952Y-64433333D01*
X81476190Y-64385714D01*
X81619047Y-64385714D01*
X81714285Y-64433333D01*
X78714285Y-65702380D02*
X79047619Y-66702380D01*
X79380952Y-65702380D01*
X79904761Y-65702380D02*
X80000000Y-65702380D01*
X80095238Y-65750000D01*
X80142857Y-65797619D01*
X80190476Y-65892857D01*
X80238095Y-66083333D01*
X80238095Y-66321428D01*
X80190476Y-66511904D01*
X80142857Y-66607142D01*
X80095238Y-66654761D01*
X80000000Y-66702380D01*
X79904761Y-66702380D01*
X79809523Y-66654761D01*
X79761904Y-66607142D01*
X79714285Y-66511904D01*
X79666666Y-66321428D01*
X79666666Y-66083333D01*
X79714285Y-65892857D01*
X79761904Y-65797619D01*
X79809523Y-65750000D01*
X79904761Y-65702380D01*
X80619047Y-65797619D02*
X80666666Y-65750000D01*
X80761904Y-65702380D01*
X81000000Y-65702380D01*
X81095238Y-65750000D01*
X81142857Y-65797619D01*
X81190476Y-65892857D01*
X81190476Y-65988095D01*
X81142857Y-66130952D01*
X80571428Y-66702380D01*
X81190476Y-66702380D01*
X76738095Y-67828571D02*
X76880952Y-67876190D01*
X76928571Y-67923809D01*
X76976190Y-68019047D01*
X76976190Y-68161904D01*
X76928571Y-68257142D01*
X76880952Y-68304761D01*
X76785714Y-68352380D01*
X76404761Y-68352380D01*
X76404761Y-67352380D01*
X76738095Y-67352380D01*
X76833333Y-67400000D01*
X76880952Y-67447619D01*
X76928571Y-67542857D01*
X76928571Y-67638095D01*
X76880952Y-67733333D01*
X76833333Y-67780952D01*
X76738095Y-67828571D01*
X76404761Y-67828571D01*
X77309523Y-67685714D02*
X77547619Y-68352380D01*
X77785714Y-67685714D02*
X77547619Y-68352380D01*
X77452380Y-68590476D01*
X77404761Y-68638095D01*
X77309523Y-68685714D01*
X78928571Y-68352380D02*
X78928571Y-67352380D01*
X79261904Y-68066666D01*
X79595238Y-67352380D01*
X79595238Y-68352380D01*
X80071428Y-68352380D02*
X80071428Y-67352380D01*
X80642857Y-68352380D02*
X80214285Y-67780952D01*
X80642857Y-67352380D02*
X80071428Y-67923809D01*
X81071428Y-68352380D02*
X81071428Y-67685714D01*
X81071428Y-67876190D02*
X81119047Y-67780952D01*
X81166666Y-67733333D01*
X81261904Y-67685714D01*
X81357142Y-67685714D01*
X81595238Y-67685714D02*
X81833333Y-68352380D01*
X82071428Y-67685714D02*
X81833333Y-68352380D01*
X81738095Y-68590476D01*
X81690476Y-68638095D01*
X81595238Y-68685714D01*
X82404761Y-68304761D02*
X82500000Y-68352380D01*
X82690476Y-68352380D01*
X82785714Y-68304761D01*
X82833333Y-68209523D01*
X82833333Y-68161904D01*
X82785714Y-68066666D01*
X82690476Y-68019047D01*
X82547619Y-68019047D01*
X82452380Y-67971428D01*
X82404761Y-67876190D01*
X82404761Y-67828571D01*
X82452380Y-67733333D01*
X82547619Y-67685714D01*
X82690476Y-67685714D01*
X82785714Y-67733333D01*
X83166666Y-67685714D02*
X83690476Y-67685714D01*
X83166666Y-68352380D01*
X83690476Y-68352380D01*
X103500000Y-63642857D02*
X103452380Y-63738095D01*
X103452380Y-63880952D01*
X103500000Y-64023809D01*
X103595238Y-64119047D01*
X103690476Y-64166666D01*
X103880952Y-64214285D01*
X104023809Y-64214285D01*
X104214285Y-64166666D01*
X104309523Y-64119047D01*
X104404761Y-64023809D01*
X104452380Y-63880952D01*
X104452380Y-63785714D01*
X104404761Y-63642857D01*
X104357142Y-63595238D01*
X104023809Y-63595238D01*
X104023809Y-63785714D01*
X103785714Y-63166666D02*
X104452380Y-63166666D01*
X103880952Y-63166666D02*
X103833333Y-63119047D01*
X103785714Y-63023809D01*
X103785714Y-62880952D01*
X103833333Y-62785714D01*
X103928571Y-62738095D01*
X104452380Y-62738095D01*
X104452380Y-61833333D02*
X103452380Y-61833333D01*
X104404761Y-61833333D02*
X104452380Y-61928571D01*
X104452380Y-62119047D01*
X104404761Y-62214285D01*
X104357142Y-62261904D01*
X104261904Y-62309523D01*
X103976190Y-62309523D01*
X103880952Y-62261904D01*
X103833333Y-62214285D01*
X103785714Y-62119047D01*
X103785714Y-61928571D01*
X103833333Y-61833333D01*
X106904761Y-64261904D02*
X106952380Y-64119047D01*
X106952380Y-63880952D01*
X106904761Y-63785714D01*
X106857142Y-63738095D01*
X106761904Y-63690476D01*
X106666666Y-63690476D01*
X106571428Y-63738095D01*
X106523809Y-63785714D01*
X106476190Y-63880952D01*
X106428571Y-64071428D01*
X106380952Y-64166666D01*
X106333333Y-64214285D01*
X106238095Y-64261904D01*
X106142857Y-64261904D01*
X106047619Y-64214285D01*
X106000000Y-64166666D01*
X105952380Y-64071428D01*
X105952380Y-63833333D01*
X106000000Y-63690476D01*
X105952380Y-63357142D02*
X106952380Y-63119047D01*
X106238095Y-62928571D01*
X106952380Y-62738095D01*
X105952380Y-62500000D01*
X106857142Y-61547619D02*
X106904761Y-61595238D01*
X106952380Y-61738095D01*
X106952380Y-61833333D01*
X106904761Y-61976190D01*
X106809523Y-62071428D01*
X106714285Y-62119047D01*
X106523809Y-62166666D01*
X106380952Y-62166666D01*
X106190476Y-62119047D01*
X106095238Y-62071428D01*
X106000000Y-61976190D01*
X105952380Y-61833333D01*
X105952380Y-61738095D01*
X106000000Y-61595238D01*
X106047619Y-61547619D01*
X106952380Y-60642857D02*
X106952380Y-61119047D01*
X105952380Y-61119047D01*
X106952380Y-60309523D02*
X105952380Y-60309523D01*
X106952380Y-59738095D02*
X106380952Y-60166666D01*
X105952380Y-59738095D02*
X106523809Y-60309523D01*
X110952380Y-64238095D02*
X110952380Y-63619047D01*
X111333333Y-63952380D01*
X111333333Y-63809523D01*
X111380952Y-63714285D01*
X111428571Y-63666666D01*
X111523809Y-63619047D01*
X111761904Y-63619047D01*
X111857142Y-63666666D01*
X111904761Y-63714285D01*
X111952380Y-63809523D01*
X111952380Y-64095238D01*
X111904761Y-64190476D01*
X111857142Y-64238095D01*
X110952380Y-63333333D02*
X111952380Y-63000000D01*
X110952380Y-62666666D01*
X110952380Y-62428571D02*
X110952380Y-61809523D01*
X111333333Y-62142857D01*
X111333333Y-62000000D01*
X111380952Y-61904761D01*
X111428571Y-61857142D01*
X111523809Y-61809523D01*
X111761904Y-61809523D01*
X111857142Y-61857142D01*
X111904761Y-61904761D01*
X111952380Y-62000000D01*
X111952380Y-62285714D01*
X111904761Y-62380952D01*
X111857142Y-62428571D01*
X109404761Y-64119047D02*
X109452380Y-63976190D01*
X109452380Y-63738095D01*
X109404761Y-63642857D01*
X109357142Y-63595238D01*
X109261904Y-63547619D01*
X109166666Y-63547619D01*
X109071428Y-63595238D01*
X109023809Y-63642857D01*
X108976190Y-63738095D01*
X108928571Y-63928571D01*
X108880952Y-64023809D01*
X108833333Y-64071428D01*
X108738095Y-64119047D01*
X108642857Y-64119047D01*
X108547619Y-64071428D01*
X108500000Y-64023809D01*
X108452380Y-63928571D01*
X108452380Y-63690476D01*
X108500000Y-63547619D01*
X108452380Y-63214285D02*
X109452380Y-62976190D01*
X108738095Y-62785714D01*
X109452380Y-62595238D01*
X108452380Y-62357142D01*
X109452380Y-61976190D02*
X108452380Y-61976190D01*
X108452380Y-61738095D01*
X108500000Y-61595238D01*
X108595238Y-61500000D01*
X108690476Y-61452380D01*
X108880952Y-61404761D01*
X109023809Y-61404761D01*
X109214285Y-61452380D01*
X109309523Y-61500000D01*
X109404761Y-61595238D01*
X109452380Y-61738095D01*
X109452380Y-61976190D01*
X109452380Y-60976190D02*
X108452380Y-60976190D01*
X108452380Y-60309523D02*
X108452380Y-60119047D01*
X108500000Y-60023809D01*
X108595238Y-59928571D01*
X108785714Y-59880952D01*
X109119047Y-59880952D01*
X109309523Y-59928571D01*
X109404761Y-60023809D01*
X109452380Y-60119047D01*
X109452380Y-60309523D01*
X109404761Y-60404761D01*
X109309523Y-60500000D01*
X109119047Y-60547619D01*
X108785714Y-60547619D01*
X108595238Y-60500000D01*
X108500000Y-60404761D01*
X108452380Y-60309523D01*
X97452380Y-63738095D02*
X97452380Y-63119047D01*
X97833333Y-63452380D01*
X97833333Y-63309523D01*
X97880952Y-63214285D01*
X97928571Y-63166666D01*
X98023809Y-63119047D01*
X98261904Y-63119047D01*
X98357142Y-63166666D01*
X98404761Y-63214285D01*
X98452380Y-63309523D01*
X98452380Y-63595238D01*
X98404761Y-63690476D01*
X98357142Y-63738095D01*
X97452380Y-62833333D02*
X98452380Y-62500000D01*
X97452380Y-62166666D01*
X97452380Y-61928571D02*
X97452380Y-61309523D01*
X97833333Y-61642857D01*
X97833333Y-61500000D01*
X97880952Y-61404761D01*
X97928571Y-61357142D01*
X98023809Y-61309523D01*
X98261904Y-61309523D01*
X98357142Y-61357142D01*
X98404761Y-61404761D01*
X98452380Y-61500000D01*
X98452380Y-61785714D01*
X98404761Y-61880952D01*
X98357142Y-61928571D01*
X95952380Y-63047619D02*
X95476190Y-63380952D01*
X95952380Y-63619047D02*
X94952380Y-63619047D01*
X94952380Y-63238095D01*
X95000000Y-63142857D01*
X95047619Y-63095238D01*
X95142857Y-63047619D01*
X95285714Y-63047619D01*
X95380952Y-63095238D01*
X95428571Y-63142857D01*
X95476190Y-63238095D01*
X95476190Y-63619047D01*
X95904761Y-62666666D02*
X95952380Y-62523809D01*
X95952380Y-62285714D01*
X95904761Y-62190476D01*
X95857142Y-62142857D01*
X95761904Y-62095238D01*
X95666666Y-62095238D01*
X95571428Y-62142857D01*
X95523809Y-62190476D01*
X95476190Y-62285714D01*
X95428571Y-62476190D01*
X95380952Y-62571428D01*
X95333333Y-62619047D01*
X95238095Y-62666666D01*
X95142857Y-62666666D01*
X95047619Y-62619047D01*
X95000000Y-62571428D01*
X94952380Y-62476190D01*
X94952380Y-62238095D01*
X95000000Y-62095238D01*
X94952380Y-61809523D02*
X94952380Y-61238095D01*
X95952380Y-61523809D02*
X94952380Y-61523809D01*
X93404761Y-63619047D02*
X93452380Y-63476190D01*
X93452380Y-63238095D01*
X93404761Y-63142857D01*
X93357142Y-63095238D01*
X93261904Y-63047619D01*
X93166666Y-63047619D01*
X93071428Y-63095238D01*
X93023809Y-63142857D01*
X92976190Y-63238095D01*
X92928571Y-63428571D01*
X92880952Y-63523809D01*
X92833333Y-63571428D01*
X92738095Y-63619047D01*
X92642857Y-63619047D01*
X92547619Y-63571428D01*
X92500000Y-63523809D01*
X92452380Y-63428571D01*
X92452380Y-63190476D01*
X92500000Y-63047619D01*
X92452380Y-62714285D02*
X93452380Y-62476190D01*
X92738095Y-62285714D01*
X93452380Y-62095238D01*
X92452380Y-61857142D01*
X93452380Y-61476190D02*
X92452380Y-61476190D01*
X92452380Y-61238095D01*
X92500000Y-61095238D01*
X92595238Y-61000000D01*
X92690476Y-60952380D01*
X92880952Y-60904761D01*
X93023809Y-60904761D01*
X93214285Y-60952380D01*
X93309523Y-61000000D01*
X93404761Y-61095238D01*
X93452380Y-61238095D01*
X93452380Y-61476190D01*
X93452380Y-60476190D02*
X92452380Y-60476190D01*
X92452380Y-59809523D02*
X92452380Y-59619047D01*
X92500000Y-59523809D01*
X92595238Y-59428571D01*
X92785714Y-59380952D01*
X93119047Y-59380952D01*
X93309523Y-59428571D01*
X93404761Y-59523809D01*
X93452380Y-59619047D01*
X93452380Y-59809523D01*
X93404761Y-59904761D01*
X93309523Y-60000000D01*
X93119047Y-60047619D01*
X92785714Y-60047619D01*
X92595238Y-60000000D01*
X92500000Y-59904761D01*
X92452380Y-59809523D01*
X90904761Y-63761904D02*
X90952380Y-63619047D01*
X90952380Y-63380952D01*
X90904761Y-63285714D01*
X90857142Y-63238095D01*
X90761904Y-63190476D01*
X90666666Y-63190476D01*
X90571428Y-63238095D01*
X90523809Y-63285714D01*
X90476190Y-63380952D01*
X90428571Y-63571428D01*
X90380952Y-63666666D01*
X90333333Y-63714285D01*
X90238095Y-63761904D01*
X90142857Y-63761904D01*
X90047619Y-63714285D01*
X90000000Y-63666666D01*
X89952380Y-63571428D01*
X89952380Y-63333333D01*
X90000000Y-63190476D01*
X89952380Y-62857142D02*
X90952380Y-62619047D01*
X90238095Y-62428571D01*
X90952380Y-62238095D01*
X89952380Y-62000000D01*
X90857142Y-61047619D02*
X90904761Y-61095238D01*
X90952380Y-61238095D01*
X90952380Y-61333333D01*
X90904761Y-61476190D01*
X90809523Y-61571428D01*
X90714285Y-61619047D01*
X90523809Y-61666666D01*
X90380952Y-61666666D01*
X90190476Y-61619047D01*
X90095238Y-61571428D01*
X90000000Y-61476190D01*
X89952380Y-61333333D01*
X89952380Y-61238095D01*
X90000000Y-61095238D01*
X90047619Y-61047619D01*
X90952380Y-60142857D02*
X90952380Y-60619047D01*
X89952380Y-60619047D01*
X90952380Y-59809523D02*
X89952380Y-59809523D01*
X90952380Y-59238095D02*
X90380952Y-59666666D01*
X89952380Y-59238095D02*
X90523809Y-59809523D01*
X87500000Y-63142857D02*
X87452380Y-63238095D01*
X87452380Y-63380952D01*
X87500000Y-63523809D01*
X87595238Y-63619047D01*
X87690476Y-63666666D01*
X87880952Y-63714285D01*
X88023809Y-63714285D01*
X88214285Y-63666666D01*
X88309523Y-63619047D01*
X88404761Y-63523809D01*
X88452380Y-63380952D01*
X88452380Y-63285714D01*
X88404761Y-63142857D01*
X88357142Y-63095238D01*
X88023809Y-63095238D01*
X88023809Y-63285714D01*
X87785714Y-62666666D02*
X88452380Y-62666666D01*
X87880952Y-62666666D02*
X87833333Y-62619047D01*
X87785714Y-62523809D01*
X87785714Y-62380952D01*
X87833333Y-62285714D01*
X87928571Y-62238095D01*
X88452380Y-62238095D01*
X88452380Y-61333333D02*
X87452380Y-61333333D01*
X88404761Y-61333333D02*
X88452380Y-61428571D01*
X88452380Y-61619047D01*
X88404761Y-61714285D01*
X88357142Y-61761904D01*
X88261904Y-61809523D01*
X87976190Y-61809523D01*
X87880952Y-61761904D01*
X87833333Y-61714285D01*
X87785714Y-61619047D01*
X87785714Y-61428571D01*
X87833333Y-61333333D01*
X84738095Y-53952380D02*
X84166666Y-53952380D01*
X84452380Y-53952380D02*
X84452380Y-52952380D01*
X84357142Y-53095238D01*
X84261904Y-53190476D01*
X84166666Y-53238095D01*
X85357142Y-52952380D02*
X85452380Y-52952380D01*
X85547619Y-53000000D01*
X85595238Y-53047619D01*
X85642857Y-53142857D01*
X85690476Y-53333333D01*
X85690476Y-53571428D01*
X85642857Y-53761904D01*
X85595238Y-53857142D01*
X85547619Y-53904761D01*
X85452380Y-53952380D01*
X85357142Y-53952380D01*
X85261904Y-53904761D01*
X85214285Y-53857142D01*
X85166666Y-53761904D01*
X85119047Y-53571428D01*
X85119047Y-53333333D01*
X85166666Y-53142857D01*
X85214285Y-53047619D01*
X85261904Y-53000000D01*
X85357142Y-52952380D01*
X86880952Y-53952380D02*
X86880952Y-52952380D01*
X87261904Y-52952380D01*
X87357142Y-53000000D01*
X87404761Y-53047619D01*
X87452380Y-53142857D01*
X87452380Y-53285714D01*
X87404761Y-53380952D01*
X87357142Y-53428571D01*
X87261904Y-53476190D01*
X86880952Y-53476190D01*
X87880952Y-53952380D02*
X87880952Y-53285714D01*
X87880952Y-52952380D02*
X87833333Y-53000000D01*
X87880952Y-53047619D01*
X87928571Y-53000000D01*
X87880952Y-52952380D01*
X87880952Y-53047619D01*
X88357142Y-53285714D02*
X88357142Y-53952380D01*
X88357142Y-53380952D02*
X88404761Y-53333333D01*
X88500000Y-53285714D01*
X88642857Y-53285714D01*
X88738095Y-53333333D01*
X88785714Y-53428571D01*
X88785714Y-53952380D01*
X90309523Y-52952380D02*
X90309523Y-53666666D01*
X90261904Y-53809523D01*
X90166666Y-53904761D01*
X90023809Y-53952380D01*
X89928571Y-53952380D01*
X90642857Y-52952380D02*
X91214285Y-52952380D01*
X90928571Y-53952380D02*
X90928571Y-52952380D01*
X91500000Y-53666666D02*
X91976190Y-53666666D01*
X91404761Y-53952380D02*
X91738095Y-52952380D01*
X92071428Y-53952380D01*
X92928571Y-53000000D02*
X92833333Y-52952380D01*
X92690476Y-52952380D01*
X92547619Y-53000000D01*
X92452380Y-53095238D01*
X92404761Y-53190476D01*
X92357142Y-53380952D01*
X92357142Y-53523809D01*
X92404761Y-53714285D01*
X92452380Y-53809523D01*
X92547619Y-53904761D01*
X92690476Y-53952380D01*
X92785714Y-53952380D01*
X92928571Y-53904761D01*
X92976190Y-53857142D01*
X92976190Y-53523809D01*
X92785714Y-53523809D01*
X94166666Y-53952380D02*
X94166666Y-52952380D01*
X94547619Y-52952380D01*
X94642857Y-53000000D01*
X94690476Y-53047619D01*
X94738095Y-53142857D01*
X94738095Y-53285714D01*
X94690476Y-53380952D01*
X94642857Y-53428571D01*
X94547619Y-53476190D01*
X94166666Y-53476190D01*
X95309523Y-53952380D02*
X95214285Y-53904761D01*
X95166666Y-53857142D01*
X95119047Y-53761904D01*
X95119047Y-53476190D01*
X95166666Y-53380952D01*
X95214285Y-53333333D01*
X95309523Y-53285714D01*
X95452380Y-53285714D01*
X95547619Y-53333333D01*
X95595238Y-53380952D01*
X95642857Y-53476190D01*
X95642857Y-53761904D01*
X95595238Y-53857142D01*
X95547619Y-53904761D01*
X95452380Y-53952380D01*
X95309523Y-53952380D01*
X96071428Y-53952380D02*
X96071428Y-53285714D01*
X96071428Y-53476190D02*
X96119047Y-53380952D01*
X96166666Y-53333333D01*
X96261904Y-53285714D01*
X96357142Y-53285714D01*
X96547619Y-53285714D02*
X96928571Y-53285714D01*
X96690476Y-52952380D02*
X96690476Y-53809523D01*
X96738095Y-53904761D01*
X96833333Y-53952380D01*
X96928571Y-53952380D01*
X137738095Y-52904761D02*
X137880952Y-52952380D01*
X138119047Y-52952380D01*
X138214285Y-52904761D01*
X138261904Y-52857142D01*
X138309523Y-52761904D01*
X138309523Y-52666666D01*
X138261904Y-52571428D01*
X138214285Y-52523809D01*
X138119047Y-52476190D01*
X137928571Y-52428571D01*
X137833333Y-52380952D01*
X137785714Y-52333333D01*
X137738095Y-52238095D01*
X137738095Y-52142857D01*
X137785714Y-52047619D01*
X137833333Y-52000000D01*
X137928571Y-51952380D01*
X138166666Y-51952380D01*
X138309523Y-52000000D01*
X138595238Y-51952380D02*
X139166666Y-51952380D01*
X138880952Y-52952380D02*
X138880952Y-51952380D01*
X139500000Y-52571428D02*
X140261904Y-52571428D01*
X141214285Y-52952380D02*
X140738095Y-52952380D01*
X140738095Y-51952380D01*
X141547619Y-52952380D02*
X141547619Y-52285714D01*
X141547619Y-51952380D02*
X141500000Y-52000000D01*
X141547619Y-52047619D01*
X141595238Y-52000000D01*
X141547619Y-51952380D01*
X141547619Y-52047619D01*
X142023809Y-52285714D02*
X142023809Y-52952380D01*
X142023809Y-52380952D02*
X142071428Y-52333333D01*
X142166666Y-52285714D01*
X142309523Y-52285714D01*
X142404761Y-52333333D01*
X142452380Y-52428571D01*
X142452380Y-52952380D01*
X142928571Y-52952380D02*
X142928571Y-51952380D01*
X143023809Y-52571428D02*
X143309523Y-52952380D01*
X143309523Y-52285714D02*
X142928571Y-52666666D01*
X145071428Y-52857142D02*
X145023809Y-52904761D01*
X144880952Y-52952380D01*
X144785714Y-52952380D01*
X144642857Y-52904761D01*
X144547619Y-52809523D01*
X144500000Y-52714285D01*
X144452380Y-52523809D01*
X144452380Y-52380952D01*
X144500000Y-52190476D01*
X144547619Y-52095238D01*
X144642857Y-52000000D01*
X144785714Y-51952380D01*
X144880952Y-51952380D01*
X145023809Y-52000000D01*
X145071428Y-52047619D01*
X145642857Y-52952380D02*
X145547619Y-52904761D01*
X145500000Y-52809523D01*
X145500000Y-51952380D01*
X146166666Y-52952380D02*
X146071428Y-52904761D01*
X146023809Y-52857142D01*
X145976190Y-52761904D01*
X145976190Y-52476190D01*
X146023809Y-52380952D01*
X146071428Y-52333333D01*
X146166666Y-52285714D01*
X146309523Y-52285714D01*
X146404761Y-52333333D01*
X146452380Y-52380952D01*
X146500000Y-52476190D01*
X146500000Y-52761904D01*
X146452380Y-52857142D01*
X146404761Y-52904761D01*
X146309523Y-52952380D01*
X146166666Y-52952380D01*
X146928571Y-52285714D02*
X146928571Y-52952380D01*
X146928571Y-52380952D02*
X146976190Y-52333333D01*
X147071428Y-52285714D01*
X147214285Y-52285714D01*
X147309523Y-52333333D01*
X147357142Y-52428571D01*
X147357142Y-52952380D01*
X148214285Y-52904761D02*
X148119047Y-52952380D01*
X147928571Y-52952380D01*
X147833333Y-52904761D01*
X147785714Y-52809523D01*
X147785714Y-52428571D01*
X147833333Y-52333333D01*
X147928571Y-52285714D01*
X148119047Y-52285714D01*
X148214285Y-52333333D01*
X148261904Y-52428571D01*
X148261904Y-52523809D01*
X147785714Y-52619047D01*
X121809523Y-68452380D02*
X121619047Y-68452380D01*
X121523809Y-68500000D01*
X121476190Y-68547619D01*
X121380952Y-68690476D01*
X121333333Y-68880952D01*
X121333333Y-69261904D01*
X121380952Y-69357142D01*
X121428571Y-69404761D01*
X121523809Y-69452380D01*
X121714285Y-69452380D01*
X121809523Y-69404761D01*
X121857142Y-69357142D01*
X121904761Y-69261904D01*
X121904761Y-69023809D01*
X121857142Y-68928571D01*
X121809523Y-68880952D01*
X121714285Y-68833333D01*
X121523809Y-68833333D01*
X121428571Y-68880952D01*
X121380952Y-68928571D01*
X121333333Y-69023809D01*
X123095238Y-69452380D02*
X123095238Y-68452380D01*
X123476190Y-68452380D01*
X123571428Y-68500000D01*
X123619047Y-68547619D01*
X123666666Y-68642857D01*
X123666666Y-68785714D01*
X123619047Y-68880952D01*
X123571428Y-68928571D01*
X123476190Y-68976190D01*
X123095238Y-68976190D01*
X124095238Y-69452380D02*
X124095238Y-68785714D01*
X124095238Y-68452380D02*
X124047619Y-68500000D01*
X124095238Y-68547619D01*
X124142857Y-68500000D01*
X124095238Y-68452380D01*
X124095238Y-68547619D01*
X124571428Y-68785714D02*
X124571428Y-69452380D01*
X124571428Y-68880952D02*
X124619047Y-68833333D01*
X124714285Y-68785714D01*
X124857142Y-68785714D01*
X124952380Y-68833333D01*
X125000000Y-68928571D01*
X125000000Y-69452380D01*
X126238095Y-69452380D02*
X126238095Y-68452380D01*
X126476190Y-68452380D01*
X126619047Y-68500000D01*
X126714285Y-68595238D01*
X126761904Y-68690476D01*
X126809523Y-68880952D01*
X126809523Y-69023809D01*
X126761904Y-69214285D01*
X126714285Y-69309523D01*
X126619047Y-69404761D01*
X126476190Y-69452380D01*
X126238095Y-69452380D01*
X127571428Y-68928571D02*
X127714285Y-68976190D01*
X127761904Y-69023809D01*
X127809523Y-69119047D01*
X127809523Y-69261904D01*
X127761904Y-69357142D01*
X127714285Y-69404761D01*
X127619047Y-69452380D01*
X127238095Y-69452380D01*
X127238095Y-68452380D01*
X127571428Y-68452380D01*
X127666666Y-68500000D01*
X127714285Y-68547619D01*
X127761904Y-68642857D01*
X127761904Y-68738095D01*
X127714285Y-68833333D01*
X127666666Y-68880952D01*
X127571428Y-68928571D01*
X127238095Y-68928571D01*
X128761904Y-68500000D02*
X128666666Y-68452380D01*
X128523809Y-68452380D01*
X128380952Y-68500000D01*
X128285714Y-68595238D01*
X128238095Y-68690476D01*
X128190476Y-68880952D01*
X128190476Y-69023809D01*
X128238095Y-69214285D01*
X128285714Y-69309523D01*
X128380952Y-69404761D01*
X128523809Y-69452380D01*
X128619047Y-69452380D01*
X128761904Y-69404761D01*
X128809523Y-69357142D01*
X128809523Y-69023809D01*
X128619047Y-69023809D01*
X130000000Y-69452380D02*
X130000000Y-68452380D01*
X130380952Y-68452380D01*
X130476190Y-68500000D01*
X130523809Y-68547619D01*
X130571428Y-68642857D01*
X130571428Y-68785714D01*
X130523809Y-68880952D01*
X130476190Y-68928571D01*
X130380952Y-68976190D01*
X130000000Y-68976190D01*
X131142857Y-69452380D02*
X131047619Y-69404761D01*
X131000000Y-69357142D01*
X130952380Y-69261904D01*
X130952380Y-68976190D01*
X131000000Y-68880952D01*
X131047619Y-68833333D01*
X131142857Y-68785714D01*
X131285714Y-68785714D01*
X131380952Y-68833333D01*
X131428571Y-68880952D01*
X131476190Y-68976190D01*
X131476190Y-69261904D01*
X131428571Y-69357142D01*
X131380952Y-69404761D01*
X131285714Y-69452380D01*
X131142857Y-69452380D01*
X131904761Y-69452380D02*
X131904761Y-68785714D01*
X131904761Y-68976190D02*
X131952380Y-68880952D01*
X132000000Y-68833333D01*
X132095238Y-68785714D01*
X132190476Y-68785714D01*
X132380952Y-68785714D02*
X132761904Y-68785714D01*
X132523809Y-68452380D02*
X132523809Y-69309523D01*
X132571428Y-69404761D01*
X132666666Y-69452380D01*
X132761904Y-69452380D01*
X104333333Y-68785714D02*
X104333333Y-69452380D01*
X104095238Y-68404761D02*
X103857142Y-69119047D01*
X104476190Y-69119047D01*
X105523809Y-68452380D02*
X105761904Y-69452380D01*
X105952380Y-68738095D01*
X106142857Y-69452380D01*
X106380952Y-68452380D01*
X106761904Y-69452380D02*
X106761904Y-68452380D01*
X107238095Y-69452380D02*
X107238095Y-68785714D01*
X107238095Y-68976190D02*
X107285714Y-68880952D01*
X107333333Y-68833333D01*
X107428571Y-68785714D01*
X107523809Y-68785714D01*
X108238095Y-69404761D02*
X108142857Y-69452380D01*
X107952380Y-69452380D01*
X107857142Y-69404761D01*
X107809523Y-69309523D01*
X107809523Y-68928571D01*
X107857142Y-68833333D01*
X107952380Y-68785714D01*
X108142857Y-68785714D01*
X108238095Y-68833333D01*
X108285714Y-68928571D01*
X108285714Y-69023809D01*
X107809523Y-69119047D01*
X109428571Y-69404761D02*
X109571428Y-69452380D01*
X109809523Y-69452380D01*
X109904761Y-69404761D01*
X109952380Y-69357142D01*
X110000000Y-69261904D01*
X110000000Y-69166666D01*
X109952380Y-69071428D01*
X109904761Y-69023809D01*
X109809523Y-68976190D01*
X109619047Y-68928571D01*
X109523809Y-68880952D01*
X109476190Y-68833333D01*
X109428571Y-68738095D01*
X109428571Y-68642857D01*
X109476190Y-68547619D01*
X109523809Y-68500000D01*
X109619047Y-68452380D01*
X109857142Y-68452380D01*
X110000000Y-68500000D01*
X110333333Y-68452380D02*
X110571428Y-69452380D01*
X110761904Y-68738095D01*
X110952380Y-69452380D01*
X111190476Y-68452380D01*
X88523809Y-69404761D02*
X88666666Y-69452380D01*
X88904761Y-69452380D01*
X89000000Y-69404761D01*
X89047619Y-69357142D01*
X89095238Y-69261904D01*
X89095238Y-69166666D01*
X89047619Y-69071428D01*
X89000000Y-69023809D01*
X88904761Y-68976190D01*
X88714285Y-68928571D01*
X88619047Y-68880952D01*
X88571428Y-68833333D01*
X88523809Y-68738095D01*
X88523809Y-68642857D01*
X88571428Y-68547619D01*
X88619047Y-68500000D01*
X88714285Y-68452380D01*
X88952380Y-68452380D01*
X89095238Y-68500000D01*
X89428571Y-68452380D02*
X89666666Y-69452380D01*
X89857142Y-68738095D01*
X90047619Y-69452380D01*
X90285714Y-68452380D01*
X91333333Y-68785714D02*
X91523809Y-69452380D01*
X91714285Y-68976190D01*
X91904761Y-69452380D01*
X92095238Y-68785714D01*
X92476190Y-69452380D02*
X92476190Y-68785714D01*
X92476190Y-68452380D02*
X92428571Y-68500000D01*
X92476190Y-68547619D01*
X92523809Y-68500000D01*
X92476190Y-68452380D01*
X92476190Y-68547619D01*
X92809523Y-68785714D02*
X93190476Y-68785714D01*
X92952380Y-68452380D02*
X92952380Y-69309523D01*
X93000000Y-69404761D01*
X93095238Y-69452380D01*
X93190476Y-69452380D01*
X93523809Y-69452380D02*
X93523809Y-68452380D01*
X93952380Y-69452380D02*
X93952380Y-68928571D01*
X93904761Y-68833333D01*
X93809523Y-68785714D01*
X93666666Y-68785714D01*
X93571428Y-68833333D01*
X93523809Y-68880952D01*
X95761904Y-69452380D02*
X95428571Y-68976190D01*
X95190476Y-69452380D02*
X95190476Y-68452380D01*
X95571428Y-68452380D01*
X95666666Y-68500000D01*
X95714285Y-68547619D01*
X95761904Y-68642857D01*
X95761904Y-68785714D01*
X95714285Y-68880952D01*
X95666666Y-68928571D01*
X95571428Y-68976190D01*
X95190476Y-68976190D01*
X96142857Y-69404761D02*
X96285714Y-69452380D01*
X96523809Y-69452380D01*
X96619047Y-69404761D01*
X96666666Y-69357142D01*
X96714285Y-69261904D01*
X96714285Y-69166666D01*
X96666666Y-69071428D01*
X96619047Y-69023809D01*
X96523809Y-68976190D01*
X96333333Y-68928571D01*
X96238095Y-68880952D01*
X96190476Y-68833333D01*
X96142857Y-68738095D01*
X96142857Y-68642857D01*
X96190476Y-68547619D01*
X96238095Y-68500000D01*
X96333333Y-68452380D01*
X96571428Y-68452380D01*
X96714285Y-68500000D01*
X97000000Y-68452380D02*
X97571428Y-68452380D01*
X97285714Y-69452380D02*
X97285714Y-68452380D01*
X107714285Y-52547619D02*
X107761904Y-52500000D01*
X107857142Y-52452380D01*
X108095238Y-52452380D01*
X108190476Y-52500000D01*
X108238095Y-52547619D01*
X108285714Y-52642857D01*
X108285714Y-52738095D01*
X108238095Y-52880952D01*
X107666666Y-53452380D01*
X108285714Y-53452380D01*
X108904761Y-52452380D02*
X109000000Y-52452380D01*
X109095238Y-52500000D01*
X109142857Y-52547619D01*
X109190476Y-52642857D01*
X109238095Y-52833333D01*
X109238095Y-53071428D01*
X109190476Y-53261904D01*
X109142857Y-53357142D01*
X109095238Y-53404761D01*
X109000000Y-53452380D01*
X108904761Y-53452380D01*
X108809523Y-53404761D01*
X108761904Y-53357142D01*
X108714285Y-53261904D01*
X108666666Y-53071428D01*
X108666666Y-52833333D01*
X108714285Y-52642857D01*
X108761904Y-52547619D01*
X108809523Y-52500000D01*
X108904761Y-52452380D01*
X110428571Y-52785714D02*
X110428571Y-53785714D01*
X110428571Y-52833333D02*
X110523809Y-52785714D01*
X110714285Y-52785714D01*
X110809523Y-52833333D01*
X110857142Y-52880952D01*
X110904761Y-52976190D01*
X110904761Y-53261904D01*
X110857142Y-53357142D01*
X110809523Y-53404761D01*
X110714285Y-53452380D01*
X110523809Y-53452380D01*
X110428571Y-53404761D01*
X111333333Y-53452380D02*
X111333333Y-52785714D01*
X111333333Y-52452380D02*
X111285714Y-52500000D01*
X111333333Y-52547619D01*
X111380952Y-52500000D01*
X111333333Y-52452380D01*
X111333333Y-52547619D01*
X111809523Y-52785714D02*
X111809523Y-53452380D01*
X111809523Y-52880952D02*
X111857142Y-52833333D01*
X111952380Y-52785714D01*
X112095238Y-52785714D01*
X112190476Y-52833333D01*
X112238095Y-52928571D01*
X112238095Y-53452380D01*
X113761904Y-52452380D02*
X113761904Y-53166666D01*
X113714285Y-53309523D01*
X113619047Y-53404761D01*
X113476190Y-53452380D01*
X113380952Y-53452380D01*
X114095238Y-52452380D02*
X114666666Y-52452380D01*
X114380952Y-53452380D02*
X114380952Y-52452380D01*
X114952380Y-53166666D02*
X115428571Y-53166666D01*
X114857142Y-53452380D02*
X115190476Y-52452380D01*
X115523809Y-53452380D01*
X116380952Y-52500000D02*
X116285714Y-52452380D01*
X116142857Y-52452380D01*
X116000000Y-52500000D01*
X115904761Y-52595238D01*
X115857142Y-52690476D01*
X115809523Y-52880952D01*
X115809523Y-53023809D01*
X115857142Y-53214285D01*
X115904761Y-53309523D01*
X116000000Y-53404761D01*
X116142857Y-53452380D01*
X116238095Y-53452380D01*
X116380952Y-53404761D01*
X116428571Y-53357142D01*
X116428571Y-53023809D01*
X116238095Y-53023809D01*
X117619047Y-53452380D02*
X117619047Y-52452380D01*
X118000000Y-52452380D01*
X118095238Y-52500000D01*
X118142857Y-52547619D01*
X118190476Y-52642857D01*
X118190476Y-52785714D01*
X118142857Y-52880952D01*
X118095238Y-52928571D01*
X118000000Y-52976190D01*
X117619047Y-52976190D01*
X118761904Y-53452380D02*
X118666666Y-53404761D01*
X118619047Y-53357142D01*
X118571428Y-53261904D01*
X118571428Y-52976190D01*
X118619047Y-52880952D01*
X118666666Y-52833333D01*
X118761904Y-52785714D01*
X118904761Y-52785714D01*
X119000000Y-52833333D01*
X119047619Y-52880952D01*
X119095238Y-52976190D01*
X119095238Y-53261904D01*
X119047619Y-53357142D01*
X119000000Y-53404761D01*
X118904761Y-53452380D01*
X118761904Y-53452380D01*
X119523809Y-53452380D02*
X119523809Y-52785714D01*
X119523809Y-52976190D02*
X119571428Y-52880952D01*
X119619047Y-52833333D01*
X119714285Y-52785714D01*
X119809523Y-52785714D01*
X120000000Y-52785714D02*
X120380952Y-52785714D01*
X120142857Y-52452380D02*
X120142857Y-53309523D01*
X120190476Y-53404761D01*
X120285714Y-53452380D01*
X120380952Y-53452380D01*
X151952380Y-56627380D02*
X151619047Y-56151190D01*
X151380952Y-56627380D02*
X151380952Y-55627380D01*
X151761904Y-55627380D01*
X151857142Y-55675000D01*
X151904761Y-55722619D01*
X151952380Y-55817857D01*
X151952380Y-55960714D01*
X151904761Y-56055952D01*
X151857142Y-56103571D01*
X151761904Y-56151190D01*
X151380952Y-56151190D01*
X152333333Y-56579761D02*
X152476190Y-56627380D01*
X152714285Y-56627380D01*
X152809523Y-56579761D01*
X152857142Y-56532142D01*
X152904761Y-56436904D01*
X152904761Y-56341666D01*
X152857142Y-56246428D01*
X152809523Y-56198809D01*
X152714285Y-56151190D01*
X152523809Y-56103571D01*
X152428571Y-56055952D01*
X152380952Y-56008333D01*
X152333333Y-55913095D01*
X152333333Y-55817857D01*
X152380952Y-55722619D01*
X152428571Y-55675000D01*
X152523809Y-55627380D01*
X152761904Y-55627380D01*
X152904761Y-55675000D01*
X153190476Y-55627380D02*
X153761904Y-55627380D01*
X153476190Y-56627380D02*
X153476190Y-55627380D01*
X151666666Y-57753571D02*
X151809523Y-57801190D01*
X151857142Y-57848809D01*
X151904761Y-57944047D01*
X151904761Y-58086904D01*
X151857142Y-58182142D01*
X151809523Y-58229761D01*
X151714285Y-58277380D01*
X151333333Y-58277380D01*
X151333333Y-57277380D01*
X151666666Y-57277380D01*
X151761904Y-57325000D01*
X151809523Y-57372619D01*
X151857142Y-57467857D01*
X151857142Y-57563095D01*
X151809523Y-57658333D01*
X151761904Y-57705952D01*
X151666666Y-57753571D01*
X151333333Y-57753571D01*
X152190476Y-57277380D02*
X152761904Y-57277380D01*
X152476190Y-58277380D02*
X152476190Y-57277380D01*
X153095238Y-58277380D02*
X153095238Y-57277380D01*
X153666666Y-58277380D01*
X153666666Y-57277380D01*
X135666666Y-58127380D02*
X135666666Y-57127380D01*
X136047619Y-57127380D01*
X136142857Y-57175000D01*
X136190476Y-57222619D01*
X136238095Y-57317857D01*
X136238095Y-57460714D01*
X136190476Y-57555952D01*
X136142857Y-57603571D01*
X136047619Y-57651190D01*
X135666666Y-57651190D01*
X136571428Y-57127380D02*
X136809523Y-58127380D01*
X137000000Y-57413095D01*
X137190476Y-58127380D01*
X137428571Y-57127380D01*
X138380952Y-58127380D02*
X138047619Y-57651190D01*
X137809523Y-58127380D02*
X137809523Y-57127380D01*
X138190476Y-57127380D01*
X138285714Y-57175000D01*
X138333333Y-57222619D01*
X138380952Y-57317857D01*
X138380952Y-57460714D01*
X138333333Y-57555952D01*
X138285714Y-57603571D01*
X138190476Y-57651190D01*
X137809523Y-57651190D01*
X134595238Y-58777380D02*
X134595238Y-59491666D01*
X134547619Y-59634523D01*
X134452380Y-59729761D01*
X134309523Y-59777380D01*
X134214285Y-59777380D01*
X135071428Y-58777380D02*
X135071428Y-59586904D01*
X135119047Y-59682142D01*
X135166666Y-59729761D01*
X135261904Y-59777380D01*
X135452380Y-59777380D01*
X135547619Y-59729761D01*
X135595238Y-59682142D01*
X135642857Y-59586904D01*
X135642857Y-58777380D01*
X136119047Y-59777380D02*
X136119047Y-58777380D01*
X136452380Y-59491666D01*
X136785714Y-58777380D01*
X136785714Y-59777380D01*
X137261904Y-59777380D02*
X137261904Y-58777380D01*
X137642857Y-58777380D01*
X137738095Y-58825000D01*
X137785714Y-58872619D01*
X137833333Y-58967857D01*
X137833333Y-59110714D01*
X137785714Y-59205952D01*
X137738095Y-59253571D01*
X137642857Y-59301190D01*
X137261904Y-59301190D01*
X138261904Y-59253571D02*
X138595238Y-59253571D01*
X138738095Y-59777380D02*
X138261904Y-59777380D01*
X138261904Y-58777380D01*
X138738095Y-58777380D01*
X139738095Y-59777380D02*
X139404761Y-59301190D01*
X139166666Y-59777380D02*
X139166666Y-58777380D01*
X139547619Y-58777380D01*
X139642857Y-58825000D01*
X139690476Y-58872619D01*
X139738095Y-58967857D01*
X139738095Y-59110714D01*
X139690476Y-59205952D01*
X139642857Y-59253571D01*
X139547619Y-59301190D01*
X139166666Y-59301190D01*
X142666666Y-59127380D02*
X142666666Y-58127380D01*
X143047619Y-58127380D01*
X143142857Y-58175000D01*
X143190476Y-58222619D01*
X143238095Y-58317857D01*
X143238095Y-58460714D01*
X143190476Y-58555952D01*
X143142857Y-58603571D01*
X143047619Y-58651190D01*
X142666666Y-58651190D01*
X143571428Y-58127380D02*
X143809523Y-59127380D01*
X144000000Y-58413095D01*
X144190476Y-59127380D01*
X144428571Y-58127380D01*
X145380952Y-59127380D02*
X145047619Y-58651190D01*
X144809523Y-59127380D02*
X144809523Y-58127380D01*
X145190476Y-58127380D01*
X145285714Y-58175000D01*
X145333333Y-58222619D01*
X145380952Y-58317857D01*
X145380952Y-58460714D01*
X145333333Y-58555952D01*
X145285714Y-58603571D01*
X145190476Y-58651190D01*
X144809523Y-58651190D01*
X143357142Y-60777380D02*
X142880952Y-60777380D01*
X142880952Y-59777380D01*
X143690476Y-60253571D02*
X144023809Y-60253571D01*
X144166666Y-60777380D02*
X143690476Y-60777380D01*
X143690476Y-59777380D01*
X144166666Y-59777380D01*
X144595238Y-60777380D02*
X144595238Y-59777380D01*
X144833333Y-59777380D01*
X144976190Y-59825000D01*
X145071428Y-59920238D01*
X145119047Y-60015476D01*
X145166666Y-60205952D01*
X145166666Y-60348809D01*
X145119047Y-60539285D01*
X145071428Y-60634523D01*
X144976190Y-60729761D01*
X144833333Y-60777380D01*
X144595238Y-60777380D01*
D11*
X154500000Y-67500000D02*
X154500000Y-61500000D01*
X154500000Y-61500000D02*
X151000000Y-61500000D01*
X151000000Y-61500000D02*
X151000000Y-67500000D01*
X151000000Y-67500000D02*
X154500000Y-67500000D01*
X153500000Y-66500000D02*
X153500000Y-62500000D01*
X153500000Y-62500000D02*
X152000000Y-62500000D01*
X152000000Y-62500000D02*
X152000000Y-66500000D01*
X152000000Y-66500000D02*
X153500000Y-66500000D01*
X143272936Y-66910000D02*
X144727064Y-66910000D01*
X143272936Y-65090000D02*
X144727064Y-65090000D01*
X86670000Y-67830000D02*
X86670000Y-66500000D01*
X88000000Y-67830000D02*
X86670000Y-67830000D01*
X89270000Y-67830000D02*
X89270000Y-65170000D01*
X89270000Y-65170000D02*
X99490000Y-65170000D01*
X89270000Y-67830000D02*
X99490000Y-67830000D01*
X99490000Y-67830000D02*
X99490000Y-65170000D01*
X147500000Y-40820000D02*
X148000000Y-41820000D01*
X148500000Y-40820000D02*
X147500000Y-40820000D01*
X148000000Y-41820000D02*
X148500000Y-40820000D01*
X140870000Y-43520000D02*
X140870000Y-42210000D01*
X140870000Y-43520000D02*
X140870000Y-43520000D01*
X133930000Y-43520000D02*
X140870000Y-43520000D01*
X133930000Y-50020000D02*
X133930000Y-43520000D01*
X151910000Y-50020000D02*
X133930000Y-50020000D01*
X151910000Y-43520000D02*
X151910000Y-50020000D01*
X144970000Y-43520000D02*
X151910000Y-43520000D01*
X144970000Y-42210000D02*
X144970000Y-43520000D01*
X132630000Y-42210000D02*
X153210000Y-42210000D01*
X132630000Y-51330000D02*
X132630000Y-42210000D01*
X153210000Y-51330000D02*
X132630000Y-51330000D01*
X153210000Y-42210000D02*
X153210000Y-51330000D01*
X102630000Y-67830000D02*
X102630000Y-66500000D01*
X103960000Y-67830000D02*
X102630000Y-67830000D01*
X105230000Y-67830000D02*
X105230000Y-65170000D01*
X105230000Y-65170000D02*
X112910000Y-65170000D01*
X105230000Y-67830000D02*
X112910000Y-67830000D01*
X112910000Y-67830000D02*
X112910000Y-65170000D01*
X120460000Y-69220000D02*
X119960000Y-68220000D01*
X119460000Y-69220000D02*
X120460000Y-69220000D01*
X119960000Y-68220000D02*
X119460000Y-69220000D01*
X124550000Y-66520000D02*
X124550000Y-67830000D01*
X124550000Y-66520000D02*
X124550000Y-66520000D01*
X128950000Y-66520000D02*
X124550000Y-66520000D01*
X128950000Y-60020000D02*
X128950000Y-66520000D01*
X116050000Y-60020000D02*
X128950000Y-60020000D01*
X116050000Y-66520000D02*
X116050000Y-60020000D01*
X120450000Y-66520000D02*
X116050000Y-66520000D01*
X120450000Y-67830000D02*
X120450000Y-66520000D01*
X130250000Y-67830000D02*
X114750000Y-67830000D01*
X130250000Y-58710000D02*
X130250000Y-67830000D01*
X114750000Y-58710000D02*
X130250000Y-58710000D01*
X114750000Y-67830000D02*
X114750000Y-58710000D01*
X135670000Y-61670000D02*
X137000000Y-61670000D01*
X135670000Y-63000000D02*
X135670000Y-61670000D01*
X135670000Y-64270000D02*
X138330000Y-64270000D01*
X138330000Y-64270000D02*
X138330000Y-66870000D01*
X135670000Y-64270000D02*
X135670000Y-66870000D01*
X135670000Y-66870000D02*
X138330000Y-66870000D01*
X103500000Y-52960000D02*
X103000000Y-51960000D01*
X102500000Y-52960000D02*
X103500000Y-52960000D01*
X103000000Y-51960000D02*
X102500000Y-52960000D01*
X116480000Y-50260000D02*
X116480000Y-51570000D01*
X116480000Y-50260000D02*
X116480000Y-50260000D01*
X129770000Y-50260000D02*
X116480000Y-50260000D01*
X129770000Y-43760000D02*
X129770000Y-50260000D01*
X99090000Y-43760000D02*
X129770000Y-43760000D01*
X99090000Y-50260000D02*
X99090000Y-43760000D01*
X112380000Y-50260000D02*
X99090000Y-50260000D01*
X112380000Y-51570000D02*
X112380000Y-50260000D01*
X131070000Y-51570000D02*
X97790000Y-51570000D01*
X131070000Y-42450000D02*
X131070000Y-51570000D01*
X97790000Y-42450000D02*
X131070000Y-42450000D01*
X97790000Y-51570000D02*
X97790000Y-42450000D01*
X155150000Y-48000000D02*
X156150000Y-47500000D01*
X155150000Y-47000000D02*
X155150000Y-48000000D01*
X156150000Y-47500000D02*
X155150000Y-47000000D01*
X161770000Y-62870000D02*
X161770000Y-42290000D01*
X170890000Y-62870000D02*
X161770000Y-62870000D01*
X170890000Y-42290000D02*
X170890000Y-62870000D01*
X161770000Y-42290000D02*
X170890000Y-42290000D01*
X161770000Y-54630000D02*
X170890000Y-54630000D01*
X161770000Y-50530000D02*
X170890000Y-50530000D01*
X81420001Y-53180000D02*
X80920001Y-52180000D01*
X80420001Y-53180000D02*
X81420001Y-53180000D01*
X80920001Y-52180000D02*
X80420001Y-53180000D01*
X88050001Y-50480000D02*
X88050001Y-51790000D01*
X88050001Y-50480000D02*
X88050001Y-50480000D01*
X94990001Y-50480000D02*
X88050001Y-50480000D01*
X94990001Y-43980000D02*
X94990001Y-50480000D01*
X77010001Y-43980000D02*
X94990001Y-43980000D01*
X77010001Y-50480000D02*
X77010001Y-43980000D01*
X83950001Y-50480000D02*
X77010001Y-50480000D01*
X83950001Y-51790000D02*
X83950001Y-50480000D01*
X96290001Y-51790000D02*
X75710001Y-51790000D01*
X96290001Y-42670000D02*
X96290001Y-51790000D01*
X75710001Y-42670000D02*
X96290001Y-42670000D01*
X75710001Y-51790000D02*
X75710001Y-42670000D01*
X141540000Y-64135000D02*
X145600000Y-64135000D01*
X141540000Y-61865000D02*
X141540000Y-64135000D01*
X145600000Y-61865000D02*
X141540000Y-61865000D01*
%LPC*%
G36*
G01*
X153050000Y-61475000D02*
X152450000Y-61475000D01*
G75*
G02*
X152400000Y-61425000I0J50000D01*
G01*
X152400000Y-59925000D01*
G75*
G02*
X152450000Y-59875000I50000J0D01*
G01*
X153050000Y-59875000D01*
G75*
G02*
X153100000Y-59925000I0J-50000D01*
G01*
X153100000Y-61425000D01*
G75*
G02*
X153050000Y-61475000I-50000J0D01*
G01*
G37*
G36*
G01*
X153050000Y-69125000D02*
X152450000Y-69125000D01*
G75*
G02*
X152400000Y-69075000I0J50000D01*
G01*
X152400000Y-67575000D01*
G75*
G02*
X152450000Y-67525000I50000J0D01*
G01*
X153050000Y-67525000D01*
G75*
G02*
X153100000Y-67575000I0J-50000D01*
G01*
X153100000Y-69075000D01*
G75*
G02*
X153050000Y-69125000I-50000J0D01*
G01*
G37*
G36*
G01*
X144850000Y-66655770D02*
X144850000Y-65344230D01*
G75*
G02*
X145119230Y-65075000I269230J0D01*
G01*
X145980770Y-65075000D01*
G75*
G02*
X146250000Y-65344230I0J-269230D01*
G01*
X146250000Y-66655770D01*
G75*
G02*
X145980770Y-66925000I-269230J0D01*
G01*
X145119230Y-66925000D01*
G75*
G02*
X144850000Y-66655770I0J269230D01*
G01*
G37*
G36*
G01*
X141750000Y-66655770D02*
X141750000Y-65344230D01*
G75*
G02*
X142019230Y-65075000I269230J0D01*
G01*
X142880770Y-65075000D01*
G75*
G02*
X143150000Y-65344230I0J-269230D01*
G01*
X143150000Y-66655770D01*
G75*
G02*
X142880770Y-66925000I-269230J0D01*
G01*
X142019230Y-66925000D01*
G75*
G02*
X141750000Y-66655770I0J269230D01*
G01*
G37*
D12*
X98160000Y-66500000D03*
X95620000Y-66500000D03*
X93080000Y-66500000D03*
X90540000Y-66500000D03*
G36*
G01*
X88850000Y-67400000D02*
X87150000Y-67400000D01*
G75*
G02*
X87100000Y-67350000I0J50000D01*
G01*
X87100000Y-65650000D01*
G75*
G02*
X87150000Y-65600000I50000J0D01*
G01*
X88850000Y-65600000D01*
G75*
G02*
X88900000Y-65650000I0J-50000D01*
G01*
X88900000Y-67350000D01*
G75*
G02*
X88850000Y-67400000I-50000J0D01*
G01*
G37*
D13*
X137840000Y-48040000D03*
X140380000Y-48040000D03*
X142920000Y-48040000D03*
X145460000Y-48040000D03*
X148000000Y-48040000D03*
X137840000Y-45500000D03*
X140380000Y-45500000D03*
X142920000Y-45500000D03*
X145460000Y-45500000D03*
G36*
G01*
X147364705Y-44600000D02*
X148635295Y-44600000D01*
G75*
G02*
X148900000Y-44864705I0J-264705D01*
G01*
X148900000Y-46135295D01*
G75*
G02*
X148635295Y-46400000I-264705J0D01*
G01*
X147364705Y-46400000D01*
G75*
G02*
X147100000Y-46135295I0J264705D01*
G01*
X147100000Y-44864705D01*
G75*
G02*
X147364705Y-44600000I264705J0D01*
G01*
G37*
D12*
X111580000Y-66500000D03*
X109040000Y-66500000D03*
X106500000Y-66500000D03*
G36*
G01*
X104810000Y-67400000D02*
X103110000Y-67400000D01*
G75*
G02*
X103060000Y-67350000I0J50000D01*
G01*
X103060000Y-65650000D01*
G75*
G02*
X103110000Y-65600000I50000J0D01*
G01*
X104810000Y-65600000D01*
G75*
G02*
X104860000Y-65650000I0J-50000D01*
G01*
X104860000Y-67350000D01*
G75*
G02*
X104810000Y-67400000I-50000J0D01*
G01*
G37*
D13*
X125040000Y-62000000D03*
X122500000Y-62000000D03*
X119960000Y-62000000D03*
X125040000Y-64540000D03*
X122500000Y-64540000D03*
G36*
G01*
X120595295Y-65440000D02*
X119324705Y-65440000D01*
G75*
G02*
X119060000Y-65175295I0J264705D01*
G01*
X119060000Y-63904705D01*
G75*
G02*
X119324705Y-63640000I264705J0D01*
G01*
X120595295Y-63640000D01*
G75*
G02*
X120860000Y-63904705I0J-264705D01*
G01*
X120860000Y-65175295D01*
G75*
G02*
X120595295Y-65440000I-264705J0D01*
G01*
G37*
D12*
X137000000Y-65540000D03*
G36*
G01*
X136100000Y-63850000D02*
X136100000Y-62150000D01*
G75*
G02*
X136150000Y-62100000I50000J0D01*
G01*
X137850000Y-62100000D01*
G75*
G02*
X137900000Y-62150000I0J-50000D01*
G01*
X137900000Y-63850000D01*
G75*
G02*
X137850000Y-63900000I-50000J0D01*
G01*
X136150000Y-63900000D01*
G75*
G02*
X136100000Y-63850000I0J50000D01*
G01*
G37*
D13*
X125860000Y-45740000D03*
X123320000Y-45740000D03*
X120780000Y-45740000D03*
X118240000Y-45740000D03*
X115700000Y-45740000D03*
X113160000Y-45740000D03*
X110620000Y-45740000D03*
X108080000Y-45740000D03*
X105540000Y-45740000D03*
X103000000Y-45740000D03*
X125860000Y-48280000D03*
X123320000Y-48280000D03*
X120780000Y-48280000D03*
X118240000Y-48280000D03*
X115700000Y-48280000D03*
X113160000Y-48280000D03*
X110620000Y-48280000D03*
X108080000Y-48280000D03*
X105540000Y-48280000D03*
G36*
G01*
X103635295Y-49180000D02*
X102364705Y-49180000D01*
G75*
G02*
X102100000Y-48915295I0J264705D01*
G01*
X102100000Y-47644705D01*
G75*
G02*
X102364705Y-47380000I264705J0D01*
G01*
X103635295Y-47380000D01*
G75*
G02*
X103900000Y-47644705I0J-264705D01*
G01*
X103900000Y-48915295D01*
G75*
G02*
X103635295Y-49180000I-264705J0D01*
G01*
G37*
X160040000Y-57660000D03*
X160040000Y-55120000D03*
X160040000Y-52580000D03*
X160040000Y-50040000D03*
X160040000Y-47500000D03*
X157500000Y-57660000D03*
X157500000Y-55120000D03*
X157500000Y-52580000D03*
X157500000Y-50040000D03*
G36*
G01*
X156600000Y-48135295D02*
X156600000Y-46864705D01*
G75*
G02*
X156864705Y-46600000I264705J0D01*
G01*
X158135295Y-46600000D01*
G75*
G02*
X158400000Y-46864705I0J-264705D01*
G01*
X158400000Y-48135295D01*
G75*
G02*
X158135295Y-48400000I-264705J0D01*
G01*
X156864705Y-48400000D01*
G75*
G02*
X156600000Y-48135295I0J264705D01*
G01*
G37*
X91080001Y-45960000D03*
X88540001Y-45960000D03*
X86000001Y-45960000D03*
X83460001Y-45960000D03*
X80920001Y-45960000D03*
X91080001Y-48500000D03*
X88540001Y-48500000D03*
X86000001Y-48500000D03*
X83460001Y-48500000D03*
G36*
G01*
X81555296Y-49400000D02*
X80284706Y-49400000D01*
G75*
G02*
X80020001Y-49135295I0J264705D01*
G01*
X80020001Y-47864705D01*
G75*
G02*
X80284706Y-47600000I264705J0D01*
G01*
X81555296Y-47600000D01*
G75*
G02*
X81820001Y-47864705I0J-264705D01*
G01*
X81820001Y-49135295D01*
G75*
G02*
X81555296Y-49400000I-264705J0D01*
G01*
G37*
G36*
G01*
X144725000Y-63657457D02*
X144725000Y-62342543D01*
G75*
G02*
X144992543Y-62075000I267543J0D01*
G01*
X145982457Y-62075000D01*
G75*
G02*
X146250000Y-62342543I0J-267543D01*
G01*
X146250000Y-63657457D01*
G75*
G02*
X145982457Y-63925000I-267543J0D01*
G01*
X144992543Y-63925000D01*
G75*
G02*
X144725000Y-63657457I0J267543D01*
G01*
G37*
G36*
G01*
X141750000Y-63657457D02*
X141750000Y-62342543D01*
G75*
G02*
X142017543Y-62075000I267543J0D01*
G01*
X143007457Y-62075000D01*
G75*
G02*
X143275000Y-62342543I0J-267543D01*
G01*
X143275000Y-63657457D01*
G75*
G02*
X143007457Y-63925000I-267543J0D01*
G01*
X142017543Y-63925000D01*
G75*
G02*
X141750000Y-63657457I0J267543D01*
G01*
G37*
M02*
