G04 #@! TF.GenerationSoftware,KiCad,Pcbnew,(5.1.10)-1*
G04 #@! TF.CreationDate,2022-05-07T20:41:14+02:00*
G04 #@! TF.ProjectId,STM_programming_ports,53544d5f-7072-46f6-9772-616d6d696e67,rev?*
G04 #@! TF.SameCoordinates,Original*
G04 #@! TF.FileFunction,Copper,L1,Top*
G04 #@! TF.FilePolarity,Positive*
%FSLAX46Y46*%
G04 Gerber Fmt 4.6, Leading zero omitted, Abs format (unit mm)*
G04 Created by KiCad (PCBNEW (5.1.10)-1) date 2022-05-07 20:41:14*
%MOMM*%
%LPD*%
G01*
G04 APERTURE LIST*
G04 #@! TA.AperFunction,SMDPad,CuDef*
%ADD10R,0.600000X1.500000*%
G04 #@! TD*
G04 #@! TA.AperFunction,ComponentPad*
%ADD11O,1.700000X1.700000*%
G04 #@! TD*
G04 #@! TA.AperFunction,ComponentPad*
%ADD12R,1.700000X1.700000*%
G04 #@! TD*
G04 #@! TA.AperFunction,ComponentPad*
%ADD13C,1.700000*%
G04 #@! TD*
G04 #@! TA.AperFunction,ViaPad*
%ADD14C,0.800000*%
G04 #@! TD*
G04 #@! TA.AperFunction,Conductor*
%ADD15C,0.200000*%
G04 #@! TD*
G04 #@! TA.AperFunction,Conductor*
%ADD16C,0.500000*%
G04 #@! TD*
G04 #@! TA.AperFunction,Conductor*
%ADD17C,0.254000*%
G04 #@! TD*
G04 #@! TA.AperFunction,Conductor*
%ADD18C,0.150000*%
G04 #@! TD*
G04 APERTURE END LIST*
D10*
X152750000Y-60675000D03*
X152750000Y-68325000D03*
G04 #@! TA.AperFunction,SMDPad,CuDef*
G36*
G01*
X144900000Y-66625000D02*
X144900000Y-65375000D01*
G75*
G02*
X145150000Y-65125000I250000J0D01*
G01*
X145950000Y-65125000D01*
G75*
G02*
X146200000Y-65375000I0J-250000D01*
G01*
X146200000Y-66625000D01*
G75*
G02*
X145950000Y-66875000I-250000J0D01*
G01*
X145150000Y-66875000D01*
G75*
G02*
X144900000Y-66625000I0J250000D01*
G01*
G37*
G04 #@! TD.AperFunction*
G04 #@! TA.AperFunction,SMDPad,CuDef*
G36*
G01*
X141800000Y-66625000D02*
X141800000Y-65375000D01*
G75*
G02*
X142050000Y-65125000I250000J0D01*
G01*
X142850000Y-65125000D01*
G75*
G02*
X143100000Y-65375000I0J-250000D01*
G01*
X143100000Y-66625000D01*
G75*
G02*
X142850000Y-66875000I-250000J0D01*
G01*
X142050000Y-66875000D01*
G75*
G02*
X141800000Y-66625000I0J250000D01*
G01*
G37*
G04 #@! TD.AperFunction*
D11*
X98160000Y-66500000D03*
X95620000Y-66500000D03*
X93080000Y-66500000D03*
X90540000Y-66500000D03*
D12*
X88000000Y-66500000D03*
D13*
X137840000Y-48040000D03*
X140380000Y-48040000D03*
X142920000Y-48040000D03*
X145460000Y-48040000D03*
X148000000Y-48040000D03*
X137840000Y-45500000D03*
X140380000Y-45500000D03*
X142920000Y-45500000D03*
X145460000Y-45500000D03*
G04 #@! TA.AperFunction,ComponentPad*
G36*
G01*
X147400000Y-44650000D02*
X148600000Y-44650000D01*
G75*
G02*
X148850000Y-44900000I0J-250000D01*
G01*
X148850000Y-46100000D01*
G75*
G02*
X148600000Y-46350000I-250000J0D01*
G01*
X147400000Y-46350000D01*
G75*
G02*
X147150000Y-46100000I0J250000D01*
G01*
X147150000Y-44900000D01*
G75*
G02*
X147400000Y-44650000I250000J0D01*
G01*
G37*
G04 #@! TD.AperFunction*
D11*
X111580000Y-66500000D03*
X109040000Y-66500000D03*
X106500000Y-66500000D03*
D12*
X103960000Y-66500000D03*
D13*
X125040000Y-62000000D03*
X122500000Y-62000000D03*
X119960000Y-62000000D03*
X125040000Y-64540000D03*
X122500000Y-64540000D03*
G04 #@! TA.AperFunction,ComponentPad*
G36*
G01*
X120560000Y-65390000D02*
X119360000Y-65390000D01*
G75*
G02*
X119110000Y-65140000I0J250000D01*
G01*
X119110000Y-63940000D01*
G75*
G02*
X119360000Y-63690000I250000J0D01*
G01*
X120560000Y-63690000D01*
G75*
G02*
X120810000Y-63940000I0J-250000D01*
G01*
X120810000Y-65140000D01*
G75*
G02*
X120560000Y-65390000I-250000J0D01*
G01*
G37*
G04 #@! TD.AperFunction*
D11*
X137000000Y-65540000D03*
D12*
X137000000Y-63000000D03*
D13*
X125860000Y-45740000D03*
X123320000Y-45740000D03*
X120780000Y-45740000D03*
X118240000Y-45740000D03*
X115700000Y-45740000D03*
X113160000Y-45740000D03*
X110620000Y-45740000D03*
X108080000Y-45740000D03*
X105540000Y-45740000D03*
X103000000Y-45740000D03*
X125860000Y-48280000D03*
X123320000Y-48280000D03*
X120780000Y-48280000D03*
X118240000Y-48280000D03*
X115700000Y-48280000D03*
X113160000Y-48280000D03*
X110620000Y-48280000D03*
X108080000Y-48280000D03*
X105540000Y-48280000D03*
G04 #@! TA.AperFunction,ComponentPad*
G36*
G01*
X103600000Y-49130000D02*
X102400000Y-49130000D01*
G75*
G02*
X102150000Y-48880000I0J250000D01*
G01*
X102150000Y-47680000D01*
G75*
G02*
X102400000Y-47430000I250000J0D01*
G01*
X103600000Y-47430000D01*
G75*
G02*
X103850000Y-47680000I0J-250000D01*
G01*
X103850000Y-48880000D01*
G75*
G02*
X103600000Y-49130000I-250000J0D01*
G01*
G37*
G04 #@! TD.AperFunction*
X160040000Y-57660000D03*
X160040000Y-55120000D03*
X160040000Y-52580000D03*
X160040000Y-50040000D03*
X160040000Y-47500000D03*
X157500000Y-57660000D03*
X157500000Y-55120000D03*
X157500000Y-52580000D03*
X157500000Y-50040000D03*
G04 #@! TA.AperFunction,ComponentPad*
G36*
G01*
X156650000Y-48100000D02*
X156650000Y-46900000D01*
G75*
G02*
X156900000Y-46650000I250000J0D01*
G01*
X158100000Y-46650000D01*
G75*
G02*
X158350000Y-46900000I0J-250000D01*
G01*
X158350000Y-48100000D01*
G75*
G02*
X158100000Y-48350000I-250000J0D01*
G01*
X156900000Y-48350000D01*
G75*
G02*
X156650000Y-48100000I0J250000D01*
G01*
G37*
G04 #@! TD.AperFunction*
X91080001Y-45960000D03*
X88540001Y-45960000D03*
X86000001Y-45960000D03*
X83460001Y-45960000D03*
X80920001Y-45960000D03*
X91080001Y-48500000D03*
X88540001Y-48500000D03*
X86000001Y-48500000D03*
X83460001Y-48500000D03*
G04 #@! TA.AperFunction,ComponentPad*
G36*
G01*
X81520001Y-49350000D02*
X80320001Y-49350000D01*
G75*
G02*
X80070001Y-49100000I0J250000D01*
G01*
X80070001Y-47900000D01*
G75*
G02*
X80320001Y-47650000I250000J0D01*
G01*
X81520001Y-47650000D01*
G75*
G02*
X81770001Y-47900000I0J-250000D01*
G01*
X81770001Y-49100000D01*
G75*
G02*
X81520001Y-49350000I-250000J0D01*
G01*
G37*
G04 #@! TD.AperFunction*
G04 #@! TA.AperFunction,SMDPad,CuDef*
G36*
G01*
X144775000Y-63625000D02*
X144775000Y-62375000D01*
G75*
G02*
X145025000Y-62125000I250000J0D01*
G01*
X145950000Y-62125000D01*
G75*
G02*
X146200000Y-62375000I0J-250000D01*
G01*
X146200000Y-63625000D01*
G75*
G02*
X145950000Y-63875000I-250000J0D01*
G01*
X145025000Y-63875000D01*
G75*
G02*
X144775000Y-63625000I0J250000D01*
G01*
G37*
G04 #@! TD.AperFunction*
G04 #@! TA.AperFunction,SMDPad,CuDef*
G36*
G01*
X141800000Y-63625000D02*
X141800000Y-62375000D01*
G75*
G02*
X142050000Y-62125000I250000J0D01*
G01*
X142975000Y-62125000D01*
G75*
G02*
X143225000Y-62375000I0J-250000D01*
G01*
X143225000Y-63625000D01*
G75*
G02*
X142975000Y-63875000I-250000J0D01*
G01*
X142050000Y-63875000D01*
G75*
G02*
X141800000Y-63625000I0J250000D01*
G01*
G37*
G04 #@! TD.AperFunction*
D14*
X97120001Y-52000000D03*
X122500000Y-52000000D03*
X152750000Y-58750000D03*
X144108006Y-54108006D03*
X91500000Y-54000000D03*
X118391994Y-54108006D03*
X126108006Y-54108006D03*
X142837991Y-55162009D03*
X91500000Y-55054003D03*
X113162009Y-55162009D03*
X106587991Y-55162009D03*
X147945997Y-53054003D03*
X110554003Y-53054003D03*
X93445997Y-53054003D03*
X121254003Y-53054003D03*
X138000000Y-56500000D03*
X103000000Y-56500000D03*
D15*
X157500000Y-47500000D02*
X152500000Y-47500000D01*
X150500000Y-45500000D02*
X152500000Y-47500000D01*
X148000000Y-45500000D02*
X150500000Y-45500000D01*
X97120001Y-52000000D02*
X91080001Y-45960000D01*
X152500000Y-47500000D02*
X148000000Y-52000000D01*
X122500000Y-52000000D02*
X121000000Y-52000000D01*
X148000000Y-52000000D02*
X122500000Y-52000000D01*
X120780000Y-51970000D02*
X120750000Y-52000000D01*
X120780000Y-48280000D02*
X120780000Y-51970000D01*
X120750000Y-52000000D02*
X97120001Y-52000000D01*
X121000000Y-52000000D02*
X120750000Y-52000000D01*
X152750000Y-60675000D02*
X152750000Y-58750000D01*
X157500000Y-52580000D02*
X155971994Y-54108006D01*
X155971994Y-54108006D02*
X144108006Y-54108006D01*
X91608006Y-54108006D02*
X91500000Y-54000000D01*
X144108006Y-54108006D02*
X138108006Y-54108006D01*
X138108006Y-54108006D02*
X138000000Y-54108006D01*
X118391994Y-54108006D02*
X91608006Y-54108006D01*
X126108006Y-54108006D02*
X118391994Y-54108006D01*
X138108006Y-54108006D02*
X126108006Y-54108006D01*
X156938065Y-53784001D02*
X155560057Y-55162009D01*
X158835999Y-53784001D02*
X156938065Y-53784001D01*
X160040000Y-52580000D02*
X158835999Y-53784001D01*
X142837991Y-55162009D02*
X138000000Y-55162009D01*
X155560057Y-55162009D02*
X142837991Y-55162009D01*
X91608006Y-55162009D02*
X91500000Y-55054003D01*
X138000000Y-55162009D02*
X113162009Y-55162009D01*
X106337991Y-55162009D02*
X91608006Y-55162009D01*
X113162009Y-55202009D02*
X113162009Y-55162009D01*
X106500000Y-55250000D02*
X106587991Y-55162009D01*
X106587991Y-55162009D02*
X106337991Y-55162009D01*
X113162009Y-55162009D02*
X106587991Y-55162009D01*
X158835990Y-48704010D02*
X152295990Y-48704010D01*
X160040000Y-47500000D02*
X158835990Y-48704010D01*
X152295990Y-48704010D02*
X147945997Y-53054003D01*
X82124011Y-47164010D02*
X80920001Y-45960000D01*
X82124011Y-48945932D02*
X82124011Y-47164010D01*
X86232082Y-53054003D02*
X82124011Y-48945932D01*
X93445997Y-53054003D02*
X86232082Y-53054003D01*
X110554003Y-53054003D02*
X93445997Y-53054003D01*
X121254003Y-53054003D02*
X110554003Y-53054003D01*
X147945997Y-53054003D02*
X121254003Y-53054003D01*
D16*
X137460000Y-66000000D02*
X137000000Y-65540000D01*
X142450000Y-66000000D02*
X137460000Y-66000000D01*
X135645999Y-56604001D02*
X135750000Y-56500000D01*
X135645999Y-64185999D02*
X135645999Y-56604001D01*
X137000000Y-65540000D02*
X135645999Y-64185999D01*
X135750000Y-56500000D02*
X138000000Y-56500000D01*
X130540000Y-56500000D02*
X135750000Y-56500000D01*
X80920001Y-49350000D02*
X80920001Y-48500000D01*
X88070001Y-56500000D02*
X80920001Y-49350000D01*
X98160000Y-56590000D02*
X98250000Y-56500000D01*
X98160000Y-66500000D02*
X98160000Y-56590000D01*
X98250000Y-56500000D02*
X88070001Y-56500000D01*
X111580000Y-66500000D02*
X111580000Y-56670000D01*
X111580000Y-56670000D02*
X111750000Y-56500000D01*
X103000000Y-56500000D02*
X98250000Y-56500000D01*
X111750000Y-56500000D02*
X103000000Y-56500000D01*
X125040000Y-56560000D02*
X125100000Y-56500000D01*
X125040000Y-62000000D02*
X125040000Y-56560000D01*
X125100000Y-56500000D02*
X111750000Y-56500000D01*
X130540000Y-56500000D02*
X125100000Y-56500000D01*
X103000000Y-45740000D02*
X103000000Y-48280000D01*
X145550000Y-63062500D02*
X145487500Y-63000000D01*
X145550000Y-66000000D02*
X145550000Y-63062500D01*
X157500000Y-55120000D02*
X156620000Y-56000000D01*
X144000000Y-56000000D02*
X137000000Y-63000000D01*
X156620000Y-56000000D02*
X144000000Y-56000000D01*
D17*
X160840001Y-46248549D02*
X160743411Y-46184010D01*
X160473158Y-46072068D01*
X160186260Y-46015000D01*
X159893740Y-46015000D01*
X159606842Y-46072068D01*
X159336589Y-46184010D01*
X159093368Y-46346525D01*
X158906285Y-46533608D01*
X158838405Y-46406614D01*
X158727962Y-46272038D01*
X158593386Y-46161595D01*
X158439850Y-46079528D01*
X158273254Y-46028992D01*
X158100000Y-46011928D01*
X156900000Y-46011928D01*
X156726746Y-46028992D01*
X156560150Y-46079528D01*
X156406614Y-46161595D01*
X156272038Y-46272038D01*
X156161595Y-46406614D01*
X156079528Y-46560150D01*
X156028992Y-46726746D01*
X156025224Y-46765000D01*
X152804447Y-46765000D01*
X151045258Y-45005812D01*
X151022238Y-44977762D01*
X150910320Y-44885913D01*
X150782633Y-44817663D01*
X150644085Y-44775635D01*
X150536105Y-44765000D01*
X150500000Y-44761444D01*
X150463895Y-44765000D01*
X149474776Y-44765000D01*
X149471008Y-44726746D01*
X149420472Y-44560150D01*
X149338405Y-44406614D01*
X149227962Y-44272038D01*
X149093386Y-44161595D01*
X148939850Y-44079528D01*
X148773254Y-44028992D01*
X148600000Y-44011928D01*
X147400000Y-44011928D01*
X147226746Y-44028992D01*
X147060150Y-44079528D01*
X146906614Y-44161595D01*
X146772038Y-44272038D01*
X146661595Y-44406614D01*
X146579528Y-44560150D01*
X146546420Y-44669293D01*
X146488397Y-44651208D01*
X145639605Y-45500000D01*
X146488397Y-46348792D01*
X146546420Y-46330707D01*
X146579528Y-46439850D01*
X146661595Y-46593386D01*
X146772038Y-46727962D01*
X146906614Y-46838405D01*
X147033608Y-46906285D01*
X146846525Y-47093368D01*
X146730689Y-47266729D01*
X146488397Y-47191208D01*
X145639605Y-48040000D01*
X146488397Y-48888792D01*
X146730689Y-48813271D01*
X146846525Y-48986632D01*
X147053368Y-49193475D01*
X147296589Y-49355990D01*
X147566842Y-49467932D01*
X147853740Y-49525000D01*
X148146260Y-49525000D01*
X148433158Y-49467932D01*
X148703411Y-49355990D01*
X148946632Y-49193475D01*
X149153475Y-48986632D01*
X149315990Y-48743411D01*
X149427932Y-48473158D01*
X149485000Y-48186260D01*
X149485000Y-47893740D01*
X149427932Y-47606842D01*
X149315990Y-47336589D01*
X149153475Y-47093368D01*
X148966392Y-46906285D01*
X149093386Y-46838405D01*
X149227962Y-46727962D01*
X149338405Y-46593386D01*
X149420472Y-46439850D01*
X149471008Y-46273254D01*
X149474776Y-46235000D01*
X150195554Y-46235000D01*
X151460553Y-47500000D01*
X147695554Y-51265000D01*
X123228711Y-51265000D01*
X123159774Y-51196063D01*
X122990256Y-51082795D01*
X122801898Y-51004774D01*
X122601939Y-50965000D01*
X122398061Y-50965000D01*
X122198102Y-51004774D01*
X122009744Y-51082795D01*
X121840226Y-51196063D01*
X121771289Y-51265000D01*
X121515000Y-51265000D01*
X121515000Y-49574883D01*
X121726632Y-49433475D01*
X121933475Y-49226632D01*
X122050000Y-49052240D01*
X122166525Y-49226632D01*
X122373368Y-49433475D01*
X122616589Y-49595990D01*
X122886842Y-49707932D01*
X123173740Y-49765000D01*
X123466260Y-49765000D01*
X123753158Y-49707932D01*
X124023411Y-49595990D01*
X124266632Y-49433475D01*
X124473475Y-49226632D01*
X124590000Y-49052240D01*
X124706525Y-49226632D01*
X124913368Y-49433475D01*
X125156589Y-49595990D01*
X125426842Y-49707932D01*
X125713740Y-49765000D01*
X126006260Y-49765000D01*
X126293158Y-49707932D01*
X126563411Y-49595990D01*
X126806632Y-49433475D01*
X127013475Y-49226632D01*
X127175990Y-48983411D01*
X127287932Y-48713158D01*
X127345000Y-48426260D01*
X127345000Y-48133740D01*
X127287932Y-47846842D01*
X127175990Y-47576589D01*
X127013475Y-47333368D01*
X126806632Y-47126525D01*
X126633271Y-47010689D01*
X126708792Y-46768397D01*
X125860000Y-45919605D01*
X125011208Y-46768397D01*
X125086729Y-47010689D01*
X124913368Y-47126525D01*
X124706525Y-47333368D01*
X124590000Y-47507760D01*
X124473475Y-47333368D01*
X124266632Y-47126525D01*
X124093271Y-47010689D01*
X124168792Y-46768397D01*
X123320000Y-45919605D01*
X122471208Y-46768397D01*
X122546729Y-47010689D01*
X122373368Y-47126525D01*
X122166525Y-47333368D01*
X122050000Y-47507760D01*
X121933475Y-47333368D01*
X121726632Y-47126525D01*
X121553271Y-47010689D01*
X121628792Y-46768397D01*
X120780000Y-45919605D01*
X119931208Y-46768397D01*
X120006729Y-47010689D01*
X119833368Y-47126525D01*
X119626525Y-47333368D01*
X119510000Y-47507760D01*
X119393475Y-47333368D01*
X119186632Y-47126525D01*
X119013271Y-47010689D01*
X119088792Y-46768397D01*
X118240000Y-45919605D01*
X117391208Y-46768397D01*
X117466729Y-47010689D01*
X117293368Y-47126525D01*
X117086525Y-47333368D01*
X116970000Y-47507760D01*
X116853475Y-47333368D01*
X116646632Y-47126525D01*
X116473271Y-47010689D01*
X116548792Y-46768397D01*
X115700000Y-45919605D01*
X114851208Y-46768397D01*
X114926729Y-47010689D01*
X114753368Y-47126525D01*
X114546525Y-47333368D01*
X114430000Y-47507760D01*
X114313475Y-47333368D01*
X114106632Y-47126525D01*
X113933271Y-47010689D01*
X114008792Y-46768397D01*
X113160000Y-45919605D01*
X112311208Y-46768397D01*
X112386729Y-47010689D01*
X112213368Y-47126525D01*
X112006525Y-47333368D01*
X111890000Y-47507760D01*
X111773475Y-47333368D01*
X111566632Y-47126525D01*
X111393271Y-47010689D01*
X111468792Y-46768397D01*
X110620000Y-45919605D01*
X109771208Y-46768397D01*
X109846729Y-47010689D01*
X109673368Y-47126525D01*
X109466525Y-47333368D01*
X109350000Y-47507760D01*
X109233475Y-47333368D01*
X109026632Y-47126525D01*
X108853271Y-47010689D01*
X108928792Y-46768397D01*
X108080000Y-45919605D01*
X107231208Y-46768397D01*
X107306729Y-47010689D01*
X107133368Y-47126525D01*
X106926525Y-47333368D01*
X106810000Y-47507760D01*
X106693475Y-47333368D01*
X106486632Y-47126525D01*
X106313271Y-47010689D01*
X106388792Y-46768397D01*
X105540000Y-45919605D01*
X104691208Y-46768397D01*
X104766729Y-47010689D01*
X104593368Y-47126525D01*
X104406285Y-47313608D01*
X104338405Y-47186614D01*
X104227962Y-47052038D01*
X104093386Y-46941595D01*
X103966392Y-46873715D01*
X104153475Y-46686632D01*
X104269311Y-46513271D01*
X104511603Y-46588792D01*
X105360395Y-45740000D01*
X105719605Y-45740000D01*
X106568397Y-46588792D01*
X106810000Y-46513486D01*
X107051603Y-46588792D01*
X107900395Y-45740000D01*
X108259605Y-45740000D01*
X109108397Y-46588792D01*
X109350000Y-46513486D01*
X109591603Y-46588792D01*
X110440395Y-45740000D01*
X110799605Y-45740000D01*
X111648397Y-46588792D01*
X111890000Y-46513486D01*
X112131603Y-46588792D01*
X112980395Y-45740000D01*
X113339605Y-45740000D01*
X114188397Y-46588792D01*
X114430000Y-46513486D01*
X114671603Y-46588792D01*
X115520395Y-45740000D01*
X115879605Y-45740000D01*
X116728397Y-46588792D01*
X116970000Y-46513486D01*
X117211603Y-46588792D01*
X118060395Y-45740000D01*
X118419605Y-45740000D01*
X119268397Y-46588792D01*
X119510000Y-46513486D01*
X119751603Y-46588792D01*
X120600395Y-45740000D01*
X120959605Y-45740000D01*
X121808397Y-46588792D01*
X122050000Y-46513486D01*
X122291603Y-46588792D01*
X123140395Y-45740000D01*
X123499605Y-45740000D01*
X124348397Y-46588792D01*
X124590000Y-46513486D01*
X124831603Y-46588792D01*
X125680395Y-45740000D01*
X126039605Y-45740000D01*
X126888397Y-46588792D01*
X127137472Y-46511157D01*
X127263371Y-46247117D01*
X127335339Y-45963589D01*
X127350611Y-45671469D01*
X127308599Y-45381981D01*
X127298595Y-45353740D01*
X136355000Y-45353740D01*
X136355000Y-45646260D01*
X136412068Y-45933158D01*
X136524010Y-46203411D01*
X136686525Y-46446632D01*
X136893368Y-46653475D01*
X137067760Y-46770000D01*
X136893368Y-46886525D01*
X136686525Y-47093368D01*
X136524010Y-47336589D01*
X136412068Y-47606842D01*
X136355000Y-47893740D01*
X136355000Y-48186260D01*
X136412068Y-48473158D01*
X136524010Y-48743411D01*
X136686525Y-48986632D01*
X136893368Y-49193475D01*
X137136589Y-49355990D01*
X137406842Y-49467932D01*
X137693740Y-49525000D01*
X137986260Y-49525000D01*
X138273158Y-49467932D01*
X138543411Y-49355990D01*
X138786632Y-49193475D01*
X138993475Y-48986632D01*
X139110000Y-48812240D01*
X139226525Y-48986632D01*
X139433368Y-49193475D01*
X139676589Y-49355990D01*
X139946842Y-49467932D01*
X140233740Y-49525000D01*
X140526260Y-49525000D01*
X140813158Y-49467932D01*
X141083411Y-49355990D01*
X141326632Y-49193475D01*
X141533475Y-48986632D01*
X141650000Y-48812240D01*
X141766525Y-48986632D01*
X141973368Y-49193475D01*
X142216589Y-49355990D01*
X142486842Y-49467932D01*
X142773740Y-49525000D01*
X143066260Y-49525000D01*
X143353158Y-49467932D01*
X143623411Y-49355990D01*
X143866632Y-49193475D01*
X143991710Y-49068397D01*
X144611208Y-49068397D01*
X144688843Y-49317472D01*
X144952883Y-49443371D01*
X145236411Y-49515339D01*
X145528531Y-49530611D01*
X145818019Y-49488599D01*
X146093747Y-49390919D01*
X146231157Y-49317472D01*
X146308792Y-49068397D01*
X145460000Y-48219605D01*
X144611208Y-49068397D01*
X143991710Y-49068397D01*
X144073475Y-48986632D01*
X144189311Y-48813271D01*
X144431603Y-48888792D01*
X145280395Y-48040000D01*
X144431603Y-47191208D01*
X144189311Y-47266729D01*
X144073475Y-47093368D01*
X143866632Y-46886525D01*
X143692240Y-46770000D01*
X143866632Y-46653475D01*
X143991710Y-46528397D01*
X144611208Y-46528397D01*
X144686514Y-46770000D01*
X144611208Y-47011603D01*
X145460000Y-47860395D01*
X146308792Y-47011603D01*
X146233486Y-46770000D01*
X146308792Y-46528397D01*
X145460000Y-45679605D01*
X144611208Y-46528397D01*
X143991710Y-46528397D01*
X144073475Y-46446632D01*
X144189311Y-46273271D01*
X144431603Y-46348792D01*
X145280395Y-45500000D01*
X144431603Y-44651208D01*
X144189311Y-44726729D01*
X144073475Y-44553368D01*
X143991710Y-44471603D01*
X144611208Y-44471603D01*
X145460000Y-45320395D01*
X146308792Y-44471603D01*
X146231157Y-44222528D01*
X145967117Y-44096629D01*
X145683589Y-44024661D01*
X145391469Y-44009389D01*
X145101981Y-44051401D01*
X144826253Y-44149081D01*
X144688843Y-44222528D01*
X144611208Y-44471603D01*
X143991710Y-44471603D01*
X143866632Y-44346525D01*
X143623411Y-44184010D01*
X143353158Y-44072068D01*
X143066260Y-44015000D01*
X142773740Y-44015000D01*
X142486842Y-44072068D01*
X142216589Y-44184010D01*
X141973368Y-44346525D01*
X141766525Y-44553368D01*
X141650000Y-44727760D01*
X141533475Y-44553368D01*
X141326632Y-44346525D01*
X141083411Y-44184010D01*
X140813158Y-44072068D01*
X140526260Y-44015000D01*
X140233740Y-44015000D01*
X139946842Y-44072068D01*
X139676589Y-44184010D01*
X139433368Y-44346525D01*
X139226525Y-44553368D01*
X139110000Y-44727760D01*
X138993475Y-44553368D01*
X138786632Y-44346525D01*
X138543411Y-44184010D01*
X138273158Y-44072068D01*
X137986260Y-44015000D01*
X137693740Y-44015000D01*
X137406842Y-44072068D01*
X137136589Y-44184010D01*
X136893368Y-44346525D01*
X136686525Y-44553368D01*
X136524010Y-44796589D01*
X136412068Y-45066842D01*
X136355000Y-45353740D01*
X127298595Y-45353740D01*
X127210919Y-45106253D01*
X127137472Y-44968843D01*
X126888397Y-44891208D01*
X126039605Y-45740000D01*
X125680395Y-45740000D01*
X124831603Y-44891208D01*
X124590000Y-44966514D01*
X124348397Y-44891208D01*
X123499605Y-45740000D01*
X123140395Y-45740000D01*
X122291603Y-44891208D01*
X122050000Y-44966514D01*
X121808397Y-44891208D01*
X120959605Y-45740000D01*
X120600395Y-45740000D01*
X119751603Y-44891208D01*
X119510000Y-44966514D01*
X119268397Y-44891208D01*
X118419605Y-45740000D01*
X118060395Y-45740000D01*
X117211603Y-44891208D01*
X116970000Y-44966514D01*
X116728397Y-44891208D01*
X115879605Y-45740000D01*
X115520395Y-45740000D01*
X114671603Y-44891208D01*
X114430000Y-44966514D01*
X114188397Y-44891208D01*
X113339605Y-45740000D01*
X112980395Y-45740000D01*
X112131603Y-44891208D01*
X111890000Y-44966514D01*
X111648397Y-44891208D01*
X110799605Y-45740000D01*
X110440395Y-45740000D01*
X109591603Y-44891208D01*
X109350000Y-44966514D01*
X109108397Y-44891208D01*
X108259605Y-45740000D01*
X107900395Y-45740000D01*
X107051603Y-44891208D01*
X106810000Y-44966514D01*
X106568397Y-44891208D01*
X105719605Y-45740000D01*
X105360395Y-45740000D01*
X104511603Y-44891208D01*
X104269311Y-44966729D01*
X104153475Y-44793368D01*
X104071710Y-44711603D01*
X104691208Y-44711603D01*
X105540000Y-45560395D01*
X106388792Y-44711603D01*
X107231208Y-44711603D01*
X108080000Y-45560395D01*
X108928792Y-44711603D01*
X109771208Y-44711603D01*
X110620000Y-45560395D01*
X111468792Y-44711603D01*
X112311208Y-44711603D01*
X113160000Y-45560395D01*
X114008792Y-44711603D01*
X114851208Y-44711603D01*
X115700000Y-45560395D01*
X116548792Y-44711603D01*
X117391208Y-44711603D01*
X118240000Y-45560395D01*
X119088792Y-44711603D01*
X119931208Y-44711603D01*
X120780000Y-45560395D01*
X121628792Y-44711603D01*
X122471208Y-44711603D01*
X123320000Y-45560395D01*
X124168792Y-44711603D01*
X125011208Y-44711603D01*
X125860000Y-45560395D01*
X126708792Y-44711603D01*
X126631157Y-44462528D01*
X126367117Y-44336629D01*
X126083589Y-44264661D01*
X125791469Y-44249389D01*
X125501981Y-44291401D01*
X125226253Y-44389081D01*
X125088843Y-44462528D01*
X125011208Y-44711603D01*
X124168792Y-44711603D01*
X124091157Y-44462528D01*
X123827117Y-44336629D01*
X123543589Y-44264661D01*
X123251469Y-44249389D01*
X122961981Y-44291401D01*
X122686253Y-44389081D01*
X122548843Y-44462528D01*
X122471208Y-44711603D01*
X121628792Y-44711603D01*
X121551157Y-44462528D01*
X121287117Y-44336629D01*
X121003589Y-44264661D01*
X120711469Y-44249389D01*
X120421981Y-44291401D01*
X120146253Y-44389081D01*
X120008843Y-44462528D01*
X119931208Y-44711603D01*
X119088792Y-44711603D01*
X119011157Y-44462528D01*
X118747117Y-44336629D01*
X118463589Y-44264661D01*
X118171469Y-44249389D01*
X117881981Y-44291401D01*
X117606253Y-44389081D01*
X117468843Y-44462528D01*
X117391208Y-44711603D01*
X116548792Y-44711603D01*
X116471157Y-44462528D01*
X116207117Y-44336629D01*
X115923589Y-44264661D01*
X115631469Y-44249389D01*
X115341981Y-44291401D01*
X115066253Y-44389081D01*
X114928843Y-44462528D01*
X114851208Y-44711603D01*
X114008792Y-44711603D01*
X113931157Y-44462528D01*
X113667117Y-44336629D01*
X113383589Y-44264661D01*
X113091469Y-44249389D01*
X112801981Y-44291401D01*
X112526253Y-44389081D01*
X112388843Y-44462528D01*
X112311208Y-44711603D01*
X111468792Y-44711603D01*
X111391157Y-44462528D01*
X111127117Y-44336629D01*
X110843589Y-44264661D01*
X110551469Y-44249389D01*
X110261981Y-44291401D01*
X109986253Y-44389081D01*
X109848843Y-44462528D01*
X109771208Y-44711603D01*
X108928792Y-44711603D01*
X108851157Y-44462528D01*
X108587117Y-44336629D01*
X108303589Y-44264661D01*
X108011469Y-44249389D01*
X107721981Y-44291401D01*
X107446253Y-44389081D01*
X107308843Y-44462528D01*
X107231208Y-44711603D01*
X106388792Y-44711603D01*
X106311157Y-44462528D01*
X106047117Y-44336629D01*
X105763589Y-44264661D01*
X105471469Y-44249389D01*
X105181981Y-44291401D01*
X104906253Y-44389081D01*
X104768843Y-44462528D01*
X104691208Y-44711603D01*
X104071710Y-44711603D01*
X103946632Y-44586525D01*
X103703411Y-44424010D01*
X103433158Y-44312068D01*
X103146260Y-44255000D01*
X102853740Y-44255000D01*
X102566842Y-44312068D01*
X102296589Y-44424010D01*
X102053368Y-44586525D01*
X101846525Y-44793368D01*
X101684010Y-45036589D01*
X101572068Y-45306842D01*
X101515000Y-45593740D01*
X101515000Y-45886260D01*
X101572068Y-46173158D01*
X101684010Y-46443411D01*
X101846525Y-46686632D01*
X102033608Y-46873715D01*
X101906614Y-46941595D01*
X101772038Y-47052038D01*
X101661595Y-47186614D01*
X101579528Y-47340150D01*
X101528992Y-47506746D01*
X101511928Y-47680000D01*
X101511928Y-48880000D01*
X101528992Y-49053254D01*
X101579528Y-49219850D01*
X101661595Y-49373386D01*
X101772038Y-49507962D01*
X101906614Y-49618405D01*
X102060150Y-49700472D01*
X102226746Y-49751008D01*
X102400000Y-49768072D01*
X103600000Y-49768072D01*
X103773254Y-49751008D01*
X103939850Y-49700472D01*
X104093386Y-49618405D01*
X104227962Y-49507962D01*
X104338405Y-49373386D01*
X104406285Y-49246392D01*
X104593368Y-49433475D01*
X104836589Y-49595990D01*
X105106842Y-49707932D01*
X105393740Y-49765000D01*
X105686260Y-49765000D01*
X105973158Y-49707932D01*
X106243411Y-49595990D01*
X106486632Y-49433475D01*
X106693475Y-49226632D01*
X106810000Y-49052240D01*
X106926525Y-49226632D01*
X107133368Y-49433475D01*
X107376589Y-49595990D01*
X107646842Y-49707932D01*
X107933740Y-49765000D01*
X108226260Y-49765000D01*
X108513158Y-49707932D01*
X108783411Y-49595990D01*
X109026632Y-49433475D01*
X109233475Y-49226632D01*
X109350000Y-49052240D01*
X109466525Y-49226632D01*
X109673368Y-49433475D01*
X109916589Y-49595990D01*
X110186842Y-49707932D01*
X110473740Y-49765000D01*
X110766260Y-49765000D01*
X111053158Y-49707932D01*
X111323411Y-49595990D01*
X111566632Y-49433475D01*
X111773475Y-49226632D01*
X111890000Y-49052240D01*
X112006525Y-49226632D01*
X112213368Y-49433475D01*
X112456589Y-49595990D01*
X112726842Y-49707932D01*
X113013740Y-49765000D01*
X113306260Y-49765000D01*
X113593158Y-49707932D01*
X113863411Y-49595990D01*
X114106632Y-49433475D01*
X114313475Y-49226632D01*
X114430000Y-49052240D01*
X114546525Y-49226632D01*
X114753368Y-49433475D01*
X114996589Y-49595990D01*
X115266842Y-49707932D01*
X115553740Y-49765000D01*
X115846260Y-49765000D01*
X116133158Y-49707932D01*
X116403411Y-49595990D01*
X116646632Y-49433475D01*
X116853475Y-49226632D01*
X116970000Y-49052240D01*
X117086525Y-49226632D01*
X117293368Y-49433475D01*
X117536589Y-49595990D01*
X117806842Y-49707932D01*
X118093740Y-49765000D01*
X118386260Y-49765000D01*
X118673158Y-49707932D01*
X118943411Y-49595990D01*
X119186632Y-49433475D01*
X119393475Y-49226632D01*
X119510000Y-49052240D01*
X119626525Y-49226632D01*
X119833368Y-49433475D01*
X120045000Y-49574883D01*
X120045001Y-51265000D01*
X97848712Y-51265000D01*
X97779775Y-51196063D01*
X97610257Y-51082795D01*
X97421899Y-51004774D01*
X97221940Y-50965000D01*
X97124448Y-50965000D01*
X92515345Y-46355897D01*
X92565001Y-46106260D01*
X92565001Y-45813740D01*
X92507933Y-45526842D01*
X92395991Y-45256589D01*
X92233476Y-45013368D01*
X92026633Y-44806525D01*
X91783412Y-44644010D01*
X91513159Y-44532068D01*
X91226261Y-44475000D01*
X90933741Y-44475000D01*
X90646843Y-44532068D01*
X90376590Y-44644010D01*
X90133369Y-44806525D01*
X89926526Y-45013368D01*
X89810001Y-45187760D01*
X89693476Y-45013368D01*
X89486633Y-44806525D01*
X89243412Y-44644010D01*
X88973159Y-44532068D01*
X88686261Y-44475000D01*
X88393741Y-44475000D01*
X88106843Y-44532068D01*
X87836590Y-44644010D01*
X87593369Y-44806525D01*
X87386526Y-45013368D01*
X87270001Y-45187760D01*
X87153476Y-45013368D01*
X86946633Y-44806525D01*
X86703412Y-44644010D01*
X86433159Y-44532068D01*
X86146261Y-44475000D01*
X85853741Y-44475000D01*
X85566843Y-44532068D01*
X85296590Y-44644010D01*
X85053369Y-44806525D01*
X84846526Y-45013368D01*
X84730001Y-45187760D01*
X84613476Y-45013368D01*
X84406633Y-44806525D01*
X84163412Y-44644010D01*
X83893159Y-44532068D01*
X83606261Y-44475000D01*
X83313741Y-44475000D01*
X83026843Y-44532068D01*
X82756590Y-44644010D01*
X82513369Y-44806525D01*
X82306526Y-45013368D01*
X82190001Y-45187760D01*
X82073476Y-45013368D01*
X81866633Y-44806525D01*
X81623412Y-44644010D01*
X81353159Y-44532068D01*
X81066261Y-44475000D01*
X80773741Y-44475000D01*
X80486843Y-44532068D01*
X80216590Y-44644010D01*
X79973369Y-44806525D01*
X79766526Y-45013368D01*
X79604011Y-45256589D01*
X79492069Y-45526842D01*
X79435001Y-45813740D01*
X79435001Y-46106260D01*
X79492069Y-46393158D01*
X79604011Y-46663411D01*
X79766526Y-46906632D01*
X79953609Y-47093715D01*
X79826615Y-47161595D01*
X79692039Y-47272038D01*
X79581596Y-47406614D01*
X79499529Y-47560150D01*
X79448993Y-47726746D01*
X79431929Y-47900000D01*
X79431929Y-49100000D01*
X79448993Y-49273254D01*
X79499529Y-49439850D01*
X79581596Y-49593386D01*
X79692039Y-49727962D01*
X79826615Y-49838405D01*
X79980151Y-49920472D01*
X80146747Y-49971008D01*
X80300069Y-49986109D01*
X80324957Y-50006534D01*
X87413471Y-57095049D01*
X87441184Y-57128817D01*
X87474952Y-57156530D01*
X87474954Y-57156532D01*
X87546453Y-57215210D01*
X87575942Y-57239411D01*
X87729688Y-57321589D01*
X87845904Y-57356843D01*
X87896510Y-57372195D01*
X87911307Y-57373652D01*
X88026524Y-57385000D01*
X88026532Y-57385000D01*
X88070001Y-57389281D01*
X88113470Y-57385000D01*
X97275001Y-57385000D01*
X97275000Y-65305344D01*
X97213368Y-65346525D01*
X97006525Y-65553368D01*
X96890000Y-65727760D01*
X96773475Y-65553368D01*
X96566632Y-65346525D01*
X96323411Y-65184010D01*
X96053158Y-65072068D01*
X95766260Y-65015000D01*
X95473740Y-65015000D01*
X95186842Y-65072068D01*
X94916589Y-65184010D01*
X94673368Y-65346525D01*
X94466525Y-65553368D01*
X94350000Y-65727760D01*
X94233475Y-65553368D01*
X94026632Y-65346525D01*
X93783411Y-65184010D01*
X93513158Y-65072068D01*
X93226260Y-65015000D01*
X92933740Y-65015000D01*
X92646842Y-65072068D01*
X92376589Y-65184010D01*
X92133368Y-65346525D01*
X91926525Y-65553368D01*
X91810000Y-65727760D01*
X91693475Y-65553368D01*
X91486632Y-65346525D01*
X91243411Y-65184010D01*
X90973158Y-65072068D01*
X90686260Y-65015000D01*
X90393740Y-65015000D01*
X90106842Y-65072068D01*
X89836589Y-65184010D01*
X89593368Y-65346525D01*
X89461513Y-65478380D01*
X89439502Y-65405820D01*
X89380537Y-65295506D01*
X89301185Y-65198815D01*
X89204494Y-65119463D01*
X89094180Y-65060498D01*
X88974482Y-65024188D01*
X88850000Y-65011928D01*
X88285750Y-65015000D01*
X88127000Y-65173750D01*
X88127000Y-66373000D01*
X88147000Y-66373000D01*
X88147000Y-66627000D01*
X88127000Y-66627000D01*
X88127000Y-67826250D01*
X88285750Y-67985000D01*
X88850000Y-67988072D01*
X88974482Y-67975812D01*
X89094180Y-67939502D01*
X89204494Y-67880537D01*
X89301185Y-67801185D01*
X89380537Y-67704494D01*
X89439502Y-67594180D01*
X89461513Y-67521620D01*
X89593368Y-67653475D01*
X89836589Y-67815990D01*
X90106842Y-67927932D01*
X90393740Y-67985000D01*
X90686260Y-67985000D01*
X90973158Y-67927932D01*
X91243411Y-67815990D01*
X91486632Y-67653475D01*
X91693475Y-67446632D01*
X91810000Y-67272240D01*
X91926525Y-67446632D01*
X92133368Y-67653475D01*
X92376589Y-67815990D01*
X92646842Y-67927932D01*
X92933740Y-67985000D01*
X93226260Y-67985000D01*
X93513158Y-67927932D01*
X93783411Y-67815990D01*
X94026632Y-67653475D01*
X94233475Y-67446632D01*
X94350000Y-67272240D01*
X94466525Y-67446632D01*
X94673368Y-67653475D01*
X94916589Y-67815990D01*
X95186842Y-67927932D01*
X95473740Y-67985000D01*
X95766260Y-67985000D01*
X96053158Y-67927932D01*
X96323411Y-67815990D01*
X96566632Y-67653475D01*
X96773475Y-67446632D01*
X96890000Y-67272240D01*
X97006525Y-67446632D01*
X97213368Y-67653475D01*
X97456589Y-67815990D01*
X97726842Y-67927932D01*
X98013740Y-67985000D01*
X98306260Y-67985000D01*
X98593158Y-67927932D01*
X98863411Y-67815990D01*
X99106632Y-67653475D01*
X99313475Y-67446632D01*
X99378042Y-67350000D01*
X102471928Y-67350000D01*
X102484188Y-67474482D01*
X102520498Y-67594180D01*
X102579463Y-67704494D01*
X102658815Y-67801185D01*
X102755506Y-67880537D01*
X102865820Y-67939502D01*
X102985518Y-67975812D01*
X103110000Y-67988072D01*
X103674250Y-67985000D01*
X103833000Y-67826250D01*
X103833000Y-66627000D01*
X102633750Y-66627000D01*
X102475000Y-66785750D01*
X102471928Y-67350000D01*
X99378042Y-67350000D01*
X99475990Y-67203411D01*
X99587932Y-66933158D01*
X99645000Y-66646260D01*
X99645000Y-66353740D01*
X99587932Y-66066842D01*
X99475990Y-65796589D01*
X99378043Y-65650000D01*
X102471928Y-65650000D01*
X102475000Y-66214250D01*
X102633750Y-66373000D01*
X103833000Y-66373000D01*
X103833000Y-65173750D01*
X103674250Y-65015000D01*
X103110000Y-65011928D01*
X102985518Y-65024188D01*
X102865820Y-65060498D01*
X102755506Y-65119463D01*
X102658815Y-65198815D01*
X102579463Y-65295506D01*
X102520498Y-65405820D01*
X102484188Y-65525518D01*
X102471928Y-65650000D01*
X99378043Y-65650000D01*
X99313475Y-65553368D01*
X99106632Y-65346525D01*
X99045000Y-65305344D01*
X99045000Y-57385000D01*
X102461546Y-57385000D01*
X102509744Y-57417205D01*
X102698102Y-57495226D01*
X102898061Y-57535000D01*
X103101939Y-57535000D01*
X103301898Y-57495226D01*
X103490256Y-57417205D01*
X103538454Y-57385000D01*
X110695001Y-57385000D01*
X110695000Y-65305344D01*
X110633368Y-65346525D01*
X110426525Y-65553368D01*
X110310000Y-65727760D01*
X110193475Y-65553368D01*
X109986632Y-65346525D01*
X109743411Y-65184010D01*
X109473158Y-65072068D01*
X109186260Y-65015000D01*
X108893740Y-65015000D01*
X108606842Y-65072068D01*
X108336589Y-65184010D01*
X108093368Y-65346525D01*
X107886525Y-65553368D01*
X107770000Y-65727760D01*
X107653475Y-65553368D01*
X107446632Y-65346525D01*
X107203411Y-65184010D01*
X106933158Y-65072068D01*
X106646260Y-65015000D01*
X106353740Y-65015000D01*
X106066842Y-65072068D01*
X105796589Y-65184010D01*
X105553368Y-65346525D01*
X105421513Y-65478380D01*
X105399502Y-65405820D01*
X105340537Y-65295506D01*
X105261185Y-65198815D01*
X105164494Y-65119463D01*
X105054180Y-65060498D01*
X104934482Y-65024188D01*
X104810000Y-65011928D01*
X104245750Y-65015000D01*
X104087000Y-65173750D01*
X104087000Y-66373000D01*
X104107000Y-66373000D01*
X104107000Y-66627000D01*
X104087000Y-66627000D01*
X104087000Y-67826250D01*
X104245750Y-67985000D01*
X104810000Y-67988072D01*
X104934482Y-67975812D01*
X105054180Y-67939502D01*
X105164494Y-67880537D01*
X105261185Y-67801185D01*
X105340537Y-67704494D01*
X105399502Y-67594180D01*
X105421513Y-67521620D01*
X105553368Y-67653475D01*
X105796589Y-67815990D01*
X106066842Y-67927932D01*
X106353740Y-67985000D01*
X106646260Y-67985000D01*
X106933158Y-67927932D01*
X107203411Y-67815990D01*
X107446632Y-67653475D01*
X107653475Y-67446632D01*
X107770000Y-67272240D01*
X107886525Y-67446632D01*
X108093368Y-67653475D01*
X108336589Y-67815990D01*
X108606842Y-67927932D01*
X108893740Y-67985000D01*
X109186260Y-67985000D01*
X109473158Y-67927932D01*
X109743411Y-67815990D01*
X109986632Y-67653475D01*
X110193475Y-67446632D01*
X110310000Y-67272240D01*
X110426525Y-67446632D01*
X110633368Y-67653475D01*
X110876589Y-67815990D01*
X111146842Y-67927932D01*
X111433740Y-67985000D01*
X111726260Y-67985000D01*
X112013158Y-67927932D01*
X112283411Y-67815990D01*
X112526632Y-67653475D01*
X112605107Y-67575000D01*
X151811928Y-67575000D01*
X151815000Y-68039250D01*
X151973750Y-68198000D01*
X152623000Y-68198000D01*
X152623000Y-67098750D01*
X152877000Y-67098750D01*
X152877000Y-68198000D01*
X153526250Y-68198000D01*
X153685000Y-68039250D01*
X153688072Y-67575000D01*
X153675812Y-67450518D01*
X153639502Y-67330820D01*
X153580537Y-67220506D01*
X153501185Y-67123815D01*
X153404494Y-67044463D01*
X153294180Y-66985498D01*
X153174482Y-66949188D01*
X153050000Y-66936928D01*
X153035750Y-66940000D01*
X152877000Y-67098750D01*
X152623000Y-67098750D01*
X152464250Y-66940000D01*
X152450000Y-66936928D01*
X152325518Y-66949188D01*
X152205820Y-66985498D01*
X152095506Y-67044463D01*
X151998815Y-67123815D01*
X151919463Y-67220506D01*
X151860498Y-67330820D01*
X151824188Y-67450518D01*
X151811928Y-67575000D01*
X112605107Y-67575000D01*
X112733475Y-67446632D01*
X112895990Y-67203411D01*
X113007932Y-66933158D01*
X113065000Y-66646260D01*
X113065000Y-66353740D01*
X113007932Y-66066842D01*
X112895990Y-65796589D01*
X112733475Y-65553368D01*
X112570107Y-65390000D01*
X118471928Y-65390000D01*
X118484188Y-65514482D01*
X118520498Y-65634180D01*
X118579463Y-65744494D01*
X118658815Y-65841185D01*
X118755506Y-65920537D01*
X118865820Y-65979502D01*
X118985518Y-66015812D01*
X119110000Y-66028072D01*
X119674250Y-66025000D01*
X119833000Y-65866250D01*
X119833000Y-64667000D01*
X118633750Y-64667000D01*
X118475000Y-64825750D01*
X118471928Y-65390000D01*
X112570107Y-65390000D01*
X112526632Y-65346525D01*
X112465000Y-65305344D01*
X112465000Y-57385000D01*
X124155001Y-57385000D01*
X124155000Y-60805344D01*
X124093368Y-60846525D01*
X123886525Y-61053368D01*
X123770000Y-61227760D01*
X123653475Y-61053368D01*
X123446632Y-60846525D01*
X123203411Y-60684010D01*
X122933158Y-60572068D01*
X122646260Y-60515000D01*
X122353740Y-60515000D01*
X122066842Y-60572068D01*
X121796589Y-60684010D01*
X121553368Y-60846525D01*
X121346525Y-61053368D01*
X121230000Y-61227760D01*
X121113475Y-61053368D01*
X120906632Y-60846525D01*
X120663411Y-60684010D01*
X120393158Y-60572068D01*
X120106260Y-60515000D01*
X119813740Y-60515000D01*
X119526842Y-60572068D01*
X119256589Y-60684010D01*
X119013368Y-60846525D01*
X118806525Y-61053368D01*
X118644010Y-61296589D01*
X118532068Y-61566842D01*
X118475000Y-61853740D01*
X118475000Y-62146260D01*
X118532068Y-62433158D01*
X118644010Y-62703411D01*
X118806525Y-62946632D01*
X118938380Y-63078487D01*
X118865820Y-63100498D01*
X118755506Y-63159463D01*
X118658815Y-63238815D01*
X118579463Y-63335506D01*
X118520498Y-63445820D01*
X118484188Y-63565518D01*
X118471928Y-63690000D01*
X118475000Y-64254250D01*
X118633750Y-64413000D01*
X119833000Y-64413000D01*
X119833000Y-64393000D01*
X120087000Y-64393000D01*
X120087000Y-64413000D01*
X120107000Y-64413000D01*
X120107000Y-64667000D01*
X120087000Y-64667000D01*
X120087000Y-65866250D01*
X120245750Y-66025000D01*
X120810000Y-66028072D01*
X120934482Y-66015812D01*
X121054180Y-65979502D01*
X121164494Y-65920537D01*
X121261185Y-65841185D01*
X121340537Y-65744494D01*
X121399502Y-65634180D01*
X121421513Y-65561620D01*
X121553368Y-65693475D01*
X121796589Y-65855990D01*
X122066842Y-65967932D01*
X122353740Y-66025000D01*
X122646260Y-66025000D01*
X122933158Y-65967932D01*
X123203411Y-65855990D01*
X123446632Y-65693475D01*
X123653475Y-65486632D01*
X123770000Y-65312240D01*
X123886525Y-65486632D01*
X124093368Y-65693475D01*
X124336589Y-65855990D01*
X124606842Y-65967932D01*
X124893740Y-66025000D01*
X125186260Y-66025000D01*
X125473158Y-65967932D01*
X125743411Y-65855990D01*
X125986632Y-65693475D01*
X126193475Y-65486632D01*
X126355990Y-65243411D01*
X126467932Y-64973158D01*
X126525000Y-64686260D01*
X126525000Y-64393740D01*
X126467932Y-64106842D01*
X126355990Y-63836589D01*
X126193475Y-63593368D01*
X125986632Y-63386525D01*
X125812240Y-63270000D01*
X125986632Y-63153475D01*
X126193475Y-62946632D01*
X126355990Y-62703411D01*
X126467932Y-62433158D01*
X126525000Y-62146260D01*
X126525000Y-61853740D01*
X126467932Y-61566842D01*
X126355990Y-61296589D01*
X126193475Y-61053368D01*
X125986632Y-60846525D01*
X125925000Y-60805344D01*
X125925000Y-57385000D01*
X134761000Y-57385000D01*
X134760999Y-64142530D01*
X134756718Y-64185999D01*
X134760999Y-64229468D01*
X134760999Y-64229475D01*
X134773804Y-64359488D01*
X134824410Y-64526311D01*
X134906588Y-64680057D01*
X135017182Y-64814816D01*
X135050955Y-64842533D01*
X135529461Y-65321040D01*
X135515000Y-65393740D01*
X135515000Y-65686260D01*
X135572068Y-65973158D01*
X135684010Y-66243411D01*
X135846525Y-66486632D01*
X136053368Y-66693475D01*
X136296589Y-66855990D01*
X136566842Y-66967932D01*
X136853740Y-67025000D01*
X137146260Y-67025000D01*
X137433158Y-66967932D01*
X137633374Y-66885000D01*
X141205306Y-66885000D01*
X141229528Y-66964850D01*
X141311595Y-67118386D01*
X141422038Y-67252962D01*
X141556614Y-67363405D01*
X141710150Y-67445472D01*
X141876746Y-67496008D01*
X142050000Y-67513072D01*
X142850000Y-67513072D01*
X143023254Y-67496008D01*
X143189850Y-67445472D01*
X143343386Y-67363405D01*
X143477962Y-67252962D01*
X143588405Y-67118386D01*
X143670472Y-66964850D01*
X143721008Y-66798254D01*
X143738072Y-66625000D01*
X143738072Y-65375000D01*
X143721008Y-65201746D01*
X143670472Y-65035150D01*
X143588405Y-64881614D01*
X143477962Y-64747038D01*
X143343386Y-64636595D01*
X143189850Y-64554528D01*
X143049011Y-64511805D01*
X143225000Y-64513072D01*
X143349482Y-64500812D01*
X143469180Y-64464502D01*
X143579494Y-64405537D01*
X143676185Y-64326185D01*
X143755537Y-64229494D01*
X143814502Y-64119180D01*
X143850812Y-63999482D01*
X143863072Y-63875000D01*
X143860000Y-63285750D01*
X143701250Y-63127000D01*
X142639500Y-63127000D01*
X142639500Y-63147000D01*
X142385500Y-63147000D01*
X142385500Y-63127000D01*
X141323750Y-63127000D01*
X141165000Y-63285750D01*
X141161928Y-63875000D01*
X141174188Y-63999482D01*
X141210498Y-64119180D01*
X141269463Y-64229494D01*
X141348815Y-64326185D01*
X141445506Y-64405537D01*
X141555820Y-64464502D01*
X141675518Y-64500812D01*
X141800000Y-64513072D01*
X141847951Y-64512727D01*
X141710150Y-64554528D01*
X141556614Y-64636595D01*
X141422038Y-64747038D01*
X141311595Y-64881614D01*
X141229528Y-65035150D01*
X141205306Y-65115000D01*
X138429555Y-65115000D01*
X138427932Y-65106842D01*
X138315990Y-64836589D01*
X138153475Y-64593368D01*
X138021620Y-64461513D01*
X138094180Y-64439502D01*
X138204494Y-64380537D01*
X138301185Y-64301185D01*
X138380537Y-64204494D01*
X138439502Y-64094180D01*
X138475812Y-63974482D01*
X138488072Y-63850000D01*
X138488072Y-62763506D01*
X139126578Y-62125000D01*
X141161928Y-62125000D01*
X141165000Y-62714250D01*
X141323750Y-62873000D01*
X142385500Y-62873000D01*
X142385500Y-61648750D01*
X142639500Y-61648750D01*
X142639500Y-62873000D01*
X143701250Y-62873000D01*
X143860000Y-62714250D01*
X143861768Y-62375000D01*
X144136928Y-62375000D01*
X144136928Y-63625000D01*
X144153992Y-63798254D01*
X144204528Y-63964850D01*
X144286595Y-64118386D01*
X144397038Y-64252962D01*
X144531614Y-64363405D01*
X144665001Y-64434702D01*
X144665000Y-64632112D01*
X144656614Y-64636595D01*
X144522038Y-64747038D01*
X144411595Y-64881614D01*
X144329528Y-65035150D01*
X144278992Y-65201746D01*
X144261928Y-65375000D01*
X144261928Y-66625000D01*
X144278992Y-66798254D01*
X144329528Y-66964850D01*
X144411595Y-67118386D01*
X144522038Y-67252962D01*
X144656614Y-67363405D01*
X144810150Y-67445472D01*
X144976746Y-67496008D01*
X145150000Y-67513072D01*
X145950000Y-67513072D01*
X146123254Y-67496008D01*
X146289850Y-67445472D01*
X146443386Y-67363405D01*
X146577962Y-67252962D01*
X146688405Y-67118386D01*
X146770472Y-66964850D01*
X146821008Y-66798254D01*
X146838072Y-66625000D01*
X146838072Y-65375000D01*
X146821008Y-65201746D01*
X146770472Y-65035150D01*
X146688405Y-64881614D01*
X146577962Y-64747038D01*
X146443386Y-64636595D01*
X146435000Y-64632113D01*
X146435000Y-64367887D01*
X146443386Y-64363405D01*
X146577962Y-64252962D01*
X146688405Y-64118386D01*
X146770472Y-63964850D01*
X146821008Y-63798254D01*
X146838072Y-63625000D01*
X146838072Y-62375000D01*
X146821008Y-62201746D01*
X146770472Y-62035150D01*
X146688405Y-61881614D01*
X146577962Y-61747038D01*
X146443386Y-61636595D01*
X146289850Y-61554528D01*
X146123254Y-61503992D01*
X145950000Y-61486928D01*
X145025000Y-61486928D01*
X144851746Y-61503992D01*
X144685150Y-61554528D01*
X144531614Y-61636595D01*
X144397038Y-61747038D01*
X144286595Y-61881614D01*
X144204528Y-62035150D01*
X144153992Y-62201746D01*
X144136928Y-62375000D01*
X143861768Y-62375000D01*
X143863072Y-62125000D01*
X143850812Y-62000518D01*
X143814502Y-61880820D01*
X143755537Y-61770506D01*
X143676185Y-61673815D01*
X143579494Y-61594463D01*
X143469180Y-61535498D01*
X143349482Y-61499188D01*
X143225000Y-61486928D01*
X142798250Y-61490000D01*
X142639500Y-61648750D01*
X142385500Y-61648750D01*
X142226750Y-61490000D01*
X141800000Y-61486928D01*
X141675518Y-61499188D01*
X141555820Y-61535498D01*
X141445506Y-61594463D01*
X141348815Y-61673815D01*
X141269463Y-61770506D01*
X141210498Y-61880820D01*
X141174188Y-62000518D01*
X141161928Y-62125000D01*
X139126578Y-62125000D01*
X142603517Y-58648061D01*
X151715000Y-58648061D01*
X151715000Y-58851939D01*
X151754774Y-59051898D01*
X151832795Y-59240256D01*
X151946063Y-59409774D01*
X152005015Y-59468726D01*
X151998815Y-59473815D01*
X151919463Y-59570506D01*
X151860498Y-59680820D01*
X151824188Y-59800518D01*
X151811928Y-59925000D01*
X151811928Y-61425000D01*
X151824188Y-61549482D01*
X151860498Y-61669180D01*
X151919463Y-61779494D01*
X151998815Y-61876185D01*
X152095506Y-61955537D01*
X152205820Y-62014502D01*
X152325518Y-62050812D01*
X152450000Y-62063072D01*
X153050000Y-62063072D01*
X153174482Y-62050812D01*
X153294180Y-62014502D01*
X153404494Y-61955537D01*
X153501185Y-61876185D01*
X153580537Y-61779494D01*
X153639502Y-61669180D01*
X153675812Y-61549482D01*
X153688072Y-61425000D01*
X153688072Y-59925000D01*
X153675812Y-59800518D01*
X153639502Y-59680820D01*
X153580537Y-59570506D01*
X153501185Y-59473815D01*
X153494985Y-59468726D01*
X153553937Y-59409774D01*
X153667205Y-59240256D01*
X153745226Y-59051898D01*
X153785000Y-58851939D01*
X153785000Y-58648061D01*
X153745226Y-58448102D01*
X153667205Y-58259744D01*
X153553937Y-58090226D01*
X153409774Y-57946063D01*
X153240256Y-57832795D01*
X153051898Y-57754774D01*
X152851939Y-57715000D01*
X152648061Y-57715000D01*
X152448102Y-57754774D01*
X152259744Y-57832795D01*
X152090226Y-57946063D01*
X151946063Y-58090226D01*
X151832795Y-58259744D01*
X151754774Y-58448102D01*
X151715000Y-58648061D01*
X142603517Y-58648061D01*
X144366579Y-56885000D01*
X156231844Y-56885000D01*
X156184010Y-56956589D01*
X156072068Y-57226842D01*
X156015000Y-57513740D01*
X156015000Y-57806260D01*
X156072068Y-58093158D01*
X156184010Y-58363411D01*
X156346525Y-58606632D01*
X156553368Y-58813475D01*
X156796589Y-58975990D01*
X157066842Y-59087932D01*
X157353740Y-59145000D01*
X157646260Y-59145000D01*
X157933158Y-59087932D01*
X158203411Y-58975990D01*
X158446632Y-58813475D01*
X158653475Y-58606632D01*
X158770000Y-58432240D01*
X158886525Y-58606632D01*
X159093368Y-58813475D01*
X159336589Y-58975990D01*
X159606842Y-59087932D01*
X159893740Y-59145000D01*
X160186260Y-59145000D01*
X160473158Y-59087932D01*
X160743411Y-58975990D01*
X160840000Y-58911451D01*
X160840001Y-69340000D01*
X153628373Y-69340000D01*
X153639502Y-69319180D01*
X153675812Y-69199482D01*
X153688072Y-69075000D01*
X153685000Y-68610750D01*
X153526250Y-68452000D01*
X152877000Y-68452000D01*
X152877000Y-68472000D01*
X152623000Y-68472000D01*
X152623000Y-68452000D01*
X151973750Y-68452000D01*
X151815000Y-68610750D01*
X151811928Y-69075000D01*
X151824188Y-69199482D01*
X151860498Y-69319180D01*
X151871627Y-69340000D01*
X74660000Y-69340000D01*
X74660000Y-67350000D01*
X86511928Y-67350000D01*
X86524188Y-67474482D01*
X86560498Y-67594180D01*
X86619463Y-67704494D01*
X86698815Y-67801185D01*
X86795506Y-67880537D01*
X86905820Y-67939502D01*
X87025518Y-67975812D01*
X87150000Y-67988072D01*
X87714250Y-67985000D01*
X87873000Y-67826250D01*
X87873000Y-66627000D01*
X86673750Y-66627000D01*
X86515000Y-66785750D01*
X86511928Y-67350000D01*
X74660000Y-67350000D01*
X74660000Y-65650000D01*
X86511928Y-65650000D01*
X86515000Y-66214250D01*
X86673750Y-66373000D01*
X87873000Y-66373000D01*
X87873000Y-65173750D01*
X87714250Y-65015000D01*
X87150000Y-65011928D01*
X87025518Y-65024188D01*
X86905820Y-65060498D01*
X86795506Y-65119463D01*
X86698815Y-65198815D01*
X86619463Y-65295506D01*
X86560498Y-65405820D01*
X86524188Y-65525518D01*
X86511928Y-65650000D01*
X74660000Y-65650000D01*
X74660000Y-40660000D01*
X160840001Y-40660000D01*
X160840001Y-46248549D01*
G04 #@! TA.AperFunction,Conductor*
D18*
G36*
X160840001Y-46248549D02*
G01*
X160743411Y-46184010D01*
X160473158Y-46072068D01*
X160186260Y-46015000D01*
X159893740Y-46015000D01*
X159606842Y-46072068D01*
X159336589Y-46184010D01*
X159093368Y-46346525D01*
X158906285Y-46533608D01*
X158838405Y-46406614D01*
X158727962Y-46272038D01*
X158593386Y-46161595D01*
X158439850Y-46079528D01*
X158273254Y-46028992D01*
X158100000Y-46011928D01*
X156900000Y-46011928D01*
X156726746Y-46028992D01*
X156560150Y-46079528D01*
X156406614Y-46161595D01*
X156272038Y-46272038D01*
X156161595Y-46406614D01*
X156079528Y-46560150D01*
X156028992Y-46726746D01*
X156025224Y-46765000D01*
X152804447Y-46765000D01*
X151045258Y-45005812D01*
X151022238Y-44977762D01*
X150910320Y-44885913D01*
X150782633Y-44817663D01*
X150644085Y-44775635D01*
X150536105Y-44765000D01*
X150500000Y-44761444D01*
X150463895Y-44765000D01*
X149474776Y-44765000D01*
X149471008Y-44726746D01*
X149420472Y-44560150D01*
X149338405Y-44406614D01*
X149227962Y-44272038D01*
X149093386Y-44161595D01*
X148939850Y-44079528D01*
X148773254Y-44028992D01*
X148600000Y-44011928D01*
X147400000Y-44011928D01*
X147226746Y-44028992D01*
X147060150Y-44079528D01*
X146906614Y-44161595D01*
X146772038Y-44272038D01*
X146661595Y-44406614D01*
X146579528Y-44560150D01*
X146546420Y-44669293D01*
X146488397Y-44651208D01*
X145639605Y-45500000D01*
X146488397Y-46348792D01*
X146546420Y-46330707D01*
X146579528Y-46439850D01*
X146661595Y-46593386D01*
X146772038Y-46727962D01*
X146906614Y-46838405D01*
X147033608Y-46906285D01*
X146846525Y-47093368D01*
X146730689Y-47266729D01*
X146488397Y-47191208D01*
X145639605Y-48040000D01*
X146488397Y-48888792D01*
X146730689Y-48813271D01*
X146846525Y-48986632D01*
X147053368Y-49193475D01*
X147296589Y-49355990D01*
X147566842Y-49467932D01*
X147853740Y-49525000D01*
X148146260Y-49525000D01*
X148433158Y-49467932D01*
X148703411Y-49355990D01*
X148946632Y-49193475D01*
X149153475Y-48986632D01*
X149315990Y-48743411D01*
X149427932Y-48473158D01*
X149485000Y-48186260D01*
X149485000Y-47893740D01*
X149427932Y-47606842D01*
X149315990Y-47336589D01*
X149153475Y-47093368D01*
X148966392Y-46906285D01*
X149093386Y-46838405D01*
X149227962Y-46727962D01*
X149338405Y-46593386D01*
X149420472Y-46439850D01*
X149471008Y-46273254D01*
X149474776Y-46235000D01*
X150195554Y-46235000D01*
X151460553Y-47500000D01*
X147695554Y-51265000D01*
X123228711Y-51265000D01*
X123159774Y-51196063D01*
X122990256Y-51082795D01*
X122801898Y-51004774D01*
X122601939Y-50965000D01*
X122398061Y-50965000D01*
X122198102Y-51004774D01*
X122009744Y-51082795D01*
X121840226Y-51196063D01*
X121771289Y-51265000D01*
X121515000Y-51265000D01*
X121515000Y-49574883D01*
X121726632Y-49433475D01*
X121933475Y-49226632D01*
X122050000Y-49052240D01*
X122166525Y-49226632D01*
X122373368Y-49433475D01*
X122616589Y-49595990D01*
X122886842Y-49707932D01*
X123173740Y-49765000D01*
X123466260Y-49765000D01*
X123753158Y-49707932D01*
X124023411Y-49595990D01*
X124266632Y-49433475D01*
X124473475Y-49226632D01*
X124590000Y-49052240D01*
X124706525Y-49226632D01*
X124913368Y-49433475D01*
X125156589Y-49595990D01*
X125426842Y-49707932D01*
X125713740Y-49765000D01*
X126006260Y-49765000D01*
X126293158Y-49707932D01*
X126563411Y-49595990D01*
X126806632Y-49433475D01*
X127013475Y-49226632D01*
X127175990Y-48983411D01*
X127287932Y-48713158D01*
X127345000Y-48426260D01*
X127345000Y-48133740D01*
X127287932Y-47846842D01*
X127175990Y-47576589D01*
X127013475Y-47333368D01*
X126806632Y-47126525D01*
X126633271Y-47010689D01*
X126708792Y-46768397D01*
X125860000Y-45919605D01*
X125011208Y-46768397D01*
X125086729Y-47010689D01*
X124913368Y-47126525D01*
X124706525Y-47333368D01*
X124590000Y-47507760D01*
X124473475Y-47333368D01*
X124266632Y-47126525D01*
X124093271Y-47010689D01*
X124168792Y-46768397D01*
X123320000Y-45919605D01*
X122471208Y-46768397D01*
X122546729Y-47010689D01*
X122373368Y-47126525D01*
X122166525Y-47333368D01*
X122050000Y-47507760D01*
X121933475Y-47333368D01*
X121726632Y-47126525D01*
X121553271Y-47010689D01*
X121628792Y-46768397D01*
X120780000Y-45919605D01*
X119931208Y-46768397D01*
X120006729Y-47010689D01*
X119833368Y-47126525D01*
X119626525Y-47333368D01*
X119510000Y-47507760D01*
X119393475Y-47333368D01*
X119186632Y-47126525D01*
X119013271Y-47010689D01*
X119088792Y-46768397D01*
X118240000Y-45919605D01*
X117391208Y-46768397D01*
X117466729Y-47010689D01*
X117293368Y-47126525D01*
X117086525Y-47333368D01*
X116970000Y-47507760D01*
X116853475Y-47333368D01*
X116646632Y-47126525D01*
X116473271Y-47010689D01*
X116548792Y-46768397D01*
X115700000Y-45919605D01*
X114851208Y-46768397D01*
X114926729Y-47010689D01*
X114753368Y-47126525D01*
X114546525Y-47333368D01*
X114430000Y-47507760D01*
X114313475Y-47333368D01*
X114106632Y-47126525D01*
X113933271Y-47010689D01*
X114008792Y-46768397D01*
X113160000Y-45919605D01*
X112311208Y-46768397D01*
X112386729Y-47010689D01*
X112213368Y-47126525D01*
X112006525Y-47333368D01*
X111890000Y-47507760D01*
X111773475Y-47333368D01*
X111566632Y-47126525D01*
X111393271Y-47010689D01*
X111468792Y-46768397D01*
X110620000Y-45919605D01*
X109771208Y-46768397D01*
X109846729Y-47010689D01*
X109673368Y-47126525D01*
X109466525Y-47333368D01*
X109350000Y-47507760D01*
X109233475Y-47333368D01*
X109026632Y-47126525D01*
X108853271Y-47010689D01*
X108928792Y-46768397D01*
X108080000Y-45919605D01*
X107231208Y-46768397D01*
X107306729Y-47010689D01*
X107133368Y-47126525D01*
X106926525Y-47333368D01*
X106810000Y-47507760D01*
X106693475Y-47333368D01*
X106486632Y-47126525D01*
X106313271Y-47010689D01*
X106388792Y-46768397D01*
X105540000Y-45919605D01*
X104691208Y-46768397D01*
X104766729Y-47010689D01*
X104593368Y-47126525D01*
X104406285Y-47313608D01*
X104338405Y-47186614D01*
X104227962Y-47052038D01*
X104093386Y-46941595D01*
X103966392Y-46873715D01*
X104153475Y-46686632D01*
X104269311Y-46513271D01*
X104511603Y-46588792D01*
X105360395Y-45740000D01*
X105719605Y-45740000D01*
X106568397Y-46588792D01*
X106810000Y-46513486D01*
X107051603Y-46588792D01*
X107900395Y-45740000D01*
X108259605Y-45740000D01*
X109108397Y-46588792D01*
X109350000Y-46513486D01*
X109591603Y-46588792D01*
X110440395Y-45740000D01*
X110799605Y-45740000D01*
X111648397Y-46588792D01*
X111890000Y-46513486D01*
X112131603Y-46588792D01*
X112980395Y-45740000D01*
X113339605Y-45740000D01*
X114188397Y-46588792D01*
X114430000Y-46513486D01*
X114671603Y-46588792D01*
X115520395Y-45740000D01*
X115879605Y-45740000D01*
X116728397Y-46588792D01*
X116970000Y-46513486D01*
X117211603Y-46588792D01*
X118060395Y-45740000D01*
X118419605Y-45740000D01*
X119268397Y-46588792D01*
X119510000Y-46513486D01*
X119751603Y-46588792D01*
X120600395Y-45740000D01*
X120959605Y-45740000D01*
X121808397Y-46588792D01*
X122050000Y-46513486D01*
X122291603Y-46588792D01*
X123140395Y-45740000D01*
X123499605Y-45740000D01*
X124348397Y-46588792D01*
X124590000Y-46513486D01*
X124831603Y-46588792D01*
X125680395Y-45740000D01*
X126039605Y-45740000D01*
X126888397Y-46588792D01*
X127137472Y-46511157D01*
X127263371Y-46247117D01*
X127335339Y-45963589D01*
X127350611Y-45671469D01*
X127308599Y-45381981D01*
X127298595Y-45353740D01*
X136355000Y-45353740D01*
X136355000Y-45646260D01*
X136412068Y-45933158D01*
X136524010Y-46203411D01*
X136686525Y-46446632D01*
X136893368Y-46653475D01*
X137067760Y-46770000D01*
X136893368Y-46886525D01*
X136686525Y-47093368D01*
X136524010Y-47336589D01*
X136412068Y-47606842D01*
X136355000Y-47893740D01*
X136355000Y-48186260D01*
X136412068Y-48473158D01*
X136524010Y-48743411D01*
X136686525Y-48986632D01*
X136893368Y-49193475D01*
X137136589Y-49355990D01*
X137406842Y-49467932D01*
X137693740Y-49525000D01*
X137986260Y-49525000D01*
X138273158Y-49467932D01*
X138543411Y-49355990D01*
X138786632Y-49193475D01*
X138993475Y-48986632D01*
X139110000Y-48812240D01*
X139226525Y-48986632D01*
X139433368Y-49193475D01*
X139676589Y-49355990D01*
X139946842Y-49467932D01*
X140233740Y-49525000D01*
X140526260Y-49525000D01*
X140813158Y-49467932D01*
X141083411Y-49355990D01*
X141326632Y-49193475D01*
X141533475Y-48986632D01*
X141650000Y-48812240D01*
X141766525Y-48986632D01*
X141973368Y-49193475D01*
X142216589Y-49355990D01*
X142486842Y-49467932D01*
X142773740Y-49525000D01*
X143066260Y-49525000D01*
X143353158Y-49467932D01*
X143623411Y-49355990D01*
X143866632Y-49193475D01*
X143991710Y-49068397D01*
X144611208Y-49068397D01*
X144688843Y-49317472D01*
X144952883Y-49443371D01*
X145236411Y-49515339D01*
X145528531Y-49530611D01*
X145818019Y-49488599D01*
X146093747Y-49390919D01*
X146231157Y-49317472D01*
X146308792Y-49068397D01*
X145460000Y-48219605D01*
X144611208Y-49068397D01*
X143991710Y-49068397D01*
X144073475Y-48986632D01*
X144189311Y-48813271D01*
X144431603Y-48888792D01*
X145280395Y-48040000D01*
X144431603Y-47191208D01*
X144189311Y-47266729D01*
X144073475Y-47093368D01*
X143866632Y-46886525D01*
X143692240Y-46770000D01*
X143866632Y-46653475D01*
X143991710Y-46528397D01*
X144611208Y-46528397D01*
X144686514Y-46770000D01*
X144611208Y-47011603D01*
X145460000Y-47860395D01*
X146308792Y-47011603D01*
X146233486Y-46770000D01*
X146308792Y-46528397D01*
X145460000Y-45679605D01*
X144611208Y-46528397D01*
X143991710Y-46528397D01*
X144073475Y-46446632D01*
X144189311Y-46273271D01*
X144431603Y-46348792D01*
X145280395Y-45500000D01*
X144431603Y-44651208D01*
X144189311Y-44726729D01*
X144073475Y-44553368D01*
X143991710Y-44471603D01*
X144611208Y-44471603D01*
X145460000Y-45320395D01*
X146308792Y-44471603D01*
X146231157Y-44222528D01*
X145967117Y-44096629D01*
X145683589Y-44024661D01*
X145391469Y-44009389D01*
X145101981Y-44051401D01*
X144826253Y-44149081D01*
X144688843Y-44222528D01*
X144611208Y-44471603D01*
X143991710Y-44471603D01*
X143866632Y-44346525D01*
X143623411Y-44184010D01*
X143353158Y-44072068D01*
X143066260Y-44015000D01*
X142773740Y-44015000D01*
X142486842Y-44072068D01*
X142216589Y-44184010D01*
X141973368Y-44346525D01*
X141766525Y-44553368D01*
X141650000Y-44727760D01*
X141533475Y-44553368D01*
X141326632Y-44346525D01*
X141083411Y-44184010D01*
X140813158Y-44072068D01*
X140526260Y-44015000D01*
X140233740Y-44015000D01*
X139946842Y-44072068D01*
X139676589Y-44184010D01*
X139433368Y-44346525D01*
X139226525Y-44553368D01*
X139110000Y-44727760D01*
X138993475Y-44553368D01*
X138786632Y-44346525D01*
X138543411Y-44184010D01*
X138273158Y-44072068D01*
X137986260Y-44015000D01*
X137693740Y-44015000D01*
X137406842Y-44072068D01*
X137136589Y-44184010D01*
X136893368Y-44346525D01*
X136686525Y-44553368D01*
X136524010Y-44796589D01*
X136412068Y-45066842D01*
X136355000Y-45353740D01*
X127298595Y-45353740D01*
X127210919Y-45106253D01*
X127137472Y-44968843D01*
X126888397Y-44891208D01*
X126039605Y-45740000D01*
X125680395Y-45740000D01*
X124831603Y-44891208D01*
X124590000Y-44966514D01*
X124348397Y-44891208D01*
X123499605Y-45740000D01*
X123140395Y-45740000D01*
X122291603Y-44891208D01*
X122050000Y-44966514D01*
X121808397Y-44891208D01*
X120959605Y-45740000D01*
X120600395Y-45740000D01*
X119751603Y-44891208D01*
X119510000Y-44966514D01*
X119268397Y-44891208D01*
X118419605Y-45740000D01*
X118060395Y-45740000D01*
X117211603Y-44891208D01*
X116970000Y-44966514D01*
X116728397Y-44891208D01*
X115879605Y-45740000D01*
X115520395Y-45740000D01*
X114671603Y-44891208D01*
X114430000Y-44966514D01*
X114188397Y-44891208D01*
X113339605Y-45740000D01*
X112980395Y-45740000D01*
X112131603Y-44891208D01*
X111890000Y-44966514D01*
X111648397Y-44891208D01*
X110799605Y-45740000D01*
X110440395Y-45740000D01*
X109591603Y-44891208D01*
X109350000Y-44966514D01*
X109108397Y-44891208D01*
X108259605Y-45740000D01*
X107900395Y-45740000D01*
X107051603Y-44891208D01*
X106810000Y-44966514D01*
X106568397Y-44891208D01*
X105719605Y-45740000D01*
X105360395Y-45740000D01*
X104511603Y-44891208D01*
X104269311Y-44966729D01*
X104153475Y-44793368D01*
X104071710Y-44711603D01*
X104691208Y-44711603D01*
X105540000Y-45560395D01*
X106388792Y-44711603D01*
X107231208Y-44711603D01*
X108080000Y-45560395D01*
X108928792Y-44711603D01*
X109771208Y-44711603D01*
X110620000Y-45560395D01*
X111468792Y-44711603D01*
X112311208Y-44711603D01*
X113160000Y-45560395D01*
X114008792Y-44711603D01*
X114851208Y-44711603D01*
X115700000Y-45560395D01*
X116548792Y-44711603D01*
X117391208Y-44711603D01*
X118240000Y-45560395D01*
X119088792Y-44711603D01*
X119931208Y-44711603D01*
X120780000Y-45560395D01*
X121628792Y-44711603D01*
X122471208Y-44711603D01*
X123320000Y-45560395D01*
X124168792Y-44711603D01*
X125011208Y-44711603D01*
X125860000Y-45560395D01*
X126708792Y-44711603D01*
X126631157Y-44462528D01*
X126367117Y-44336629D01*
X126083589Y-44264661D01*
X125791469Y-44249389D01*
X125501981Y-44291401D01*
X125226253Y-44389081D01*
X125088843Y-44462528D01*
X125011208Y-44711603D01*
X124168792Y-44711603D01*
X124091157Y-44462528D01*
X123827117Y-44336629D01*
X123543589Y-44264661D01*
X123251469Y-44249389D01*
X122961981Y-44291401D01*
X122686253Y-44389081D01*
X122548843Y-44462528D01*
X122471208Y-44711603D01*
X121628792Y-44711603D01*
X121551157Y-44462528D01*
X121287117Y-44336629D01*
X121003589Y-44264661D01*
X120711469Y-44249389D01*
X120421981Y-44291401D01*
X120146253Y-44389081D01*
X120008843Y-44462528D01*
X119931208Y-44711603D01*
X119088792Y-44711603D01*
X119011157Y-44462528D01*
X118747117Y-44336629D01*
X118463589Y-44264661D01*
X118171469Y-44249389D01*
X117881981Y-44291401D01*
X117606253Y-44389081D01*
X117468843Y-44462528D01*
X117391208Y-44711603D01*
X116548792Y-44711603D01*
X116471157Y-44462528D01*
X116207117Y-44336629D01*
X115923589Y-44264661D01*
X115631469Y-44249389D01*
X115341981Y-44291401D01*
X115066253Y-44389081D01*
X114928843Y-44462528D01*
X114851208Y-44711603D01*
X114008792Y-44711603D01*
X113931157Y-44462528D01*
X113667117Y-44336629D01*
X113383589Y-44264661D01*
X113091469Y-44249389D01*
X112801981Y-44291401D01*
X112526253Y-44389081D01*
X112388843Y-44462528D01*
X112311208Y-44711603D01*
X111468792Y-44711603D01*
X111391157Y-44462528D01*
X111127117Y-44336629D01*
X110843589Y-44264661D01*
X110551469Y-44249389D01*
X110261981Y-44291401D01*
X109986253Y-44389081D01*
X109848843Y-44462528D01*
X109771208Y-44711603D01*
X108928792Y-44711603D01*
X108851157Y-44462528D01*
X108587117Y-44336629D01*
X108303589Y-44264661D01*
X108011469Y-44249389D01*
X107721981Y-44291401D01*
X107446253Y-44389081D01*
X107308843Y-44462528D01*
X107231208Y-44711603D01*
X106388792Y-44711603D01*
X106311157Y-44462528D01*
X106047117Y-44336629D01*
X105763589Y-44264661D01*
X105471469Y-44249389D01*
X105181981Y-44291401D01*
X104906253Y-44389081D01*
X104768843Y-44462528D01*
X104691208Y-44711603D01*
X104071710Y-44711603D01*
X103946632Y-44586525D01*
X103703411Y-44424010D01*
X103433158Y-44312068D01*
X103146260Y-44255000D01*
X102853740Y-44255000D01*
X102566842Y-44312068D01*
X102296589Y-44424010D01*
X102053368Y-44586525D01*
X101846525Y-44793368D01*
X101684010Y-45036589D01*
X101572068Y-45306842D01*
X101515000Y-45593740D01*
X101515000Y-45886260D01*
X101572068Y-46173158D01*
X101684010Y-46443411D01*
X101846525Y-46686632D01*
X102033608Y-46873715D01*
X101906614Y-46941595D01*
X101772038Y-47052038D01*
X101661595Y-47186614D01*
X101579528Y-47340150D01*
X101528992Y-47506746D01*
X101511928Y-47680000D01*
X101511928Y-48880000D01*
X101528992Y-49053254D01*
X101579528Y-49219850D01*
X101661595Y-49373386D01*
X101772038Y-49507962D01*
X101906614Y-49618405D01*
X102060150Y-49700472D01*
X102226746Y-49751008D01*
X102400000Y-49768072D01*
X103600000Y-49768072D01*
X103773254Y-49751008D01*
X103939850Y-49700472D01*
X104093386Y-49618405D01*
X104227962Y-49507962D01*
X104338405Y-49373386D01*
X104406285Y-49246392D01*
X104593368Y-49433475D01*
X104836589Y-49595990D01*
X105106842Y-49707932D01*
X105393740Y-49765000D01*
X105686260Y-49765000D01*
X105973158Y-49707932D01*
X106243411Y-49595990D01*
X106486632Y-49433475D01*
X106693475Y-49226632D01*
X106810000Y-49052240D01*
X106926525Y-49226632D01*
X107133368Y-49433475D01*
X107376589Y-49595990D01*
X107646842Y-49707932D01*
X107933740Y-49765000D01*
X108226260Y-49765000D01*
X108513158Y-49707932D01*
X108783411Y-49595990D01*
X109026632Y-49433475D01*
X109233475Y-49226632D01*
X109350000Y-49052240D01*
X109466525Y-49226632D01*
X109673368Y-49433475D01*
X109916589Y-49595990D01*
X110186842Y-49707932D01*
X110473740Y-49765000D01*
X110766260Y-49765000D01*
X111053158Y-49707932D01*
X111323411Y-49595990D01*
X111566632Y-49433475D01*
X111773475Y-49226632D01*
X111890000Y-49052240D01*
X112006525Y-49226632D01*
X112213368Y-49433475D01*
X112456589Y-49595990D01*
X112726842Y-49707932D01*
X113013740Y-49765000D01*
X113306260Y-49765000D01*
X113593158Y-49707932D01*
X113863411Y-49595990D01*
X114106632Y-49433475D01*
X114313475Y-49226632D01*
X114430000Y-49052240D01*
X114546525Y-49226632D01*
X114753368Y-49433475D01*
X114996589Y-49595990D01*
X115266842Y-49707932D01*
X115553740Y-49765000D01*
X115846260Y-49765000D01*
X116133158Y-49707932D01*
X116403411Y-49595990D01*
X116646632Y-49433475D01*
X116853475Y-49226632D01*
X116970000Y-49052240D01*
X117086525Y-49226632D01*
X117293368Y-49433475D01*
X117536589Y-49595990D01*
X117806842Y-49707932D01*
X118093740Y-49765000D01*
X118386260Y-49765000D01*
X118673158Y-49707932D01*
X118943411Y-49595990D01*
X119186632Y-49433475D01*
X119393475Y-49226632D01*
X119510000Y-49052240D01*
X119626525Y-49226632D01*
X119833368Y-49433475D01*
X120045000Y-49574883D01*
X120045001Y-51265000D01*
X97848712Y-51265000D01*
X97779775Y-51196063D01*
X97610257Y-51082795D01*
X97421899Y-51004774D01*
X97221940Y-50965000D01*
X97124448Y-50965000D01*
X92515345Y-46355897D01*
X92565001Y-46106260D01*
X92565001Y-45813740D01*
X92507933Y-45526842D01*
X92395991Y-45256589D01*
X92233476Y-45013368D01*
X92026633Y-44806525D01*
X91783412Y-44644010D01*
X91513159Y-44532068D01*
X91226261Y-44475000D01*
X90933741Y-44475000D01*
X90646843Y-44532068D01*
X90376590Y-44644010D01*
X90133369Y-44806525D01*
X89926526Y-45013368D01*
X89810001Y-45187760D01*
X89693476Y-45013368D01*
X89486633Y-44806525D01*
X89243412Y-44644010D01*
X88973159Y-44532068D01*
X88686261Y-44475000D01*
X88393741Y-44475000D01*
X88106843Y-44532068D01*
X87836590Y-44644010D01*
X87593369Y-44806525D01*
X87386526Y-45013368D01*
X87270001Y-45187760D01*
X87153476Y-45013368D01*
X86946633Y-44806525D01*
X86703412Y-44644010D01*
X86433159Y-44532068D01*
X86146261Y-44475000D01*
X85853741Y-44475000D01*
X85566843Y-44532068D01*
X85296590Y-44644010D01*
X85053369Y-44806525D01*
X84846526Y-45013368D01*
X84730001Y-45187760D01*
X84613476Y-45013368D01*
X84406633Y-44806525D01*
X84163412Y-44644010D01*
X83893159Y-44532068D01*
X83606261Y-44475000D01*
X83313741Y-44475000D01*
X83026843Y-44532068D01*
X82756590Y-44644010D01*
X82513369Y-44806525D01*
X82306526Y-45013368D01*
X82190001Y-45187760D01*
X82073476Y-45013368D01*
X81866633Y-44806525D01*
X81623412Y-44644010D01*
X81353159Y-44532068D01*
X81066261Y-44475000D01*
X80773741Y-44475000D01*
X80486843Y-44532068D01*
X80216590Y-44644010D01*
X79973369Y-44806525D01*
X79766526Y-45013368D01*
X79604011Y-45256589D01*
X79492069Y-45526842D01*
X79435001Y-45813740D01*
X79435001Y-46106260D01*
X79492069Y-46393158D01*
X79604011Y-46663411D01*
X79766526Y-46906632D01*
X79953609Y-47093715D01*
X79826615Y-47161595D01*
X79692039Y-47272038D01*
X79581596Y-47406614D01*
X79499529Y-47560150D01*
X79448993Y-47726746D01*
X79431929Y-47900000D01*
X79431929Y-49100000D01*
X79448993Y-49273254D01*
X79499529Y-49439850D01*
X79581596Y-49593386D01*
X79692039Y-49727962D01*
X79826615Y-49838405D01*
X79980151Y-49920472D01*
X80146747Y-49971008D01*
X80300069Y-49986109D01*
X80324957Y-50006534D01*
X87413471Y-57095049D01*
X87441184Y-57128817D01*
X87474952Y-57156530D01*
X87474954Y-57156532D01*
X87546453Y-57215210D01*
X87575942Y-57239411D01*
X87729688Y-57321589D01*
X87845904Y-57356843D01*
X87896510Y-57372195D01*
X87911307Y-57373652D01*
X88026524Y-57385000D01*
X88026532Y-57385000D01*
X88070001Y-57389281D01*
X88113470Y-57385000D01*
X97275001Y-57385000D01*
X97275000Y-65305344D01*
X97213368Y-65346525D01*
X97006525Y-65553368D01*
X96890000Y-65727760D01*
X96773475Y-65553368D01*
X96566632Y-65346525D01*
X96323411Y-65184010D01*
X96053158Y-65072068D01*
X95766260Y-65015000D01*
X95473740Y-65015000D01*
X95186842Y-65072068D01*
X94916589Y-65184010D01*
X94673368Y-65346525D01*
X94466525Y-65553368D01*
X94350000Y-65727760D01*
X94233475Y-65553368D01*
X94026632Y-65346525D01*
X93783411Y-65184010D01*
X93513158Y-65072068D01*
X93226260Y-65015000D01*
X92933740Y-65015000D01*
X92646842Y-65072068D01*
X92376589Y-65184010D01*
X92133368Y-65346525D01*
X91926525Y-65553368D01*
X91810000Y-65727760D01*
X91693475Y-65553368D01*
X91486632Y-65346525D01*
X91243411Y-65184010D01*
X90973158Y-65072068D01*
X90686260Y-65015000D01*
X90393740Y-65015000D01*
X90106842Y-65072068D01*
X89836589Y-65184010D01*
X89593368Y-65346525D01*
X89461513Y-65478380D01*
X89439502Y-65405820D01*
X89380537Y-65295506D01*
X89301185Y-65198815D01*
X89204494Y-65119463D01*
X89094180Y-65060498D01*
X88974482Y-65024188D01*
X88850000Y-65011928D01*
X88285750Y-65015000D01*
X88127000Y-65173750D01*
X88127000Y-66373000D01*
X88147000Y-66373000D01*
X88147000Y-66627000D01*
X88127000Y-66627000D01*
X88127000Y-67826250D01*
X88285750Y-67985000D01*
X88850000Y-67988072D01*
X88974482Y-67975812D01*
X89094180Y-67939502D01*
X89204494Y-67880537D01*
X89301185Y-67801185D01*
X89380537Y-67704494D01*
X89439502Y-67594180D01*
X89461513Y-67521620D01*
X89593368Y-67653475D01*
X89836589Y-67815990D01*
X90106842Y-67927932D01*
X90393740Y-67985000D01*
X90686260Y-67985000D01*
X90973158Y-67927932D01*
X91243411Y-67815990D01*
X91486632Y-67653475D01*
X91693475Y-67446632D01*
X91810000Y-67272240D01*
X91926525Y-67446632D01*
X92133368Y-67653475D01*
X92376589Y-67815990D01*
X92646842Y-67927932D01*
X92933740Y-67985000D01*
X93226260Y-67985000D01*
X93513158Y-67927932D01*
X93783411Y-67815990D01*
X94026632Y-67653475D01*
X94233475Y-67446632D01*
X94350000Y-67272240D01*
X94466525Y-67446632D01*
X94673368Y-67653475D01*
X94916589Y-67815990D01*
X95186842Y-67927932D01*
X95473740Y-67985000D01*
X95766260Y-67985000D01*
X96053158Y-67927932D01*
X96323411Y-67815990D01*
X96566632Y-67653475D01*
X96773475Y-67446632D01*
X96890000Y-67272240D01*
X97006525Y-67446632D01*
X97213368Y-67653475D01*
X97456589Y-67815990D01*
X97726842Y-67927932D01*
X98013740Y-67985000D01*
X98306260Y-67985000D01*
X98593158Y-67927932D01*
X98863411Y-67815990D01*
X99106632Y-67653475D01*
X99313475Y-67446632D01*
X99378042Y-67350000D01*
X102471928Y-67350000D01*
X102484188Y-67474482D01*
X102520498Y-67594180D01*
X102579463Y-67704494D01*
X102658815Y-67801185D01*
X102755506Y-67880537D01*
X102865820Y-67939502D01*
X102985518Y-67975812D01*
X103110000Y-67988072D01*
X103674250Y-67985000D01*
X103833000Y-67826250D01*
X103833000Y-66627000D01*
X102633750Y-66627000D01*
X102475000Y-66785750D01*
X102471928Y-67350000D01*
X99378042Y-67350000D01*
X99475990Y-67203411D01*
X99587932Y-66933158D01*
X99645000Y-66646260D01*
X99645000Y-66353740D01*
X99587932Y-66066842D01*
X99475990Y-65796589D01*
X99378043Y-65650000D01*
X102471928Y-65650000D01*
X102475000Y-66214250D01*
X102633750Y-66373000D01*
X103833000Y-66373000D01*
X103833000Y-65173750D01*
X103674250Y-65015000D01*
X103110000Y-65011928D01*
X102985518Y-65024188D01*
X102865820Y-65060498D01*
X102755506Y-65119463D01*
X102658815Y-65198815D01*
X102579463Y-65295506D01*
X102520498Y-65405820D01*
X102484188Y-65525518D01*
X102471928Y-65650000D01*
X99378043Y-65650000D01*
X99313475Y-65553368D01*
X99106632Y-65346525D01*
X99045000Y-65305344D01*
X99045000Y-57385000D01*
X102461546Y-57385000D01*
X102509744Y-57417205D01*
X102698102Y-57495226D01*
X102898061Y-57535000D01*
X103101939Y-57535000D01*
X103301898Y-57495226D01*
X103490256Y-57417205D01*
X103538454Y-57385000D01*
X110695001Y-57385000D01*
X110695000Y-65305344D01*
X110633368Y-65346525D01*
X110426525Y-65553368D01*
X110310000Y-65727760D01*
X110193475Y-65553368D01*
X109986632Y-65346525D01*
X109743411Y-65184010D01*
X109473158Y-65072068D01*
X109186260Y-65015000D01*
X108893740Y-65015000D01*
X108606842Y-65072068D01*
X108336589Y-65184010D01*
X108093368Y-65346525D01*
X107886525Y-65553368D01*
X107770000Y-65727760D01*
X107653475Y-65553368D01*
X107446632Y-65346525D01*
X107203411Y-65184010D01*
X106933158Y-65072068D01*
X106646260Y-65015000D01*
X106353740Y-65015000D01*
X106066842Y-65072068D01*
X105796589Y-65184010D01*
X105553368Y-65346525D01*
X105421513Y-65478380D01*
X105399502Y-65405820D01*
X105340537Y-65295506D01*
X105261185Y-65198815D01*
X105164494Y-65119463D01*
X105054180Y-65060498D01*
X104934482Y-65024188D01*
X104810000Y-65011928D01*
X104245750Y-65015000D01*
X104087000Y-65173750D01*
X104087000Y-66373000D01*
X104107000Y-66373000D01*
X104107000Y-66627000D01*
X104087000Y-66627000D01*
X104087000Y-67826250D01*
X104245750Y-67985000D01*
X104810000Y-67988072D01*
X104934482Y-67975812D01*
X105054180Y-67939502D01*
X105164494Y-67880537D01*
X105261185Y-67801185D01*
X105340537Y-67704494D01*
X105399502Y-67594180D01*
X105421513Y-67521620D01*
X105553368Y-67653475D01*
X105796589Y-67815990D01*
X106066842Y-67927932D01*
X106353740Y-67985000D01*
X106646260Y-67985000D01*
X106933158Y-67927932D01*
X107203411Y-67815990D01*
X107446632Y-67653475D01*
X107653475Y-67446632D01*
X107770000Y-67272240D01*
X107886525Y-67446632D01*
X108093368Y-67653475D01*
X108336589Y-67815990D01*
X108606842Y-67927932D01*
X108893740Y-67985000D01*
X109186260Y-67985000D01*
X109473158Y-67927932D01*
X109743411Y-67815990D01*
X109986632Y-67653475D01*
X110193475Y-67446632D01*
X110310000Y-67272240D01*
X110426525Y-67446632D01*
X110633368Y-67653475D01*
X110876589Y-67815990D01*
X111146842Y-67927932D01*
X111433740Y-67985000D01*
X111726260Y-67985000D01*
X112013158Y-67927932D01*
X112283411Y-67815990D01*
X112526632Y-67653475D01*
X112605107Y-67575000D01*
X151811928Y-67575000D01*
X151815000Y-68039250D01*
X151973750Y-68198000D01*
X152623000Y-68198000D01*
X152623000Y-67098750D01*
X152877000Y-67098750D01*
X152877000Y-68198000D01*
X153526250Y-68198000D01*
X153685000Y-68039250D01*
X153688072Y-67575000D01*
X153675812Y-67450518D01*
X153639502Y-67330820D01*
X153580537Y-67220506D01*
X153501185Y-67123815D01*
X153404494Y-67044463D01*
X153294180Y-66985498D01*
X153174482Y-66949188D01*
X153050000Y-66936928D01*
X153035750Y-66940000D01*
X152877000Y-67098750D01*
X152623000Y-67098750D01*
X152464250Y-66940000D01*
X152450000Y-66936928D01*
X152325518Y-66949188D01*
X152205820Y-66985498D01*
X152095506Y-67044463D01*
X151998815Y-67123815D01*
X151919463Y-67220506D01*
X151860498Y-67330820D01*
X151824188Y-67450518D01*
X151811928Y-67575000D01*
X112605107Y-67575000D01*
X112733475Y-67446632D01*
X112895990Y-67203411D01*
X113007932Y-66933158D01*
X113065000Y-66646260D01*
X113065000Y-66353740D01*
X113007932Y-66066842D01*
X112895990Y-65796589D01*
X112733475Y-65553368D01*
X112570107Y-65390000D01*
X118471928Y-65390000D01*
X118484188Y-65514482D01*
X118520498Y-65634180D01*
X118579463Y-65744494D01*
X118658815Y-65841185D01*
X118755506Y-65920537D01*
X118865820Y-65979502D01*
X118985518Y-66015812D01*
X119110000Y-66028072D01*
X119674250Y-66025000D01*
X119833000Y-65866250D01*
X119833000Y-64667000D01*
X118633750Y-64667000D01*
X118475000Y-64825750D01*
X118471928Y-65390000D01*
X112570107Y-65390000D01*
X112526632Y-65346525D01*
X112465000Y-65305344D01*
X112465000Y-57385000D01*
X124155001Y-57385000D01*
X124155000Y-60805344D01*
X124093368Y-60846525D01*
X123886525Y-61053368D01*
X123770000Y-61227760D01*
X123653475Y-61053368D01*
X123446632Y-60846525D01*
X123203411Y-60684010D01*
X122933158Y-60572068D01*
X122646260Y-60515000D01*
X122353740Y-60515000D01*
X122066842Y-60572068D01*
X121796589Y-60684010D01*
X121553368Y-60846525D01*
X121346525Y-61053368D01*
X121230000Y-61227760D01*
X121113475Y-61053368D01*
X120906632Y-60846525D01*
X120663411Y-60684010D01*
X120393158Y-60572068D01*
X120106260Y-60515000D01*
X119813740Y-60515000D01*
X119526842Y-60572068D01*
X119256589Y-60684010D01*
X119013368Y-60846525D01*
X118806525Y-61053368D01*
X118644010Y-61296589D01*
X118532068Y-61566842D01*
X118475000Y-61853740D01*
X118475000Y-62146260D01*
X118532068Y-62433158D01*
X118644010Y-62703411D01*
X118806525Y-62946632D01*
X118938380Y-63078487D01*
X118865820Y-63100498D01*
X118755506Y-63159463D01*
X118658815Y-63238815D01*
X118579463Y-63335506D01*
X118520498Y-63445820D01*
X118484188Y-63565518D01*
X118471928Y-63690000D01*
X118475000Y-64254250D01*
X118633750Y-64413000D01*
X119833000Y-64413000D01*
X119833000Y-64393000D01*
X120087000Y-64393000D01*
X120087000Y-64413000D01*
X120107000Y-64413000D01*
X120107000Y-64667000D01*
X120087000Y-64667000D01*
X120087000Y-65866250D01*
X120245750Y-66025000D01*
X120810000Y-66028072D01*
X120934482Y-66015812D01*
X121054180Y-65979502D01*
X121164494Y-65920537D01*
X121261185Y-65841185D01*
X121340537Y-65744494D01*
X121399502Y-65634180D01*
X121421513Y-65561620D01*
X121553368Y-65693475D01*
X121796589Y-65855990D01*
X122066842Y-65967932D01*
X122353740Y-66025000D01*
X122646260Y-66025000D01*
X122933158Y-65967932D01*
X123203411Y-65855990D01*
X123446632Y-65693475D01*
X123653475Y-65486632D01*
X123770000Y-65312240D01*
X123886525Y-65486632D01*
X124093368Y-65693475D01*
X124336589Y-65855990D01*
X124606842Y-65967932D01*
X124893740Y-66025000D01*
X125186260Y-66025000D01*
X125473158Y-65967932D01*
X125743411Y-65855990D01*
X125986632Y-65693475D01*
X126193475Y-65486632D01*
X126355990Y-65243411D01*
X126467932Y-64973158D01*
X126525000Y-64686260D01*
X126525000Y-64393740D01*
X126467932Y-64106842D01*
X126355990Y-63836589D01*
X126193475Y-63593368D01*
X125986632Y-63386525D01*
X125812240Y-63270000D01*
X125986632Y-63153475D01*
X126193475Y-62946632D01*
X126355990Y-62703411D01*
X126467932Y-62433158D01*
X126525000Y-62146260D01*
X126525000Y-61853740D01*
X126467932Y-61566842D01*
X126355990Y-61296589D01*
X126193475Y-61053368D01*
X125986632Y-60846525D01*
X125925000Y-60805344D01*
X125925000Y-57385000D01*
X134761000Y-57385000D01*
X134760999Y-64142530D01*
X134756718Y-64185999D01*
X134760999Y-64229468D01*
X134760999Y-64229475D01*
X134773804Y-64359488D01*
X134824410Y-64526311D01*
X134906588Y-64680057D01*
X135017182Y-64814816D01*
X135050955Y-64842533D01*
X135529461Y-65321040D01*
X135515000Y-65393740D01*
X135515000Y-65686260D01*
X135572068Y-65973158D01*
X135684010Y-66243411D01*
X135846525Y-66486632D01*
X136053368Y-66693475D01*
X136296589Y-66855990D01*
X136566842Y-66967932D01*
X136853740Y-67025000D01*
X137146260Y-67025000D01*
X137433158Y-66967932D01*
X137633374Y-66885000D01*
X141205306Y-66885000D01*
X141229528Y-66964850D01*
X141311595Y-67118386D01*
X141422038Y-67252962D01*
X141556614Y-67363405D01*
X141710150Y-67445472D01*
X141876746Y-67496008D01*
X142050000Y-67513072D01*
X142850000Y-67513072D01*
X143023254Y-67496008D01*
X143189850Y-67445472D01*
X143343386Y-67363405D01*
X143477962Y-67252962D01*
X143588405Y-67118386D01*
X143670472Y-66964850D01*
X143721008Y-66798254D01*
X143738072Y-66625000D01*
X143738072Y-65375000D01*
X143721008Y-65201746D01*
X143670472Y-65035150D01*
X143588405Y-64881614D01*
X143477962Y-64747038D01*
X143343386Y-64636595D01*
X143189850Y-64554528D01*
X143049011Y-64511805D01*
X143225000Y-64513072D01*
X143349482Y-64500812D01*
X143469180Y-64464502D01*
X143579494Y-64405537D01*
X143676185Y-64326185D01*
X143755537Y-64229494D01*
X143814502Y-64119180D01*
X143850812Y-63999482D01*
X143863072Y-63875000D01*
X143860000Y-63285750D01*
X143701250Y-63127000D01*
X142639500Y-63127000D01*
X142639500Y-63147000D01*
X142385500Y-63147000D01*
X142385500Y-63127000D01*
X141323750Y-63127000D01*
X141165000Y-63285750D01*
X141161928Y-63875000D01*
X141174188Y-63999482D01*
X141210498Y-64119180D01*
X141269463Y-64229494D01*
X141348815Y-64326185D01*
X141445506Y-64405537D01*
X141555820Y-64464502D01*
X141675518Y-64500812D01*
X141800000Y-64513072D01*
X141847951Y-64512727D01*
X141710150Y-64554528D01*
X141556614Y-64636595D01*
X141422038Y-64747038D01*
X141311595Y-64881614D01*
X141229528Y-65035150D01*
X141205306Y-65115000D01*
X138429555Y-65115000D01*
X138427932Y-65106842D01*
X138315990Y-64836589D01*
X138153475Y-64593368D01*
X138021620Y-64461513D01*
X138094180Y-64439502D01*
X138204494Y-64380537D01*
X138301185Y-64301185D01*
X138380537Y-64204494D01*
X138439502Y-64094180D01*
X138475812Y-63974482D01*
X138488072Y-63850000D01*
X138488072Y-62763506D01*
X139126578Y-62125000D01*
X141161928Y-62125000D01*
X141165000Y-62714250D01*
X141323750Y-62873000D01*
X142385500Y-62873000D01*
X142385500Y-61648750D01*
X142639500Y-61648750D01*
X142639500Y-62873000D01*
X143701250Y-62873000D01*
X143860000Y-62714250D01*
X143861768Y-62375000D01*
X144136928Y-62375000D01*
X144136928Y-63625000D01*
X144153992Y-63798254D01*
X144204528Y-63964850D01*
X144286595Y-64118386D01*
X144397038Y-64252962D01*
X144531614Y-64363405D01*
X144665001Y-64434702D01*
X144665000Y-64632112D01*
X144656614Y-64636595D01*
X144522038Y-64747038D01*
X144411595Y-64881614D01*
X144329528Y-65035150D01*
X144278992Y-65201746D01*
X144261928Y-65375000D01*
X144261928Y-66625000D01*
X144278992Y-66798254D01*
X144329528Y-66964850D01*
X144411595Y-67118386D01*
X144522038Y-67252962D01*
X144656614Y-67363405D01*
X144810150Y-67445472D01*
X144976746Y-67496008D01*
X145150000Y-67513072D01*
X145950000Y-67513072D01*
X146123254Y-67496008D01*
X146289850Y-67445472D01*
X146443386Y-67363405D01*
X146577962Y-67252962D01*
X146688405Y-67118386D01*
X146770472Y-66964850D01*
X146821008Y-66798254D01*
X146838072Y-66625000D01*
X146838072Y-65375000D01*
X146821008Y-65201746D01*
X146770472Y-65035150D01*
X146688405Y-64881614D01*
X146577962Y-64747038D01*
X146443386Y-64636595D01*
X146435000Y-64632113D01*
X146435000Y-64367887D01*
X146443386Y-64363405D01*
X146577962Y-64252962D01*
X146688405Y-64118386D01*
X146770472Y-63964850D01*
X146821008Y-63798254D01*
X146838072Y-63625000D01*
X146838072Y-62375000D01*
X146821008Y-62201746D01*
X146770472Y-62035150D01*
X146688405Y-61881614D01*
X146577962Y-61747038D01*
X146443386Y-61636595D01*
X146289850Y-61554528D01*
X146123254Y-61503992D01*
X145950000Y-61486928D01*
X145025000Y-61486928D01*
X144851746Y-61503992D01*
X144685150Y-61554528D01*
X144531614Y-61636595D01*
X144397038Y-61747038D01*
X144286595Y-61881614D01*
X144204528Y-62035150D01*
X144153992Y-62201746D01*
X144136928Y-62375000D01*
X143861768Y-62375000D01*
X143863072Y-62125000D01*
X143850812Y-62000518D01*
X143814502Y-61880820D01*
X143755537Y-61770506D01*
X143676185Y-61673815D01*
X143579494Y-61594463D01*
X143469180Y-61535498D01*
X143349482Y-61499188D01*
X143225000Y-61486928D01*
X142798250Y-61490000D01*
X142639500Y-61648750D01*
X142385500Y-61648750D01*
X142226750Y-61490000D01*
X141800000Y-61486928D01*
X141675518Y-61499188D01*
X141555820Y-61535498D01*
X141445506Y-61594463D01*
X141348815Y-61673815D01*
X141269463Y-61770506D01*
X141210498Y-61880820D01*
X141174188Y-62000518D01*
X141161928Y-62125000D01*
X139126578Y-62125000D01*
X142603517Y-58648061D01*
X151715000Y-58648061D01*
X151715000Y-58851939D01*
X151754774Y-59051898D01*
X151832795Y-59240256D01*
X151946063Y-59409774D01*
X152005015Y-59468726D01*
X151998815Y-59473815D01*
X151919463Y-59570506D01*
X151860498Y-59680820D01*
X151824188Y-59800518D01*
X151811928Y-59925000D01*
X151811928Y-61425000D01*
X151824188Y-61549482D01*
X151860498Y-61669180D01*
X151919463Y-61779494D01*
X151998815Y-61876185D01*
X152095506Y-61955537D01*
X152205820Y-62014502D01*
X152325518Y-62050812D01*
X152450000Y-62063072D01*
X153050000Y-62063072D01*
X153174482Y-62050812D01*
X153294180Y-62014502D01*
X153404494Y-61955537D01*
X153501185Y-61876185D01*
X153580537Y-61779494D01*
X153639502Y-61669180D01*
X153675812Y-61549482D01*
X153688072Y-61425000D01*
X153688072Y-59925000D01*
X153675812Y-59800518D01*
X153639502Y-59680820D01*
X153580537Y-59570506D01*
X153501185Y-59473815D01*
X153494985Y-59468726D01*
X153553937Y-59409774D01*
X153667205Y-59240256D01*
X153745226Y-59051898D01*
X153785000Y-58851939D01*
X153785000Y-58648061D01*
X153745226Y-58448102D01*
X153667205Y-58259744D01*
X153553937Y-58090226D01*
X153409774Y-57946063D01*
X153240256Y-57832795D01*
X153051898Y-57754774D01*
X152851939Y-57715000D01*
X152648061Y-57715000D01*
X152448102Y-57754774D01*
X152259744Y-57832795D01*
X152090226Y-57946063D01*
X151946063Y-58090226D01*
X151832795Y-58259744D01*
X151754774Y-58448102D01*
X151715000Y-58648061D01*
X142603517Y-58648061D01*
X144366579Y-56885000D01*
X156231844Y-56885000D01*
X156184010Y-56956589D01*
X156072068Y-57226842D01*
X156015000Y-57513740D01*
X156015000Y-57806260D01*
X156072068Y-58093158D01*
X156184010Y-58363411D01*
X156346525Y-58606632D01*
X156553368Y-58813475D01*
X156796589Y-58975990D01*
X157066842Y-59087932D01*
X157353740Y-59145000D01*
X157646260Y-59145000D01*
X157933158Y-59087932D01*
X158203411Y-58975990D01*
X158446632Y-58813475D01*
X158653475Y-58606632D01*
X158770000Y-58432240D01*
X158886525Y-58606632D01*
X159093368Y-58813475D01*
X159336589Y-58975990D01*
X159606842Y-59087932D01*
X159893740Y-59145000D01*
X160186260Y-59145000D01*
X160473158Y-59087932D01*
X160743411Y-58975990D01*
X160840000Y-58911451D01*
X160840001Y-69340000D01*
X153628373Y-69340000D01*
X153639502Y-69319180D01*
X153675812Y-69199482D01*
X153688072Y-69075000D01*
X153685000Y-68610750D01*
X153526250Y-68452000D01*
X152877000Y-68452000D01*
X152877000Y-68472000D01*
X152623000Y-68472000D01*
X152623000Y-68452000D01*
X151973750Y-68452000D01*
X151815000Y-68610750D01*
X151811928Y-69075000D01*
X151824188Y-69199482D01*
X151860498Y-69319180D01*
X151871627Y-69340000D01*
X74660000Y-69340000D01*
X74660000Y-67350000D01*
X86511928Y-67350000D01*
X86524188Y-67474482D01*
X86560498Y-67594180D01*
X86619463Y-67704494D01*
X86698815Y-67801185D01*
X86795506Y-67880537D01*
X86905820Y-67939502D01*
X87025518Y-67975812D01*
X87150000Y-67988072D01*
X87714250Y-67985000D01*
X87873000Y-67826250D01*
X87873000Y-66627000D01*
X86673750Y-66627000D01*
X86515000Y-66785750D01*
X86511928Y-67350000D01*
X74660000Y-67350000D01*
X74660000Y-65650000D01*
X86511928Y-65650000D01*
X86515000Y-66214250D01*
X86673750Y-66373000D01*
X87873000Y-66373000D01*
X87873000Y-65173750D01*
X87714250Y-65015000D01*
X87150000Y-65011928D01*
X87025518Y-65024188D01*
X86905820Y-65060498D01*
X86795506Y-65119463D01*
X86698815Y-65198815D01*
X86619463Y-65295506D01*
X86560498Y-65405820D01*
X86524188Y-65525518D01*
X86511928Y-65650000D01*
X74660000Y-65650000D01*
X74660000Y-40660000D01*
X160840001Y-40660000D01*
X160840001Y-46248549D01*
G37*
G04 #@! TD.AperFunction*
D17*
X156096629Y-49532883D02*
X156024661Y-49816411D01*
X156009389Y-50108531D01*
X156051401Y-50398019D01*
X156149081Y-50673747D01*
X156222528Y-50811157D01*
X156471603Y-50888792D01*
X157320395Y-50040000D01*
X157306253Y-50025858D01*
X157485858Y-49846253D01*
X157500000Y-49860395D01*
X157514143Y-49846253D01*
X157693748Y-50025858D01*
X157679605Y-50040000D01*
X158528397Y-50888792D01*
X158770000Y-50813486D01*
X159011603Y-50888792D01*
X159860395Y-50040000D01*
X159846253Y-50025858D01*
X160025858Y-49846253D01*
X160040000Y-49860395D01*
X160054143Y-49846253D01*
X160233748Y-50025858D01*
X160219605Y-50040000D01*
X160233748Y-50054143D01*
X160054143Y-50233748D01*
X160040000Y-50219605D01*
X159191208Y-51068397D01*
X159266729Y-51310689D01*
X159093368Y-51426525D01*
X158886525Y-51633368D01*
X158770000Y-51807760D01*
X158653475Y-51633368D01*
X158446632Y-51426525D01*
X158273271Y-51310689D01*
X158348792Y-51068397D01*
X157500000Y-50219605D01*
X156651208Y-51068397D01*
X156726729Y-51310689D01*
X156553368Y-51426525D01*
X156346525Y-51633368D01*
X156184010Y-51876589D01*
X156072068Y-52146842D01*
X156015000Y-52433740D01*
X156015000Y-52726260D01*
X156064656Y-52975897D01*
X155667548Y-53373006D01*
X148934138Y-53373006D01*
X148941223Y-53355901D01*
X148980997Y-53155942D01*
X148980997Y-53058449D01*
X152600437Y-49439010D01*
X156141389Y-49439010D01*
X156096629Y-49532883D01*
G04 #@! TA.AperFunction,Conductor*
D18*
G36*
X156096629Y-49532883D02*
G01*
X156024661Y-49816411D01*
X156009389Y-50108531D01*
X156051401Y-50398019D01*
X156149081Y-50673747D01*
X156222528Y-50811157D01*
X156471603Y-50888792D01*
X157320395Y-50040000D01*
X157306253Y-50025858D01*
X157485858Y-49846253D01*
X157500000Y-49860395D01*
X157514143Y-49846253D01*
X157693748Y-50025858D01*
X157679605Y-50040000D01*
X158528397Y-50888792D01*
X158770000Y-50813486D01*
X159011603Y-50888792D01*
X159860395Y-50040000D01*
X159846253Y-50025858D01*
X160025858Y-49846253D01*
X160040000Y-49860395D01*
X160054143Y-49846253D01*
X160233748Y-50025858D01*
X160219605Y-50040000D01*
X160233748Y-50054143D01*
X160054143Y-50233748D01*
X160040000Y-50219605D01*
X159191208Y-51068397D01*
X159266729Y-51310689D01*
X159093368Y-51426525D01*
X158886525Y-51633368D01*
X158770000Y-51807760D01*
X158653475Y-51633368D01*
X158446632Y-51426525D01*
X158273271Y-51310689D01*
X158348792Y-51068397D01*
X157500000Y-50219605D01*
X156651208Y-51068397D01*
X156726729Y-51310689D01*
X156553368Y-51426525D01*
X156346525Y-51633368D01*
X156184010Y-51876589D01*
X156072068Y-52146842D01*
X156015000Y-52433740D01*
X156015000Y-52726260D01*
X156064656Y-52975897D01*
X155667548Y-53373006D01*
X148934138Y-53373006D01*
X148941223Y-53355901D01*
X148980997Y-53155942D01*
X148980997Y-53058449D01*
X152600437Y-49439010D01*
X156141389Y-49439010D01*
X156096629Y-49532883D01*
G37*
G04 #@! TD.AperFunction*
D17*
X89926526Y-46906632D02*
X90133369Y-47113475D01*
X90306730Y-47229311D01*
X90231209Y-47471603D01*
X91080001Y-48320395D01*
X91094144Y-48306253D01*
X91273749Y-48485858D01*
X91259606Y-48500000D01*
X92108398Y-49348792D01*
X92357473Y-49271157D01*
X92483372Y-49007117D01*
X92555340Y-48723589D01*
X92567701Y-48487147D01*
X96085001Y-52004447D01*
X96085001Y-52101939D01*
X96124775Y-52301898D01*
X96131860Y-52319003D01*
X94174708Y-52319003D01*
X94105771Y-52250066D01*
X93936253Y-52136798D01*
X93747895Y-52058777D01*
X93547936Y-52019003D01*
X93344058Y-52019003D01*
X93144099Y-52058777D01*
X92955741Y-52136798D01*
X92786223Y-52250066D01*
X92717286Y-52319003D01*
X86536529Y-52319003D01*
X84075064Y-49857538D01*
X84093748Y-49850919D01*
X84231158Y-49777472D01*
X84308793Y-49528397D01*
X85151209Y-49528397D01*
X85228844Y-49777472D01*
X85492884Y-49903371D01*
X85776412Y-49975339D01*
X86068532Y-49990611D01*
X86358020Y-49948599D01*
X86633748Y-49850919D01*
X86771158Y-49777472D01*
X86848793Y-49528397D01*
X86000001Y-48679605D01*
X85151209Y-49528397D01*
X84308793Y-49528397D01*
X83460001Y-48679605D01*
X83445859Y-48693748D01*
X83266254Y-48514143D01*
X83280396Y-48500000D01*
X83639606Y-48500000D01*
X84488398Y-49348792D01*
X84730001Y-49273486D01*
X84971604Y-49348792D01*
X85820396Y-48500000D01*
X84971604Y-47651208D01*
X84730001Y-47726514D01*
X84488398Y-47651208D01*
X83639606Y-48500000D01*
X83280396Y-48500000D01*
X83266254Y-48485858D01*
X83445859Y-48306253D01*
X83460001Y-48320395D01*
X84308793Y-47471603D01*
X84233272Y-47229311D01*
X84406633Y-47113475D01*
X84613476Y-46906632D01*
X84730001Y-46732240D01*
X84846526Y-46906632D01*
X85053369Y-47113475D01*
X85226730Y-47229311D01*
X85151209Y-47471603D01*
X86000001Y-48320395D01*
X86848793Y-47471603D01*
X86773272Y-47229311D01*
X86946633Y-47113475D01*
X87153476Y-46906632D01*
X87270001Y-46732240D01*
X87386526Y-46906632D01*
X87593369Y-47113475D01*
X87767761Y-47230000D01*
X87593369Y-47346525D01*
X87386526Y-47553368D01*
X87270690Y-47726729D01*
X87028398Y-47651208D01*
X86179606Y-48500000D01*
X87028398Y-49348792D01*
X87270690Y-49273271D01*
X87386526Y-49446632D01*
X87593369Y-49653475D01*
X87836590Y-49815990D01*
X88106843Y-49927932D01*
X88393741Y-49985000D01*
X88686261Y-49985000D01*
X88973159Y-49927932D01*
X89243412Y-49815990D01*
X89486633Y-49653475D01*
X89611711Y-49528397D01*
X90231209Y-49528397D01*
X90308844Y-49777472D01*
X90572884Y-49903371D01*
X90856412Y-49975339D01*
X91148532Y-49990611D01*
X91438020Y-49948599D01*
X91713748Y-49850919D01*
X91851158Y-49777472D01*
X91928793Y-49528397D01*
X91080001Y-48679605D01*
X90231209Y-49528397D01*
X89611711Y-49528397D01*
X89693476Y-49446632D01*
X89809312Y-49273271D01*
X90051604Y-49348792D01*
X90900396Y-48500000D01*
X90051604Y-47651208D01*
X89809312Y-47726729D01*
X89693476Y-47553368D01*
X89486633Y-47346525D01*
X89312241Y-47230000D01*
X89486633Y-47113475D01*
X89693476Y-46906632D01*
X89810001Y-46732240D01*
X89926526Y-46906632D01*
G04 #@! TA.AperFunction,Conductor*
D18*
G36*
X89926526Y-46906632D02*
G01*
X90133369Y-47113475D01*
X90306730Y-47229311D01*
X90231209Y-47471603D01*
X91080001Y-48320395D01*
X91094144Y-48306253D01*
X91273749Y-48485858D01*
X91259606Y-48500000D01*
X92108398Y-49348792D01*
X92357473Y-49271157D01*
X92483372Y-49007117D01*
X92555340Y-48723589D01*
X92567701Y-48487147D01*
X96085001Y-52004447D01*
X96085001Y-52101939D01*
X96124775Y-52301898D01*
X96131860Y-52319003D01*
X94174708Y-52319003D01*
X94105771Y-52250066D01*
X93936253Y-52136798D01*
X93747895Y-52058777D01*
X93547936Y-52019003D01*
X93344058Y-52019003D01*
X93144099Y-52058777D01*
X92955741Y-52136798D01*
X92786223Y-52250066D01*
X92717286Y-52319003D01*
X86536529Y-52319003D01*
X84075064Y-49857538D01*
X84093748Y-49850919D01*
X84231158Y-49777472D01*
X84308793Y-49528397D01*
X85151209Y-49528397D01*
X85228844Y-49777472D01*
X85492884Y-49903371D01*
X85776412Y-49975339D01*
X86068532Y-49990611D01*
X86358020Y-49948599D01*
X86633748Y-49850919D01*
X86771158Y-49777472D01*
X86848793Y-49528397D01*
X86000001Y-48679605D01*
X85151209Y-49528397D01*
X84308793Y-49528397D01*
X83460001Y-48679605D01*
X83445859Y-48693748D01*
X83266254Y-48514143D01*
X83280396Y-48500000D01*
X83639606Y-48500000D01*
X84488398Y-49348792D01*
X84730001Y-49273486D01*
X84971604Y-49348792D01*
X85820396Y-48500000D01*
X84971604Y-47651208D01*
X84730001Y-47726514D01*
X84488398Y-47651208D01*
X83639606Y-48500000D01*
X83280396Y-48500000D01*
X83266254Y-48485858D01*
X83445859Y-48306253D01*
X83460001Y-48320395D01*
X84308793Y-47471603D01*
X84233272Y-47229311D01*
X84406633Y-47113475D01*
X84613476Y-46906632D01*
X84730001Y-46732240D01*
X84846526Y-46906632D01*
X85053369Y-47113475D01*
X85226730Y-47229311D01*
X85151209Y-47471603D01*
X86000001Y-48320395D01*
X86848793Y-47471603D01*
X86773272Y-47229311D01*
X86946633Y-47113475D01*
X87153476Y-46906632D01*
X87270001Y-46732240D01*
X87386526Y-46906632D01*
X87593369Y-47113475D01*
X87767761Y-47230000D01*
X87593369Y-47346525D01*
X87386526Y-47553368D01*
X87270690Y-47726729D01*
X87028398Y-47651208D01*
X86179606Y-48500000D01*
X87028398Y-49348792D01*
X87270690Y-49273271D01*
X87386526Y-49446632D01*
X87593369Y-49653475D01*
X87836590Y-49815990D01*
X88106843Y-49927932D01*
X88393741Y-49985000D01*
X88686261Y-49985000D01*
X88973159Y-49927932D01*
X89243412Y-49815990D01*
X89486633Y-49653475D01*
X89611711Y-49528397D01*
X90231209Y-49528397D01*
X90308844Y-49777472D01*
X90572884Y-49903371D01*
X90856412Y-49975339D01*
X91148532Y-49990611D01*
X91438020Y-49948599D01*
X91713748Y-49850919D01*
X91851158Y-49777472D01*
X91928793Y-49528397D01*
X91080001Y-48679605D01*
X90231209Y-49528397D01*
X89611711Y-49528397D01*
X89693476Y-49446632D01*
X89809312Y-49273271D01*
X90051604Y-49348792D01*
X90900396Y-48500000D01*
X90051604Y-47651208D01*
X89809312Y-47726729D01*
X89693476Y-47553368D01*
X89486633Y-47346525D01*
X89312241Y-47230000D01*
X89486633Y-47113475D01*
X89693476Y-46906632D01*
X89810001Y-46732240D01*
X89926526Y-46906632D01*
G37*
G04 #@! TD.AperFunction*
M02*
