G04 #@! TF.GenerationSoftware,KiCad,Pcbnew,(5.1.10)-1*
G04 #@! TF.CreationDate,2021-11-05T12:16:12+01:00*
G04 #@! TF.ProjectId,STM_programming_ports,53544d5f-7072-46f6-9772-616d6d696e67,rev?*
G04 #@! TF.SameCoordinates,Original*
G04 #@! TF.FileFunction,Legend,Top*
G04 #@! TF.FilePolarity,Positive*
%FSLAX46Y46*%
G04 Gerber Fmt 4.6, Leading zero omitted, Abs format (unit mm)*
G04 Created by KiCad (PCBNEW (5.1.10)-1) date 2021-11-05 12:16:12*
%MOMM*%
%LPD*%
G01*
G04 APERTURE LIST*
%ADD10C,0.150000*%
%ADD11C,0.120000*%
%ADD12C,1.800000*%
%ADD13O,1.800000X1.800000*%
G04 APERTURE END LIST*
D10*
X96067619Y-76985238D02*
X96020000Y-76937619D01*
X95972380Y-76842380D01*
X95972380Y-76604285D01*
X96020000Y-76509047D01*
X96067619Y-76461428D01*
X96162857Y-76413809D01*
X96258095Y-76413809D01*
X96400952Y-76461428D01*
X96972380Y-77032857D01*
X96972380Y-76413809D01*
X95972380Y-75794761D02*
X95972380Y-75699523D01*
X96020000Y-75604285D01*
X96067619Y-75556666D01*
X96162857Y-75509047D01*
X96353333Y-75461428D01*
X96591428Y-75461428D01*
X96781904Y-75509047D01*
X96877142Y-75556666D01*
X96924761Y-75604285D01*
X96972380Y-75699523D01*
X96972380Y-75794761D01*
X96924761Y-75890000D01*
X96877142Y-75937619D01*
X96781904Y-75985238D01*
X96591428Y-76032857D01*
X96353333Y-76032857D01*
X96162857Y-75985238D01*
X96067619Y-75937619D01*
X96020000Y-75890000D01*
X95972380Y-75794761D01*
X96591428Y-75032857D02*
X96591428Y-74270952D01*
X96305714Y-73794761D02*
X97305714Y-73794761D01*
X96353333Y-73794761D02*
X96305714Y-73699523D01*
X96305714Y-73509047D01*
X96353333Y-73413809D01*
X96400952Y-73366190D01*
X96496190Y-73318571D01*
X96781904Y-73318571D01*
X96877142Y-73366190D01*
X96924761Y-73413809D01*
X96972380Y-73509047D01*
X96972380Y-73699523D01*
X96924761Y-73794761D01*
X96972380Y-72890000D02*
X96305714Y-72890000D01*
X95972380Y-72890000D02*
X96020000Y-72937619D01*
X96067619Y-72890000D01*
X96020000Y-72842380D01*
X95972380Y-72890000D01*
X96067619Y-72890000D01*
X96305714Y-72413809D02*
X96972380Y-72413809D01*
X96400952Y-72413809D02*
X96353333Y-72366190D01*
X96305714Y-72270952D01*
X96305714Y-72128095D01*
X96353333Y-72032857D01*
X96448571Y-71985238D01*
X96972380Y-71985238D01*
X95972380Y-70461428D02*
X96686666Y-70461428D01*
X96829523Y-70509047D01*
X96924761Y-70604285D01*
X96972380Y-70747142D01*
X96972380Y-70842380D01*
X95972380Y-70128095D02*
X95972380Y-69556666D01*
X96972380Y-69842380D02*
X95972380Y-69842380D01*
X96686666Y-69270952D02*
X96686666Y-68794761D01*
X96972380Y-69366190D02*
X95972380Y-69032857D01*
X96972380Y-68699523D01*
X96020000Y-67842380D02*
X95972380Y-67937619D01*
X95972380Y-68080476D01*
X96020000Y-68223333D01*
X96115238Y-68318571D01*
X96210476Y-68366190D01*
X96400952Y-68413809D01*
X96543809Y-68413809D01*
X96734285Y-68366190D01*
X96829523Y-68318571D01*
X96924761Y-68223333D01*
X96972380Y-68080476D01*
X96972380Y-67985238D01*
X96924761Y-67842380D01*
X96877142Y-67794761D01*
X96543809Y-67794761D01*
X96543809Y-67985238D01*
X102021190Y-66492380D02*
X101449761Y-66492380D01*
X101735476Y-66492380D02*
X101735476Y-65492380D01*
X101640238Y-65635238D01*
X101545000Y-65730476D01*
X101449761Y-65778095D01*
X102640238Y-65492380D02*
X102735476Y-65492380D01*
X102830714Y-65540000D01*
X102878333Y-65587619D01*
X102925952Y-65682857D01*
X102973571Y-65873333D01*
X102973571Y-66111428D01*
X102925952Y-66301904D01*
X102878333Y-66397142D01*
X102830714Y-66444761D01*
X102735476Y-66492380D01*
X102640238Y-66492380D01*
X102545000Y-66444761D01*
X102497380Y-66397142D01*
X102449761Y-66301904D01*
X102402142Y-66111428D01*
X102402142Y-65873333D01*
X102449761Y-65682857D01*
X102497380Y-65587619D01*
X102545000Y-65540000D01*
X102640238Y-65492380D01*
X103402142Y-66111428D02*
X104164047Y-66111428D01*
X104640238Y-65825714D02*
X104640238Y-66825714D01*
X104640238Y-65873333D02*
X104735476Y-65825714D01*
X104925952Y-65825714D01*
X105021190Y-65873333D01*
X105068809Y-65920952D01*
X105116428Y-66016190D01*
X105116428Y-66301904D01*
X105068809Y-66397142D01*
X105021190Y-66444761D01*
X104925952Y-66492380D01*
X104735476Y-66492380D01*
X104640238Y-66444761D01*
X105545000Y-66492380D02*
X105545000Y-65825714D01*
X105545000Y-65492380D02*
X105497380Y-65540000D01*
X105545000Y-65587619D01*
X105592619Y-65540000D01*
X105545000Y-65492380D01*
X105545000Y-65587619D01*
X106021190Y-65825714D02*
X106021190Y-66492380D01*
X106021190Y-65920952D02*
X106068809Y-65873333D01*
X106164047Y-65825714D01*
X106306904Y-65825714D01*
X106402142Y-65873333D01*
X106449761Y-65968571D01*
X106449761Y-66492380D01*
X107973571Y-65492380D02*
X107973571Y-66206666D01*
X107925952Y-66349523D01*
X107830714Y-66444761D01*
X107687857Y-66492380D01*
X107592619Y-66492380D01*
X108306904Y-65492380D02*
X108878333Y-65492380D01*
X108592619Y-66492380D02*
X108592619Y-65492380D01*
X109164047Y-66206666D02*
X109640238Y-66206666D01*
X109068809Y-66492380D02*
X109402142Y-65492380D01*
X109735476Y-66492380D01*
X110592619Y-65540000D02*
X110497380Y-65492380D01*
X110354523Y-65492380D01*
X110211666Y-65540000D01*
X110116428Y-65635238D01*
X110068809Y-65730476D01*
X110021190Y-65920952D01*
X110021190Y-66063809D01*
X110068809Y-66254285D01*
X110116428Y-66349523D01*
X110211666Y-66444761D01*
X110354523Y-66492380D01*
X110449761Y-66492380D01*
X110592619Y-66444761D01*
X110640238Y-66397142D01*
X110640238Y-66063809D01*
X110449761Y-66063809D01*
X118880000Y-70611904D02*
X118832380Y-70707142D01*
X118832380Y-70850000D01*
X118880000Y-70992857D01*
X118975238Y-71088095D01*
X119070476Y-71135714D01*
X119260952Y-71183333D01*
X119403809Y-71183333D01*
X119594285Y-71135714D01*
X119689523Y-71088095D01*
X119784761Y-70992857D01*
X119832380Y-70850000D01*
X119832380Y-70754761D01*
X119784761Y-70611904D01*
X119737142Y-70564285D01*
X119403809Y-70564285D01*
X119403809Y-70754761D01*
X119832380Y-70135714D02*
X118832380Y-70135714D01*
X119832380Y-69564285D01*
X118832380Y-69564285D01*
X119832380Y-69088095D02*
X118832380Y-69088095D01*
X118832380Y-68850000D01*
X118880000Y-68707142D01*
X118975238Y-68611904D01*
X119070476Y-68564285D01*
X119260952Y-68516666D01*
X119403809Y-68516666D01*
X119594285Y-68564285D01*
X119689523Y-68611904D01*
X119784761Y-68707142D01*
X119832380Y-68850000D01*
X119832380Y-69088095D01*
X117244761Y-71476904D02*
X117292380Y-71334047D01*
X117292380Y-71095952D01*
X117244761Y-71000714D01*
X117197142Y-70953095D01*
X117101904Y-70905476D01*
X117006666Y-70905476D01*
X116911428Y-70953095D01*
X116863809Y-71000714D01*
X116816190Y-71095952D01*
X116768571Y-71286428D01*
X116720952Y-71381666D01*
X116673333Y-71429285D01*
X116578095Y-71476904D01*
X116482857Y-71476904D01*
X116387619Y-71429285D01*
X116340000Y-71381666D01*
X116292380Y-71286428D01*
X116292380Y-71048333D01*
X116340000Y-70905476D01*
X116292380Y-70572142D02*
X117292380Y-70334047D01*
X116578095Y-70143571D01*
X117292380Y-69953095D01*
X116292380Y-69715000D01*
X117197142Y-68762619D02*
X117244761Y-68810238D01*
X117292380Y-68953095D01*
X117292380Y-69048333D01*
X117244761Y-69191190D01*
X117149523Y-69286428D01*
X117054285Y-69334047D01*
X116863809Y-69381666D01*
X116720952Y-69381666D01*
X116530476Y-69334047D01*
X116435238Y-69286428D01*
X116340000Y-69191190D01*
X116292380Y-69048333D01*
X116292380Y-68953095D01*
X116340000Y-68810238D01*
X116387619Y-68762619D01*
X117292380Y-67857857D02*
X117292380Y-68334047D01*
X116292380Y-68334047D01*
X117292380Y-67524523D02*
X116292380Y-67524523D01*
X117292380Y-66953095D02*
X116720952Y-67381666D01*
X116292380Y-66953095D02*
X116863809Y-67524523D01*
X114704761Y-71334047D02*
X114752380Y-71191190D01*
X114752380Y-70953095D01*
X114704761Y-70857857D01*
X114657142Y-70810238D01*
X114561904Y-70762619D01*
X114466666Y-70762619D01*
X114371428Y-70810238D01*
X114323809Y-70857857D01*
X114276190Y-70953095D01*
X114228571Y-71143571D01*
X114180952Y-71238809D01*
X114133333Y-71286428D01*
X114038095Y-71334047D01*
X113942857Y-71334047D01*
X113847619Y-71286428D01*
X113800000Y-71238809D01*
X113752380Y-71143571D01*
X113752380Y-70905476D01*
X113800000Y-70762619D01*
X113752380Y-70429285D02*
X114752380Y-70191190D01*
X114038095Y-70000714D01*
X114752380Y-69810238D01*
X113752380Y-69572142D01*
X114752380Y-69191190D02*
X113752380Y-69191190D01*
X113752380Y-68953095D01*
X113800000Y-68810238D01*
X113895238Y-68715000D01*
X113990476Y-68667380D01*
X114180952Y-68619761D01*
X114323809Y-68619761D01*
X114514285Y-68667380D01*
X114609523Y-68715000D01*
X114704761Y-68810238D01*
X114752380Y-68953095D01*
X114752380Y-69191190D01*
X114752380Y-68191190D02*
X113752380Y-68191190D01*
X113752380Y-67524523D02*
X113752380Y-67334047D01*
X113800000Y-67238809D01*
X113895238Y-67143571D01*
X114085714Y-67095952D01*
X114419047Y-67095952D01*
X114609523Y-67143571D01*
X114704761Y-67238809D01*
X114752380Y-67334047D01*
X114752380Y-67524523D01*
X114704761Y-67619761D01*
X114609523Y-67715000D01*
X114419047Y-67762619D01*
X114085714Y-67762619D01*
X113895238Y-67715000D01*
X113800000Y-67619761D01*
X113752380Y-67524523D01*
X111212380Y-71088095D02*
X111212380Y-70469047D01*
X111593333Y-70802380D01*
X111593333Y-70659523D01*
X111640952Y-70564285D01*
X111688571Y-70516666D01*
X111783809Y-70469047D01*
X112021904Y-70469047D01*
X112117142Y-70516666D01*
X112164761Y-70564285D01*
X112212380Y-70659523D01*
X112212380Y-70945238D01*
X112164761Y-71040476D01*
X112117142Y-71088095D01*
X111212380Y-70183333D02*
X112212380Y-69850000D01*
X111212380Y-69516666D01*
X111212380Y-69278571D02*
X111212380Y-68659523D01*
X111593333Y-68992857D01*
X111593333Y-68850000D01*
X111640952Y-68754761D01*
X111688571Y-68707142D01*
X111783809Y-68659523D01*
X112021904Y-68659523D01*
X112117142Y-68707142D01*
X112164761Y-68754761D01*
X112212380Y-68850000D01*
X112212380Y-69135714D01*
X112164761Y-69230952D01*
X112117142Y-69278571D01*
X119269523Y-66444761D02*
X119412380Y-66492380D01*
X119650476Y-66492380D01*
X119745714Y-66444761D01*
X119793333Y-66397142D01*
X119840952Y-66301904D01*
X119840952Y-66206666D01*
X119793333Y-66111428D01*
X119745714Y-66063809D01*
X119650476Y-66016190D01*
X119460000Y-65968571D01*
X119364761Y-65920952D01*
X119317142Y-65873333D01*
X119269523Y-65778095D01*
X119269523Y-65682857D01*
X119317142Y-65587619D01*
X119364761Y-65540000D01*
X119460000Y-65492380D01*
X119698095Y-65492380D01*
X119840952Y-65540000D01*
X120126666Y-65492380D02*
X120698095Y-65492380D01*
X120412380Y-66492380D02*
X120412380Y-65492380D01*
X121031428Y-66111428D02*
X121793333Y-66111428D01*
X122745714Y-66492380D02*
X122269523Y-66492380D01*
X122269523Y-65492380D01*
X123079047Y-66492380D02*
X123079047Y-65825714D01*
X123079047Y-65492380D02*
X123031428Y-65540000D01*
X123079047Y-65587619D01*
X123126666Y-65540000D01*
X123079047Y-65492380D01*
X123079047Y-65587619D01*
X123555238Y-65825714D02*
X123555238Y-66492380D01*
X123555238Y-65920952D02*
X123602857Y-65873333D01*
X123698095Y-65825714D01*
X123840952Y-65825714D01*
X123936190Y-65873333D01*
X123983809Y-65968571D01*
X123983809Y-66492380D01*
X124460000Y-66492380D02*
X124460000Y-65492380D01*
X124555238Y-66111428D02*
X124840952Y-66492380D01*
X124840952Y-65825714D02*
X124460000Y-66206666D01*
X126460000Y-66444761D02*
X126364761Y-66492380D01*
X126174285Y-66492380D01*
X126079047Y-66444761D01*
X126031428Y-66397142D01*
X125983809Y-66301904D01*
X125983809Y-66016190D01*
X126031428Y-65920952D01*
X126079047Y-65873333D01*
X126174285Y-65825714D01*
X126364761Y-65825714D01*
X126460000Y-65873333D01*
X127031428Y-66492380D02*
X126936190Y-66444761D01*
X126888571Y-66349523D01*
X126888571Y-65492380D01*
X127555238Y-66492380D02*
X127460000Y-66444761D01*
X127412380Y-66397142D01*
X127364761Y-66301904D01*
X127364761Y-66016190D01*
X127412380Y-65920952D01*
X127460000Y-65873333D01*
X127555238Y-65825714D01*
X127698095Y-65825714D01*
X127793333Y-65873333D01*
X127840952Y-65920952D01*
X127888571Y-66016190D01*
X127888571Y-66301904D01*
X127840952Y-66397142D01*
X127793333Y-66444761D01*
X127698095Y-66492380D01*
X127555238Y-66492380D01*
X128317142Y-65825714D02*
X128317142Y-66492380D01*
X128317142Y-65920952D02*
X128364761Y-65873333D01*
X128460000Y-65825714D01*
X128602857Y-65825714D01*
X128698095Y-65873333D01*
X128745714Y-65968571D01*
X128745714Y-66492380D01*
X129602857Y-66444761D02*
X129507619Y-66492380D01*
X129317142Y-66492380D01*
X129221904Y-66444761D01*
X129174285Y-66349523D01*
X129174285Y-65968571D01*
X129221904Y-65873333D01*
X129317142Y-65825714D01*
X129507619Y-65825714D01*
X129602857Y-65873333D01*
X129650476Y-65968571D01*
X129650476Y-66063809D01*
X129174285Y-66159047D01*
X132643809Y-76652380D02*
X132643809Y-75652380D01*
X133024761Y-75652380D01*
X133120000Y-75700000D01*
X133167619Y-75747619D01*
X133215238Y-75842857D01*
X133215238Y-75985714D01*
X133167619Y-76080952D01*
X133120000Y-76128571D01*
X133024761Y-76176190D01*
X132643809Y-76176190D01*
X133786666Y-76652380D02*
X133691428Y-76604761D01*
X133643809Y-76557142D01*
X133596190Y-76461904D01*
X133596190Y-76176190D01*
X133643809Y-76080952D01*
X133691428Y-76033333D01*
X133786666Y-75985714D01*
X133929523Y-75985714D01*
X134024761Y-76033333D01*
X134072380Y-76080952D01*
X134120000Y-76176190D01*
X134120000Y-76461904D01*
X134072380Y-76557142D01*
X134024761Y-76604761D01*
X133929523Y-76652380D01*
X133786666Y-76652380D01*
X134453333Y-75985714D02*
X134643809Y-76652380D01*
X134834285Y-76176190D01*
X135024761Y-76652380D01*
X135215238Y-75985714D01*
X135977142Y-76604761D02*
X135881904Y-76652380D01*
X135691428Y-76652380D01*
X135596190Y-76604761D01*
X135548571Y-76509523D01*
X135548571Y-76128571D01*
X135596190Y-76033333D01*
X135691428Y-75985714D01*
X135881904Y-75985714D01*
X135977142Y-76033333D01*
X136024761Y-76128571D01*
X136024761Y-76223809D01*
X135548571Y-76319047D01*
X136453333Y-76652380D02*
X136453333Y-75985714D01*
X136453333Y-76176190D02*
X136500952Y-76080952D01*
X136548571Y-76033333D01*
X136643809Y-75985714D01*
X136739047Y-75985714D01*
X140597142Y-66492380D02*
X140597142Y-65492380D01*
X141073333Y-65825714D02*
X141073333Y-66492380D01*
X141073333Y-65920952D02*
X141120952Y-65873333D01*
X141216190Y-65825714D01*
X141359047Y-65825714D01*
X141454285Y-65873333D01*
X141501904Y-65968571D01*
X141501904Y-66492380D01*
X141978095Y-65825714D02*
X141978095Y-66825714D01*
X141978095Y-65873333D02*
X142073333Y-65825714D01*
X142263809Y-65825714D01*
X142359047Y-65873333D01*
X142406666Y-65920952D01*
X142454285Y-66016190D01*
X142454285Y-66301904D01*
X142406666Y-66397142D01*
X142359047Y-66444761D01*
X142263809Y-66492380D01*
X142073333Y-66492380D01*
X141978095Y-66444761D01*
X143311428Y-65825714D02*
X143311428Y-66492380D01*
X142882857Y-65825714D02*
X142882857Y-66349523D01*
X142930476Y-66444761D01*
X143025714Y-66492380D01*
X143168571Y-66492380D01*
X143263809Y-66444761D01*
X143311428Y-66397142D01*
X143644761Y-65825714D02*
X144025714Y-65825714D01*
X143787619Y-65492380D02*
X143787619Y-66349523D01*
X143835238Y-66444761D01*
X143930476Y-66492380D01*
X144025714Y-66492380D01*
D11*
X119730000Y-44320000D02*
X128850000Y-44320000D01*
X128850000Y-44320000D02*
X128850000Y-64900000D01*
X128850000Y-64900000D02*
X119730000Y-64900000D01*
X119730000Y-64900000D02*
X119730000Y-44320000D01*
X119730000Y-52560000D02*
X121040000Y-52560000D01*
X121040000Y-52560000D02*
X121040000Y-45620000D01*
X121040000Y-45620000D02*
X127540000Y-45620000D01*
X127540000Y-45620000D02*
X127540000Y-63600000D01*
X127540000Y-63600000D02*
X121040000Y-63600000D01*
X121040000Y-63600000D02*
X121040000Y-56660000D01*
X121040000Y-56660000D02*
X121040000Y-56660000D01*
X121040000Y-56660000D02*
X119730000Y-56660000D01*
X119340000Y-49530000D02*
X118340000Y-49030000D01*
X118340000Y-49030000D02*
X118340000Y-50030000D01*
X118340000Y-50030000D02*
X119340000Y-49530000D01*
X137680000Y-44320000D02*
X146800000Y-44320000D01*
X146800000Y-44320000D02*
X146800000Y-64900000D01*
X146800000Y-64900000D02*
X137680000Y-64900000D01*
X137680000Y-64900000D02*
X137680000Y-44320000D01*
X137680000Y-52560000D02*
X138990000Y-52560000D01*
X138990000Y-52560000D02*
X138990000Y-45620000D01*
X138990000Y-45620000D02*
X145490000Y-45620000D01*
X145490000Y-45620000D02*
X145490000Y-63600000D01*
X145490000Y-63600000D02*
X138990000Y-63600000D01*
X138990000Y-63600000D02*
X138990000Y-56660000D01*
X138990000Y-56660000D02*
X138990000Y-56660000D01*
X138990000Y-56660000D02*
X137680000Y-56660000D01*
X137290000Y-49530000D02*
X136290000Y-49030000D01*
X136290000Y-49030000D02*
X136290000Y-50030000D01*
X136290000Y-50030000D02*
X137290000Y-49530000D01*
X120710000Y-74990000D02*
X120710000Y-72330000D01*
X113030000Y-74990000D02*
X120710000Y-74990000D01*
X113030000Y-72330000D02*
X120710000Y-72330000D01*
X113030000Y-74990000D02*
X113030000Y-72330000D01*
X111760000Y-74990000D02*
X110430000Y-74990000D01*
X110430000Y-74990000D02*
X110430000Y-73660000D01*
X132020000Y-72330000D02*
X132020000Y-74990000D01*
X134620000Y-72330000D02*
X132020000Y-72330000D01*
X134620000Y-74990000D02*
X132020000Y-74990000D01*
X134620000Y-72330000D02*
X134620000Y-74990000D01*
X135890000Y-72330000D02*
X137220000Y-72330000D01*
X137220000Y-72330000D02*
X137220000Y-73660000D01*
X85610000Y-44320000D02*
X94730000Y-44320000D01*
X94730000Y-44320000D02*
X94730000Y-77600000D01*
X94730000Y-77600000D02*
X85610000Y-77600000D01*
X85610000Y-77600000D02*
X85610000Y-44320000D01*
X85610000Y-58910000D02*
X86920000Y-58910000D01*
X86920000Y-58910000D02*
X86920000Y-45620000D01*
X86920000Y-45620000D02*
X93420000Y-45620000D01*
X93420000Y-45620000D02*
X93420000Y-76300000D01*
X93420000Y-76300000D02*
X86920000Y-76300000D01*
X86920000Y-76300000D02*
X86920000Y-63010000D01*
X86920000Y-63010000D02*
X86920000Y-63010000D01*
X86920000Y-63010000D02*
X85610000Y-63010000D01*
X85220000Y-49530000D02*
X84220000Y-49030000D01*
X84220000Y-49030000D02*
X84220000Y-50030000D01*
X84220000Y-50030000D02*
X85220000Y-49530000D01*
X102120000Y-44320000D02*
X111240000Y-44320000D01*
X111240000Y-44320000D02*
X111240000Y-64900000D01*
X111240000Y-64900000D02*
X102120000Y-64900000D01*
X102120000Y-64900000D02*
X102120000Y-44320000D01*
X102120000Y-52560000D02*
X103430000Y-52560000D01*
X103430000Y-52560000D02*
X103430000Y-45620000D01*
X103430000Y-45620000D02*
X109930000Y-45620000D01*
X109930000Y-45620000D02*
X109930000Y-63600000D01*
X109930000Y-63600000D02*
X103430000Y-63600000D01*
X103430000Y-63600000D02*
X103430000Y-56660000D01*
X103430000Y-56660000D02*
X103430000Y-56660000D01*
X103430000Y-56660000D02*
X102120000Y-56660000D01*
X101730000Y-49530000D02*
X100730000Y-49030000D01*
X100730000Y-49030000D02*
X100730000Y-50030000D01*
X100730000Y-50030000D02*
X101730000Y-49530000D01*
D10*
X123528095Y-42882380D02*
X123528095Y-43691904D01*
X123575714Y-43787142D01*
X123623333Y-43834761D01*
X123718571Y-43882380D01*
X123909047Y-43882380D01*
X124004285Y-43834761D01*
X124051904Y-43787142D01*
X124099523Y-43691904D01*
X124099523Y-42882380D01*
X124528095Y-42977619D02*
X124575714Y-42930000D01*
X124670952Y-42882380D01*
X124909047Y-42882380D01*
X125004285Y-42930000D01*
X125051904Y-42977619D01*
X125099523Y-43072857D01*
X125099523Y-43168095D01*
X125051904Y-43310952D01*
X124480476Y-43882380D01*
X125099523Y-43882380D01*
X141478095Y-42882380D02*
X141478095Y-43691904D01*
X141525714Y-43787142D01*
X141573333Y-43834761D01*
X141668571Y-43882380D01*
X141859047Y-43882380D01*
X141954285Y-43834761D01*
X142001904Y-43787142D01*
X142049523Y-43691904D01*
X142049523Y-42882380D01*
X143049523Y-43882380D02*
X142478095Y-43882380D01*
X142763809Y-43882380D02*
X142763809Y-42882380D01*
X142668571Y-43025238D01*
X142573333Y-43120476D01*
X142478095Y-43168095D01*
X108882380Y-73993333D02*
X109596666Y-73993333D01*
X109739523Y-74040952D01*
X109834761Y-74136190D01*
X109882380Y-74279047D01*
X109882380Y-74374285D01*
X109215714Y-73088571D02*
X109882380Y-73088571D01*
X108834761Y-73326666D02*
X109549047Y-73564761D01*
X109549047Y-72945714D01*
X130262380Y-73993333D02*
X130976666Y-73993333D01*
X131119523Y-74040952D01*
X131214761Y-74136190D01*
X131262380Y-74279047D01*
X131262380Y-74374285D01*
X130262380Y-73612380D02*
X130262380Y-72993333D01*
X130643333Y-73326666D01*
X130643333Y-73183809D01*
X130690952Y-73088571D01*
X130738571Y-73040952D01*
X130833809Y-72993333D01*
X131071904Y-72993333D01*
X131167142Y-73040952D01*
X131214761Y-73088571D01*
X131262380Y-73183809D01*
X131262380Y-73469523D01*
X131214761Y-73564761D01*
X131167142Y-73612380D01*
X89836666Y-42882380D02*
X89836666Y-43596666D01*
X89789047Y-43739523D01*
X89693809Y-43834761D01*
X89550952Y-43882380D01*
X89455714Y-43882380D01*
X90265238Y-42977619D02*
X90312857Y-42930000D01*
X90408095Y-42882380D01*
X90646190Y-42882380D01*
X90741428Y-42930000D01*
X90789047Y-42977619D01*
X90836666Y-43072857D01*
X90836666Y-43168095D01*
X90789047Y-43310952D01*
X90217619Y-43882380D01*
X90836666Y-43882380D01*
X106346666Y-42882380D02*
X106346666Y-43596666D01*
X106299047Y-43739523D01*
X106203809Y-43834761D01*
X106060952Y-43882380D01*
X105965714Y-43882380D01*
X107346666Y-43882380D02*
X106775238Y-43882380D01*
X107060952Y-43882380D02*
X107060952Y-42882380D01*
X106965714Y-43025238D01*
X106870476Y-43120476D01*
X106775238Y-43168095D01*
%LPC*%
D12*
X125560000Y-59690000D03*
X125560000Y-57150000D03*
X125560000Y-54610000D03*
X125560000Y-52070000D03*
X125560000Y-49530000D03*
X123020000Y-59690000D03*
X123020000Y-57150000D03*
X123020000Y-54610000D03*
X123020000Y-52070000D03*
G36*
G01*
X122120000Y-50165295D02*
X122120000Y-48894705D01*
G75*
G02*
X122384705Y-48630000I264705J0D01*
G01*
X123655295Y-48630000D01*
G75*
G02*
X123920000Y-48894705I0J-264705D01*
G01*
X123920000Y-50165295D01*
G75*
G02*
X123655295Y-50430000I-264705J0D01*
G01*
X122384705Y-50430000D01*
G75*
G02*
X122120000Y-50165295I0J264705D01*
G01*
G37*
X143510000Y-59690000D03*
X143510000Y-57150000D03*
X143510000Y-54610000D03*
X143510000Y-52070000D03*
X143510000Y-49530000D03*
X140970000Y-59690000D03*
X140970000Y-57150000D03*
X140970000Y-54610000D03*
X140970000Y-52070000D03*
G36*
G01*
X140070000Y-50165295D02*
X140070000Y-48894705D01*
G75*
G02*
X140334705Y-48630000I264705J0D01*
G01*
X141605295Y-48630000D01*
G75*
G02*
X141870000Y-48894705I0J-264705D01*
G01*
X141870000Y-50165295D01*
G75*
G02*
X141605295Y-50430000I-264705J0D01*
G01*
X140334705Y-50430000D01*
G75*
G02*
X140070000Y-50165295I0J264705D01*
G01*
G37*
D13*
X119380000Y-73660000D03*
X116840000Y-73660000D03*
X114300000Y-73660000D03*
G36*
G01*
X112610000Y-74560000D02*
X110910000Y-74560000D01*
G75*
G02*
X110860000Y-74510000I0J50000D01*
G01*
X110860000Y-72810000D01*
G75*
G02*
X110910000Y-72760000I50000J0D01*
G01*
X112610000Y-72760000D01*
G75*
G02*
X112660000Y-72810000I0J-50000D01*
G01*
X112660000Y-74510000D01*
G75*
G02*
X112610000Y-74560000I-50000J0D01*
G01*
G37*
X133350000Y-73660000D03*
G36*
G01*
X135040000Y-72760000D02*
X136740000Y-72760000D01*
G75*
G02*
X136790000Y-72810000I0J-50000D01*
G01*
X136790000Y-74510000D01*
G75*
G02*
X136740000Y-74560000I-50000J0D01*
G01*
X135040000Y-74560000D01*
G75*
G02*
X134990000Y-74510000I0J50000D01*
G01*
X134990000Y-72810000D01*
G75*
G02*
X135040000Y-72760000I50000J0D01*
G01*
G37*
D12*
X91440000Y-72390000D03*
X91440000Y-69850000D03*
X91440000Y-67310000D03*
X91440000Y-64770000D03*
X91440000Y-62230000D03*
X91440000Y-59690000D03*
X91440000Y-57150000D03*
X91440000Y-54610000D03*
X91440000Y-52070000D03*
X91440000Y-49530000D03*
X88900000Y-72390000D03*
X88900000Y-69850000D03*
X88900000Y-67310000D03*
X88900000Y-64770000D03*
X88900000Y-62230000D03*
X88900000Y-59690000D03*
X88900000Y-57150000D03*
X88900000Y-54610000D03*
X88900000Y-52070000D03*
G36*
G01*
X88000000Y-50165295D02*
X88000000Y-48894705D01*
G75*
G02*
X88264705Y-48630000I264705J0D01*
G01*
X89535295Y-48630000D01*
G75*
G02*
X89800000Y-48894705I0J-264705D01*
G01*
X89800000Y-50165295D01*
G75*
G02*
X89535295Y-50430000I-264705J0D01*
G01*
X88264705Y-50430000D01*
G75*
G02*
X88000000Y-50165295I0J264705D01*
G01*
G37*
X107950000Y-59690000D03*
X107950000Y-57150000D03*
X107950000Y-54610000D03*
X107950000Y-52070000D03*
X107950000Y-49530000D03*
X105410000Y-59690000D03*
X105410000Y-57150000D03*
X105410000Y-54610000D03*
X105410000Y-52070000D03*
G36*
G01*
X104510000Y-50165295D02*
X104510000Y-48894705D01*
G75*
G02*
X104774705Y-48630000I264705J0D01*
G01*
X106045295Y-48630000D01*
G75*
G02*
X106310000Y-48894705I0J-264705D01*
G01*
X106310000Y-50165295D01*
G75*
G02*
X106045295Y-50430000I-264705J0D01*
G01*
X104774705Y-50430000D01*
G75*
G02*
X104510000Y-50165295I0J264705D01*
G01*
G37*
M02*
