G04 #@! TF.GenerationSoftware,KiCad,Pcbnew,(5.1.10)-1*
G04 #@! TF.CreationDate,2022-05-07T20:41:14+02:00*
G04 #@! TF.ProjectId,STM_programming_ports,53544d5f-7072-46f6-9772-616d6d696e67,rev?*
G04 #@! TF.SameCoordinates,Original*
G04 #@! TF.FileFunction,Legend,Bot*
G04 #@! TF.FilePolarity,Positive*
%FSLAX46Y46*%
G04 Gerber Fmt 4.6, Leading zero omitted, Abs format (unit mm)*
G04 Created by KiCad (PCBNEW (5.1.10)-1) date 2022-05-07 20:41:14*
%MOMM*%
%LPD*%
G01*
G04 APERTURE LIST*
%ADD10C,0.150000*%
%ADD11O,1.800000X1.800000*%
%ADD12C,1.800000*%
G04 APERTURE END LIST*
D10*
X84219047Y-68452380D02*
X84219047Y-69166666D01*
X84266666Y-69309523D01*
X84361904Y-69404761D01*
X84504761Y-69452380D01*
X84600000Y-69452380D01*
X83266666Y-69452380D02*
X83742857Y-69452380D01*
X83742857Y-68452380D01*
X82361904Y-69357142D02*
X82409523Y-69404761D01*
X82552380Y-69452380D01*
X82647619Y-69452380D01*
X82790476Y-69404761D01*
X82885714Y-69309523D01*
X82933333Y-69214285D01*
X82980952Y-69023809D01*
X82980952Y-68880952D01*
X82933333Y-68690476D01*
X82885714Y-68595238D01*
X82790476Y-68500000D01*
X82647619Y-68452380D01*
X82552380Y-68452380D01*
X82409523Y-68500000D01*
X82361904Y-68547619D01*
X81647619Y-68452380D02*
X81647619Y-69166666D01*
X81695238Y-69309523D01*
X81790476Y-69404761D01*
X81933333Y-69452380D01*
X82028571Y-69452380D01*
X80695238Y-69452380D02*
X81171428Y-69452380D01*
X81171428Y-68452380D01*
X79790476Y-69357142D02*
X79838095Y-69404761D01*
X79980952Y-69452380D01*
X80076190Y-69452380D01*
X80219047Y-69404761D01*
X80314285Y-69309523D01*
X80361904Y-69214285D01*
X80409523Y-69023809D01*
X80409523Y-68880952D01*
X80361904Y-68690476D01*
X80314285Y-68595238D01*
X80219047Y-68500000D01*
X80076190Y-68452380D01*
X79980952Y-68452380D01*
X79838095Y-68500000D01*
X79790476Y-68547619D01*
X79076190Y-68452380D02*
X79076190Y-69166666D01*
X79123809Y-69309523D01*
X79219047Y-69404761D01*
X79361904Y-69452380D01*
X79457142Y-69452380D01*
X78123809Y-69452380D02*
X78600000Y-69452380D01*
X78600000Y-68452380D01*
X77219047Y-69357142D02*
X77266666Y-69404761D01*
X77409523Y-69452380D01*
X77504761Y-69452380D01*
X77647619Y-69404761D01*
X77742857Y-69309523D01*
X77790476Y-69214285D01*
X77838095Y-69023809D01*
X77838095Y-68880952D01*
X77790476Y-68690476D01*
X77742857Y-68595238D01*
X77647619Y-68500000D01*
X77504761Y-68452380D01*
X77409523Y-68452380D01*
X77266666Y-68500000D01*
X77219047Y-68547619D01*
X76504761Y-68452380D02*
X76504761Y-69166666D01*
X76552380Y-69309523D01*
X76647619Y-69404761D01*
X76790476Y-69452380D01*
X76885714Y-69452380D01*
X75552380Y-69452380D02*
X76028571Y-69452380D01*
X76028571Y-68452380D01*
X74647619Y-69357142D02*
X74695238Y-69404761D01*
X74838095Y-69452380D01*
X74933333Y-69452380D01*
X75076190Y-69404761D01*
X75171428Y-69309523D01*
X75219047Y-69214285D01*
X75266666Y-69023809D01*
X75266666Y-68880952D01*
X75219047Y-68690476D01*
X75171428Y-68595238D01*
X75076190Y-68500000D01*
X74933333Y-68452380D01*
X74838095Y-68452380D01*
X74695238Y-68500000D01*
X74647619Y-68547619D01*
%LPC*%
D11*
X98160000Y-66500000D03*
X95620000Y-66500000D03*
X93080000Y-66500000D03*
X90540000Y-66500000D03*
G36*
G01*
X88850000Y-67400000D02*
X87150000Y-67400000D01*
G75*
G02*
X87100000Y-67350000I0J50000D01*
G01*
X87100000Y-65650000D01*
G75*
G02*
X87150000Y-65600000I50000J0D01*
G01*
X88850000Y-65600000D01*
G75*
G02*
X88900000Y-65650000I0J-50000D01*
G01*
X88900000Y-67350000D01*
G75*
G02*
X88850000Y-67400000I-50000J0D01*
G01*
G37*
D12*
X137840000Y-48040000D03*
X140380000Y-48040000D03*
X142920000Y-48040000D03*
X145460000Y-48040000D03*
X148000000Y-48040000D03*
X137840000Y-45500000D03*
X140380000Y-45500000D03*
X142920000Y-45500000D03*
X145460000Y-45500000D03*
G36*
G01*
X147364705Y-44600000D02*
X148635295Y-44600000D01*
G75*
G02*
X148900000Y-44864705I0J-264705D01*
G01*
X148900000Y-46135295D01*
G75*
G02*
X148635295Y-46400000I-264705J0D01*
G01*
X147364705Y-46400000D01*
G75*
G02*
X147100000Y-46135295I0J264705D01*
G01*
X147100000Y-44864705D01*
G75*
G02*
X147364705Y-44600000I264705J0D01*
G01*
G37*
D11*
X111580000Y-66500000D03*
X109040000Y-66500000D03*
X106500000Y-66500000D03*
G36*
G01*
X104810000Y-67400000D02*
X103110000Y-67400000D01*
G75*
G02*
X103060000Y-67350000I0J50000D01*
G01*
X103060000Y-65650000D01*
G75*
G02*
X103110000Y-65600000I50000J0D01*
G01*
X104810000Y-65600000D01*
G75*
G02*
X104860000Y-65650000I0J-50000D01*
G01*
X104860000Y-67350000D01*
G75*
G02*
X104810000Y-67400000I-50000J0D01*
G01*
G37*
D12*
X125040000Y-62000000D03*
X122500000Y-62000000D03*
X119960000Y-62000000D03*
X125040000Y-64540000D03*
X122500000Y-64540000D03*
G36*
G01*
X120595295Y-65440000D02*
X119324705Y-65440000D01*
G75*
G02*
X119060000Y-65175295I0J264705D01*
G01*
X119060000Y-63904705D01*
G75*
G02*
X119324705Y-63640000I264705J0D01*
G01*
X120595295Y-63640000D01*
G75*
G02*
X120860000Y-63904705I0J-264705D01*
G01*
X120860000Y-65175295D01*
G75*
G02*
X120595295Y-65440000I-264705J0D01*
G01*
G37*
D11*
X137000000Y-65540000D03*
G36*
G01*
X136100000Y-63850000D02*
X136100000Y-62150000D01*
G75*
G02*
X136150000Y-62100000I50000J0D01*
G01*
X137850000Y-62100000D01*
G75*
G02*
X137900000Y-62150000I0J-50000D01*
G01*
X137900000Y-63850000D01*
G75*
G02*
X137850000Y-63900000I-50000J0D01*
G01*
X136150000Y-63900000D01*
G75*
G02*
X136100000Y-63850000I0J50000D01*
G01*
G37*
D12*
X125860000Y-45740000D03*
X123320000Y-45740000D03*
X120780000Y-45740000D03*
X118240000Y-45740000D03*
X115700000Y-45740000D03*
X113160000Y-45740000D03*
X110620000Y-45740000D03*
X108080000Y-45740000D03*
X105540000Y-45740000D03*
X103000000Y-45740000D03*
X125860000Y-48280000D03*
X123320000Y-48280000D03*
X120780000Y-48280000D03*
X118240000Y-48280000D03*
X115700000Y-48280000D03*
X113160000Y-48280000D03*
X110620000Y-48280000D03*
X108080000Y-48280000D03*
X105540000Y-48280000D03*
G36*
G01*
X103635295Y-49180000D02*
X102364705Y-49180000D01*
G75*
G02*
X102100000Y-48915295I0J264705D01*
G01*
X102100000Y-47644705D01*
G75*
G02*
X102364705Y-47380000I264705J0D01*
G01*
X103635295Y-47380000D01*
G75*
G02*
X103900000Y-47644705I0J-264705D01*
G01*
X103900000Y-48915295D01*
G75*
G02*
X103635295Y-49180000I-264705J0D01*
G01*
G37*
X160040000Y-57660000D03*
X160040000Y-55120000D03*
X160040000Y-52580000D03*
X160040000Y-50040000D03*
X160040000Y-47500000D03*
X157500000Y-57660000D03*
X157500000Y-55120000D03*
X157500000Y-52580000D03*
X157500000Y-50040000D03*
G36*
G01*
X156600000Y-48135295D02*
X156600000Y-46864705D01*
G75*
G02*
X156864705Y-46600000I264705J0D01*
G01*
X158135295Y-46600000D01*
G75*
G02*
X158400000Y-46864705I0J-264705D01*
G01*
X158400000Y-48135295D01*
G75*
G02*
X158135295Y-48400000I-264705J0D01*
G01*
X156864705Y-48400000D01*
G75*
G02*
X156600000Y-48135295I0J264705D01*
G01*
G37*
X91080001Y-45960000D03*
X88540001Y-45960000D03*
X86000001Y-45960000D03*
X83460001Y-45960000D03*
X80920001Y-45960000D03*
X91080001Y-48500000D03*
X88540001Y-48500000D03*
X86000001Y-48500000D03*
X83460001Y-48500000D03*
G36*
G01*
X81555296Y-49400000D02*
X80284706Y-49400000D01*
G75*
G02*
X80020001Y-49135295I0J264705D01*
G01*
X80020001Y-47864705D01*
G75*
G02*
X80284706Y-47600000I264705J0D01*
G01*
X81555296Y-47600000D01*
G75*
G02*
X81820001Y-47864705I0J-264705D01*
G01*
X81820001Y-49135295D01*
G75*
G02*
X81555296Y-49400000I-264705J0D01*
G01*
G37*
M02*
