G04 #@! TF.GenerationSoftware,KiCad,Pcbnew,(5.1.10)-1*
G04 #@! TF.CreationDate,2022-05-27T16:58:45+02:00*
G04 #@! TF.ProjectId,STM_programming_ports,53544d5f-7072-46f6-9772-616d6d696e67,rev?*
G04 #@! TF.SameCoordinates,Original*
G04 #@! TF.FileFunction,Copper,L2,Bot*
G04 #@! TF.FilePolarity,Positive*
%FSLAX46Y46*%
G04 Gerber Fmt 4.6, Leading zero omitted, Abs format (unit mm)*
G04 Created by KiCad (PCBNEW (5.1.10)-1) date 2022-05-27 16:58:45*
%MOMM*%
%LPD*%
G01*
G04 APERTURE LIST*
G04 #@! TA.AperFunction,ComponentPad*
%ADD10C,1.700000*%
G04 #@! TD*
G04 #@! TA.AperFunction,ComponentPad*
%ADD11O,1.700000X1.700000*%
G04 #@! TD*
G04 #@! TA.AperFunction,ComponentPad*
%ADD12R,1.700000X1.700000*%
G04 #@! TD*
G04 #@! TA.AperFunction,ViaPad*
%ADD13C,0.800000*%
G04 #@! TD*
G04 #@! TA.AperFunction,Conductor*
%ADD14C,0.200000*%
G04 #@! TD*
G04 #@! TA.AperFunction,Conductor*
%ADD15C,0.500000*%
G04 #@! TD*
G04 #@! TA.AperFunction,Conductor*
%ADD16C,0.254000*%
G04 #@! TD*
G04 #@! TA.AperFunction,Conductor*
%ADD17C,0.150000*%
G04 #@! TD*
G04 APERTURE END LIST*
D10*
X160040000Y-57660000D03*
X160040000Y-55120000D03*
X160040000Y-52580000D03*
X160040000Y-50040000D03*
X160040000Y-47500000D03*
X157500000Y-57660000D03*
X157500000Y-55120000D03*
X157500000Y-52580000D03*
X157500000Y-50040000D03*
G04 #@! TA.AperFunction,ComponentPad*
G36*
G01*
X156650000Y-48100000D02*
X156650000Y-46900000D01*
G75*
G02*
X156900000Y-46650000I250000J0D01*
G01*
X158100000Y-46650000D01*
G75*
G02*
X158350000Y-46900000I0J-250000D01*
G01*
X158350000Y-48100000D01*
G75*
G02*
X158100000Y-48350000I-250000J0D01*
G01*
X156900000Y-48350000D01*
G75*
G02*
X156650000Y-48100000I0J250000D01*
G01*
G37*
G04 #@! TD.AperFunction*
X148160000Y-45710000D03*
X145620000Y-45710000D03*
X143080000Y-45710000D03*
X140540000Y-45710000D03*
X138000000Y-45710000D03*
X148160000Y-48250000D03*
X145620000Y-48250000D03*
X143080000Y-48250000D03*
X140540000Y-48250000D03*
G04 #@! TA.AperFunction,ComponentPad*
G36*
G01*
X138600000Y-49100000D02*
X137400000Y-49100000D01*
G75*
G02*
X137150000Y-48850000I0J250000D01*
G01*
X137150000Y-47650000D01*
G75*
G02*
X137400000Y-47400000I250000J0D01*
G01*
X138600000Y-47400000D01*
G75*
G02*
X138850000Y-47650000I0J-250000D01*
G01*
X138850000Y-48850000D01*
G75*
G02*
X138600000Y-49100000I-250000J0D01*
G01*
G37*
G04 #@! TD.AperFunction*
D11*
X98160000Y-66500000D03*
X95620000Y-66500000D03*
X93080000Y-66500000D03*
X90540000Y-66500000D03*
D12*
X88000000Y-66500000D03*
D11*
X111580000Y-66500000D03*
X109040000Y-66500000D03*
X106500000Y-66500000D03*
D12*
X103960000Y-66500000D03*
D10*
X125040000Y-62000000D03*
X122500000Y-62000000D03*
X119960000Y-62000000D03*
X125040000Y-64540000D03*
X122500000Y-64540000D03*
G04 #@! TA.AperFunction,ComponentPad*
G36*
G01*
X120560000Y-65390000D02*
X119360000Y-65390000D01*
G75*
G02*
X119110000Y-65140000I0J250000D01*
G01*
X119110000Y-63940000D01*
G75*
G02*
X119360000Y-63690000I250000J0D01*
G01*
X120560000Y-63690000D01*
G75*
G02*
X120810000Y-63940000I0J-250000D01*
G01*
X120810000Y-65140000D01*
G75*
G02*
X120560000Y-65390000I-250000J0D01*
G01*
G37*
G04 #@! TD.AperFunction*
D11*
X137000000Y-65540000D03*
D12*
X137000000Y-63000000D03*
D10*
X125860000Y-45740000D03*
X123320000Y-45740000D03*
X120780000Y-45740000D03*
X118240000Y-45740000D03*
X115700000Y-45740000D03*
X113160000Y-45740000D03*
X110620000Y-45740000D03*
X108080000Y-45740000D03*
X105540000Y-45740000D03*
X103000000Y-45740000D03*
X125860000Y-48280000D03*
X123320000Y-48280000D03*
X120780000Y-48280000D03*
X118240000Y-48280000D03*
X115700000Y-48280000D03*
X113160000Y-48280000D03*
X110620000Y-48280000D03*
X108080000Y-48280000D03*
X105540000Y-48280000D03*
G04 #@! TA.AperFunction,ComponentPad*
G36*
G01*
X103600000Y-49130000D02*
X102400000Y-49130000D01*
G75*
G02*
X102150000Y-48880000I0J250000D01*
G01*
X102150000Y-47680000D01*
G75*
G02*
X102400000Y-47430000I250000J0D01*
G01*
X103600000Y-47430000D01*
G75*
G02*
X103850000Y-47680000I0J-250000D01*
G01*
X103850000Y-48880000D01*
G75*
G02*
X103600000Y-49130000I-250000J0D01*
G01*
G37*
G04 #@! TD.AperFunction*
X91080001Y-45960000D03*
X88540001Y-45960000D03*
X86000001Y-45960000D03*
X83460001Y-45960000D03*
X80920001Y-45960000D03*
X91080001Y-48500000D03*
X88540001Y-48500000D03*
X86000001Y-48500000D03*
X83460001Y-48500000D03*
G04 #@! TA.AperFunction,ComponentPad*
G36*
G01*
X81520001Y-49350000D02*
X80320001Y-49350000D01*
G75*
G02*
X80070001Y-49100000I0J250000D01*
G01*
X80070001Y-47900000D01*
G75*
G02*
X80320001Y-47650000I250000J0D01*
G01*
X81520001Y-47650000D01*
G75*
G02*
X81770001Y-47900000I0J-250000D01*
G01*
X81770001Y-49100000D01*
G75*
G02*
X81520001Y-49350000I-250000J0D01*
G01*
G37*
G04 #@! TD.AperFunction*
D13*
X97120001Y-52000000D03*
X122500000Y-52000000D03*
X152750000Y-58750000D03*
X91500000Y-54000000D03*
X118391994Y-54108006D03*
X126108006Y-54108006D03*
X143108006Y-54108006D03*
X91500000Y-55054003D03*
X113162009Y-55162009D03*
X106587991Y-55162009D03*
X137837991Y-55162009D03*
X110554003Y-53054003D03*
X93445997Y-53054003D03*
X121254003Y-53054003D03*
X139250000Y-53000000D03*
X139250000Y-58000000D03*
X140500000Y-50500000D03*
X144250000Y-50250000D03*
X103000000Y-56500000D03*
X142000000Y-56500000D03*
D14*
X95620000Y-53500001D02*
X97120001Y-52000000D01*
X95620000Y-66500000D02*
X95620000Y-53500001D01*
X122500000Y-62000000D02*
X122500000Y-52000000D01*
X152750000Y-52250000D02*
X157500000Y-47500000D01*
X152750000Y-58750000D02*
X152750000Y-52250000D01*
X87204002Y-47164001D02*
X86000001Y-45960000D01*
X87204002Y-49704002D02*
X87204002Y-47164001D01*
X91500000Y-54000000D02*
X87204002Y-49704002D01*
X118240000Y-53956012D02*
X118391994Y-54108006D01*
X118240000Y-48280000D02*
X118240000Y-53956012D01*
X126244001Y-54244001D02*
X126108006Y-54108006D01*
X126244001Y-63335999D02*
X126244001Y-54244001D01*
X125040000Y-64540000D02*
X126244001Y-63335999D01*
X143080000Y-54080000D02*
X143108006Y-54108006D01*
X143080000Y-48250000D02*
X143080000Y-54080000D01*
X113160000Y-55160000D02*
X113162009Y-55162009D01*
X113160000Y-48280000D02*
X113160000Y-55160000D01*
X106500000Y-55250000D02*
X106587991Y-55162009D01*
X106500000Y-66500000D02*
X106500000Y-55250000D01*
X113162009Y-55202009D02*
X113162009Y-55162009D01*
X119960000Y-62000000D02*
X113162009Y-55202009D01*
X84664002Y-47164001D02*
X83460001Y-45960000D01*
X84664002Y-48945923D02*
X84664002Y-47164001D01*
X90772082Y-55054003D02*
X84664002Y-48945923D01*
X91500000Y-55054003D02*
X90772082Y-55054003D01*
X91500000Y-65540000D02*
X90540000Y-66500000D01*
X91500000Y-55054003D02*
X91500000Y-65540000D01*
X138203913Y-55162009D02*
X137837991Y-55162009D01*
X141875999Y-51489923D02*
X138203913Y-55162009D01*
X141875999Y-46914001D02*
X141875999Y-51489923D01*
X143080000Y-45710000D02*
X141875999Y-46914001D01*
X110620000Y-52988006D02*
X110554003Y-53054003D01*
X110620000Y-48280000D02*
X110620000Y-52988006D01*
X93080000Y-53420000D02*
X93445997Y-53054003D01*
X93080000Y-66500000D02*
X93080000Y-53420000D01*
X109040000Y-54568006D02*
X110554003Y-53054003D01*
X109040000Y-66500000D02*
X109040000Y-54568006D01*
X121295999Y-53095999D02*
X121254003Y-53054003D01*
X121295999Y-63335999D02*
X121295999Y-53095999D01*
X122500000Y-64540000D02*
X121295999Y-63335999D01*
X139250000Y-46960000D02*
X139250000Y-47500000D01*
X138000000Y-45710000D02*
X139250000Y-46960000D01*
X139250000Y-53000000D02*
X139250000Y-47500000D01*
D15*
X103000000Y-48280000D02*
X103000000Y-56500000D01*
X145620000Y-48880000D02*
X145620000Y-48250000D01*
X145620000Y-48250000D02*
X145620000Y-45710000D01*
X145620000Y-52880000D02*
X142000000Y-56500000D01*
X145620000Y-48250000D02*
X145620000Y-52880000D01*
X160040000Y-55120000D02*
X157500000Y-55120000D01*
D16*
X157268083Y-40731173D02*
X158011891Y-40934656D01*
X158707905Y-41266638D01*
X159334130Y-41716626D01*
X159870777Y-42270403D01*
X160300871Y-42910451D01*
X160610829Y-43616553D01*
X160792065Y-44371457D01*
X160840000Y-45024207D01*
X160840000Y-46248549D01*
X160743411Y-46184010D01*
X160473158Y-46072068D01*
X160186260Y-46015000D01*
X159893740Y-46015000D01*
X159606842Y-46072068D01*
X159336589Y-46184010D01*
X159093368Y-46346525D01*
X158906285Y-46533608D01*
X158838405Y-46406614D01*
X158727962Y-46272038D01*
X158593386Y-46161595D01*
X158439850Y-46079528D01*
X158273254Y-46028992D01*
X158100000Y-46011928D01*
X156900000Y-46011928D01*
X156726746Y-46028992D01*
X156560150Y-46079528D01*
X156406614Y-46161595D01*
X156272038Y-46272038D01*
X156161595Y-46406614D01*
X156079528Y-46560150D01*
X156028992Y-46726746D01*
X156011928Y-46900000D01*
X156011928Y-47948625D01*
X152255808Y-51704746D01*
X152227763Y-51727762D01*
X152135914Y-51839680D01*
X152069520Y-51963895D01*
X152067664Y-51967367D01*
X152025635Y-52105915D01*
X152011444Y-52250000D01*
X152015001Y-52286115D01*
X152015000Y-58021289D01*
X151946063Y-58090226D01*
X151832795Y-58259744D01*
X151754774Y-58448102D01*
X151715000Y-58648061D01*
X151715000Y-58851939D01*
X151754774Y-59051898D01*
X151832795Y-59240256D01*
X151946063Y-59409774D01*
X152090226Y-59553937D01*
X152259744Y-59667205D01*
X152448102Y-59745226D01*
X152648061Y-59785000D01*
X152851939Y-59785000D01*
X153051898Y-59745226D01*
X153240256Y-59667205D01*
X153409774Y-59553937D01*
X153553937Y-59409774D01*
X153667205Y-59240256D01*
X153745226Y-59051898D01*
X153785000Y-58851939D01*
X153785000Y-58648061D01*
X153745226Y-58448102D01*
X153667205Y-58259744D01*
X153553937Y-58090226D01*
X153485000Y-58021289D01*
X153485000Y-52554446D01*
X156013718Y-50025729D01*
X156009389Y-50108531D01*
X156051401Y-50398019D01*
X156149081Y-50673747D01*
X156222528Y-50811157D01*
X156471603Y-50888792D01*
X157320395Y-50040000D01*
X157679605Y-50040000D01*
X158528397Y-50888792D01*
X158770000Y-50813486D01*
X159011603Y-50888792D01*
X159860395Y-50040000D01*
X159011603Y-49191208D01*
X158770000Y-49266514D01*
X158528397Y-49191208D01*
X157679605Y-50040000D01*
X157320395Y-50040000D01*
X157306253Y-50025858D01*
X157485858Y-49846253D01*
X157500000Y-49860395D01*
X158348792Y-49011603D01*
X158330707Y-48953580D01*
X158439850Y-48920472D01*
X158593386Y-48838405D01*
X158727962Y-48727962D01*
X158838405Y-48593386D01*
X158906285Y-48466392D01*
X159093368Y-48653475D01*
X159266729Y-48769311D01*
X159191208Y-49011603D01*
X160040000Y-49860395D01*
X160054143Y-49846253D01*
X160233748Y-50025858D01*
X160219605Y-50040000D01*
X160233748Y-50054143D01*
X160054143Y-50233748D01*
X160040000Y-50219605D01*
X159191208Y-51068397D01*
X159266729Y-51310689D01*
X159093368Y-51426525D01*
X158886525Y-51633368D01*
X158770000Y-51807760D01*
X158653475Y-51633368D01*
X158446632Y-51426525D01*
X158273271Y-51310689D01*
X158348792Y-51068397D01*
X157500000Y-50219605D01*
X156651208Y-51068397D01*
X156726729Y-51310689D01*
X156553368Y-51426525D01*
X156346525Y-51633368D01*
X156184010Y-51876589D01*
X156072068Y-52146842D01*
X156015000Y-52433740D01*
X156015000Y-52726260D01*
X156072068Y-53013158D01*
X156184010Y-53283411D01*
X156346525Y-53526632D01*
X156553368Y-53733475D01*
X156727760Y-53850000D01*
X156553368Y-53966525D01*
X156346525Y-54173368D01*
X156184010Y-54416589D01*
X156072068Y-54686842D01*
X156015000Y-54973740D01*
X156015000Y-55266260D01*
X156072068Y-55553158D01*
X156184010Y-55823411D01*
X156346525Y-56066632D01*
X156553368Y-56273475D01*
X156727760Y-56390000D01*
X156553368Y-56506525D01*
X156346525Y-56713368D01*
X156184010Y-56956589D01*
X156072068Y-57226842D01*
X156015000Y-57513740D01*
X156015000Y-57806260D01*
X156072068Y-58093158D01*
X156184010Y-58363411D01*
X156346525Y-58606632D01*
X156553368Y-58813475D01*
X156796589Y-58975990D01*
X157066842Y-59087932D01*
X157353740Y-59145000D01*
X157646260Y-59145000D01*
X157933158Y-59087932D01*
X158203411Y-58975990D01*
X158446632Y-58813475D01*
X158653475Y-58606632D01*
X158770000Y-58432240D01*
X158886525Y-58606632D01*
X159093368Y-58813475D01*
X159336589Y-58975990D01*
X159606842Y-59087932D01*
X159893740Y-59145000D01*
X160186260Y-59145000D01*
X160473158Y-59087932D01*
X160743411Y-58975990D01*
X160840001Y-58911451D01*
X160840001Y-64970597D01*
X160768827Y-65768083D01*
X160565344Y-66511890D01*
X160233363Y-67207904D01*
X159783374Y-67834130D01*
X159229597Y-68370777D01*
X158589549Y-68800871D01*
X157883447Y-69110829D01*
X157128543Y-69292065D01*
X156475793Y-69340000D01*
X79029392Y-69340000D01*
X78231917Y-69268827D01*
X77488110Y-69065344D01*
X76792096Y-68733363D01*
X76165870Y-68283374D01*
X75629223Y-67729597D01*
X75374145Y-67350000D01*
X86511928Y-67350000D01*
X86524188Y-67474482D01*
X86560498Y-67594180D01*
X86619463Y-67704494D01*
X86698815Y-67801185D01*
X86795506Y-67880537D01*
X86905820Y-67939502D01*
X87025518Y-67975812D01*
X87150000Y-67988072D01*
X87714250Y-67985000D01*
X87873000Y-67826250D01*
X87873000Y-66627000D01*
X86673750Y-66627000D01*
X86515000Y-66785750D01*
X86511928Y-67350000D01*
X75374145Y-67350000D01*
X75199129Y-67089549D01*
X74889171Y-66383447D01*
X74713087Y-65650000D01*
X86511928Y-65650000D01*
X86515000Y-66214250D01*
X86673750Y-66373000D01*
X87873000Y-66373000D01*
X87873000Y-65173750D01*
X87714250Y-65015000D01*
X87150000Y-65011928D01*
X87025518Y-65024188D01*
X86905820Y-65060498D01*
X86795506Y-65119463D01*
X86698815Y-65198815D01*
X86619463Y-65295506D01*
X86560498Y-65405820D01*
X86524188Y-65525518D01*
X86511928Y-65650000D01*
X74713087Y-65650000D01*
X74707935Y-65628543D01*
X74660000Y-64975793D01*
X74660000Y-47900000D01*
X79431929Y-47900000D01*
X79431929Y-49100000D01*
X79448993Y-49273254D01*
X79499529Y-49439850D01*
X79581596Y-49593386D01*
X79692039Y-49727962D01*
X79826615Y-49838405D01*
X79980151Y-49920472D01*
X80146747Y-49971008D01*
X80320001Y-49988072D01*
X81520001Y-49988072D01*
X81693255Y-49971008D01*
X81859851Y-49920472D01*
X82013387Y-49838405D01*
X82147963Y-49727962D01*
X82258406Y-49593386D01*
X82340473Y-49439850D01*
X82373581Y-49330707D01*
X82431604Y-49348792D01*
X83280396Y-48500000D01*
X82431604Y-47651208D01*
X82373581Y-47669293D01*
X82340473Y-47560150D01*
X82258406Y-47406614D01*
X82147963Y-47272038D01*
X82013387Y-47161595D01*
X81886393Y-47093715D01*
X82073476Y-46906632D01*
X82190001Y-46732240D01*
X82306526Y-46906632D01*
X82513369Y-47113475D01*
X82686730Y-47229311D01*
X82611209Y-47471603D01*
X83460001Y-48320395D01*
X83474144Y-48306253D01*
X83653749Y-48485858D01*
X83639606Y-48500000D01*
X83653749Y-48514143D01*
X83474144Y-48693748D01*
X83460001Y-48679605D01*
X82611209Y-49528397D01*
X82688844Y-49777472D01*
X82952884Y-49903371D01*
X83236412Y-49975339D01*
X83528532Y-49990611D01*
X83818020Y-49948599D01*
X84093748Y-49850919D01*
X84231158Y-49777472D01*
X84284611Y-49605978D01*
X90226828Y-55548196D01*
X90249844Y-55576241D01*
X90352293Y-55660319D01*
X90361762Y-55668090D01*
X90489448Y-55736340D01*
X90627997Y-55778368D01*
X90765000Y-55791861D01*
X90765001Y-65030663D01*
X90686260Y-65015000D01*
X90393740Y-65015000D01*
X90106842Y-65072068D01*
X89836589Y-65184010D01*
X89593368Y-65346525D01*
X89461513Y-65478380D01*
X89439502Y-65405820D01*
X89380537Y-65295506D01*
X89301185Y-65198815D01*
X89204494Y-65119463D01*
X89094180Y-65060498D01*
X88974482Y-65024188D01*
X88850000Y-65011928D01*
X88285750Y-65015000D01*
X88127000Y-65173750D01*
X88127000Y-66373000D01*
X88147000Y-66373000D01*
X88147000Y-66627000D01*
X88127000Y-66627000D01*
X88127000Y-67826250D01*
X88285750Y-67985000D01*
X88850000Y-67988072D01*
X88974482Y-67975812D01*
X89094180Y-67939502D01*
X89204494Y-67880537D01*
X89301185Y-67801185D01*
X89380537Y-67704494D01*
X89439502Y-67594180D01*
X89461513Y-67521620D01*
X89593368Y-67653475D01*
X89836589Y-67815990D01*
X90106842Y-67927932D01*
X90393740Y-67985000D01*
X90686260Y-67985000D01*
X90973158Y-67927932D01*
X91243411Y-67815990D01*
X91486632Y-67653475D01*
X91693475Y-67446632D01*
X91810000Y-67272240D01*
X91926525Y-67446632D01*
X92133368Y-67653475D01*
X92376589Y-67815990D01*
X92646842Y-67927932D01*
X92933740Y-67985000D01*
X93226260Y-67985000D01*
X93513158Y-67927932D01*
X93783411Y-67815990D01*
X94026632Y-67653475D01*
X94233475Y-67446632D01*
X94350000Y-67272240D01*
X94466525Y-67446632D01*
X94673368Y-67653475D01*
X94916589Y-67815990D01*
X95186842Y-67927932D01*
X95473740Y-67985000D01*
X95766260Y-67985000D01*
X96053158Y-67927932D01*
X96323411Y-67815990D01*
X96566632Y-67653475D01*
X96773475Y-67446632D01*
X96890000Y-67272240D01*
X97006525Y-67446632D01*
X97213368Y-67653475D01*
X97456589Y-67815990D01*
X97726842Y-67927932D01*
X98013740Y-67985000D01*
X98306260Y-67985000D01*
X98593158Y-67927932D01*
X98863411Y-67815990D01*
X99106632Y-67653475D01*
X99313475Y-67446632D01*
X99378042Y-67350000D01*
X102471928Y-67350000D01*
X102484188Y-67474482D01*
X102520498Y-67594180D01*
X102579463Y-67704494D01*
X102658815Y-67801185D01*
X102755506Y-67880537D01*
X102865820Y-67939502D01*
X102985518Y-67975812D01*
X103110000Y-67988072D01*
X103674250Y-67985000D01*
X103833000Y-67826250D01*
X103833000Y-66627000D01*
X102633750Y-66627000D01*
X102475000Y-66785750D01*
X102471928Y-67350000D01*
X99378042Y-67350000D01*
X99475990Y-67203411D01*
X99587932Y-66933158D01*
X99645000Y-66646260D01*
X99645000Y-66353740D01*
X99587932Y-66066842D01*
X99475990Y-65796589D01*
X99378043Y-65650000D01*
X102471928Y-65650000D01*
X102475000Y-66214250D01*
X102633750Y-66373000D01*
X103833000Y-66373000D01*
X103833000Y-65173750D01*
X103674250Y-65015000D01*
X103110000Y-65011928D01*
X102985518Y-65024188D01*
X102865820Y-65060498D01*
X102755506Y-65119463D01*
X102658815Y-65198815D01*
X102579463Y-65295506D01*
X102520498Y-65405820D01*
X102484188Y-65525518D01*
X102471928Y-65650000D01*
X99378043Y-65650000D01*
X99313475Y-65553368D01*
X99106632Y-65346525D01*
X98863411Y-65184010D01*
X98593158Y-65072068D01*
X98306260Y-65015000D01*
X98013740Y-65015000D01*
X97726842Y-65072068D01*
X97456589Y-65184010D01*
X97213368Y-65346525D01*
X97006525Y-65553368D01*
X96890000Y-65727760D01*
X96773475Y-65553368D01*
X96566632Y-65346525D01*
X96355000Y-65205117D01*
X96355000Y-53804447D01*
X97124448Y-53035000D01*
X97221940Y-53035000D01*
X97421899Y-52995226D01*
X97610257Y-52917205D01*
X97779775Y-52803937D01*
X97923938Y-52659774D01*
X98037206Y-52490256D01*
X98115227Y-52301898D01*
X98155001Y-52101939D01*
X98155001Y-51898061D01*
X98115227Y-51698102D01*
X98037206Y-51509744D01*
X97923938Y-51340226D01*
X97779775Y-51196063D01*
X97610257Y-51082795D01*
X97421899Y-51004774D01*
X97221940Y-50965000D01*
X97018062Y-50965000D01*
X96818103Y-51004774D01*
X96629745Y-51082795D01*
X96460227Y-51196063D01*
X96316064Y-51340226D01*
X96202796Y-51509744D01*
X96124775Y-51698102D01*
X96085001Y-51898061D01*
X96085001Y-51995553D01*
X95125808Y-52954747D01*
X95097763Y-52977763D01*
X95005914Y-53089681D01*
X94976835Y-53144084D01*
X94937664Y-53217368D01*
X94895635Y-53355916D01*
X94881444Y-53500001D01*
X94885001Y-53536116D01*
X94885000Y-65205117D01*
X94673368Y-65346525D01*
X94466525Y-65553368D01*
X94350000Y-65727760D01*
X94233475Y-65553368D01*
X94026632Y-65346525D01*
X93815000Y-65205117D01*
X93815000Y-54021433D01*
X93936253Y-53971208D01*
X94105771Y-53857940D01*
X94249934Y-53713777D01*
X94363202Y-53544259D01*
X94441223Y-53355901D01*
X94480997Y-53155942D01*
X94480997Y-52952064D01*
X94441223Y-52752105D01*
X94363202Y-52563747D01*
X94249934Y-52394229D01*
X94105771Y-52250066D01*
X93936253Y-52136798D01*
X93747895Y-52058777D01*
X93547936Y-52019003D01*
X93344058Y-52019003D01*
X93144099Y-52058777D01*
X92955741Y-52136798D01*
X92786223Y-52250066D01*
X92642060Y-52394229D01*
X92528792Y-52563747D01*
X92450771Y-52752105D01*
X92410997Y-52952064D01*
X92410997Y-53112423D01*
X92397664Y-53137367D01*
X92355635Y-53275915D01*
X92343473Y-53399396D01*
X92303937Y-53340226D01*
X92159774Y-53196063D01*
X91990256Y-53082795D01*
X91801898Y-53004774D01*
X91601939Y-52965000D01*
X91504447Y-52965000D01*
X88524446Y-49985000D01*
X88686261Y-49985000D01*
X88973159Y-49927932D01*
X89243412Y-49815990D01*
X89486633Y-49653475D01*
X89611711Y-49528397D01*
X90231209Y-49528397D01*
X90308844Y-49777472D01*
X90572884Y-49903371D01*
X90856412Y-49975339D01*
X91148532Y-49990611D01*
X91438020Y-49948599D01*
X91713748Y-49850919D01*
X91851158Y-49777472D01*
X91928793Y-49528397D01*
X91080001Y-48679605D01*
X90231209Y-49528397D01*
X89611711Y-49528397D01*
X89693476Y-49446632D01*
X89809312Y-49273271D01*
X90051604Y-49348792D01*
X90900396Y-48500000D01*
X91259606Y-48500000D01*
X92108398Y-49348792D01*
X92357473Y-49271157D01*
X92483372Y-49007117D01*
X92555340Y-48723589D01*
X92570612Y-48431469D01*
X92528600Y-48141981D01*
X92430920Y-47866253D01*
X92357473Y-47728843D01*
X92200771Y-47680000D01*
X101511928Y-47680000D01*
X101511928Y-48880000D01*
X101528992Y-49053254D01*
X101579528Y-49219850D01*
X101661595Y-49373386D01*
X101772038Y-49507962D01*
X101906614Y-49618405D01*
X102060150Y-49700472D01*
X102115000Y-49717111D01*
X102115001Y-55961544D01*
X102082795Y-56009744D01*
X102004774Y-56198102D01*
X101965000Y-56398061D01*
X101965000Y-56601939D01*
X102004774Y-56801898D01*
X102082795Y-56990256D01*
X102196063Y-57159774D01*
X102340226Y-57303937D01*
X102509744Y-57417205D01*
X102698102Y-57495226D01*
X102898061Y-57535000D01*
X103101939Y-57535000D01*
X103301898Y-57495226D01*
X103490256Y-57417205D01*
X103659774Y-57303937D01*
X103803937Y-57159774D01*
X103917205Y-56990256D01*
X103995226Y-56801898D01*
X104035000Y-56601939D01*
X104035000Y-56398061D01*
X103995226Y-56198102D01*
X103917205Y-56009744D01*
X103885000Y-55961546D01*
X103885000Y-49717110D01*
X103939850Y-49700472D01*
X104093386Y-49618405D01*
X104227962Y-49507962D01*
X104338405Y-49373386D01*
X104406285Y-49246392D01*
X104593368Y-49433475D01*
X104836589Y-49595990D01*
X105106842Y-49707932D01*
X105393740Y-49765000D01*
X105686260Y-49765000D01*
X105973158Y-49707932D01*
X106243411Y-49595990D01*
X106486632Y-49433475D01*
X106693475Y-49226632D01*
X106810000Y-49052240D01*
X106926525Y-49226632D01*
X107133368Y-49433475D01*
X107376589Y-49595990D01*
X107646842Y-49707932D01*
X107933740Y-49765000D01*
X108226260Y-49765000D01*
X108513158Y-49707932D01*
X108783411Y-49595990D01*
X109026632Y-49433475D01*
X109233475Y-49226632D01*
X109350000Y-49052240D01*
X109466525Y-49226632D01*
X109673368Y-49433475D01*
X109885000Y-49574883D01*
X109885001Y-52259294D01*
X109750066Y-52394229D01*
X109636798Y-52563747D01*
X109558777Y-52752105D01*
X109519003Y-52952064D01*
X109519003Y-53049556D01*
X108545808Y-54022752D01*
X108517763Y-54045768D01*
X108425914Y-54157686D01*
X108376536Y-54250066D01*
X108357664Y-54285373D01*
X108315635Y-54423921D01*
X108301444Y-54568006D01*
X108305001Y-54604121D01*
X108305000Y-65205117D01*
X108093368Y-65346525D01*
X107886525Y-65553368D01*
X107770000Y-65727760D01*
X107653475Y-65553368D01*
X107446632Y-65346525D01*
X107235000Y-65205117D01*
X107235000Y-55974475D01*
X107247765Y-55965946D01*
X107391928Y-55821783D01*
X107505196Y-55652265D01*
X107583217Y-55463907D01*
X107622991Y-55263948D01*
X107622991Y-55060070D01*
X107583217Y-54860111D01*
X107505196Y-54671753D01*
X107391928Y-54502235D01*
X107247765Y-54358072D01*
X107078247Y-54244804D01*
X106889889Y-54166783D01*
X106689930Y-54127009D01*
X106486052Y-54127009D01*
X106286093Y-54166783D01*
X106097735Y-54244804D01*
X105928217Y-54358072D01*
X105784054Y-54502235D01*
X105670786Y-54671753D01*
X105592765Y-54860111D01*
X105552991Y-55060070D01*
X105552991Y-55263948D01*
X105592765Y-55463907D01*
X105670786Y-55652265D01*
X105765001Y-55793268D01*
X105765000Y-65205117D01*
X105553368Y-65346525D01*
X105421513Y-65478380D01*
X105399502Y-65405820D01*
X105340537Y-65295506D01*
X105261185Y-65198815D01*
X105164494Y-65119463D01*
X105054180Y-65060498D01*
X104934482Y-65024188D01*
X104810000Y-65011928D01*
X104245750Y-65015000D01*
X104087000Y-65173750D01*
X104087000Y-66373000D01*
X104107000Y-66373000D01*
X104107000Y-66627000D01*
X104087000Y-66627000D01*
X104087000Y-67826250D01*
X104245750Y-67985000D01*
X104810000Y-67988072D01*
X104934482Y-67975812D01*
X105054180Y-67939502D01*
X105164494Y-67880537D01*
X105261185Y-67801185D01*
X105340537Y-67704494D01*
X105399502Y-67594180D01*
X105421513Y-67521620D01*
X105553368Y-67653475D01*
X105796589Y-67815990D01*
X106066842Y-67927932D01*
X106353740Y-67985000D01*
X106646260Y-67985000D01*
X106933158Y-67927932D01*
X107203411Y-67815990D01*
X107446632Y-67653475D01*
X107653475Y-67446632D01*
X107770000Y-67272240D01*
X107886525Y-67446632D01*
X108093368Y-67653475D01*
X108336589Y-67815990D01*
X108606842Y-67927932D01*
X108893740Y-67985000D01*
X109186260Y-67985000D01*
X109473158Y-67927932D01*
X109743411Y-67815990D01*
X109986632Y-67653475D01*
X110193475Y-67446632D01*
X110310000Y-67272240D01*
X110426525Y-67446632D01*
X110633368Y-67653475D01*
X110876589Y-67815990D01*
X111146842Y-67927932D01*
X111433740Y-67985000D01*
X111726260Y-67985000D01*
X112013158Y-67927932D01*
X112283411Y-67815990D01*
X112526632Y-67653475D01*
X112733475Y-67446632D01*
X112895990Y-67203411D01*
X113007932Y-66933158D01*
X113065000Y-66646260D01*
X113065000Y-66353740D01*
X113007932Y-66066842D01*
X112895990Y-65796589D01*
X112733475Y-65553368D01*
X112570107Y-65390000D01*
X118471928Y-65390000D01*
X118484188Y-65514482D01*
X118520498Y-65634180D01*
X118579463Y-65744494D01*
X118658815Y-65841185D01*
X118755506Y-65920537D01*
X118865820Y-65979502D01*
X118985518Y-66015812D01*
X119110000Y-66028072D01*
X119674250Y-66025000D01*
X119833000Y-65866250D01*
X119833000Y-64667000D01*
X118633750Y-64667000D01*
X118475000Y-64825750D01*
X118471928Y-65390000D01*
X112570107Y-65390000D01*
X112526632Y-65346525D01*
X112283411Y-65184010D01*
X112013158Y-65072068D01*
X111726260Y-65015000D01*
X111433740Y-65015000D01*
X111146842Y-65072068D01*
X110876589Y-65184010D01*
X110633368Y-65346525D01*
X110426525Y-65553368D01*
X110310000Y-65727760D01*
X110193475Y-65553368D01*
X109986632Y-65346525D01*
X109775000Y-65205117D01*
X109775000Y-54872452D01*
X110558450Y-54089003D01*
X110655942Y-54089003D01*
X110855901Y-54049229D01*
X111044259Y-53971208D01*
X111213777Y-53857940D01*
X111357940Y-53713777D01*
X111471208Y-53544259D01*
X111549229Y-53355901D01*
X111589003Y-53155942D01*
X111589003Y-52952064D01*
X111549229Y-52752105D01*
X111471208Y-52563747D01*
X111357940Y-52394229D01*
X111355000Y-52391289D01*
X111355000Y-49574883D01*
X111566632Y-49433475D01*
X111773475Y-49226632D01*
X111890000Y-49052240D01*
X112006525Y-49226632D01*
X112213368Y-49433475D01*
X112425000Y-49574883D01*
X112425001Y-54435306D01*
X112358072Y-54502235D01*
X112244804Y-54671753D01*
X112166783Y-54860111D01*
X112127009Y-55060070D01*
X112127009Y-55263948D01*
X112166783Y-55463907D01*
X112244804Y-55652265D01*
X112358072Y-55821783D01*
X112502235Y-55965946D01*
X112671753Y-56079214D01*
X112860111Y-56157235D01*
X113060070Y-56197009D01*
X113117563Y-56197009D01*
X118524656Y-61604103D01*
X118475000Y-61853740D01*
X118475000Y-62146260D01*
X118532068Y-62433158D01*
X118644010Y-62703411D01*
X118806525Y-62946632D01*
X118938380Y-63078487D01*
X118865820Y-63100498D01*
X118755506Y-63159463D01*
X118658815Y-63238815D01*
X118579463Y-63335506D01*
X118520498Y-63445820D01*
X118484188Y-63565518D01*
X118471928Y-63690000D01*
X118475000Y-64254250D01*
X118633750Y-64413000D01*
X119833000Y-64413000D01*
X119833000Y-64393000D01*
X120087000Y-64393000D01*
X120087000Y-64413000D01*
X120107000Y-64413000D01*
X120107000Y-64667000D01*
X120087000Y-64667000D01*
X120087000Y-65866250D01*
X120245750Y-66025000D01*
X120810000Y-66028072D01*
X120934482Y-66015812D01*
X121054180Y-65979502D01*
X121164494Y-65920537D01*
X121261185Y-65841185D01*
X121340537Y-65744494D01*
X121399502Y-65634180D01*
X121421513Y-65561620D01*
X121553368Y-65693475D01*
X121796589Y-65855990D01*
X122066842Y-65967932D01*
X122353740Y-66025000D01*
X122646260Y-66025000D01*
X122933158Y-65967932D01*
X123203411Y-65855990D01*
X123446632Y-65693475D01*
X123653475Y-65486632D01*
X123770000Y-65312240D01*
X123886525Y-65486632D01*
X124093368Y-65693475D01*
X124336589Y-65855990D01*
X124606842Y-65967932D01*
X124893740Y-66025000D01*
X125186260Y-66025000D01*
X125473158Y-65967932D01*
X125743411Y-65855990D01*
X125986632Y-65693475D01*
X126193475Y-65486632D01*
X126355990Y-65243411D01*
X126467932Y-64973158D01*
X126525000Y-64686260D01*
X126525000Y-64393740D01*
X126475344Y-64144103D01*
X126738198Y-63881249D01*
X126766238Y-63858237D01*
X126789251Y-63830196D01*
X126789254Y-63830193D01*
X126858088Y-63746319D01*
X126926338Y-63618633D01*
X126968366Y-63480084D01*
X126982557Y-63335999D01*
X126979001Y-63299894D01*
X126979001Y-62150000D01*
X135511928Y-62150000D01*
X135511928Y-63850000D01*
X135524188Y-63974482D01*
X135560498Y-64094180D01*
X135619463Y-64204494D01*
X135698815Y-64301185D01*
X135795506Y-64380537D01*
X135905820Y-64439502D01*
X135978380Y-64461513D01*
X135846525Y-64593368D01*
X135684010Y-64836589D01*
X135572068Y-65106842D01*
X135515000Y-65393740D01*
X135515000Y-65686260D01*
X135572068Y-65973158D01*
X135684010Y-66243411D01*
X135846525Y-66486632D01*
X136053368Y-66693475D01*
X136296589Y-66855990D01*
X136566842Y-66967932D01*
X136853740Y-67025000D01*
X137146260Y-67025000D01*
X137433158Y-66967932D01*
X137703411Y-66855990D01*
X137946632Y-66693475D01*
X138153475Y-66486632D01*
X138315990Y-66243411D01*
X138427932Y-65973158D01*
X138485000Y-65686260D01*
X138485000Y-65393740D01*
X138427932Y-65106842D01*
X138315990Y-64836589D01*
X138153475Y-64593368D01*
X138021620Y-64461513D01*
X138094180Y-64439502D01*
X138204494Y-64380537D01*
X138301185Y-64301185D01*
X138380537Y-64204494D01*
X138439502Y-64094180D01*
X138475812Y-63974482D01*
X138488072Y-63850000D01*
X138488072Y-62150000D01*
X138475812Y-62025518D01*
X138439502Y-61905820D01*
X138380537Y-61795506D01*
X138301185Y-61698815D01*
X138204494Y-61619463D01*
X138094180Y-61560498D01*
X137974482Y-61524188D01*
X137850000Y-61511928D01*
X136150000Y-61511928D01*
X136025518Y-61524188D01*
X135905820Y-61560498D01*
X135795506Y-61619463D01*
X135698815Y-61698815D01*
X135619463Y-61795506D01*
X135560498Y-61905820D01*
X135524188Y-62025518D01*
X135511928Y-62150000D01*
X126979001Y-62150000D01*
X126979001Y-54667420D01*
X127025211Y-54598262D01*
X127103232Y-54409904D01*
X127143006Y-54209945D01*
X127143006Y-54006067D01*
X127103232Y-53806108D01*
X127025211Y-53617750D01*
X126911943Y-53448232D01*
X126767780Y-53304069D01*
X126598262Y-53190801D01*
X126409904Y-53112780D01*
X126209945Y-53073006D01*
X126006067Y-53073006D01*
X125806108Y-53112780D01*
X125617750Y-53190801D01*
X125448232Y-53304069D01*
X125304069Y-53448232D01*
X125190801Y-53617750D01*
X125112780Y-53806108D01*
X125073006Y-54006067D01*
X125073006Y-54209945D01*
X125112780Y-54409904D01*
X125190801Y-54598262D01*
X125304069Y-54767780D01*
X125448232Y-54911943D01*
X125509002Y-54952548D01*
X125509001Y-60586915D01*
X125473158Y-60572068D01*
X125186260Y-60515000D01*
X124893740Y-60515000D01*
X124606842Y-60572068D01*
X124336589Y-60684010D01*
X124093368Y-60846525D01*
X123886525Y-61053368D01*
X123770000Y-61227760D01*
X123653475Y-61053368D01*
X123446632Y-60846525D01*
X123235000Y-60705117D01*
X123235000Y-52728711D01*
X123303937Y-52659774D01*
X123417205Y-52490256D01*
X123495226Y-52301898D01*
X123535000Y-52101939D01*
X123535000Y-51898061D01*
X123495226Y-51698102D01*
X123417205Y-51509744D01*
X123303937Y-51340226D01*
X123159774Y-51196063D01*
X122990256Y-51082795D01*
X122801898Y-51004774D01*
X122601939Y-50965000D01*
X122398061Y-50965000D01*
X122198102Y-51004774D01*
X122009744Y-51082795D01*
X121840226Y-51196063D01*
X121696063Y-51340226D01*
X121582795Y-51509744D01*
X121504774Y-51698102D01*
X121465000Y-51898061D01*
X121465000Y-52040696D01*
X121355942Y-52019003D01*
X121152064Y-52019003D01*
X120952105Y-52058777D01*
X120763747Y-52136798D01*
X120594229Y-52250066D01*
X120450066Y-52394229D01*
X120336798Y-52563747D01*
X120258777Y-52752105D01*
X120219003Y-52952064D01*
X120219003Y-53155942D01*
X120258777Y-53355901D01*
X120336798Y-53544259D01*
X120450066Y-53713777D01*
X120561000Y-53824711D01*
X120560999Y-60641590D01*
X120393158Y-60572068D01*
X120106260Y-60515000D01*
X119813740Y-60515000D01*
X119564103Y-60564656D01*
X114197009Y-55197563D01*
X114197009Y-55060070D01*
X114157235Y-54860111D01*
X114079214Y-54671753D01*
X113965946Y-54502235D01*
X113895000Y-54431289D01*
X113895000Y-49574883D01*
X114106632Y-49433475D01*
X114313475Y-49226632D01*
X114430000Y-49052240D01*
X114546525Y-49226632D01*
X114753368Y-49433475D01*
X114996589Y-49595990D01*
X115266842Y-49707932D01*
X115553740Y-49765000D01*
X115846260Y-49765000D01*
X116133158Y-49707932D01*
X116403411Y-49595990D01*
X116646632Y-49433475D01*
X116853475Y-49226632D01*
X116970000Y-49052240D01*
X117086525Y-49226632D01*
X117293368Y-49433475D01*
X117505000Y-49574883D01*
X117505001Y-53572535D01*
X117474789Y-53617750D01*
X117396768Y-53806108D01*
X117356994Y-54006067D01*
X117356994Y-54209945D01*
X117396768Y-54409904D01*
X117474789Y-54598262D01*
X117588057Y-54767780D01*
X117732220Y-54911943D01*
X117901738Y-55025211D01*
X118090096Y-55103232D01*
X118290055Y-55143006D01*
X118493933Y-55143006D01*
X118693892Y-55103232D01*
X118882250Y-55025211D01*
X119051768Y-54911943D01*
X119195931Y-54767780D01*
X119309199Y-54598262D01*
X119387220Y-54409904D01*
X119426994Y-54209945D01*
X119426994Y-54006067D01*
X119387220Y-53806108D01*
X119309199Y-53617750D01*
X119195931Y-53448232D01*
X119051768Y-53304069D01*
X118975000Y-53252774D01*
X118975000Y-49574883D01*
X119186632Y-49433475D01*
X119393475Y-49226632D01*
X119510000Y-49052240D01*
X119626525Y-49226632D01*
X119833368Y-49433475D01*
X120076589Y-49595990D01*
X120346842Y-49707932D01*
X120633740Y-49765000D01*
X120926260Y-49765000D01*
X121213158Y-49707932D01*
X121483411Y-49595990D01*
X121726632Y-49433475D01*
X121933475Y-49226632D01*
X122050000Y-49052240D01*
X122166525Y-49226632D01*
X122373368Y-49433475D01*
X122616589Y-49595990D01*
X122886842Y-49707932D01*
X123173740Y-49765000D01*
X123466260Y-49765000D01*
X123753158Y-49707932D01*
X124023411Y-49595990D01*
X124266632Y-49433475D01*
X124473475Y-49226632D01*
X124590000Y-49052240D01*
X124706525Y-49226632D01*
X124913368Y-49433475D01*
X125156589Y-49595990D01*
X125426842Y-49707932D01*
X125713740Y-49765000D01*
X126006260Y-49765000D01*
X126293158Y-49707932D01*
X126563411Y-49595990D01*
X126806632Y-49433475D01*
X127013475Y-49226632D01*
X127175990Y-48983411D01*
X127287932Y-48713158D01*
X127345000Y-48426260D01*
X127345000Y-48133740D01*
X127287932Y-47846842D01*
X127206398Y-47650000D01*
X136511928Y-47650000D01*
X136511928Y-48850000D01*
X136528992Y-49023254D01*
X136579528Y-49189850D01*
X136661595Y-49343386D01*
X136772038Y-49477962D01*
X136906614Y-49588405D01*
X137060150Y-49670472D01*
X137226746Y-49721008D01*
X137400000Y-49738072D01*
X138515001Y-49738072D01*
X138515000Y-52271289D01*
X138446063Y-52340226D01*
X138332795Y-52509744D01*
X138254774Y-52698102D01*
X138215000Y-52898061D01*
X138215000Y-53101939D01*
X138254774Y-53301898D01*
X138332795Y-53490256D01*
X138446063Y-53659774D01*
X138556382Y-53770093D01*
X138153892Y-54172583D01*
X138139889Y-54166783D01*
X137939930Y-54127009D01*
X137736052Y-54127009D01*
X137536093Y-54166783D01*
X137347735Y-54244804D01*
X137178217Y-54358072D01*
X137034054Y-54502235D01*
X136920786Y-54671753D01*
X136842765Y-54860111D01*
X136802991Y-55060070D01*
X136802991Y-55263948D01*
X136842765Y-55463907D01*
X136920786Y-55652265D01*
X137034054Y-55821783D01*
X137178217Y-55965946D01*
X137347735Y-56079214D01*
X137536093Y-56157235D01*
X137736052Y-56197009D01*
X137939930Y-56197009D01*
X138139889Y-56157235D01*
X138328247Y-56079214D01*
X138497765Y-55965946D01*
X138641928Y-55821783D01*
X138755196Y-55652265D01*
X138756676Y-55648692D01*
X142345001Y-52060368D01*
X142345001Y-53407300D01*
X142304069Y-53448232D01*
X142190801Y-53617750D01*
X142112780Y-53806108D01*
X142073006Y-54006067D01*
X142073006Y-54209945D01*
X142112780Y-54409904D01*
X142190801Y-54598262D01*
X142304069Y-54767780D01*
X142392355Y-54856066D01*
X141754957Y-55493465D01*
X141698102Y-55504774D01*
X141509744Y-55582795D01*
X141340226Y-55696063D01*
X141196063Y-55840226D01*
X141082795Y-56009744D01*
X141004774Y-56198102D01*
X140965000Y-56398061D01*
X140965000Y-56601939D01*
X141004774Y-56801898D01*
X141082795Y-56990256D01*
X141196063Y-57159774D01*
X141340226Y-57303937D01*
X141509744Y-57417205D01*
X141698102Y-57495226D01*
X141898061Y-57535000D01*
X142101939Y-57535000D01*
X142301898Y-57495226D01*
X142490256Y-57417205D01*
X142659774Y-57303937D01*
X142803937Y-57159774D01*
X142917205Y-56990256D01*
X142995226Y-56801898D01*
X143006535Y-56745043D01*
X146215049Y-53536530D01*
X146248817Y-53508817D01*
X146285334Y-53464322D01*
X146359410Y-53374060D01*
X146359411Y-53374059D01*
X146441589Y-53220313D01*
X146492195Y-53053490D01*
X146505000Y-52923477D01*
X146505000Y-52923467D01*
X146509281Y-52880001D01*
X146505000Y-52836535D01*
X146505000Y-49444656D01*
X146566632Y-49403475D01*
X146773475Y-49196632D01*
X146890000Y-49022240D01*
X147006525Y-49196632D01*
X147213368Y-49403475D01*
X147456589Y-49565990D01*
X147726842Y-49677932D01*
X148013740Y-49735000D01*
X148306260Y-49735000D01*
X148593158Y-49677932D01*
X148863411Y-49565990D01*
X149106632Y-49403475D01*
X149313475Y-49196632D01*
X149475990Y-48953411D01*
X149587932Y-48683158D01*
X149645000Y-48396260D01*
X149645000Y-48103740D01*
X149587932Y-47816842D01*
X149475990Y-47546589D01*
X149313475Y-47303368D01*
X149106632Y-47096525D01*
X148932240Y-46980000D01*
X149106632Y-46863475D01*
X149313475Y-46656632D01*
X149475990Y-46413411D01*
X149587932Y-46143158D01*
X149645000Y-45856260D01*
X149645000Y-45563740D01*
X149587932Y-45276842D01*
X149475990Y-45006589D01*
X149313475Y-44763368D01*
X149106632Y-44556525D01*
X148863411Y-44394010D01*
X148593158Y-44282068D01*
X148306260Y-44225000D01*
X148013740Y-44225000D01*
X147726842Y-44282068D01*
X147456589Y-44394010D01*
X147213368Y-44556525D01*
X147006525Y-44763368D01*
X146890000Y-44937760D01*
X146773475Y-44763368D01*
X146566632Y-44556525D01*
X146323411Y-44394010D01*
X146053158Y-44282068D01*
X145766260Y-44225000D01*
X145473740Y-44225000D01*
X145186842Y-44282068D01*
X144916589Y-44394010D01*
X144673368Y-44556525D01*
X144466525Y-44763368D01*
X144350000Y-44937760D01*
X144233475Y-44763368D01*
X144026632Y-44556525D01*
X143783411Y-44394010D01*
X143513158Y-44282068D01*
X143226260Y-44225000D01*
X142933740Y-44225000D01*
X142646842Y-44282068D01*
X142376589Y-44394010D01*
X142133368Y-44556525D01*
X141926525Y-44763368D01*
X141810689Y-44936729D01*
X141568397Y-44861208D01*
X140719605Y-45710000D01*
X140733748Y-45724143D01*
X140554143Y-45903748D01*
X140540000Y-45889605D01*
X140525858Y-45903748D01*
X140346253Y-45724143D01*
X140360395Y-45710000D01*
X139511603Y-44861208D01*
X139269311Y-44936729D01*
X139153475Y-44763368D01*
X139071710Y-44681603D01*
X139691208Y-44681603D01*
X140540000Y-45530395D01*
X141388792Y-44681603D01*
X141311157Y-44432528D01*
X141047117Y-44306629D01*
X140763589Y-44234661D01*
X140471469Y-44219389D01*
X140181981Y-44261401D01*
X139906253Y-44359081D01*
X139768843Y-44432528D01*
X139691208Y-44681603D01*
X139071710Y-44681603D01*
X138946632Y-44556525D01*
X138703411Y-44394010D01*
X138433158Y-44282068D01*
X138146260Y-44225000D01*
X137853740Y-44225000D01*
X137566842Y-44282068D01*
X137296589Y-44394010D01*
X137053368Y-44556525D01*
X136846525Y-44763368D01*
X136684010Y-45006589D01*
X136572068Y-45276842D01*
X136515000Y-45563740D01*
X136515000Y-45856260D01*
X136572068Y-46143158D01*
X136684010Y-46413411D01*
X136846525Y-46656632D01*
X137033608Y-46843715D01*
X136906614Y-46911595D01*
X136772038Y-47022038D01*
X136661595Y-47156614D01*
X136579528Y-47310150D01*
X136528992Y-47476746D01*
X136511928Y-47650000D01*
X127206398Y-47650000D01*
X127175990Y-47576589D01*
X127013475Y-47333368D01*
X126806632Y-47126525D01*
X126633271Y-47010689D01*
X126708792Y-46768397D01*
X125860000Y-45919605D01*
X125011208Y-46768397D01*
X125086729Y-47010689D01*
X124913368Y-47126525D01*
X124706525Y-47333368D01*
X124590000Y-47507760D01*
X124473475Y-47333368D01*
X124266632Y-47126525D01*
X124093271Y-47010689D01*
X124168792Y-46768397D01*
X123320000Y-45919605D01*
X122471208Y-46768397D01*
X122546729Y-47010689D01*
X122373368Y-47126525D01*
X122166525Y-47333368D01*
X122050000Y-47507760D01*
X121933475Y-47333368D01*
X121726632Y-47126525D01*
X121553271Y-47010689D01*
X121628792Y-46768397D01*
X120780000Y-45919605D01*
X119931208Y-46768397D01*
X120006729Y-47010689D01*
X119833368Y-47126525D01*
X119626525Y-47333368D01*
X119510000Y-47507760D01*
X119393475Y-47333368D01*
X119186632Y-47126525D01*
X119013271Y-47010689D01*
X119088792Y-46768397D01*
X118240000Y-45919605D01*
X117391208Y-46768397D01*
X117466729Y-47010689D01*
X117293368Y-47126525D01*
X117086525Y-47333368D01*
X116970000Y-47507760D01*
X116853475Y-47333368D01*
X116646632Y-47126525D01*
X116473271Y-47010689D01*
X116548792Y-46768397D01*
X115700000Y-45919605D01*
X114851208Y-46768397D01*
X114926729Y-47010689D01*
X114753368Y-47126525D01*
X114546525Y-47333368D01*
X114430000Y-47507760D01*
X114313475Y-47333368D01*
X114106632Y-47126525D01*
X113933271Y-47010689D01*
X114008792Y-46768397D01*
X113160000Y-45919605D01*
X112311208Y-46768397D01*
X112386729Y-47010689D01*
X112213368Y-47126525D01*
X112006525Y-47333368D01*
X111890000Y-47507760D01*
X111773475Y-47333368D01*
X111566632Y-47126525D01*
X111393271Y-47010689D01*
X111468792Y-46768397D01*
X110620000Y-45919605D01*
X109771208Y-46768397D01*
X109846729Y-47010689D01*
X109673368Y-47126525D01*
X109466525Y-47333368D01*
X109350000Y-47507760D01*
X109233475Y-47333368D01*
X109026632Y-47126525D01*
X108853271Y-47010689D01*
X108928792Y-46768397D01*
X108080000Y-45919605D01*
X107231208Y-46768397D01*
X107306729Y-47010689D01*
X107133368Y-47126525D01*
X106926525Y-47333368D01*
X106810000Y-47507760D01*
X106693475Y-47333368D01*
X106486632Y-47126525D01*
X106313271Y-47010689D01*
X106388792Y-46768397D01*
X105540000Y-45919605D01*
X104691208Y-46768397D01*
X104766729Y-47010689D01*
X104593368Y-47126525D01*
X104406285Y-47313608D01*
X104338405Y-47186614D01*
X104227962Y-47052038D01*
X104093386Y-46941595D01*
X103966392Y-46873715D01*
X104153475Y-46686632D01*
X104269311Y-46513271D01*
X104511603Y-46588792D01*
X105360395Y-45740000D01*
X105719605Y-45740000D01*
X106568397Y-46588792D01*
X106810000Y-46513486D01*
X107051603Y-46588792D01*
X107900395Y-45740000D01*
X108259605Y-45740000D01*
X109108397Y-46588792D01*
X109350000Y-46513486D01*
X109591603Y-46588792D01*
X110440395Y-45740000D01*
X110799605Y-45740000D01*
X111648397Y-46588792D01*
X111890000Y-46513486D01*
X112131603Y-46588792D01*
X112980395Y-45740000D01*
X113339605Y-45740000D01*
X114188397Y-46588792D01*
X114430000Y-46513486D01*
X114671603Y-46588792D01*
X115520395Y-45740000D01*
X115879605Y-45740000D01*
X116728397Y-46588792D01*
X116970000Y-46513486D01*
X117211603Y-46588792D01*
X118060395Y-45740000D01*
X118419605Y-45740000D01*
X119268397Y-46588792D01*
X119510000Y-46513486D01*
X119751603Y-46588792D01*
X120600395Y-45740000D01*
X120959605Y-45740000D01*
X121808397Y-46588792D01*
X122050000Y-46513486D01*
X122291603Y-46588792D01*
X123140395Y-45740000D01*
X123499605Y-45740000D01*
X124348397Y-46588792D01*
X124590000Y-46513486D01*
X124831603Y-46588792D01*
X125680395Y-45740000D01*
X126039605Y-45740000D01*
X126888397Y-46588792D01*
X127137472Y-46511157D01*
X127263371Y-46247117D01*
X127335339Y-45963589D01*
X127350611Y-45671469D01*
X127308599Y-45381981D01*
X127210919Y-45106253D01*
X127137472Y-44968843D01*
X126888397Y-44891208D01*
X126039605Y-45740000D01*
X125680395Y-45740000D01*
X124831603Y-44891208D01*
X124590000Y-44966514D01*
X124348397Y-44891208D01*
X123499605Y-45740000D01*
X123140395Y-45740000D01*
X122291603Y-44891208D01*
X122050000Y-44966514D01*
X121808397Y-44891208D01*
X120959605Y-45740000D01*
X120600395Y-45740000D01*
X119751603Y-44891208D01*
X119510000Y-44966514D01*
X119268397Y-44891208D01*
X118419605Y-45740000D01*
X118060395Y-45740000D01*
X117211603Y-44891208D01*
X116970000Y-44966514D01*
X116728397Y-44891208D01*
X115879605Y-45740000D01*
X115520395Y-45740000D01*
X114671603Y-44891208D01*
X114430000Y-44966514D01*
X114188397Y-44891208D01*
X113339605Y-45740000D01*
X112980395Y-45740000D01*
X112131603Y-44891208D01*
X111890000Y-44966514D01*
X111648397Y-44891208D01*
X110799605Y-45740000D01*
X110440395Y-45740000D01*
X109591603Y-44891208D01*
X109350000Y-44966514D01*
X109108397Y-44891208D01*
X108259605Y-45740000D01*
X107900395Y-45740000D01*
X107051603Y-44891208D01*
X106810000Y-44966514D01*
X106568397Y-44891208D01*
X105719605Y-45740000D01*
X105360395Y-45740000D01*
X104511603Y-44891208D01*
X104269311Y-44966729D01*
X104153475Y-44793368D01*
X104071710Y-44711603D01*
X104691208Y-44711603D01*
X105540000Y-45560395D01*
X106388792Y-44711603D01*
X107231208Y-44711603D01*
X108080000Y-45560395D01*
X108928792Y-44711603D01*
X109771208Y-44711603D01*
X110620000Y-45560395D01*
X111468792Y-44711603D01*
X112311208Y-44711603D01*
X113160000Y-45560395D01*
X114008792Y-44711603D01*
X114851208Y-44711603D01*
X115700000Y-45560395D01*
X116548792Y-44711603D01*
X117391208Y-44711603D01*
X118240000Y-45560395D01*
X119088792Y-44711603D01*
X119931208Y-44711603D01*
X120780000Y-45560395D01*
X121628792Y-44711603D01*
X122471208Y-44711603D01*
X123320000Y-45560395D01*
X124168792Y-44711603D01*
X125011208Y-44711603D01*
X125860000Y-45560395D01*
X126708792Y-44711603D01*
X126631157Y-44462528D01*
X126367117Y-44336629D01*
X126083589Y-44264661D01*
X125791469Y-44249389D01*
X125501981Y-44291401D01*
X125226253Y-44389081D01*
X125088843Y-44462528D01*
X125011208Y-44711603D01*
X124168792Y-44711603D01*
X124091157Y-44462528D01*
X123827117Y-44336629D01*
X123543589Y-44264661D01*
X123251469Y-44249389D01*
X122961981Y-44291401D01*
X122686253Y-44389081D01*
X122548843Y-44462528D01*
X122471208Y-44711603D01*
X121628792Y-44711603D01*
X121551157Y-44462528D01*
X121287117Y-44336629D01*
X121003589Y-44264661D01*
X120711469Y-44249389D01*
X120421981Y-44291401D01*
X120146253Y-44389081D01*
X120008843Y-44462528D01*
X119931208Y-44711603D01*
X119088792Y-44711603D01*
X119011157Y-44462528D01*
X118747117Y-44336629D01*
X118463589Y-44264661D01*
X118171469Y-44249389D01*
X117881981Y-44291401D01*
X117606253Y-44389081D01*
X117468843Y-44462528D01*
X117391208Y-44711603D01*
X116548792Y-44711603D01*
X116471157Y-44462528D01*
X116207117Y-44336629D01*
X115923589Y-44264661D01*
X115631469Y-44249389D01*
X115341981Y-44291401D01*
X115066253Y-44389081D01*
X114928843Y-44462528D01*
X114851208Y-44711603D01*
X114008792Y-44711603D01*
X113931157Y-44462528D01*
X113667117Y-44336629D01*
X113383589Y-44264661D01*
X113091469Y-44249389D01*
X112801981Y-44291401D01*
X112526253Y-44389081D01*
X112388843Y-44462528D01*
X112311208Y-44711603D01*
X111468792Y-44711603D01*
X111391157Y-44462528D01*
X111127117Y-44336629D01*
X110843589Y-44264661D01*
X110551469Y-44249389D01*
X110261981Y-44291401D01*
X109986253Y-44389081D01*
X109848843Y-44462528D01*
X109771208Y-44711603D01*
X108928792Y-44711603D01*
X108851157Y-44462528D01*
X108587117Y-44336629D01*
X108303589Y-44264661D01*
X108011469Y-44249389D01*
X107721981Y-44291401D01*
X107446253Y-44389081D01*
X107308843Y-44462528D01*
X107231208Y-44711603D01*
X106388792Y-44711603D01*
X106311157Y-44462528D01*
X106047117Y-44336629D01*
X105763589Y-44264661D01*
X105471469Y-44249389D01*
X105181981Y-44291401D01*
X104906253Y-44389081D01*
X104768843Y-44462528D01*
X104691208Y-44711603D01*
X104071710Y-44711603D01*
X103946632Y-44586525D01*
X103703411Y-44424010D01*
X103433158Y-44312068D01*
X103146260Y-44255000D01*
X102853740Y-44255000D01*
X102566842Y-44312068D01*
X102296589Y-44424010D01*
X102053368Y-44586525D01*
X101846525Y-44793368D01*
X101684010Y-45036589D01*
X101572068Y-45306842D01*
X101515000Y-45593740D01*
X101515000Y-45886260D01*
X101572068Y-46173158D01*
X101684010Y-46443411D01*
X101846525Y-46686632D01*
X102033608Y-46873715D01*
X101906614Y-46941595D01*
X101772038Y-47052038D01*
X101661595Y-47186614D01*
X101579528Y-47340150D01*
X101528992Y-47506746D01*
X101511928Y-47680000D01*
X92200771Y-47680000D01*
X92108398Y-47651208D01*
X91259606Y-48500000D01*
X90900396Y-48500000D01*
X90051604Y-47651208D01*
X89809312Y-47726729D01*
X89693476Y-47553368D01*
X89486633Y-47346525D01*
X89312241Y-47230000D01*
X89486633Y-47113475D01*
X89693476Y-46906632D01*
X89810001Y-46732240D01*
X89926526Y-46906632D01*
X90133369Y-47113475D01*
X90306730Y-47229311D01*
X90231209Y-47471603D01*
X91080001Y-48320395D01*
X91928793Y-47471603D01*
X91853272Y-47229311D01*
X92026633Y-47113475D01*
X92233476Y-46906632D01*
X92395991Y-46663411D01*
X92507933Y-46393158D01*
X92565001Y-46106260D01*
X92565001Y-45813740D01*
X92507933Y-45526842D01*
X92395991Y-45256589D01*
X92233476Y-45013368D01*
X92026633Y-44806525D01*
X91783412Y-44644010D01*
X91513159Y-44532068D01*
X91226261Y-44475000D01*
X90933741Y-44475000D01*
X90646843Y-44532068D01*
X90376590Y-44644010D01*
X90133369Y-44806525D01*
X89926526Y-45013368D01*
X89810001Y-45187760D01*
X89693476Y-45013368D01*
X89486633Y-44806525D01*
X89243412Y-44644010D01*
X88973159Y-44532068D01*
X88686261Y-44475000D01*
X88393741Y-44475000D01*
X88106843Y-44532068D01*
X87836590Y-44644010D01*
X87593369Y-44806525D01*
X87386526Y-45013368D01*
X87270001Y-45187760D01*
X87153476Y-45013368D01*
X86946633Y-44806525D01*
X86703412Y-44644010D01*
X86433159Y-44532068D01*
X86146261Y-44475000D01*
X85853741Y-44475000D01*
X85566843Y-44532068D01*
X85296590Y-44644010D01*
X85053369Y-44806525D01*
X84846526Y-45013368D01*
X84730001Y-45187760D01*
X84613476Y-45013368D01*
X84406633Y-44806525D01*
X84163412Y-44644010D01*
X83893159Y-44532068D01*
X83606261Y-44475000D01*
X83313741Y-44475000D01*
X83026843Y-44532068D01*
X82756590Y-44644010D01*
X82513369Y-44806525D01*
X82306526Y-45013368D01*
X82190001Y-45187760D01*
X82073476Y-45013368D01*
X81866633Y-44806525D01*
X81623412Y-44644010D01*
X81353159Y-44532068D01*
X81066261Y-44475000D01*
X80773741Y-44475000D01*
X80486843Y-44532068D01*
X80216590Y-44644010D01*
X79973369Y-44806525D01*
X79766526Y-45013368D01*
X79604011Y-45256589D01*
X79492069Y-45526842D01*
X79435001Y-45813740D01*
X79435001Y-46106260D01*
X79492069Y-46393158D01*
X79604011Y-46663411D01*
X79766526Y-46906632D01*
X79953609Y-47093715D01*
X79826615Y-47161595D01*
X79692039Y-47272038D01*
X79581596Y-47406614D01*
X79499529Y-47560150D01*
X79448993Y-47726746D01*
X79431929Y-47900000D01*
X74660000Y-47900000D01*
X74660000Y-45029392D01*
X74731173Y-44231917D01*
X74934656Y-43488109D01*
X75266638Y-42792095D01*
X75716626Y-42165870D01*
X76270403Y-41629223D01*
X76910451Y-41199129D01*
X77616553Y-40889171D01*
X78371457Y-40707935D01*
X79024207Y-40660000D01*
X156470608Y-40660000D01*
X157268083Y-40731173D01*
G04 #@! TA.AperFunction,Conductor*
D17*
G36*
X157268083Y-40731173D02*
G01*
X158011891Y-40934656D01*
X158707905Y-41266638D01*
X159334130Y-41716626D01*
X159870777Y-42270403D01*
X160300871Y-42910451D01*
X160610829Y-43616553D01*
X160792065Y-44371457D01*
X160840000Y-45024207D01*
X160840000Y-46248549D01*
X160743411Y-46184010D01*
X160473158Y-46072068D01*
X160186260Y-46015000D01*
X159893740Y-46015000D01*
X159606842Y-46072068D01*
X159336589Y-46184010D01*
X159093368Y-46346525D01*
X158906285Y-46533608D01*
X158838405Y-46406614D01*
X158727962Y-46272038D01*
X158593386Y-46161595D01*
X158439850Y-46079528D01*
X158273254Y-46028992D01*
X158100000Y-46011928D01*
X156900000Y-46011928D01*
X156726746Y-46028992D01*
X156560150Y-46079528D01*
X156406614Y-46161595D01*
X156272038Y-46272038D01*
X156161595Y-46406614D01*
X156079528Y-46560150D01*
X156028992Y-46726746D01*
X156011928Y-46900000D01*
X156011928Y-47948625D01*
X152255808Y-51704746D01*
X152227763Y-51727762D01*
X152135914Y-51839680D01*
X152069520Y-51963895D01*
X152067664Y-51967367D01*
X152025635Y-52105915D01*
X152011444Y-52250000D01*
X152015001Y-52286115D01*
X152015000Y-58021289D01*
X151946063Y-58090226D01*
X151832795Y-58259744D01*
X151754774Y-58448102D01*
X151715000Y-58648061D01*
X151715000Y-58851939D01*
X151754774Y-59051898D01*
X151832795Y-59240256D01*
X151946063Y-59409774D01*
X152090226Y-59553937D01*
X152259744Y-59667205D01*
X152448102Y-59745226D01*
X152648061Y-59785000D01*
X152851939Y-59785000D01*
X153051898Y-59745226D01*
X153240256Y-59667205D01*
X153409774Y-59553937D01*
X153553937Y-59409774D01*
X153667205Y-59240256D01*
X153745226Y-59051898D01*
X153785000Y-58851939D01*
X153785000Y-58648061D01*
X153745226Y-58448102D01*
X153667205Y-58259744D01*
X153553937Y-58090226D01*
X153485000Y-58021289D01*
X153485000Y-52554446D01*
X156013718Y-50025729D01*
X156009389Y-50108531D01*
X156051401Y-50398019D01*
X156149081Y-50673747D01*
X156222528Y-50811157D01*
X156471603Y-50888792D01*
X157320395Y-50040000D01*
X157679605Y-50040000D01*
X158528397Y-50888792D01*
X158770000Y-50813486D01*
X159011603Y-50888792D01*
X159860395Y-50040000D01*
X159011603Y-49191208D01*
X158770000Y-49266514D01*
X158528397Y-49191208D01*
X157679605Y-50040000D01*
X157320395Y-50040000D01*
X157306253Y-50025858D01*
X157485858Y-49846253D01*
X157500000Y-49860395D01*
X158348792Y-49011603D01*
X158330707Y-48953580D01*
X158439850Y-48920472D01*
X158593386Y-48838405D01*
X158727962Y-48727962D01*
X158838405Y-48593386D01*
X158906285Y-48466392D01*
X159093368Y-48653475D01*
X159266729Y-48769311D01*
X159191208Y-49011603D01*
X160040000Y-49860395D01*
X160054143Y-49846253D01*
X160233748Y-50025858D01*
X160219605Y-50040000D01*
X160233748Y-50054143D01*
X160054143Y-50233748D01*
X160040000Y-50219605D01*
X159191208Y-51068397D01*
X159266729Y-51310689D01*
X159093368Y-51426525D01*
X158886525Y-51633368D01*
X158770000Y-51807760D01*
X158653475Y-51633368D01*
X158446632Y-51426525D01*
X158273271Y-51310689D01*
X158348792Y-51068397D01*
X157500000Y-50219605D01*
X156651208Y-51068397D01*
X156726729Y-51310689D01*
X156553368Y-51426525D01*
X156346525Y-51633368D01*
X156184010Y-51876589D01*
X156072068Y-52146842D01*
X156015000Y-52433740D01*
X156015000Y-52726260D01*
X156072068Y-53013158D01*
X156184010Y-53283411D01*
X156346525Y-53526632D01*
X156553368Y-53733475D01*
X156727760Y-53850000D01*
X156553368Y-53966525D01*
X156346525Y-54173368D01*
X156184010Y-54416589D01*
X156072068Y-54686842D01*
X156015000Y-54973740D01*
X156015000Y-55266260D01*
X156072068Y-55553158D01*
X156184010Y-55823411D01*
X156346525Y-56066632D01*
X156553368Y-56273475D01*
X156727760Y-56390000D01*
X156553368Y-56506525D01*
X156346525Y-56713368D01*
X156184010Y-56956589D01*
X156072068Y-57226842D01*
X156015000Y-57513740D01*
X156015000Y-57806260D01*
X156072068Y-58093158D01*
X156184010Y-58363411D01*
X156346525Y-58606632D01*
X156553368Y-58813475D01*
X156796589Y-58975990D01*
X157066842Y-59087932D01*
X157353740Y-59145000D01*
X157646260Y-59145000D01*
X157933158Y-59087932D01*
X158203411Y-58975990D01*
X158446632Y-58813475D01*
X158653475Y-58606632D01*
X158770000Y-58432240D01*
X158886525Y-58606632D01*
X159093368Y-58813475D01*
X159336589Y-58975990D01*
X159606842Y-59087932D01*
X159893740Y-59145000D01*
X160186260Y-59145000D01*
X160473158Y-59087932D01*
X160743411Y-58975990D01*
X160840001Y-58911451D01*
X160840001Y-64970597D01*
X160768827Y-65768083D01*
X160565344Y-66511890D01*
X160233363Y-67207904D01*
X159783374Y-67834130D01*
X159229597Y-68370777D01*
X158589549Y-68800871D01*
X157883447Y-69110829D01*
X157128543Y-69292065D01*
X156475793Y-69340000D01*
X79029392Y-69340000D01*
X78231917Y-69268827D01*
X77488110Y-69065344D01*
X76792096Y-68733363D01*
X76165870Y-68283374D01*
X75629223Y-67729597D01*
X75374145Y-67350000D01*
X86511928Y-67350000D01*
X86524188Y-67474482D01*
X86560498Y-67594180D01*
X86619463Y-67704494D01*
X86698815Y-67801185D01*
X86795506Y-67880537D01*
X86905820Y-67939502D01*
X87025518Y-67975812D01*
X87150000Y-67988072D01*
X87714250Y-67985000D01*
X87873000Y-67826250D01*
X87873000Y-66627000D01*
X86673750Y-66627000D01*
X86515000Y-66785750D01*
X86511928Y-67350000D01*
X75374145Y-67350000D01*
X75199129Y-67089549D01*
X74889171Y-66383447D01*
X74713087Y-65650000D01*
X86511928Y-65650000D01*
X86515000Y-66214250D01*
X86673750Y-66373000D01*
X87873000Y-66373000D01*
X87873000Y-65173750D01*
X87714250Y-65015000D01*
X87150000Y-65011928D01*
X87025518Y-65024188D01*
X86905820Y-65060498D01*
X86795506Y-65119463D01*
X86698815Y-65198815D01*
X86619463Y-65295506D01*
X86560498Y-65405820D01*
X86524188Y-65525518D01*
X86511928Y-65650000D01*
X74713087Y-65650000D01*
X74707935Y-65628543D01*
X74660000Y-64975793D01*
X74660000Y-47900000D01*
X79431929Y-47900000D01*
X79431929Y-49100000D01*
X79448993Y-49273254D01*
X79499529Y-49439850D01*
X79581596Y-49593386D01*
X79692039Y-49727962D01*
X79826615Y-49838405D01*
X79980151Y-49920472D01*
X80146747Y-49971008D01*
X80320001Y-49988072D01*
X81520001Y-49988072D01*
X81693255Y-49971008D01*
X81859851Y-49920472D01*
X82013387Y-49838405D01*
X82147963Y-49727962D01*
X82258406Y-49593386D01*
X82340473Y-49439850D01*
X82373581Y-49330707D01*
X82431604Y-49348792D01*
X83280396Y-48500000D01*
X82431604Y-47651208D01*
X82373581Y-47669293D01*
X82340473Y-47560150D01*
X82258406Y-47406614D01*
X82147963Y-47272038D01*
X82013387Y-47161595D01*
X81886393Y-47093715D01*
X82073476Y-46906632D01*
X82190001Y-46732240D01*
X82306526Y-46906632D01*
X82513369Y-47113475D01*
X82686730Y-47229311D01*
X82611209Y-47471603D01*
X83460001Y-48320395D01*
X83474144Y-48306253D01*
X83653749Y-48485858D01*
X83639606Y-48500000D01*
X83653749Y-48514143D01*
X83474144Y-48693748D01*
X83460001Y-48679605D01*
X82611209Y-49528397D01*
X82688844Y-49777472D01*
X82952884Y-49903371D01*
X83236412Y-49975339D01*
X83528532Y-49990611D01*
X83818020Y-49948599D01*
X84093748Y-49850919D01*
X84231158Y-49777472D01*
X84284611Y-49605978D01*
X90226828Y-55548196D01*
X90249844Y-55576241D01*
X90352293Y-55660319D01*
X90361762Y-55668090D01*
X90489448Y-55736340D01*
X90627997Y-55778368D01*
X90765000Y-55791861D01*
X90765001Y-65030663D01*
X90686260Y-65015000D01*
X90393740Y-65015000D01*
X90106842Y-65072068D01*
X89836589Y-65184010D01*
X89593368Y-65346525D01*
X89461513Y-65478380D01*
X89439502Y-65405820D01*
X89380537Y-65295506D01*
X89301185Y-65198815D01*
X89204494Y-65119463D01*
X89094180Y-65060498D01*
X88974482Y-65024188D01*
X88850000Y-65011928D01*
X88285750Y-65015000D01*
X88127000Y-65173750D01*
X88127000Y-66373000D01*
X88147000Y-66373000D01*
X88147000Y-66627000D01*
X88127000Y-66627000D01*
X88127000Y-67826250D01*
X88285750Y-67985000D01*
X88850000Y-67988072D01*
X88974482Y-67975812D01*
X89094180Y-67939502D01*
X89204494Y-67880537D01*
X89301185Y-67801185D01*
X89380537Y-67704494D01*
X89439502Y-67594180D01*
X89461513Y-67521620D01*
X89593368Y-67653475D01*
X89836589Y-67815990D01*
X90106842Y-67927932D01*
X90393740Y-67985000D01*
X90686260Y-67985000D01*
X90973158Y-67927932D01*
X91243411Y-67815990D01*
X91486632Y-67653475D01*
X91693475Y-67446632D01*
X91810000Y-67272240D01*
X91926525Y-67446632D01*
X92133368Y-67653475D01*
X92376589Y-67815990D01*
X92646842Y-67927932D01*
X92933740Y-67985000D01*
X93226260Y-67985000D01*
X93513158Y-67927932D01*
X93783411Y-67815990D01*
X94026632Y-67653475D01*
X94233475Y-67446632D01*
X94350000Y-67272240D01*
X94466525Y-67446632D01*
X94673368Y-67653475D01*
X94916589Y-67815990D01*
X95186842Y-67927932D01*
X95473740Y-67985000D01*
X95766260Y-67985000D01*
X96053158Y-67927932D01*
X96323411Y-67815990D01*
X96566632Y-67653475D01*
X96773475Y-67446632D01*
X96890000Y-67272240D01*
X97006525Y-67446632D01*
X97213368Y-67653475D01*
X97456589Y-67815990D01*
X97726842Y-67927932D01*
X98013740Y-67985000D01*
X98306260Y-67985000D01*
X98593158Y-67927932D01*
X98863411Y-67815990D01*
X99106632Y-67653475D01*
X99313475Y-67446632D01*
X99378042Y-67350000D01*
X102471928Y-67350000D01*
X102484188Y-67474482D01*
X102520498Y-67594180D01*
X102579463Y-67704494D01*
X102658815Y-67801185D01*
X102755506Y-67880537D01*
X102865820Y-67939502D01*
X102985518Y-67975812D01*
X103110000Y-67988072D01*
X103674250Y-67985000D01*
X103833000Y-67826250D01*
X103833000Y-66627000D01*
X102633750Y-66627000D01*
X102475000Y-66785750D01*
X102471928Y-67350000D01*
X99378042Y-67350000D01*
X99475990Y-67203411D01*
X99587932Y-66933158D01*
X99645000Y-66646260D01*
X99645000Y-66353740D01*
X99587932Y-66066842D01*
X99475990Y-65796589D01*
X99378043Y-65650000D01*
X102471928Y-65650000D01*
X102475000Y-66214250D01*
X102633750Y-66373000D01*
X103833000Y-66373000D01*
X103833000Y-65173750D01*
X103674250Y-65015000D01*
X103110000Y-65011928D01*
X102985518Y-65024188D01*
X102865820Y-65060498D01*
X102755506Y-65119463D01*
X102658815Y-65198815D01*
X102579463Y-65295506D01*
X102520498Y-65405820D01*
X102484188Y-65525518D01*
X102471928Y-65650000D01*
X99378043Y-65650000D01*
X99313475Y-65553368D01*
X99106632Y-65346525D01*
X98863411Y-65184010D01*
X98593158Y-65072068D01*
X98306260Y-65015000D01*
X98013740Y-65015000D01*
X97726842Y-65072068D01*
X97456589Y-65184010D01*
X97213368Y-65346525D01*
X97006525Y-65553368D01*
X96890000Y-65727760D01*
X96773475Y-65553368D01*
X96566632Y-65346525D01*
X96355000Y-65205117D01*
X96355000Y-53804447D01*
X97124448Y-53035000D01*
X97221940Y-53035000D01*
X97421899Y-52995226D01*
X97610257Y-52917205D01*
X97779775Y-52803937D01*
X97923938Y-52659774D01*
X98037206Y-52490256D01*
X98115227Y-52301898D01*
X98155001Y-52101939D01*
X98155001Y-51898061D01*
X98115227Y-51698102D01*
X98037206Y-51509744D01*
X97923938Y-51340226D01*
X97779775Y-51196063D01*
X97610257Y-51082795D01*
X97421899Y-51004774D01*
X97221940Y-50965000D01*
X97018062Y-50965000D01*
X96818103Y-51004774D01*
X96629745Y-51082795D01*
X96460227Y-51196063D01*
X96316064Y-51340226D01*
X96202796Y-51509744D01*
X96124775Y-51698102D01*
X96085001Y-51898061D01*
X96085001Y-51995553D01*
X95125808Y-52954747D01*
X95097763Y-52977763D01*
X95005914Y-53089681D01*
X94976835Y-53144084D01*
X94937664Y-53217368D01*
X94895635Y-53355916D01*
X94881444Y-53500001D01*
X94885001Y-53536116D01*
X94885000Y-65205117D01*
X94673368Y-65346525D01*
X94466525Y-65553368D01*
X94350000Y-65727760D01*
X94233475Y-65553368D01*
X94026632Y-65346525D01*
X93815000Y-65205117D01*
X93815000Y-54021433D01*
X93936253Y-53971208D01*
X94105771Y-53857940D01*
X94249934Y-53713777D01*
X94363202Y-53544259D01*
X94441223Y-53355901D01*
X94480997Y-53155942D01*
X94480997Y-52952064D01*
X94441223Y-52752105D01*
X94363202Y-52563747D01*
X94249934Y-52394229D01*
X94105771Y-52250066D01*
X93936253Y-52136798D01*
X93747895Y-52058777D01*
X93547936Y-52019003D01*
X93344058Y-52019003D01*
X93144099Y-52058777D01*
X92955741Y-52136798D01*
X92786223Y-52250066D01*
X92642060Y-52394229D01*
X92528792Y-52563747D01*
X92450771Y-52752105D01*
X92410997Y-52952064D01*
X92410997Y-53112423D01*
X92397664Y-53137367D01*
X92355635Y-53275915D01*
X92343473Y-53399396D01*
X92303937Y-53340226D01*
X92159774Y-53196063D01*
X91990256Y-53082795D01*
X91801898Y-53004774D01*
X91601939Y-52965000D01*
X91504447Y-52965000D01*
X88524446Y-49985000D01*
X88686261Y-49985000D01*
X88973159Y-49927932D01*
X89243412Y-49815990D01*
X89486633Y-49653475D01*
X89611711Y-49528397D01*
X90231209Y-49528397D01*
X90308844Y-49777472D01*
X90572884Y-49903371D01*
X90856412Y-49975339D01*
X91148532Y-49990611D01*
X91438020Y-49948599D01*
X91713748Y-49850919D01*
X91851158Y-49777472D01*
X91928793Y-49528397D01*
X91080001Y-48679605D01*
X90231209Y-49528397D01*
X89611711Y-49528397D01*
X89693476Y-49446632D01*
X89809312Y-49273271D01*
X90051604Y-49348792D01*
X90900396Y-48500000D01*
X91259606Y-48500000D01*
X92108398Y-49348792D01*
X92357473Y-49271157D01*
X92483372Y-49007117D01*
X92555340Y-48723589D01*
X92570612Y-48431469D01*
X92528600Y-48141981D01*
X92430920Y-47866253D01*
X92357473Y-47728843D01*
X92200771Y-47680000D01*
X101511928Y-47680000D01*
X101511928Y-48880000D01*
X101528992Y-49053254D01*
X101579528Y-49219850D01*
X101661595Y-49373386D01*
X101772038Y-49507962D01*
X101906614Y-49618405D01*
X102060150Y-49700472D01*
X102115000Y-49717111D01*
X102115001Y-55961544D01*
X102082795Y-56009744D01*
X102004774Y-56198102D01*
X101965000Y-56398061D01*
X101965000Y-56601939D01*
X102004774Y-56801898D01*
X102082795Y-56990256D01*
X102196063Y-57159774D01*
X102340226Y-57303937D01*
X102509744Y-57417205D01*
X102698102Y-57495226D01*
X102898061Y-57535000D01*
X103101939Y-57535000D01*
X103301898Y-57495226D01*
X103490256Y-57417205D01*
X103659774Y-57303937D01*
X103803937Y-57159774D01*
X103917205Y-56990256D01*
X103995226Y-56801898D01*
X104035000Y-56601939D01*
X104035000Y-56398061D01*
X103995226Y-56198102D01*
X103917205Y-56009744D01*
X103885000Y-55961546D01*
X103885000Y-49717110D01*
X103939850Y-49700472D01*
X104093386Y-49618405D01*
X104227962Y-49507962D01*
X104338405Y-49373386D01*
X104406285Y-49246392D01*
X104593368Y-49433475D01*
X104836589Y-49595990D01*
X105106842Y-49707932D01*
X105393740Y-49765000D01*
X105686260Y-49765000D01*
X105973158Y-49707932D01*
X106243411Y-49595990D01*
X106486632Y-49433475D01*
X106693475Y-49226632D01*
X106810000Y-49052240D01*
X106926525Y-49226632D01*
X107133368Y-49433475D01*
X107376589Y-49595990D01*
X107646842Y-49707932D01*
X107933740Y-49765000D01*
X108226260Y-49765000D01*
X108513158Y-49707932D01*
X108783411Y-49595990D01*
X109026632Y-49433475D01*
X109233475Y-49226632D01*
X109350000Y-49052240D01*
X109466525Y-49226632D01*
X109673368Y-49433475D01*
X109885000Y-49574883D01*
X109885001Y-52259294D01*
X109750066Y-52394229D01*
X109636798Y-52563747D01*
X109558777Y-52752105D01*
X109519003Y-52952064D01*
X109519003Y-53049556D01*
X108545808Y-54022752D01*
X108517763Y-54045768D01*
X108425914Y-54157686D01*
X108376536Y-54250066D01*
X108357664Y-54285373D01*
X108315635Y-54423921D01*
X108301444Y-54568006D01*
X108305001Y-54604121D01*
X108305000Y-65205117D01*
X108093368Y-65346525D01*
X107886525Y-65553368D01*
X107770000Y-65727760D01*
X107653475Y-65553368D01*
X107446632Y-65346525D01*
X107235000Y-65205117D01*
X107235000Y-55974475D01*
X107247765Y-55965946D01*
X107391928Y-55821783D01*
X107505196Y-55652265D01*
X107583217Y-55463907D01*
X107622991Y-55263948D01*
X107622991Y-55060070D01*
X107583217Y-54860111D01*
X107505196Y-54671753D01*
X107391928Y-54502235D01*
X107247765Y-54358072D01*
X107078247Y-54244804D01*
X106889889Y-54166783D01*
X106689930Y-54127009D01*
X106486052Y-54127009D01*
X106286093Y-54166783D01*
X106097735Y-54244804D01*
X105928217Y-54358072D01*
X105784054Y-54502235D01*
X105670786Y-54671753D01*
X105592765Y-54860111D01*
X105552991Y-55060070D01*
X105552991Y-55263948D01*
X105592765Y-55463907D01*
X105670786Y-55652265D01*
X105765001Y-55793268D01*
X105765000Y-65205117D01*
X105553368Y-65346525D01*
X105421513Y-65478380D01*
X105399502Y-65405820D01*
X105340537Y-65295506D01*
X105261185Y-65198815D01*
X105164494Y-65119463D01*
X105054180Y-65060498D01*
X104934482Y-65024188D01*
X104810000Y-65011928D01*
X104245750Y-65015000D01*
X104087000Y-65173750D01*
X104087000Y-66373000D01*
X104107000Y-66373000D01*
X104107000Y-66627000D01*
X104087000Y-66627000D01*
X104087000Y-67826250D01*
X104245750Y-67985000D01*
X104810000Y-67988072D01*
X104934482Y-67975812D01*
X105054180Y-67939502D01*
X105164494Y-67880537D01*
X105261185Y-67801185D01*
X105340537Y-67704494D01*
X105399502Y-67594180D01*
X105421513Y-67521620D01*
X105553368Y-67653475D01*
X105796589Y-67815990D01*
X106066842Y-67927932D01*
X106353740Y-67985000D01*
X106646260Y-67985000D01*
X106933158Y-67927932D01*
X107203411Y-67815990D01*
X107446632Y-67653475D01*
X107653475Y-67446632D01*
X107770000Y-67272240D01*
X107886525Y-67446632D01*
X108093368Y-67653475D01*
X108336589Y-67815990D01*
X108606842Y-67927932D01*
X108893740Y-67985000D01*
X109186260Y-67985000D01*
X109473158Y-67927932D01*
X109743411Y-67815990D01*
X109986632Y-67653475D01*
X110193475Y-67446632D01*
X110310000Y-67272240D01*
X110426525Y-67446632D01*
X110633368Y-67653475D01*
X110876589Y-67815990D01*
X111146842Y-67927932D01*
X111433740Y-67985000D01*
X111726260Y-67985000D01*
X112013158Y-67927932D01*
X112283411Y-67815990D01*
X112526632Y-67653475D01*
X112733475Y-67446632D01*
X112895990Y-67203411D01*
X113007932Y-66933158D01*
X113065000Y-66646260D01*
X113065000Y-66353740D01*
X113007932Y-66066842D01*
X112895990Y-65796589D01*
X112733475Y-65553368D01*
X112570107Y-65390000D01*
X118471928Y-65390000D01*
X118484188Y-65514482D01*
X118520498Y-65634180D01*
X118579463Y-65744494D01*
X118658815Y-65841185D01*
X118755506Y-65920537D01*
X118865820Y-65979502D01*
X118985518Y-66015812D01*
X119110000Y-66028072D01*
X119674250Y-66025000D01*
X119833000Y-65866250D01*
X119833000Y-64667000D01*
X118633750Y-64667000D01*
X118475000Y-64825750D01*
X118471928Y-65390000D01*
X112570107Y-65390000D01*
X112526632Y-65346525D01*
X112283411Y-65184010D01*
X112013158Y-65072068D01*
X111726260Y-65015000D01*
X111433740Y-65015000D01*
X111146842Y-65072068D01*
X110876589Y-65184010D01*
X110633368Y-65346525D01*
X110426525Y-65553368D01*
X110310000Y-65727760D01*
X110193475Y-65553368D01*
X109986632Y-65346525D01*
X109775000Y-65205117D01*
X109775000Y-54872452D01*
X110558450Y-54089003D01*
X110655942Y-54089003D01*
X110855901Y-54049229D01*
X111044259Y-53971208D01*
X111213777Y-53857940D01*
X111357940Y-53713777D01*
X111471208Y-53544259D01*
X111549229Y-53355901D01*
X111589003Y-53155942D01*
X111589003Y-52952064D01*
X111549229Y-52752105D01*
X111471208Y-52563747D01*
X111357940Y-52394229D01*
X111355000Y-52391289D01*
X111355000Y-49574883D01*
X111566632Y-49433475D01*
X111773475Y-49226632D01*
X111890000Y-49052240D01*
X112006525Y-49226632D01*
X112213368Y-49433475D01*
X112425000Y-49574883D01*
X112425001Y-54435306D01*
X112358072Y-54502235D01*
X112244804Y-54671753D01*
X112166783Y-54860111D01*
X112127009Y-55060070D01*
X112127009Y-55263948D01*
X112166783Y-55463907D01*
X112244804Y-55652265D01*
X112358072Y-55821783D01*
X112502235Y-55965946D01*
X112671753Y-56079214D01*
X112860111Y-56157235D01*
X113060070Y-56197009D01*
X113117563Y-56197009D01*
X118524656Y-61604103D01*
X118475000Y-61853740D01*
X118475000Y-62146260D01*
X118532068Y-62433158D01*
X118644010Y-62703411D01*
X118806525Y-62946632D01*
X118938380Y-63078487D01*
X118865820Y-63100498D01*
X118755506Y-63159463D01*
X118658815Y-63238815D01*
X118579463Y-63335506D01*
X118520498Y-63445820D01*
X118484188Y-63565518D01*
X118471928Y-63690000D01*
X118475000Y-64254250D01*
X118633750Y-64413000D01*
X119833000Y-64413000D01*
X119833000Y-64393000D01*
X120087000Y-64393000D01*
X120087000Y-64413000D01*
X120107000Y-64413000D01*
X120107000Y-64667000D01*
X120087000Y-64667000D01*
X120087000Y-65866250D01*
X120245750Y-66025000D01*
X120810000Y-66028072D01*
X120934482Y-66015812D01*
X121054180Y-65979502D01*
X121164494Y-65920537D01*
X121261185Y-65841185D01*
X121340537Y-65744494D01*
X121399502Y-65634180D01*
X121421513Y-65561620D01*
X121553368Y-65693475D01*
X121796589Y-65855990D01*
X122066842Y-65967932D01*
X122353740Y-66025000D01*
X122646260Y-66025000D01*
X122933158Y-65967932D01*
X123203411Y-65855990D01*
X123446632Y-65693475D01*
X123653475Y-65486632D01*
X123770000Y-65312240D01*
X123886525Y-65486632D01*
X124093368Y-65693475D01*
X124336589Y-65855990D01*
X124606842Y-65967932D01*
X124893740Y-66025000D01*
X125186260Y-66025000D01*
X125473158Y-65967932D01*
X125743411Y-65855990D01*
X125986632Y-65693475D01*
X126193475Y-65486632D01*
X126355990Y-65243411D01*
X126467932Y-64973158D01*
X126525000Y-64686260D01*
X126525000Y-64393740D01*
X126475344Y-64144103D01*
X126738198Y-63881249D01*
X126766238Y-63858237D01*
X126789251Y-63830196D01*
X126789254Y-63830193D01*
X126858088Y-63746319D01*
X126926338Y-63618633D01*
X126968366Y-63480084D01*
X126982557Y-63335999D01*
X126979001Y-63299894D01*
X126979001Y-62150000D01*
X135511928Y-62150000D01*
X135511928Y-63850000D01*
X135524188Y-63974482D01*
X135560498Y-64094180D01*
X135619463Y-64204494D01*
X135698815Y-64301185D01*
X135795506Y-64380537D01*
X135905820Y-64439502D01*
X135978380Y-64461513D01*
X135846525Y-64593368D01*
X135684010Y-64836589D01*
X135572068Y-65106842D01*
X135515000Y-65393740D01*
X135515000Y-65686260D01*
X135572068Y-65973158D01*
X135684010Y-66243411D01*
X135846525Y-66486632D01*
X136053368Y-66693475D01*
X136296589Y-66855990D01*
X136566842Y-66967932D01*
X136853740Y-67025000D01*
X137146260Y-67025000D01*
X137433158Y-66967932D01*
X137703411Y-66855990D01*
X137946632Y-66693475D01*
X138153475Y-66486632D01*
X138315990Y-66243411D01*
X138427932Y-65973158D01*
X138485000Y-65686260D01*
X138485000Y-65393740D01*
X138427932Y-65106842D01*
X138315990Y-64836589D01*
X138153475Y-64593368D01*
X138021620Y-64461513D01*
X138094180Y-64439502D01*
X138204494Y-64380537D01*
X138301185Y-64301185D01*
X138380537Y-64204494D01*
X138439502Y-64094180D01*
X138475812Y-63974482D01*
X138488072Y-63850000D01*
X138488072Y-62150000D01*
X138475812Y-62025518D01*
X138439502Y-61905820D01*
X138380537Y-61795506D01*
X138301185Y-61698815D01*
X138204494Y-61619463D01*
X138094180Y-61560498D01*
X137974482Y-61524188D01*
X137850000Y-61511928D01*
X136150000Y-61511928D01*
X136025518Y-61524188D01*
X135905820Y-61560498D01*
X135795506Y-61619463D01*
X135698815Y-61698815D01*
X135619463Y-61795506D01*
X135560498Y-61905820D01*
X135524188Y-62025518D01*
X135511928Y-62150000D01*
X126979001Y-62150000D01*
X126979001Y-54667420D01*
X127025211Y-54598262D01*
X127103232Y-54409904D01*
X127143006Y-54209945D01*
X127143006Y-54006067D01*
X127103232Y-53806108D01*
X127025211Y-53617750D01*
X126911943Y-53448232D01*
X126767780Y-53304069D01*
X126598262Y-53190801D01*
X126409904Y-53112780D01*
X126209945Y-53073006D01*
X126006067Y-53073006D01*
X125806108Y-53112780D01*
X125617750Y-53190801D01*
X125448232Y-53304069D01*
X125304069Y-53448232D01*
X125190801Y-53617750D01*
X125112780Y-53806108D01*
X125073006Y-54006067D01*
X125073006Y-54209945D01*
X125112780Y-54409904D01*
X125190801Y-54598262D01*
X125304069Y-54767780D01*
X125448232Y-54911943D01*
X125509002Y-54952548D01*
X125509001Y-60586915D01*
X125473158Y-60572068D01*
X125186260Y-60515000D01*
X124893740Y-60515000D01*
X124606842Y-60572068D01*
X124336589Y-60684010D01*
X124093368Y-60846525D01*
X123886525Y-61053368D01*
X123770000Y-61227760D01*
X123653475Y-61053368D01*
X123446632Y-60846525D01*
X123235000Y-60705117D01*
X123235000Y-52728711D01*
X123303937Y-52659774D01*
X123417205Y-52490256D01*
X123495226Y-52301898D01*
X123535000Y-52101939D01*
X123535000Y-51898061D01*
X123495226Y-51698102D01*
X123417205Y-51509744D01*
X123303937Y-51340226D01*
X123159774Y-51196063D01*
X122990256Y-51082795D01*
X122801898Y-51004774D01*
X122601939Y-50965000D01*
X122398061Y-50965000D01*
X122198102Y-51004774D01*
X122009744Y-51082795D01*
X121840226Y-51196063D01*
X121696063Y-51340226D01*
X121582795Y-51509744D01*
X121504774Y-51698102D01*
X121465000Y-51898061D01*
X121465000Y-52040696D01*
X121355942Y-52019003D01*
X121152064Y-52019003D01*
X120952105Y-52058777D01*
X120763747Y-52136798D01*
X120594229Y-52250066D01*
X120450066Y-52394229D01*
X120336798Y-52563747D01*
X120258777Y-52752105D01*
X120219003Y-52952064D01*
X120219003Y-53155942D01*
X120258777Y-53355901D01*
X120336798Y-53544259D01*
X120450066Y-53713777D01*
X120561000Y-53824711D01*
X120560999Y-60641590D01*
X120393158Y-60572068D01*
X120106260Y-60515000D01*
X119813740Y-60515000D01*
X119564103Y-60564656D01*
X114197009Y-55197563D01*
X114197009Y-55060070D01*
X114157235Y-54860111D01*
X114079214Y-54671753D01*
X113965946Y-54502235D01*
X113895000Y-54431289D01*
X113895000Y-49574883D01*
X114106632Y-49433475D01*
X114313475Y-49226632D01*
X114430000Y-49052240D01*
X114546525Y-49226632D01*
X114753368Y-49433475D01*
X114996589Y-49595990D01*
X115266842Y-49707932D01*
X115553740Y-49765000D01*
X115846260Y-49765000D01*
X116133158Y-49707932D01*
X116403411Y-49595990D01*
X116646632Y-49433475D01*
X116853475Y-49226632D01*
X116970000Y-49052240D01*
X117086525Y-49226632D01*
X117293368Y-49433475D01*
X117505000Y-49574883D01*
X117505001Y-53572535D01*
X117474789Y-53617750D01*
X117396768Y-53806108D01*
X117356994Y-54006067D01*
X117356994Y-54209945D01*
X117396768Y-54409904D01*
X117474789Y-54598262D01*
X117588057Y-54767780D01*
X117732220Y-54911943D01*
X117901738Y-55025211D01*
X118090096Y-55103232D01*
X118290055Y-55143006D01*
X118493933Y-55143006D01*
X118693892Y-55103232D01*
X118882250Y-55025211D01*
X119051768Y-54911943D01*
X119195931Y-54767780D01*
X119309199Y-54598262D01*
X119387220Y-54409904D01*
X119426994Y-54209945D01*
X119426994Y-54006067D01*
X119387220Y-53806108D01*
X119309199Y-53617750D01*
X119195931Y-53448232D01*
X119051768Y-53304069D01*
X118975000Y-53252774D01*
X118975000Y-49574883D01*
X119186632Y-49433475D01*
X119393475Y-49226632D01*
X119510000Y-49052240D01*
X119626525Y-49226632D01*
X119833368Y-49433475D01*
X120076589Y-49595990D01*
X120346842Y-49707932D01*
X120633740Y-49765000D01*
X120926260Y-49765000D01*
X121213158Y-49707932D01*
X121483411Y-49595990D01*
X121726632Y-49433475D01*
X121933475Y-49226632D01*
X122050000Y-49052240D01*
X122166525Y-49226632D01*
X122373368Y-49433475D01*
X122616589Y-49595990D01*
X122886842Y-49707932D01*
X123173740Y-49765000D01*
X123466260Y-49765000D01*
X123753158Y-49707932D01*
X124023411Y-49595990D01*
X124266632Y-49433475D01*
X124473475Y-49226632D01*
X124590000Y-49052240D01*
X124706525Y-49226632D01*
X124913368Y-49433475D01*
X125156589Y-49595990D01*
X125426842Y-49707932D01*
X125713740Y-49765000D01*
X126006260Y-49765000D01*
X126293158Y-49707932D01*
X126563411Y-49595990D01*
X126806632Y-49433475D01*
X127013475Y-49226632D01*
X127175990Y-48983411D01*
X127287932Y-48713158D01*
X127345000Y-48426260D01*
X127345000Y-48133740D01*
X127287932Y-47846842D01*
X127206398Y-47650000D01*
X136511928Y-47650000D01*
X136511928Y-48850000D01*
X136528992Y-49023254D01*
X136579528Y-49189850D01*
X136661595Y-49343386D01*
X136772038Y-49477962D01*
X136906614Y-49588405D01*
X137060150Y-49670472D01*
X137226746Y-49721008D01*
X137400000Y-49738072D01*
X138515001Y-49738072D01*
X138515000Y-52271289D01*
X138446063Y-52340226D01*
X138332795Y-52509744D01*
X138254774Y-52698102D01*
X138215000Y-52898061D01*
X138215000Y-53101939D01*
X138254774Y-53301898D01*
X138332795Y-53490256D01*
X138446063Y-53659774D01*
X138556382Y-53770093D01*
X138153892Y-54172583D01*
X138139889Y-54166783D01*
X137939930Y-54127009D01*
X137736052Y-54127009D01*
X137536093Y-54166783D01*
X137347735Y-54244804D01*
X137178217Y-54358072D01*
X137034054Y-54502235D01*
X136920786Y-54671753D01*
X136842765Y-54860111D01*
X136802991Y-55060070D01*
X136802991Y-55263948D01*
X136842765Y-55463907D01*
X136920786Y-55652265D01*
X137034054Y-55821783D01*
X137178217Y-55965946D01*
X137347735Y-56079214D01*
X137536093Y-56157235D01*
X137736052Y-56197009D01*
X137939930Y-56197009D01*
X138139889Y-56157235D01*
X138328247Y-56079214D01*
X138497765Y-55965946D01*
X138641928Y-55821783D01*
X138755196Y-55652265D01*
X138756676Y-55648692D01*
X142345001Y-52060368D01*
X142345001Y-53407300D01*
X142304069Y-53448232D01*
X142190801Y-53617750D01*
X142112780Y-53806108D01*
X142073006Y-54006067D01*
X142073006Y-54209945D01*
X142112780Y-54409904D01*
X142190801Y-54598262D01*
X142304069Y-54767780D01*
X142392355Y-54856066D01*
X141754957Y-55493465D01*
X141698102Y-55504774D01*
X141509744Y-55582795D01*
X141340226Y-55696063D01*
X141196063Y-55840226D01*
X141082795Y-56009744D01*
X141004774Y-56198102D01*
X140965000Y-56398061D01*
X140965000Y-56601939D01*
X141004774Y-56801898D01*
X141082795Y-56990256D01*
X141196063Y-57159774D01*
X141340226Y-57303937D01*
X141509744Y-57417205D01*
X141698102Y-57495226D01*
X141898061Y-57535000D01*
X142101939Y-57535000D01*
X142301898Y-57495226D01*
X142490256Y-57417205D01*
X142659774Y-57303937D01*
X142803937Y-57159774D01*
X142917205Y-56990256D01*
X142995226Y-56801898D01*
X143006535Y-56745043D01*
X146215049Y-53536530D01*
X146248817Y-53508817D01*
X146285334Y-53464322D01*
X146359410Y-53374060D01*
X146359411Y-53374059D01*
X146441589Y-53220313D01*
X146492195Y-53053490D01*
X146505000Y-52923477D01*
X146505000Y-52923467D01*
X146509281Y-52880001D01*
X146505000Y-52836535D01*
X146505000Y-49444656D01*
X146566632Y-49403475D01*
X146773475Y-49196632D01*
X146890000Y-49022240D01*
X147006525Y-49196632D01*
X147213368Y-49403475D01*
X147456589Y-49565990D01*
X147726842Y-49677932D01*
X148013740Y-49735000D01*
X148306260Y-49735000D01*
X148593158Y-49677932D01*
X148863411Y-49565990D01*
X149106632Y-49403475D01*
X149313475Y-49196632D01*
X149475990Y-48953411D01*
X149587932Y-48683158D01*
X149645000Y-48396260D01*
X149645000Y-48103740D01*
X149587932Y-47816842D01*
X149475990Y-47546589D01*
X149313475Y-47303368D01*
X149106632Y-47096525D01*
X148932240Y-46980000D01*
X149106632Y-46863475D01*
X149313475Y-46656632D01*
X149475990Y-46413411D01*
X149587932Y-46143158D01*
X149645000Y-45856260D01*
X149645000Y-45563740D01*
X149587932Y-45276842D01*
X149475990Y-45006589D01*
X149313475Y-44763368D01*
X149106632Y-44556525D01*
X148863411Y-44394010D01*
X148593158Y-44282068D01*
X148306260Y-44225000D01*
X148013740Y-44225000D01*
X147726842Y-44282068D01*
X147456589Y-44394010D01*
X147213368Y-44556525D01*
X147006525Y-44763368D01*
X146890000Y-44937760D01*
X146773475Y-44763368D01*
X146566632Y-44556525D01*
X146323411Y-44394010D01*
X146053158Y-44282068D01*
X145766260Y-44225000D01*
X145473740Y-44225000D01*
X145186842Y-44282068D01*
X144916589Y-44394010D01*
X144673368Y-44556525D01*
X144466525Y-44763368D01*
X144350000Y-44937760D01*
X144233475Y-44763368D01*
X144026632Y-44556525D01*
X143783411Y-44394010D01*
X143513158Y-44282068D01*
X143226260Y-44225000D01*
X142933740Y-44225000D01*
X142646842Y-44282068D01*
X142376589Y-44394010D01*
X142133368Y-44556525D01*
X141926525Y-44763368D01*
X141810689Y-44936729D01*
X141568397Y-44861208D01*
X140719605Y-45710000D01*
X140733748Y-45724143D01*
X140554143Y-45903748D01*
X140540000Y-45889605D01*
X140525858Y-45903748D01*
X140346253Y-45724143D01*
X140360395Y-45710000D01*
X139511603Y-44861208D01*
X139269311Y-44936729D01*
X139153475Y-44763368D01*
X139071710Y-44681603D01*
X139691208Y-44681603D01*
X140540000Y-45530395D01*
X141388792Y-44681603D01*
X141311157Y-44432528D01*
X141047117Y-44306629D01*
X140763589Y-44234661D01*
X140471469Y-44219389D01*
X140181981Y-44261401D01*
X139906253Y-44359081D01*
X139768843Y-44432528D01*
X139691208Y-44681603D01*
X139071710Y-44681603D01*
X138946632Y-44556525D01*
X138703411Y-44394010D01*
X138433158Y-44282068D01*
X138146260Y-44225000D01*
X137853740Y-44225000D01*
X137566842Y-44282068D01*
X137296589Y-44394010D01*
X137053368Y-44556525D01*
X136846525Y-44763368D01*
X136684010Y-45006589D01*
X136572068Y-45276842D01*
X136515000Y-45563740D01*
X136515000Y-45856260D01*
X136572068Y-46143158D01*
X136684010Y-46413411D01*
X136846525Y-46656632D01*
X137033608Y-46843715D01*
X136906614Y-46911595D01*
X136772038Y-47022038D01*
X136661595Y-47156614D01*
X136579528Y-47310150D01*
X136528992Y-47476746D01*
X136511928Y-47650000D01*
X127206398Y-47650000D01*
X127175990Y-47576589D01*
X127013475Y-47333368D01*
X126806632Y-47126525D01*
X126633271Y-47010689D01*
X126708792Y-46768397D01*
X125860000Y-45919605D01*
X125011208Y-46768397D01*
X125086729Y-47010689D01*
X124913368Y-47126525D01*
X124706525Y-47333368D01*
X124590000Y-47507760D01*
X124473475Y-47333368D01*
X124266632Y-47126525D01*
X124093271Y-47010689D01*
X124168792Y-46768397D01*
X123320000Y-45919605D01*
X122471208Y-46768397D01*
X122546729Y-47010689D01*
X122373368Y-47126525D01*
X122166525Y-47333368D01*
X122050000Y-47507760D01*
X121933475Y-47333368D01*
X121726632Y-47126525D01*
X121553271Y-47010689D01*
X121628792Y-46768397D01*
X120780000Y-45919605D01*
X119931208Y-46768397D01*
X120006729Y-47010689D01*
X119833368Y-47126525D01*
X119626525Y-47333368D01*
X119510000Y-47507760D01*
X119393475Y-47333368D01*
X119186632Y-47126525D01*
X119013271Y-47010689D01*
X119088792Y-46768397D01*
X118240000Y-45919605D01*
X117391208Y-46768397D01*
X117466729Y-47010689D01*
X117293368Y-47126525D01*
X117086525Y-47333368D01*
X116970000Y-47507760D01*
X116853475Y-47333368D01*
X116646632Y-47126525D01*
X116473271Y-47010689D01*
X116548792Y-46768397D01*
X115700000Y-45919605D01*
X114851208Y-46768397D01*
X114926729Y-47010689D01*
X114753368Y-47126525D01*
X114546525Y-47333368D01*
X114430000Y-47507760D01*
X114313475Y-47333368D01*
X114106632Y-47126525D01*
X113933271Y-47010689D01*
X114008792Y-46768397D01*
X113160000Y-45919605D01*
X112311208Y-46768397D01*
X112386729Y-47010689D01*
X112213368Y-47126525D01*
X112006525Y-47333368D01*
X111890000Y-47507760D01*
X111773475Y-47333368D01*
X111566632Y-47126525D01*
X111393271Y-47010689D01*
X111468792Y-46768397D01*
X110620000Y-45919605D01*
X109771208Y-46768397D01*
X109846729Y-47010689D01*
X109673368Y-47126525D01*
X109466525Y-47333368D01*
X109350000Y-47507760D01*
X109233475Y-47333368D01*
X109026632Y-47126525D01*
X108853271Y-47010689D01*
X108928792Y-46768397D01*
X108080000Y-45919605D01*
X107231208Y-46768397D01*
X107306729Y-47010689D01*
X107133368Y-47126525D01*
X106926525Y-47333368D01*
X106810000Y-47507760D01*
X106693475Y-47333368D01*
X106486632Y-47126525D01*
X106313271Y-47010689D01*
X106388792Y-46768397D01*
X105540000Y-45919605D01*
X104691208Y-46768397D01*
X104766729Y-47010689D01*
X104593368Y-47126525D01*
X104406285Y-47313608D01*
X104338405Y-47186614D01*
X104227962Y-47052038D01*
X104093386Y-46941595D01*
X103966392Y-46873715D01*
X104153475Y-46686632D01*
X104269311Y-46513271D01*
X104511603Y-46588792D01*
X105360395Y-45740000D01*
X105719605Y-45740000D01*
X106568397Y-46588792D01*
X106810000Y-46513486D01*
X107051603Y-46588792D01*
X107900395Y-45740000D01*
X108259605Y-45740000D01*
X109108397Y-46588792D01*
X109350000Y-46513486D01*
X109591603Y-46588792D01*
X110440395Y-45740000D01*
X110799605Y-45740000D01*
X111648397Y-46588792D01*
X111890000Y-46513486D01*
X112131603Y-46588792D01*
X112980395Y-45740000D01*
X113339605Y-45740000D01*
X114188397Y-46588792D01*
X114430000Y-46513486D01*
X114671603Y-46588792D01*
X115520395Y-45740000D01*
X115879605Y-45740000D01*
X116728397Y-46588792D01*
X116970000Y-46513486D01*
X117211603Y-46588792D01*
X118060395Y-45740000D01*
X118419605Y-45740000D01*
X119268397Y-46588792D01*
X119510000Y-46513486D01*
X119751603Y-46588792D01*
X120600395Y-45740000D01*
X120959605Y-45740000D01*
X121808397Y-46588792D01*
X122050000Y-46513486D01*
X122291603Y-46588792D01*
X123140395Y-45740000D01*
X123499605Y-45740000D01*
X124348397Y-46588792D01*
X124590000Y-46513486D01*
X124831603Y-46588792D01*
X125680395Y-45740000D01*
X126039605Y-45740000D01*
X126888397Y-46588792D01*
X127137472Y-46511157D01*
X127263371Y-46247117D01*
X127335339Y-45963589D01*
X127350611Y-45671469D01*
X127308599Y-45381981D01*
X127210919Y-45106253D01*
X127137472Y-44968843D01*
X126888397Y-44891208D01*
X126039605Y-45740000D01*
X125680395Y-45740000D01*
X124831603Y-44891208D01*
X124590000Y-44966514D01*
X124348397Y-44891208D01*
X123499605Y-45740000D01*
X123140395Y-45740000D01*
X122291603Y-44891208D01*
X122050000Y-44966514D01*
X121808397Y-44891208D01*
X120959605Y-45740000D01*
X120600395Y-45740000D01*
X119751603Y-44891208D01*
X119510000Y-44966514D01*
X119268397Y-44891208D01*
X118419605Y-45740000D01*
X118060395Y-45740000D01*
X117211603Y-44891208D01*
X116970000Y-44966514D01*
X116728397Y-44891208D01*
X115879605Y-45740000D01*
X115520395Y-45740000D01*
X114671603Y-44891208D01*
X114430000Y-44966514D01*
X114188397Y-44891208D01*
X113339605Y-45740000D01*
X112980395Y-45740000D01*
X112131603Y-44891208D01*
X111890000Y-44966514D01*
X111648397Y-44891208D01*
X110799605Y-45740000D01*
X110440395Y-45740000D01*
X109591603Y-44891208D01*
X109350000Y-44966514D01*
X109108397Y-44891208D01*
X108259605Y-45740000D01*
X107900395Y-45740000D01*
X107051603Y-44891208D01*
X106810000Y-44966514D01*
X106568397Y-44891208D01*
X105719605Y-45740000D01*
X105360395Y-45740000D01*
X104511603Y-44891208D01*
X104269311Y-44966729D01*
X104153475Y-44793368D01*
X104071710Y-44711603D01*
X104691208Y-44711603D01*
X105540000Y-45560395D01*
X106388792Y-44711603D01*
X107231208Y-44711603D01*
X108080000Y-45560395D01*
X108928792Y-44711603D01*
X109771208Y-44711603D01*
X110620000Y-45560395D01*
X111468792Y-44711603D01*
X112311208Y-44711603D01*
X113160000Y-45560395D01*
X114008792Y-44711603D01*
X114851208Y-44711603D01*
X115700000Y-45560395D01*
X116548792Y-44711603D01*
X117391208Y-44711603D01*
X118240000Y-45560395D01*
X119088792Y-44711603D01*
X119931208Y-44711603D01*
X120780000Y-45560395D01*
X121628792Y-44711603D01*
X122471208Y-44711603D01*
X123320000Y-45560395D01*
X124168792Y-44711603D01*
X125011208Y-44711603D01*
X125860000Y-45560395D01*
X126708792Y-44711603D01*
X126631157Y-44462528D01*
X126367117Y-44336629D01*
X126083589Y-44264661D01*
X125791469Y-44249389D01*
X125501981Y-44291401D01*
X125226253Y-44389081D01*
X125088843Y-44462528D01*
X125011208Y-44711603D01*
X124168792Y-44711603D01*
X124091157Y-44462528D01*
X123827117Y-44336629D01*
X123543589Y-44264661D01*
X123251469Y-44249389D01*
X122961981Y-44291401D01*
X122686253Y-44389081D01*
X122548843Y-44462528D01*
X122471208Y-44711603D01*
X121628792Y-44711603D01*
X121551157Y-44462528D01*
X121287117Y-44336629D01*
X121003589Y-44264661D01*
X120711469Y-44249389D01*
X120421981Y-44291401D01*
X120146253Y-44389081D01*
X120008843Y-44462528D01*
X119931208Y-44711603D01*
X119088792Y-44711603D01*
X119011157Y-44462528D01*
X118747117Y-44336629D01*
X118463589Y-44264661D01*
X118171469Y-44249389D01*
X117881981Y-44291401D01*
X117606253Y-44389081D01*
X117468843Y-44462528D01*
X117391208Y-44711603D01*
X116548792Y-44711603D01*
X116471157Y-44462528D01*
X116207117Y-44336629D01*
X115923589Y-44264661D01*
X115631469Y-44249389D01*
X115341981Y-44291401D01*
X115066253Y-44389081D01*
X114928843Y-44462528D01*
X114851208Y-44711603D01*
X114008792Y-44711603D01*
X113931157Y-44462528D01*
X113667117Y-44336629D01*
X113383589Y-44264661D01*
X113091469Y-44249389D01*
X112801981Y-44291401D01*
X112526253Y-44389081D01*
X112388843Y-44462528D01*
X112311208Y-44711603D01*
X111468792Y-44711603D01*
X111391157Y-44462528D01*
X111127117Y-44336629D01*
X110843589Y-44264661D01*
X110551469Y-44249389D01*
X110261981Y-44291401D01*
X109986253Y-44389081D01*
X109848843Y-44462528D01*
X109771208Y-44711603D01*
X108928792Y-44711603D01*
X108851157Y-44462528D01*
X108587117Y-44336629D01*
X108303589Y-44264661D01*
X108011469Y-44249389D01*
X107721981Y-44291401D01*
X107446253Y-44389081D01*
X107308843Y-44462528D01*
X107231208Y-44711603D01*
X106388792Y-44711603D01*
X106311157Y-44462528D01*
X106047117Y-44336629D01*
X105763589Y-44264661D01*
X105471469Y-44249389D01*
X105181981Y-44291401D01*
X104906253Y-44389081D01*
X104768843Y-44462528D01*
X104691208Y-44711603D01*
X104071710Y-44711603D01*
X103946632Y-44586525D01*
X103703411Y-44424010D01*
X103433158Y-44312068D01*
X103146260Y-44255000D01*
X102853740Y-44255000D01*
X102566842Y-44312068D01*
X102296589Y-44424010D01*
X102053368Y-44586525D01*
X101846525Y-44793368D01*
X101684010Y-45036589D01*
X101572068Y-45306842D01*
X101515000Y-45593740D01*
X101515000Y-45886260D01*
X101572068Y-46173158D01*
X101684010Y-46443411D01*
X101846525Y-46686632D01*
X102033608Y-46873715D01*
X101906614Y-46941595D01*
X101772038Y-47052038D01*
X101661595Y-47186614D01*
X101579528Y-47340150D01*
X101528992Y-47506746D01*
X101511928Y-47680000D01*
X92200771Y-47680000D01*
X92108398Y-47651208D01*
X91259606Y-48500000D01*
X90900396Y-48500000D01*
X90051604Y-47651208D01*
X89809312Y-47726729D01*
X89693476Y-47553368D01*
X89486633Y-47346525D01*
X89312241Y-47230000D01*
X89486633Y-47113475D01*
X89693476Y-46906632D01*
X89810001Y-46732240D01*
X89926526Y-46906632D01*
X90133369Y-47113475D01*
X90306730Y-47229311D01*
X90231209Y-47471603D01*
X91080001Y-48320395D01*
X91928793Y-47471603D01*
X91853272Y-47229311D01*
X92026633Y-47113475D01*
X92233476Y-46906632D01*
X92395991Y-46663411D01*
X92507933Y-46393158D01*
X92565001Y-46106260D01*
X92565001Y-45813740D01*
X92507933Y-45526842D01*
X92395991Y-45256589D01*
X92233476Y-45013368D01*
X92026633Y-44806525D01*
X91783412Y-44644010D01*
X91513159Y-44532068D01*
X91226261Y-44475000D01*
X90933741Y-44475000D01*
X90646843Y-44532068D01*
X90376590Y-44644010D01*
X90133369Y-44806525D01*
X89926526Y-45013368D01*
X89810001Y-45187760D01*
X89693476Y-45013368D01*
X89486633Y-44806525D01*
X89243412Y-44644010D01*
X88973159Y-44532068D01*
X88686261Y-44475000D01*
X88393741Y-44475000D01*
X88106843Y-44532068D01*
X87836590Y-44644010D01*
X87593369Y-44806525D01*
X87386526Y-45013368D01*
X87270001Y-45187760D01*
X87153476Y-45013368D01*
X86946633Y-44806525D01*
X86703412Y-44644010D01*
X86433159Y-44532068D01*
X86146261Y-44475000D01*
X85853741Y-44475000D01*
X85566843Y-44532068D01*
X85296590Y-44644010D01*
X85053369Y-44806525D01*
X84846526Y-45013368D01*
X84730001Y-45187760D01*
X84613476Y-45013368D01*
X84406633Y-44806525D01*
X84163412Y-44644010D01*
X83893159Y-44532068D01*
X83606261Y-44475000D01*
X83313741Y-44475000D01*
X83026843Y-44532068D01*
X82756590Y-44644010D01*
X82513369Y-44806525D01*
X82306526Y-45013368D01*
X82190001Y-45187760D01*
X82073476Y-45013368D01*
X81866633Y-44806525D01*
X81623412Y-44644010D01*
X81353159Y-44532068D01*
X81066261Y-44475000D01*
X80773741Y-44475000D01*
X80486843Y-44532068D01*
X80216590Y-44644010D01*
X79973369Y-44806525D01*
X79766526Y-45013368D01*
X79604011Y-45256589D01*
X79492069Y-45526842D01*
X79435001Y-45813740D01*
X79435001Y-46106260D01*
X79492069Y-46393158D01*
X79604011Y-46663411D01*
X79766526Y-46906632D01*
X79953609Y-47093715D01*
X79826615Y-47161595D01*
X79692039Y-47272038D01*
X79581596Y-47406614D01*
X79499529Y-47560150D01*
X79448993Y-47726746D01*
X79431929Y-47900000D01*
X74660000Y-47900000D01*
X74660000Y-45029392D01*
X74731173Y-44231917D01*
X74934656Y-43488109D01*
X75266638Y-42792095D01*
X75716626Y-42165870D01*
X76270403Y-41629223D01*
X76910451Y-41199129D01*
X77616553Y-40889171D01*
X78371457Y-40707935D01*
X79024207Y-40660000D01*
X156470608Y-40660000D01*
X157268083Y-40731173D01*
G37*
G04 #@! TD.AperFunction*
D16*
X86193749Y-48485858D02*
X86179606Y-48500000D01*
X86193749Y-48514143D01*
X86014144Y-48693748D01*
X86000001Y-48679605D01*
X85985859Y-48693748D01*
X85806254Y-48514143D01*
X85820396Y-48500000D01*
X85806254Y-48485858D01*
X85985859Y-48306253D01*
X86000001Y-48320395D01*
X86014144Y-48306253D01*
X86193749Y-48485858D01*
G04 #@! TA.AperFunction,Conductor*
D17*
G36*
X86193749Y-48485858D02*
G01*
X86179606Y-48500000D01*
X86193749Y-48514143D01*
X86014144Y-48693748D01*
X86000001Y-48679605D01*
X85985859Y-48693748D01*
X85806254Y-48514143D01*
X85820396Y-48500000D01*
X85806254Y-48485858D01*
X85985859Y-48306253D01*
X86000001Y-48320395D01*
X86014144Y-48306253D01*
X86193749Y-48485858D01*
G37*
G04 #@! TD.AperFunction*
D16*
X144466525Y-49196632D02*
X144673368Y-49403475D01*
X144735000Y-49444656D01*
X144735001Y-52513420D01*
X143856066Y-53392355D01*
X143815000Y-53351289D01*
X143815000Y-49544883D01*
X144026632Y-49403475D01*
X144233475Y-49196632D01*
X144350000Y-49022240D01*
X144466525Y-49196632D01*
G04 #@! TA.AperFunction,Conductor*
D17*
G36*
X144466525Y-49196632D02*
G01*
X144673368Y-49403475D01*
X144735000Y-49444656D01*
X144735001Y-52513420D01*
X143856066Y-53392355D01*
X143815000Y-53351289D01*
X143815000Y-49544883D01*
X144026632Y-49403475D01*
X144233475Y-49196632D01*
X144350000Y-49022240D01*
X144466525Y-49196632D01*
G37*
G04 #@! TD.AperFunction*
D16*
X141141000Y-51185475D02*
X140020093Y-52306382D01*
X139985000Y-52271289D01*
X139985000Y-49630540D01*
X140032883Y-49653371D01*
X140316411Y-49725339D01*
X140608531Y-49740611D01*
X140898019Y-49698599D01*
X141141000Y-49612520D01*
X141141000Y-51185475D01*
G04 #@! TA.AperFunction,Conductor*
D17*
G36*
X141141000Y-51185475D02*
G01*
X140020093Y-52306382D01*
X139985000Y-52271289D01*
X139985000Y-49630540D01*
X140032883Y-49653371D01*
X140316411Y-49725339D01*
X140608531Y-49740611D01*
X140898019Y-49698599D01*
X141141000Y-49612520D01*
X141141000Y-51185475D01*
G37*
G04 #@! TD.AperFunction*
D16*
X140733748Y-48235858D02*
X140719605Y-48250000D01*
X140733748Y-48264143D01*
X140554143Y-48443748D01*
X140540000Y-48429605D01*
X140525858Y-48443748D01*
X140346253Y-48264143D01*
X140360395Y-48250000D01*
X140346253Y-48235858D01*
X140525858Y-48056253D01*
X140540000Y-48070395D01*
X140554143Y-48056253D01*
X140733748Y-48235858D01*
G04 #@! TA.AperFunction,Conductor*
D17*
G36*
X140733748Y-48235858D02*
G01*
X140719605Y-48250000D01*
X140733748Y-48264143D01*
X140554143Y-48443748D01*
X140540000Y-48429605D01*
X140525858Y-48443748D01*
X140346253Y-48264143D01*
X140360395Y-48250000D01*
X140346253Y-48235858D01*
X140525858Y-48056253D01*
X140540000Y-48070395D01*
X140554143Y-48056253D01*
X140733748Y-48235858D01*
G37*
G04 #@! TD.AperFunction*
M02*
