G04 #@! TF.GenerationSoftware,KiCad,Pcbnew,(5.1.10)-1*
G04 #@! TF.CreationDate,2022-05-27T16:58:45+02:00*
G04 #@! TF.ProjectId,STM_programming_ports,53544d5f-7072-46f6-9772-616d6d696e67,rev?*
G04 #@! TF.SameCoordinates,Original*
G04 #@! TF.FileFunction,Legend,Top*
G04 #@! TF.FilePolarity,Positive*
%FSLAX46Y46*%
G04 Gerber Fmt 4.6, Leading zero omitted, Abs format (unit mm)*
G04 Created by KiCad (PCBNEW (5.1.10)-1) date 2022-05-27 16:58:45*
%MOMM*%
%LPD*%
G01*
G04 APERTURE LIST*
%ADD10C,0.150000*%
%ADD11C,0.120000*%
%ADD12C,1.800000*%
%ADD13O,1.800000X1.800000*%
G04 APERTURE END LIST*
D10*
X78559523Y-59454761D02*
X78702380Y-59502380D01*
X78940476Y-59502380D01*
X79035714Y-59454761D01*
X79083333Y-59407142D01*
X79130952Y-59311904D01*
X79130952Y-59216666D01*
X79083333Y-59121428D01*
X79035714Y-59073809D01*
X78940476Y-59026190D01*
X78750000Y-58978571D01*
X78654761Y-58930952D01*
X78607142Y-58883333D01*
X78559523Y-58788095D01*
X78559523Y-58692857D01*
X78607142Y-58597619D01*
X78654761Y-58550000D01*
X78750000Y-58502380D01*
X78988095Y-58502380D01*
X79130952Y-58550000D01*
X79416666Y-58502380D02*
X79988095Y-58502380D01*
X79702380Y-59502380D02*
X79702380Y-58502380D01*
X80321428Y-59502380D02*
X80321428Y-58502380D01*
X80654761Y-59216666D01*
X80988095Y-58502380D01*
X80988095Y-59502380D01*
X81369047Y-58502380D02*
X81988095Y-58502380D01*
X81654761Y-58883333D01*
X81797619Y-58883333D01*
X81892857Y-58930952D01*
X81940476Y-58978571D01*
X81988095Y-59073809D01*
X81988095Y-59311904D01*
X81940476Y-59407142D01*
X81892857Y-59454761D01*
X81797619Y-59502380D01*
X81511904Y-59502380D01*
X81416666Y-59454761D01*
X81369047Y-59407142D01*
X82369047Y-58597619D02*
X82416666Y-58550000D01*
X82511904Y-58502380D01*
X82750000Y-58502380D01*
X82845238Y-58550000D01*
X82892857Y-58597619D01*
X82940476Y-58692857D01*
X82940476Y-58788095D01*
X82892857Y-58930952D01*
X82321428Y-59502380D01*
X82940476Y-59502380D01*
X76035714Y-61152380D02*
X76035714Y-60152380D01*
X76416666Y-60152380D01*
X76511904Y-60200000D01*
X76559523Y-60247619D01*
X76607142Y-60342857D01*
X76607142Y-60485714D01*
X76559523Y-60580952D01*
X76511904Y-60628571D01*
X76416666Y-60676190D01*
X76035714Y-60676190D01*
X77035714Y-61152380D02*
X77035714Y-60485714D01*
X77035714Y-60676190D02*
X77083333Y-60580952D01*
X77130952Y-60533333D01*
X77226190Y-60485714D01*
X77321428Y-60485714D01*
X77797619Y-61152380D02*
X77702380Y-61104761D01*
X77654761Y-61057142D01*
X77607142Y-60961904D01*
X77607142Y-60676190D01*
X77654761Y-60580952D01*
X77702380Y-60533333D01*
X77797619Y-60485714D01*
X77940476Y-60485714D01*
X78035714Y-60533333D01*
X78083333Y-60580952D01*
X78130952Y-60676190D01*
X78130952Y-60961904D01*
X78083333Y-61057142D01*
X78035714Y-61104761D01*
X77940476Y-61152380D01*
X77797619Y-61152380D01*
X78988095Y-60485714D02*
X78988095Y-61295238D01*
X78940476Y-61390476D01*
X78892857Y-61438095D01*
X78797619Y-61485714D01*
X78654761Y-61485714D01*
X78559523Y-61438095D01*
X78988095Y-61104761D02*
X78892857Y-61152380D01*
X78702380Y-61152380D01*
X78607142Y-61104761D01*
X78559523Y-61057142D01*
X78511904Y-60961904D01*
X78511904Y-60676190D01*
X78559523Y-60580952D01*
X78607142Y-60533333D01*
X78702380Y-60485714D01*
X78892857Y-60485714D01*
X78988095Y-60533333D01*
X79464285Y-61152380D02*
X79464285Y-60485714D01*
X79464285Y-60676190D02*
X79511904Y-60580952D01*
X79559523Y-60533333D01*
X79654761Y-60485714D01*
X79750000Y-60485714D01*
X80511904Y-61152380D02*
X80511904Y-60628571D01*
X80464285Y-60533333D01*
X80369047Y-60485714D01*
X80178571Y-60485714D01*
X80083333Y-60533333D01*
X80511904Y-61104761D02*
X80416666Y-61152380D01*
X80178571Y-61152380D01*
X80083333Y-61104761D01*
X80035714Y-61009523D01*
X80035714Y-60914285D01*
X80083333Y-60819047D01*
X80178571Y-60771428D01*
X80416666Y-60771428D01*
X80511904Y-60723809D01*
X80988095Y-61152380D02*
X80988095Y-60485714D01*
X80988095Y-60580952D02*
X81035714Y-60533333D01*
X81130952Y-60485714D01*
X81273809Y-60485714D01*
X81369047Y-60533333D01*
X81416666Y-60628571D01*
X81416666Y-61152380D01*
X81416666Y-60628571D02*
X81464285Y-60533333D01*
X81559523Y-60485714D01*
X81702380Y-60485714D01*
X81797619Y-60533333D01*
X81845238Y-60628571D01*
X81845238Y-61152380D01*
X82321428Y-61152380D02*
X82321428Y-60485714D01*
X82321428Y-60580952D02*
X82369047Y-60533333D01*
X82464285Y-60485714D01*
X82607142Y-60485714D01*
X82702380Y-60533333D01*
X82750000Y-60628571D01*
X82750000Y-61152380D01*
X82750000Y-60628571D02*
X82797619Y-60533333D01*
X82892857Y-60485714D01*
X83035714Y-60485714D01*
X83130952Y-60533333D01*
X83178571Y-60628571D01*
X83178571Y-61152380D01*
X83654761Y-61152380D02*
X83654761Y-60485714D01*
X83654761Y-60152380D02*
X83607142Y-60200000D01*
X83654761Y-60247619D01*
X83702380Y-60200000D01*
X83654761Y-60152380D01*
X83654761Y-60247619D01*
X84130952Y-60485714D02*
X84130952Y-61152380D01*
X84130952Y-60580952D02*
X84178571Y-60533333D01*
X84273809Y-60485714D01*
X84416666Y-60485714D01*
X84511904Y-60533333D01*
X84559523Y-60628571D01*
X84559523Y-61152380D01*
X85464285Y-60485714D02*
X85464285Y-61295238D01*
X85416666Y-61390476D01*
X85369047Y-61438095D01*
X85273809Y-61485714D01*
X85130952Y-61485714D01*
X85035714Y-61438095D01*
X85464285Y-61104761D02*
X85369047Y-61152380D01*
X85178571Y-61152380D01*
X85083333Y-61104761D01*
X85035714Y-61057142D01*
X84988095Y-60961904D01*
X84988095Y-60676190D01*
X85035714Y-60580952D01*
X85083333Y-60533333D01*
X85178571Y-60485714D01*
X85369047Y-60485714D01*
X85464285Y-60533333D01*
X79035714Y-62802380D02*
X79035714Y-61802380D01*
X79416666Y-61802380D01*
X79511904Y-61850000D01*
X79559523Y-61897619D01*
X79607142Y-61992857D01*
X79607142Y-62135714D01*
X79559523Y-62230952D01*
X79511904Y-62278571D01*
X79416666Y-62326190D01*
X79035714Y-62326190D01*
X80178571Y-62802380D02*
X80083333Y-62754761D01*
X80035714Y-62707142D01*
X79988095Y-62611904D01*
X79988095Y-62326190D01*
X80035714Y-62230952D01*
X80083333Y-62183333D01*
X80178571Y-62135714D01*
X80321428Y-62135714D01*
X80416666Y-62183333D01*
X80464285Y-62230952D01*
X80511904Y-62326190D01*
X80511904Y-62611904D01*
X80464285Y-62707142D01*
X80416666Y-62754761D01*
X80321428Y-62802380D01*
X80178571Y-62802380D01*
X80940476Y-62802380D02*
X80940476Y-62135714D01*
X80940476Y-62326190D02*
X80988095Y-62230952D01*
X81035714Y-62183333D01*
X81130952Y-62135714D01*
X81226190Y-62135714D01*
X81416666Y-62135714D02*
X81797619Y-62135714D01*
X81559523Y-61802380D02*
X81559523Y-62659523D01*
X81607142Y-62754761D01*
X81702380Y-62802380D01*
X81797619Y-62802380D01*
X82083333Y-62754761D02*
X82178571Y-62802380D01*
X82369047Y-62802380D01*
X82464285Y-62754761D01*
X82511904Y-62659523D01*
X82511904Y-62611904D01*
X82464285Y-62516666D01*
X82369047Y-62469047D01*
X82226190Y-62469047D01*
X82130952Y-62421428D01*
X82083333Y-62326190D01*
X82083333Y-62278571D01*
X82130952Y-62183333D01*
X82226190Y-62135714D01*
X82369047Y-62135714D01*
X82464285Y-62183333D01*
X79464285Y-63452380D02*
X79797619Y-64452380D01*
X80130952Y-63452380D01*
X80654761Y-63452380D02*
X80750000Y-63452380D01*
X80845238Y-63500000D01*
X80892857Y-63547619D01*
X80940476Y-63642857D01*
X80988095Y-63833333D01*
X80988095Y-64071428D01*
X80940476Y-64261904D01*
X80892857Y-64357142D01*
X80845238Y-64404761D01*
X80750000Y-64452380D01*
X80654761Y-64452380D01*
X80559523Y-64404761D01*
X80511904Y-64357142D01*
X80464285Y-64261904D01*
X80416666Y-64071428D01*
X80416666Y-63833333D01*
X80464285Y-63642857D01*
X80511904Y-63547619D01*
X80559523Y-63500000D01*
X80654761Y-63452380D01*
X81369047Y-63547619D02*
X81416666Y-63500000D01*
X81511904Y-63452380D01*
X81750000Y-63452380D01*
X81845238Y-63500000D01*
X81892857Y-63547619D01*
X81940476Y-63642857D01*
X81940476Y-63738095D01*
X81892857Y-63880952D01*
X81321428Y-64452380D01*
X81940476Y-64452380D01*
X77488095Y-65578571D02*
X77630952Y-65626190D01*
X77678571Y-65673809D01*
X77726190Y-65769047D01*
X77726190Y-65911904D01*
X77678571Y-66007142D01*
X77630952Y-66054761D01*
X77535714Y-66102380D01*
X77154761Y-66102380D01*
X77154761Y-65102380D01*
X77488095Y-65102380D01*
X77583333Y-65150000D01*
X77630952Y-65197619D01*
X77678571Y-65292857D01*
X77678571Y-65388095D01*
X77630952Y-65483333D01*
X77583333Y-65530952D01*
X77488095Y-65578571D01*
X77154761Y-65578571D01*
X78059523Y-65435714D02*
X78297619Y-66102380D01*
X78535714Y-65435714D02*
X78297619Y-66102380D01*
X78202380Y-66340476D01*
X78154761Y-66388095D01*
X78059523Y-66435714D01*
X79678571Y-66102380D02*
X79678571Y-65102380D01*
X80011904Y-65816666D01*
X80345238Y-65102380D01*
X80345238Y-66102380D01*
X80821428Y-66102380D02*
X80821428Y-65102380D01*
X81392857Y-66102380D02*
X80964285Y-65530952D01*
X81392857Y-65102380D02*
X80821428Y-65673809D01*
X81821428Y-66102380D02*
X81821428Y-65435714D01*
X81821428Y-65626190D02*
X81869047Y-65530952D01*
X81916666Y-65483333D01*
X82011904Y-65435714D01*
X82107142Y-65435714D01*
X82345238Y-65435714D02*
X82583333Y-66102380D01*
X82821428Y-65435714D02*
X82583333Y-66102380D01*
X82488095Y-66340476D01*
X82440476Y-66388095D01*
X82345238Y-66435714D01*
X83154761Y-66054761D02*
X83250000Y-66102380D01*
X83440476Y-66102380D01*
X83535714Y-66054761D01*
X83583333Y-65959523D01*
X83583333Y-65911904D01*
X83535714Y-65816666D01*
X83440476Y-65769047D01*
X83297619Y-65769047D01*
X83202380Y-65721428D01*
X83154761Y-65626190D01*
X83154761Y-65578571D01*
X83202380Y-65483333D01*
X83297619Y-65435714D01*
X83440476Y-65435714D01*
X83535714Y-65483333D01*
X83916666Y-65435714D02*
X84440476Y-65435714D01*
X83916666Y-66102380D01*
X84440476Y-66102380D01*
X103500000Y-63642857D02*
X103452380Y-63738095D01*
X103452380Y-63880952D01*
X103500000Y-64023809D01*
X103595238Y-64119047D01*
X103690476Y-64166666D01*
X103880952Y-64214285D01*
X104023809Y-64214285D01*
X104214285Y-64166666D01*
X104309523Y-64119047D01*
X104404761Y-64023809D01*
X104452380Y-63880952D01*
X104452380Y-63785714D01*
X104404761Y-63642857D01*
X104357142Y-63595238D01*
X104023809Y-63595238D01*
X104023809Y-63785714D01*
X103785714Y-63166666D02*
X104452380Y-63166666D01*
X103880952Y-63166666D02*
X103833333Y-63119047D01*
X103785714Y-63023809D01*
X103785714Y-62880952D01*
X103833333Y-62785714D01*
X103928571Y-62738095D01*
X104452380Y-62738095D01*
X104452380Y-61833333D02*
X103452380Y-61833333D01*
X104404761Y-61833333D02*
X104452380Y-61928571D01*
X104452380Y-62119047D01*
X104404761Y-62214285D01*
X104357142Y-62261904D01*
X104261904Y-62309523D01*
X103976190Y-62309523D01*
X103880952Y-62261904D01*
X103833333Y-62214285D01*
X103785714Y-62119047D01*
X103785714Y-61928571D01*
X103833333Y-61833333D01*
X106904761Y-64261904D02*
X106952380Y-64119047D01*
X106952380Y-63880952D01*
X106904761Y-63785714D01*
X106857142Y-63738095D01*
X106761904Y-63690476D01*
X106666666Y-63690476D01*
X106571428Y-63738095D01*
X106523809Y-63785714D01*
X106476190Y-63880952D01*
X106428571Y-64071428D01*
X106380952Y-64166666D01*
X106333333Y-64214285D01*
X106238095Y-64261904D01*
X106142857Y-64261904D01*
X106047619Y-64214285D01*
X106000000Y-64166666D01*
X105952380Y-64071428D01*
X105952380Y-63833333D01*
X106000000Y-63690476D01*
X105952380Y-63357142D02*
X106952380Y-63119047D01*
X106238095Y-62928571D01*
X106952380Y-62738095D01*
X105952380Y-62500000D01*
X106857142Y-61547619D02*
X106904761Y-61595238D01*
X106952380Y-61738095D01*
X106952380Y-61833333D01*
X106904761Y-61976190D01*
X106809523Y-62071428D01*
X106714285Y-62119047D01*
X106523809Y-62166666D01*
X106380952Y-62166666D01*
X106190476Y-62119047D01*
X106095238Y-62071428D01*
X106000000Y-61976190D01*
X105952380Y-61833333D01*
X105952380Y-61738095D01*
X106000000Y-61595238D01*
X106047619Y-61547619D01*
X106952380Y-60642857D02*
X106952380Y-61119047D01*
X105952380Y-61119047D01*
X106952380Y-60309523D02*
X105952380Y-60309523D01*
X106952380Y-59738095D02*
X106380952Y-60166666D01*
X105952380Y-59738095D02*
X106523809Y-60309523D01*
X110952380Y-64238095D02*
X110952380Y-63619047D01*
X111333333Y-63952380D01*
X111333333Y-63809523D01*
X111380952Y-63714285D01*
X111428571Y-63666666D01*
X111523809Y-63619047D01*
X111761904Y-63619047D01*
X111857142Y-63666666D01*
X111904761Y-63714285D01*
X111952380Y-63809523D01*
X111952380Y-64095238D01*
X111904761Y-64190476D01*
X111857142Y-64238095D01*
X110952380Y-63333333D02*
X111952380Y-63000000D01*
X110952380Y-62666666D01*
X110952380Y-62428571D02*
X110952380Y-61809523D01*
X111333333Y-62142857D01*
X111333333Y-62000000D01*
X111380952Y-61904761D01*
X111428571Y-61857142D01*
X111523809Y-61809523D01*
X111761904Y-61809523D01*
X111857142Y-61857142D01*
X111904761Y-61904761D01*
X111952380Y-62000000D01*
X111952380Y-62285714D01*
X111904761Y-62380952D01*
X111857142Y-62428571D01*
X109404761Y-64119047D02*
X109452380Y-63976190D01*
X109452380Y-63738095D01*
X109404761Y-63642857D01*
X109357142Y-63595238D01*
X109261904Y-63547619D01*
X109166666Y-63547619D01*
X109071428Y-63595238D01*
X109023809Y-63642857D01*
X108976190Y-63738095D01*
X108928571Y-63928571D01*
X108880952Y-64023809D01*
X108833333Y-64071428D01*
X108738095Y-64119047D01*
X108642857Y-64119047D01*
X108547619Y-64071428D01*
X108500000Y-64023809D01*
X108452380Y-63928571D01*
X108452380Y-63690476D01*
X108500000Y-63547619D01*
X108452380Y-63214285D02*
X109452380Y-62976190D01*
X108738095Y-62785714D01*
X109452380Y-62595238D01*
X108452380Y-62357142D01*
X109452380Y-61976190D02*
X108452380Y-61976190D01*
X108452380Y-61738095D01*
X108500000Y-61595238D01*
X108595238Y-61500000D01*
X108690476Y-61452380D01*
X108880952Y-61404761D01*
X109023809Y-61404761D01*
X109214285Y-61452380D01*
X109309523Y-61500000D01*
X109404761Y-61595238D01*
X109452380Y-61738095D01*
X109452380Y-61976190D01*
X109452380Y-60976190D02*
X108452380Y-60976190D01*
X108452380Y-60309523D02*
X108452380Y-60119047D01*
X108500000Y-60023809D01*
X108595238Y-59928571D01*
X108785714Y-59880952D01*
X109119047Y-59880952D01*
X109309523Y-59928571D01*
X109404761Y-60023809D01*
X109452380Y-60119047D01*
X109452380Y-60309523D01*
X109404761Y-60404761D01*
X109309523Y-60500000D01*
X109119047Y-60547619D01*
X108785714Y-60547619D01*
X108595238Y-60500000D01*
X108500000Y-60404761D01*
X108452380Y-60309523D01*
X97452380Y-63738095D02*
X97452380Y-63119047D01*
X97833333Y-63452380D01*
X97833333Y-63309523D01*
X97880952Y-63214285D01*
X97928571Y-63166666D01*
X98023809Y-63119047D01*
X98261904Y-63119047D01*
X98357142Y-63166666D01*
X98404761Y-63214285D01*
X98452380Y-63309523D01*
X98452380Y-63595238D01*
X98404761Y-63690476D01*
X98357142Y-63738095D01*
X97452380Y-62833333D02*
X98452380Y-62500000D01*
X97452380Y-62166666D01*
X97452380Y-61928571D02*
X97452380Y-61309523D01*
X97833333Y-61642857D01*
X97833333Y-61500000D01*
X97880952Y-61404761D01*
X97928571Y-61357142D01*
X98023809Y-61309523D01*
X98261904Y-61309523D01*
X98357142Y-61357142D01*
X98404761Y-61404761D01*
X98452380Y-61500000D01*
X98452380Y-61785714D01*
X98404761Y-61880952D01*
X98357142Y-61928571D01*
X95952380Y-63047619D02*
X95476190Y-63380952D01*
X95952380Y-63619047D02*
X94952380Y-63619047D01*
X94952380Y-63238095D01*
X95000000Y-63142857D01*
X95047619Y-63095238D01*
X95142857Y-63047619D01*
X95285714Y-63047619D01*
X95380952Y-63095238D01*
X95428571Y-63142857D01*
X95476190Y-63238095D01*
X95476190Y-63619047D01*
X95904761Y-62666666D02*
X95952380Y-62523809D01*
X95952380Y-62285714D01*
X95904761Y-62190476D01*
X95857142Y-62142857D01*
X95761904Y-62095238D01*
X95666666Y-62095238D01*
X95571428Y-62142857D01*
X95523809Y-62190476D01*
X95476190Y-62285714D01*
X95428571Y-62476190D01*
X95380952Y-62571428D01*
X95333333Y-62619047D01*
X95238095Y-62666666D01*
X95142857Y-62666666D01*
X95047619Y-62619047D01*
X95000000Y-62571428D01*
X94952380Y-62476190D01*
X94952380Y-62238095D01*
X95000000Y-62095238D01*
X94952380Y-61809523D02*
X94952380Y-61238095D01*
X95952380Y-61523809D02*
X94952380Y-61523809D01*
X93404761Y-63619047D02*
X93452380Y-63476190D01*
X93452380Y-63238095D01*
X93404761Y-63142857D01*
X93357142Y-63095238D01*
X93261904Y-63047619D01*
X93166666Y-63047619D01*
X93071428Y-63095238D01*
X93023809Y-63142857D01*
X92976190Y-63238095D01*
X92928571Y-63428571D01*
X92880952Y-63523809D01*
X92833333Y-63571428D01*
X92738095Y-63619047D01*
X92642857Y-63619047D01*
X92547619Y-63571428D01*
X92500000Y-63523809D01*
X92452380Y-63428571D01*
X92452380Y-63190476D01*
X92500000Y-63047619D01*
X92452380Y-62714285D02*
X93452380Y-62476190D01*
X92738095Y-62285714D01*
X93452380Y-62095238D01*
X92452380Y-61857142D01*
X93452380Y-61476190D02*
X92452380Y-61476190D01*
X92452380Y-61238095D01*
X92500000Y-61095238D01*
X92595238Y-61000000D01*
X92690476Y-60952380D01*
X92880952Y-60904761D01*
X93023809Y-60904761D01*
X93214285Y-60952380D01*
X93309523Y-61000000D01*
X93404761Y-61095238D01*
X93452380Y-61238095D01*
X93452380Y-61476190D01*
X93452380Y-60476190D02*
X92452380Y-60476190D01*
X92452380Y-59809523D02*
X92452380Y-59619047D01*
X92500000Y-59523809D01*
X92595238Y-59428571D01*
X92785714Y-59380952D01*
X93119047Y-59380952D01*
X93309523Y-59428571D01*
X93404761Y-59523809D01*
X93452380Y-59619047D01*
X93452380Y-59809523D01*
X93404761Y-59904761D01*
X93309523Y-60000000D01*
X93119047Y-60047619D01*
X92785714Y-60047619D01*
X92595238Y-60000000D01*
X92500000Y-59904761D01*
X92452380Y-59809523D01*
X90904761Y-63761904D02*
X90952380Y-63619047D01*
X90952380Y-63380952D01*
X90904761Y-63285714D01*
X90857142Y-63238095D01*
X90761904Y-63190476D01*
X90666666Y-63190476D01*
X90571428Y-63238095D01*
X90523809Y-63285714D01*
X90476190Y-63380952D01*
X90428571Y-63571428D01*
X90380952Y-63666666D01*
X90333333Y-63714285D01*
X90238095Y-63761904D01*
X90142857Y-63761904D01*
X90047619Y-63714285D01*
X90000000Y-63666666D01*
X89952380Y-63571428D01*
X89952380Y-63333333D01*
X90000000Y-63190476D01*
X89952380Y-62857142D02*
X90952380Y-62619047D01*
X90238095Y-62428571D01*
X90952380Y-62238095D01*
X89952380Y-62000000D01*
X90857142Y-61047619D02*
X90904761Y-61095238D01*
X90952380Y-61238095D01*
X90952380Y-61333333D01*
X90904761Y-61476190D01*
X90809523Y-61571428D01*
X90714285Y-61619047D01*
X90523809Y-61666666D01*
X90380952Y-61666666D01*
X90190476Y-61619047D01*
X90095238Y-61571428D01*
X90000000Y-61476190D01*
X89952380Y-61333333D01*
X89952380Y-61238095D01*
X90000000Y-61095238D01*
X90047619Y-61047619D01*
X90952380Y-60142857D02*
X90952380Y-60619047D01*
X89952380Y-60619047D01*
X90952380Y-59809523D02*
X89952380Y-59809523D01*
X90952380Y-59238095D02*
X90380952Y-59666666D01*
X89952380Y-59238095D02*
X90523809Y-59809523D01*
X87500000Y-63142857D02*
X87452380Y-63238095D01*
X87452380Y-63380952D01*
X87500000Y-63523809D01*
X87595238Y-63619047D01*
X87690476Y-63666666D01*
X87880952Y-63714285D01*
X88023809Y-63714285D01*
X88214285Y-63666666D01*
X88309523Y-63619047D01*
X88404761Y-63523809D01*
X88452380Y-63380952D01*
X88452380Y-63285714D01*
X88404761Y-63142857D01*
X88357142Y-63095238D01*
X88023809Y-63095238D01*
X88023809Y-63285714D01*
X87785714Y-62666666D02*
X88452380Y-62666666D01*
X87880952Y-62666666D02*
X87833333Y-62619047D01*
X87785714Y-62523809D01*
X87785714Y-62380952D01*
X87833333Y-62285714D01*
X87928571Y-62238095D01*
X88452380Y-62238095D01*
X88452380Y-61333333D02*
X87452380Y-61333333D01*
X88404761Y-61333333D02*
X88452380Y-61428571D01*
X88452380Y-61619047D01*
X88404761Y-61714285D01*
X88357142Y-61761904D01*
X88261904Y-61809523D01*
X87976190Y-61809523D01*
X87880952Y-61761904D01*
X87833333Y-61714285D01*
X87785714Y-61619047D01*
X87785714Y-61428571D01*
X87833333Y-61333333D01*
X83738095Y-53452380D02*
X83166666Y-53452380D01*
X83452380Y-53452380D02*
X83452380Y-52452380D01*
X83357142Y-52595238D01*
X83261904Y-52690476D01*
X83166666Y-52738095D01*
X84357142Y-52452380D02*
X84452380Y-52452380D01*
X84547619Y-52500000D01*
X84595238Y-52547619D01*
X84642857Y-52642857D01*
X84690476Y-52833333D01*
X84690476Y-53071428D01*
X84642857Y-53261904D01*
X84595238Y-53357142D01*
X84547619Y-53404761D01*
X84452380Y-53452380D01*
X84357142Y-53452380D01*
X84261904Y-53404761D01*
X84214285Y-53357142D01*
X84166666Y-53261904D01*
X84119047Y-53071428D01*
X84119047Y-52833333D01*
X84166666Y-52642857D01*
X84214285Y-52547619D01*
X84261904Y-52500000D01*
X84357142Y-52452380D01*
X85880952Y-53452380D02*
X85880952Y-52452380D01*
X86261904Y-52452380D01*
X86357142Y-52500000D01*
X86404761Y-52547619D01*
X86452380Y-52642857D01*
X86452380Y-52785714D01*
X86404761Y-52880952D01*
X86357142Y-52928571D01*
X86261904Y-52976190D01*
X85880952Y-52976190D01*
X86880952Y-53452380D02*
X86880952Y-52785714D01*
X86880952Y-52452380D02*
X86833333Y-52500000D01*
X86880952Y-52547619D01*
X86928571Y-52500000D01*
X86880952Y-52452380D01*
X86880952Y-52547619D01*
X87357142Y-52785714D02*
X87357142Y-53452380D01*
X87357142Y-52880952D02*
X87404761Y-52833333D01*
X87500000Y-52785714D01*
X87642857Y-52785714D01*
X87738095Y-52833333D01*
X87785714Y-52928571D01*
X87785714Y-53452380D01*
X89309523Y-52452380D02*
X89309523Y-53166666D01*
X89261904Y-53309523D01*
X89166666Y-53404761D01*
X89023809Y-53452380D01*
X88928571Y-53452380D01*
X89642857Y-52452380D02*
X90214285Y-52452380D01*
X89928571Y-53452380D02*
X89928571Y-52452380D01*
X90500000Y-53166666D02*
X90976190Y-53166666D01*
X90404761Y-53452380D02*
X90738095Y-52452380D01*
X91071428Y-53452380D01*
X91928571Y-52500000D02*
X91833333Y-52452380D01*
X91690476Y-52452380D01*
X91547619Y-52500000D01*
X91452380Y-52595238D01*
X91404761Y-52690476D01*
X91357142Y-52880952D01*
X91357142Y-53023809D01*
X91404761Y-53214285D01*
X91452380Y-53309523D01*
X91547619Y-53404761D01*
X91690476Y-53452380D01*
X91785714Y-53452380D01*
X91928571Y-53404761D01*
X91976190Y-53357142D01*
X91976190Y-53023809D01*
X91785714Y-53023809D01*
X93166666Y-53452380D02*
X93166666Y-52452380D01*
X93547619Y-52452380D01*
X93642857Y-52500000D01*
X93690476Y-52547619D01*
X93738095Y-52642857D01*
X93738095Y-52785714D01*
X93690476Y-52880952D01*
X93642857Y-52928571D01*
X93547619Y-52976190D01*
X93166666Y-52976190D01*
X94309523Y-53452380D02*
X94214285Y-53404761D01*
X94166666Y-53357142D01*
X94119047Y-53261904D01*
X94119047Y-52976190D01*
X94166666Y-52880952D01*
X94214285Y-52833333D01*
X94309523Y-52785714D01*
X94452380Y-52785714D01*
X94547619Y-52833333D01*
X94595238Y-52880952D01*
X94642857Y-52976190D01*
X94642857Y-53261904D01*
X94595238Y-53357142D01*
X94547619Y-53404761D01*
X94452380Y-53452380D01*
X94309523Y-53452380D01*
X95071428Y-53452380D02*
X95071428Y-52785714D01*
X95071428Y-52976190D02*
X95119047Y-52880952D01*
X95166666Y-52833333D01*
X95261904Y-52785714D01*
X95357142Y-52785714D01*
X95547619Y-52785714D02*
X95928571Y-52785714D01*
X95690476Y-52452380D02*
X95690476Y-53309523D01*
X95738095Y-53404761D01*
X95833333Y-53452380D01*
X95928571Y-53452380D01*
X142738095Y-52904761D02*
X142880952Y-52952380D01*
X143119047Y-52952380D01*
X143214285Y-52904761D01*
X143261904Y-52857142D01*
X143309523Y-52761904D01*
X143309523Y-52666666D01*
X143261904Y-52571428D01*
X143214285Y-52523809D01*
X143119047Y-52476190D01*
X142928571Y-52428571D01*
X142833333Y-52380952D01*
X142785714Y-52333333D01*
X142738095Y-52238095D01*
X142738095Y-52142857D01*
X142785714Y-52047619D01*
X142833333Y-52000000D01*
X142928571Y-51952380D01*
X143166666Y-51952380D01*
X143309523Y-52000000D01*
X143595238Y-51952380D02*
X144166666Y-51952380D01*
X143880952Y-52952380D02*
X143880952Y-51952380D01*
X144500000Y-52571428D02*
X145261904Y-52571428D01*
X146214285Y-52952380D02*
X145738095Y-52952380D01*
X145738095Y-51952380D01*
X146547619Y-52952380D02*
X146547619Y-52285714D01*
X146547619Y-51952380D02*
X146500000Y-52000000D01*
X146547619Y-52047619D01*
X146595238Y-52000000D01*
X146547619Y-51952380D01*
X146547619Y-52047619D01*
X147023809Y-52285714D02*
X147023809Y-52952380D01*
X147023809Y-52380952D02*
X147071428Y-52333333D01*
X147166666Y-52285714D01*
X147309523Y-52285714D01*
X147404761Y-52333333D01*
X147452380Y-52428571D01*
X147452380Y-52952380D01*
X147928571Y-52952380D02*
X147928571Y-51952380D01*
X148023809Y-52571428D02*
X148309523Y-52952380D01*
X148309523Y-52285714D02*
X147928571Y-52666666D01*
X150071428Y-52857142D02*
X150023809Y-52904761D01*
X149880952Y-52952380D01*
X149785714Y-52952380D01*
X149642857Y-52904761D01*
X149547619Y-52809523D01*
X149500000Y-52714285D01*
X149452380Y-52523809D01*
X149452380Y-52380952D01*
X149500000Y-52190476D01*
X149547619Y-52095238D01*
X149642857Y-52000000D01*
X149785714Y-51952380D01*
X149880952Y-51952380D01*
X150023809Y-52000000D01*
X150071428Y-52047619D01*
X150642857Y-52952380D02*
X150547619Y-52904761D01*
X150500000Y-52809523D01*
X150500000Y-51952380D01*
X151166666Y-52952380D02*
X151071428Y-52904761D01*
X151023809Y-52857142D01*
X150976190Y-52761904D01*
X150976190Y-52476190D01*
X151023809Y-52380952D01*
X151071428Y-52333333D01*
X151166666Y-52285714D01*
X151309523Y-52285714D01*
X151404761Y-52333333D01*
X151452380Y-52380952D01*
X151500000Y-52476190D01*
X151500000Y-52761904D01*
X151452380Y-52857142D01*
X151404761Y-52904761D01*
X151309523Y-52952380D01*
X151166666Y-52952380D01*
X151928571Y-52285714D02*
X151928571Y-52952380D01*
X151928571Y-52380952D02*
X151976190Y-52333333D01*
X152071428Y-52285714D01*
X152214285Y-52285714D01*
X152309523Y-52333333D01*
X152357142Y-52428571D01*
X152357142Y-52952380D01*
X153214285Y-52904761D02*
X153119047Y-52952380D01*
X152928571Y-52952380D01*
X152833333Y-52904761D01*
X152785714Y-52809523D01*
X152785714Y-52428571D01*
X152833333Y-52333333D01*
X152928571Y-52285714D01*
X153119047Y-52285714D01*
X153214285Y-52333333D01*
X153261904Y-52428571D01*
X153261904Y-52523809D01*
X152785714Y-52619047D01*
X121809523Y-68452380D02*
X121619047Y-68452380D01*
X121523809Y-68500000D01*
X121476190Y-68547619D01*
X121380952Y-68690476D01*
X121333333Y-68880952D01*
X121333333Y-69261904D01*
X121380952Y-69357142D01*
X121428571Y-69404761D01*
X121523809Y-69452380D01*
X121714285Y-69452380D01*
X121809523Y-69404761D01*
X121857142Y-69357142D01*
X121904761Y-69261904D01*
X121904761Y-69023809D01*
X121857142Y-68928571D01*
X121809523Y-68880952D01*
X121714285Y-68833333D01*
X121523809Y-68833333D01*
X121428571Y-68880952D01*
X121380952Y-68928571D01*
X121333333Y-69023809D01*
X123095238Y-69452380D02*
X123095238Y-68452380D01*
X123476190Y-68452380D01*
X123571428Y-68500000D01*
X123619047Y-68547619D01*
X123666666Y-68642857D01*
X123666666Y-68785714D01*
X123619047Y-68880952D01*
X123571428Y-68928571D01*
X123476190Y-68976190D01*
X123095238Y-68976190D01*
X124095238Y-69452380D02*
X124095238Y-68785714D01*
X124095238Y-68452380D02*
X124047619Y-68500000D01*
X124095238Y-68547619D01*
X124142857Y-68500000D01*
X124095238Y-68452380D01*
X124095238Y-68547619D01*
X124571428Y-68785714D02*
X124571428Y-69452380D01*
X124571428Y-68880952D02*
X124619047Y-68833333D01*
X124714285Y-68785714D01*
X124857142Y-68785714D01*
X124952380Y-68833333D01*
X125000000Y-68928571D01*
X125000000Y-69452380D01*
X126238095Y-69452380D02*
X126238095Y-68452380D01*
X126476190Y-68452380D01*
X126619047Y-68500000D01*
X126714285Y-68595238D01*
X126761904Y-68690476D01*
X126809523Y-68880952D01*
X126809523Y-69023809D01*
X126761904Y-69214285D01*
X126714285Y-69309523D01*
X126619047Y-69404761D01*
X126476190Y-69452380D01*
X126238095Y-69452380D01*
X127571428Y-68928571D02*
X127714285Y-68976190D01*
X127761904Y-69023809D01*
X127809523Y-69119047D01*
X127809523Y-69261904D01*
X127761904Y-69357142D01*
X127714285Y-69404761D01*
X127619047Y-69452380D01*
X127238095Y-69452380D01*
X127238095Y-68452380D01*
X127571428Y-68452380D01*
X127666666Y-68500000D01*
X127714285Y-68547619D01*
X127761904Y-68642857D01*
X127761904Y-68738095D01*
X127714285Y-68833333D01*
X127666666Y-68880952D01*
X127571428Y-68928571D01*
X127238095Y-68928571D01*
X128761904Y-68500000D02*
X128666666Y-68452380D01*
X128523809Y-68452380D01*
X128380952Y-68500000D01*
X128285714Y-68595238D01*
X128238095Y-68690476D01*
X128190476Y-68880952D01*
X128190476Y-69023809D01*
X128238095Y-69214285D01*
X128285714Y-69309523D01*
X128380952Y-69404761D01*
X128523809Y-69452380D01*
X128619047Y-69452380D01*
X128761904Y-69404761D01*
X128809523Y-69357142D01*
X128809523Y-69023809D01*
X128619047Y-69023809D01*
X130000000Y-69452380D02*
X130000000Y-68452380D01*
X130380952Y-68452380D01*
X130476190Y-68500000D01*
X130523809Y-68547619D01*
X130571428Y-68642857D01*
X130571428Y-68785714D01*
X130523809Y-68880952D01*
X130476190Y-68928571D01*
X130380952Y-68976190D01*
X130000000Y-68976190D01*
X131142857Y-69452380D02*
X131047619Y-69404761D01*
X131000000Y-69357142D01*
X130952380Y-69261904D01*
X130952380Y-68976190D01*
X131000000Y-68880952D01*
X131047619Y-68833333D01*
X131142857Y-68785714D01*
X131285714Y-68785714D01*
X131380952Y-68833333D01*
X131428571Y-68880952D01*
X131476190Y-68976190D01*
X131476190Y-69261904D01*
X131428571Y-69357142D01*
X131380952Y-69404761D01*
X131285714Y-69452380D01*
X131142857Y-69452380D01*
X131904761Y-69452380D02*
X131904761Y-68785714D01*
X131904761Y-68976190D02*
X131952380Y-68880952D01*
X132000000Y-68833333D01*
X132095238Y-68785714D01*
X132190476Y-68785714D01*
X132380952Y-68785714D02*
X132761904Y-68785714D01*
X132523809Y-68452380D02*
X132523809Y-69309523D01*
X132571428Y-69404761D01*
X132666666Y-69452380D01*
X132761904Y-69452380D01*
X104333333Y-68785714D02*
X104333333Y-69452380D01*
X104095238Y-68404761D02*
X103857142Y-69119047D01*
X104476190Y-69119047D01*
X105523809Y-68452380D02*
X105761904Y-69452380D01*
X105952380Y-68738095D01*
X106142857Y-69452380D01*
X106380952Y-68452380D01*
X106761904Y-69452380D02*
X106761904Y-68452380D01*
X107238095Y-69452380D02*
X107238095Y-68785714D01*
X107238095Y-68976190D02*
X107285714Y-68880952D01*
X107333333Y-68833333D01*
X107428571Y-68785714D01*
X107523809Y-68785714D01*
X108238095Y-69404761D02*
X108142857Y-69452380D01*
X107952380Y-69452380D01*
X107857142Y-69404761D01*
X107809523Y-69309523D01*
X107809523Y-68928571D01*
X107857142Y-68833333D01*
X107952380Y-68785714D01*
X108142857Y-68785714D01*
X108238095Y-68833333D01*
X108285714Y-68928571D01*
X108285714Y-69023809D01*
X107809523Y-69119047D01*
X109428571Y-69404761D02*
X109571428Y-69452380D01*
X109809523Y-69452380D01*
X109904761Y-69404761D01*
X109952380Y-69357142D01*
X110000000Y-69261904D01*
X110000000Y-69166666D01*
X109952380Y-69071428D01*
X109904761Y-69023809D01*
X109809523Y-68976190D01*
X109619047Y-68928571D01*
X109523809Y-68880952D01*
X109476190Y-68833333D01*
X109428571Y-68738095D01*
X109428571Y-68642857D01*
X109476190Y-68547619D01*
X109523809Y-68500000D01*
X109619047Y-68452380D01*
X109857142Y-68452380D01*
X110000000Y-68500000D01*
X110333333Y-68452380D02*
X110571428Y-69452380D01*
X110761904Y-68738095D01*
X110952380Y-69452380D01*
X111190476Y-68452380D01*
X88523809Y-69404761D02*
X88666666Y-69452380D01*
X88904761Y-69452380D01*
X89000000Y-69404761D01*
X89047619Y-69357142D01*
X89095238Y-69261904D01*
X89095238Y-69166666D01*
X89047619Y-69071428D01*
X89000000Y-69023809D01*
X88904761Y-68976190D01*
X88714285Y-68928571D01*
X88619047Y-68880952D01*
X88571428Y-68833333D01*
X88523809Y-68738095D01*
X88523809Y-68642857D01*
X88571428Y-68547619D01*
X88619047Y-68500000D01*
X88714285Y-68452380D01*
X88952380Y-68452380D01*
X89095238Y-68500000D01*
X89428571Y-68452380D02*
X89666666Y-69452380D01*
X89857142Y-68738095D01*
X90047619Y-69452380D01*
X90285714Y-68452380D01*
X91333333Y-68785714D02*
X91523809Y-69452380D01*
X91714285Y-68976190D01*
X91904761Y-69452380D01*
X92095238Y-68785714D01*
X92476190Y-69452380D02*
X92476190Y-68785714D01*
X92476190Y-68452380D02*
X92428571Y-68500000D01*
X92476190Y-68547619D01*
X92523809Y-68500000D01*
X92476190Y-68452380D01*
X92476190Y-68547619D01*
X92809523Y-68785714D02*
X93190476Y-68785714D01*
X92952380Y-68452380D02*
X92952380Y-69309523D01*
X93000000Y-69404761D01*
X93095238Y-69452380D01*
X93190476Y-69452380D01*
X93523809Y-69452380D02*
X93523809Y-68452380D01*
X93952380Y-69452380D02*
X93952380Y-68928571D01*
X93904761Y-68833333D01*
X93809523Y-68785714D01*
X93666666Y-68785714D01*
X93571428Y-68833333D01*
X93523809Y-68880952D01*
X95761904Y-69452380D02*
X95428571Y-68976190D01*
X95190476Y-69452380D02*
X95190476Y-68452380D01*
X95571428Y-68452380D01*
X95666666Y-68500000D01*
X95714285Y-68547619D01*
X95761904Y-68642857D01*
X95761904Y-68785714D01*
X95714285Y-68880952D01*
X95666666Y-68928571D01*
X95571428Y-68976190D01*
X95190476Y-68976190D01*
X96142857Y-69404761D02*
X96285714Y-69452380D01*
X96523809Y-69452380D01*
X96619047Y-69404761D01*
X96666666Y-69357142D01*
X96714285Y-69261904D01*
X96714285Y-69166666D01*
X96666666Y-69071428D01*
X96619047Y-69023809D01*
X96523809Y-68976190D01*
X96333333Y-68928571D01*
X96238095Y-68880952D01*
X96190476Y-68833333D01*
X96142857Y-68738095D01*
X96142857Y-68642857D01*
X96190476Y-68547619D01*
X96238095Y-68500000D01*
X96333333Y-68452380D01*
X96571428Y-68452380D01*
X96714285Y-68500000D01*
X97000000Y-68452380D02*
X97571428Y-68452380D01*
X97285714Y-69452380D02*
X97285714Y-68452380D01*
X118214285Y-52547619D02*
X118261904Y-52500000D01*
X118357142Y-52452380D01*
X118595238Y-52452380D01*
X118690476Y-52500000D01*
X118738095Y-52547619D01*
X118785714Y-52642857D01*
X118785714Y-52738095D01*
X118738095Y-52880952D01*
X118166666Y-53452380D01*
X118785714Y-53452380D01*
X119404761Y-52452380D02*
X119500000Y-52452380D01*
X119595238Y-52500000D01*
X119642857Y-52547619D01*
X119690476Y-52642857D01*
X119738095Y-52833333D01*
X119738095Y-53071428D01*
X119690476Y-53261904D01*
X119642857Y-53357142D01*
X119595238Y-53404761D01*
X119500000Y-53452380D01*
X119404761Y-53452380D01*
X119309523Y-53404761D01*
X119261904Y-53357142D01*
X119214285Y-53261904D01*
X119166666Y-53071428D01*
X119166666Y-52833333D01*
X119214285Y-52642857D01*
X119261904Y-52547619D01*
X119309523Y-52500000D01*
X119404761Y-52452380D01*
X120928571Y-52785714D02*
X120928571Y-53785714D01*
X120928571Y-52833333D02*
X121023809Y-52785714D01*
X121214285Y-52785714D01*
X121309523Y-52833333D01*
X121357142Y-52880952D01*
X121404761Y-52976190D01*
X121404761Y-53261904D01*
X121357142Y-53357142D01*
X121309523Y-53404761D01*
X121214285Y-53452380D01*
X121023809Y-53452380D01*
X120928571Y-53404761D01*
X121833333Y-53452380D02*
X121833333Y-52785714D01*
X121833333Y-52452380D02*
X121785714Y-52500000D01*
X121833333Y-52547619D01*
X121880952Y-52500000D01*
X121833333Y-52452380D01*
X121833333Y-52547619D01*
X122309523Y-52785714D02*
X122309523Y-53452380D01*
X122309523Y-52880952D02*
X122357142Y-52833333D01*
X122452380Y-52785714D01*
X122595238Y-52785714D01*
X122690476Y-52833333D01*
X122738095Y-52928571D01*
X122738095Y-53452380D01*
X124261904Y-52452380D02*
X124261904Y-53166666D01*
X124214285Y-53309523D01*
X124119047Y-53404761D01*
X123976190Y-53452380D01*
X123880952Y-53452380D01*
X124595238Y-52452380D02*
X125166666Y-52452380D01*
X124880952Y-53452380D02*
X124880952Y-52452380D01*
X125452380Y-53166666D02*
X125928571Y-53166666D01*
X125357142Y-53452380D02*
X125690476Y-52452380D01*
X126023809Y-53452380D01*
X126880952Y-52500000D02*
X126785714Y-52452380D01*
X126642857Y-52452380D01*
X126500000Y-52500000D01*
X126404761Y-52595238D01*
X126357142Y-52690476D01*
X126309523Y-52880952D01*
X126309523Y-53023809D01*
X126357142Y-53214285D01*
X126404761Y-53309523D01*
X126500000Y-53404761D01*
X126642857Y-53452380D01*
X126738095Y-53452380D01*
X126880952Y-53404761D01*
X126928571Y-53357142D01*
X126928571Y-53023809D01*
X126738095Y-53023809D01*
X128119047Y-53452380D02*
X128119047Y-52452380D01*
X128500000Y-52452380D01*
X128595238Y-52500000D01*
X128642857Y-52547619D01*
X128690476Y-52642857D01*
X128690476Y-52785714D01*
X128642857Y-52880952D01*
X128595238Y-52928571D01*
X128500000Y-52976190D01*
X128119047Y-52976190D01*
X129261904Y-53452380D02*
X129166666Y-53404761D01*
X129119047Y-53357142D01*
X129071428Y-53261904D01*
X129071428Y-52976190D01*
X129119047Y-52880952D01*
X129166666Y-52833333D01*
X129261904Y-52785714D01*
X129404761Y-52785714D01*
X129500000Y-52833333D01*
X129547619Y-52880952D01*
X129595238Y-52976190D01*
X129595238Y-53261904D01*
X129547619Y-53357142D01*
X129500000Y-53404761D01*
X129404761Y-53452380D01*
X129261904Y-53452380D01*
X130023809Y-53452380D02*
X130023809Y-52785714D01*
X130023809Y-52976190D02*
X130071428Y-52880952D01*
X130119047Y-52833333D01*
X130214285Y-52785714D01*
X130309523Y-52785714D01*
X130500000Y-52785714D02*
X130880952Y-52785714D01*
X130642857Y-52452380D02*
X130642857Y-53309523D01*
X130690476Y-53404761D01*
X130785714Y-53452380D01*
X130880952Y-53452380D01*
X151952380Y-56627380D02*
X151619047Y-56151190D01*
X151380952Y-56627380D02*
X151380952Y-55627380D01*
X151761904Y-55627380D01*
X151857142Y-55675000D01*
X151904761Y-55722619D01*
X151952380Y-55817857D01*
X151952380Y-55960714D01*
X151904761Y-56055952D01*
X151857142Y-56103571D01*
X151761904Y-56151190D01*
X151380952Y-56151190D01*
X152333333Y-56579761D02*
X152476190Y-56627380D01*
X152714285Y-56627380D01*
X152809523Y-56579761D01*
X152857142Y-56532142D01*
X152904761Y-56436904D01*
X152904761Y-56341666D01*
X152857142Y-56246428D01*
X152809523Y-56198809D01*
X152714285Y-56151190D01*
X152523809Y-56103571D01*
X152428571Y-56055952D01*
X152380952Y-56008333D01*
X152333333Y-55913095D01*
X152333333Y-55817857D01*
X152380952Y-55722619D01*
X152428571Y-55675000D01*
X152523809Y-55627380D01*
X152761904Y-55627380D01*
X152904761Y-55675000D01*
X153190476Y-55627380D02*
X153761904Y-55627380D01*
X153476190Y-56627380D02*
X153476190Y-55627380D01*
X151666666Y-57753571D02*
X151809523Y-57801190D01*
X151857142Y-57848809D01*
X151904761Y-57944047D01*
X151904761Y-58086904D01*
X151857142Y-58182142D01*
X151809523Y-58229761D01*
X151714285Y-58277380D01*
X151333333Y-58277380D01*
X151333333Y-57277380D01*
X151666666Y-57277380D01*
X151761904Y-57325000D01*
X151809523Y-57372619D01*
X151857142Y-57467857D01*
X151857142Y-57563095D01*
X151809523Y-57658333D01*
X151761904Y-57705952D01*
X151666666Y-57753571D01*
X151333333Y-57753571D01*
X152190476Y-57277380D02*
X152761904Y-57277380D01*
X152476190Y-58277380D02*
X152476190Y-57277380D01*
X153095238Y-58277380D02*
X153095238Y-57277380D01*
X153666666Y-58277380D01*
X153666666Y-57277380D01*
X135666666Y-58127380D02*
X135666666Y-57127380D01*
X136047619Y-57127380D01*
X136142857Y-57175000D01*
X136190476Y-57222619D01*
X136238095Y-57317857D01*
X136238095Y-57460714D01*
X136190476Y-57555952D01*
X136142857Y-57603571D01*
X136047619Y-57651190D01*
X135666666Y-57651190D01*
X136571428Y-57127380D02*
X136809523Y-58127380D01*
X137000000Y-57413095D01*
X137190476Y-58127380D01*
X137428571Y-57127380D01*
X138380952Y-58127380D02*
X138047619Y-57651190D01*
X137809523Y-58127380D02*
X137809523Y-57127380D01*
X138190476Y-57127380D01*
X138285714Y-57175000D01*
X138333333Y-57222619D01*
X138380952Y-57317857D01*
X138380952Y-57460714D01*
X138333333Y-57555952D01*
X138285714Y-57603571D01*
X138190476Y-57651190D01*
X137809523Y-57651190D01*
X134595238Y-58777380D02*
X134595238Y-59491666D01*
X134547619Y-59634523D01*
X134452380Y-59729761D01*
X134309523Y-59777380D01*
X134214285Y-59777380D01*
X135071428Y-58777380D02*
X135071428Y-59586904D01*
X135119047Y-59682142D01*
X135166666Y-59729761D01*
X135261904Y-59777380D01*
X135452380Y-59777380D01*
X135547619Y-59729761D01*
X135595238Y-59682142D01*
X135642857Y-59586904D01*
X135642857Y-58777380D01*
X136119047Y-59777380D02*
X136119047Y-58777380D01*
X136452380Y-59491666D01*
X136785714Y-58777380D01*
X136785714Y-59777380D01*
X137261904Y-59777380D02*
X137261904Y-58777380D01*
X137642857Y-58777380D01*
X137738095Y-58825000D01*
X137785714Y-58872619D01*
X137833333Y-58967857D01*
X137833333Y-59110714D01*
X137785714Y-59205952D01*
X137738095Y-59253571D01*
X137642857Y-59301190D01*
X137261904Y-59301190D01*
X138261904Y-59253571D02*
X138595238Y-59253571D01*
X138738095Y-59777380D02*
X138261904Y-59777380D01*
X138261904Y-58777380D01*
X138738095Y-58777380D01*
X139738095Y-59777380D02*
X139404761Y-59301190D01*
X139166666Y-59777380D02*
X139166666Y-58777380D01*
X139547619Y-58777380D01*
X139642857Y-58825000D01*
X139690476Y-58872619D01*
X139738095Y-58967857D01*
X139738095Y-59110714D01*
X139690476Y-59205952D01*
X139642857Y-59253571D01*
X139547619Y-59301190D01*
X139166666Y-59301190D01*
X142666666Y-59127380D02*
X142666666Y-58127380D01*
X143047619Y-58127380D01*
X143142857Y-58175000D01*
X143190476Y-58222619D01*
X143238095Y-58317857D01*
X143238095Y-58460714D01*
X143190476Y-58555952D01*
X143142857Y-58603571D01*
X143047619Y-58651190D01*
X142666666Y-58651190D01*
X143571428Y-58127380D02*
X143809523Y-59127380D01*
X144000000Y-58413095D01*
X144190476Y-59127380D01*
X144428571Y-58127380D01*
X145380952Y-59127380D02*
X145047619Y-58651190D01*
X144809523Y-59127380D02*
X144809523Y-58127380D01*
X145190476Y-58127380D01*
X145285714Y-58175000D01*
X145333333Y-58222619D01*
X145380952Y-58317857D01*
X145380952Y-58460714D01*
X145333333Y-58555952D01*
X145285714Y-58603571D01*
X145190476Y-58651190D01*
X144809523Y-58651190D01*
X143357142Y-60777380D02*
X142880952Y-60777380D01*
X142880952Y-59777380D01*
X143690476Y-60253571D02*
X144023809Y-60253571D01*
X144166666Y-60777380D02*
X143690476Y-60777380D01*
X143690476Y-59777380D01*
X144166666Y-59777380D01*
X144595238Y-60777380D02*
X144595238Y-59777380D01*
X144833333Y-59777380D01*
X144976190Y-59825000D01*
X145071428Y-59920238D01*
X145119047Y-60015476D01*
X145166666Y-60205952D01*
X145166666Y-60348809D01*
X145119047Y-60539285D01*
X145071428Y-60634523D01*
X144976190Y-60729761D01*
X144833333Y-60777380D01*
X144595238Y-60777380D01*
D11*
X156150000Y-47500000D02*
X155150000Y-47000000D01*
X155150000Y-47000000D02*
X155150000Y-48000000D01*
X155150000Y-48000000D02*
X156150000Y-47500000D01*
X132790000Y-51540000D02*
X132790000Y-42420000D01*
X132790000Y-42420000D02*
X153370000Y-42420000D01*
X153370000Y-42420000D02*
X153370000Y-51540000D01*
X153370000Y-51540000D02*
X132790000Y-51540000D01*
X141030000Y-51540000D02*
X141030000Y-50230000D01*
X141030000Y-50230000D02*
X134090000Y-50230000D01*
X134090000Y-50230000D02*
X134090000Y-43730000D01*
X134090000Y-43730000D02*
X152070000Y-43730000D01*
X152070000Y-43730000D02*
X152070000Y-50230000D01*
X152070000Y-50230000D02*
X145130000Y-50230000D01*
X145130000Y-50230000D02*
X145130000Y-50230000D01*
X145130000Y-50230000D02*
X145130000Y-51540000D01*
X138000000Y-51930000D02*
X137500000Y-52930000D01*
X137500000Y-52930000D02*
X138500000Y-52930000D01*
X138500000Y-52930000D02*
X138000000Y-51930000D01*
X152000000Y-66500000D02*
X153500000Y-66500000D01*
X152000000Y-62500000D02*
X152000000Y-66500000D01*
X153500000Y-62500000D02*
X152000000Y-62500000D01*
X153500000Y-66500000D02*
X153500000Y-62500000D01*
X151000000Y-67500000D02*
X154500000Y-67500000D01*
X151000000Y-61500000D02*
X151000000Y-67500000D01*
X154500000Y-61500000D02*
X151000000Y-61500000D01*
X154500000Y-67500000D02*
X154500000Y-61500000D01*
X143272936Y-65090000D02*
X144727064Y-65090000D01*
X143272936Y-66910000D02*
X144727064Y-66910000D01*
X99490000Y-67830000D02*
X99490000Y-65170000D01*
X89270000Y-67830000D02*
X99490000Y-67830000D01*
X89270000Y-65170000D02*
X99490000Y-65170000D01*
X89270000Y-67830000D02*
X89270000Y-65170000D01*
X88000000Y-67830000D02*
X86670000Y-67830000D01*
X86670000Y-67830000D02*
X86670000Y-66500000D01*
X112910000Y-67830000D02*
X112910000Y-65170000D01*
X105230000Y-67830000D02*
X112910000Y-67830000D01*
X105230000Y-65170000D02*
X112910000Y-65170000D01*
X105230000Y-67830000D02*
X105230000Y-65170000D01*
X103960000Y-67830000D02*
X102630000Y-67830000D01*
X102630000Y-67830000D02*
X102630000Y-66500000D01*
X114750000Y-67830000D02*
X114750000Y-58710000D01*
X114750000Y-58710000D02*
X130250000Y-58710000D01*
X130250000Y-58710000D02*
X130250000Y-67830000D01*
X130250000Y-67830000D02*
X114750000Y-67830000D01*
X120450000Y-67830000D02*
X120450000Y-66520000D01*
X120450000Y-66520000D02*
X116050000Y-66520000D01*
X116050000Y-66520000D02*
X116050000Y-60020000D01*
X116050000Y-60020000D02*
X128950000Y-60020000D01*
X128950000Y-60020000D02*
X128950000Y-66520000D01*
X128950000Y-66520000D02*
X124550000Y-66520000D01*
X124550000Y-66520000D02*
X124550000Y-66520000D01*
X124550000Y-66520000D02*
X124550000Y-67830000D01*
X119960000Y-68220000D02*
X119460000Y-69220000D01*
X119460000Y-69220000D02*
X120460000Y-69220000D01*
X120460000Y-69220000D02*
X119960000Y-68220000D01*
X135670000Y-66870000D02*
X138330000Y-66870000D01*
X135670000Y-64270000D02*
X135670000Y-66870000D01*
X138330000Y-64270000D02*
X138330000Y-66870000D01*
X135670000Y-64270000D02*
X138330000Y-64270000D01*
X135670000Y-63000000D02*
X135670000Y-61670000D01*
X135670000Y-61670000D02*
X137000000Y-61670000D01*
X97790000Y-51570000D02*
X97790000Y-42450000D01*
X97790000Y-42450000D02*
X131070000Y-42450000D01*
X131070000Y-42450000D02*
X131070000Y-51570000D01*
X131070000Y-51570000D02*
X97790000Y-51570000D01*
X112380000Y-51570000D02*
X112380000Y-50260000D01*
X112380000Y-50260000D02*
X99090000Y-50260000D01*
X99090000Y-50260000D02*
X99090000Y-43760000D01*
X99090000Y-43760000D02*
X129770000Y-43760000D01*
X129770000Y-43760000D02*
X129770000Y-50260000D01*
X129770000Y-50260000D02*
X116480000Y-50260000D01*
X116480000Y-50260000D02*
X116480000Y-50260000D01*
X116480000Y-50260000D02*
X116480000Y-51570000D01*
X103000000Y-51960000D02*
X102500000Y-52960000D01*
X102500000Y-52960000D02*
X103500000Y-52960000D01*
X103500000Y-52960000D02*
X103000000Y-51960000D01*
X75710001Y-51790000D02*
X75710001Y-42670000D01*
X75710001Y-42670000D02*
X96290001Y-42670000D01*
X96290001Y-42670000D02*
X96290001Y-51790000D01*
X96290001Y-51790000D02*
X75710001Y-51790000D01*
X83950001Y-51790000D02*
X83950001Y-50480000D01*
X83950001Y-50480000D02*
X77010001Y-50480000D01*
X77010001Y-50480000D02*
X77010001Y-43980000D01*
X77010001Y-43980000D02*
X94990001Y-43980000D01*
X94990001Y-43980000D02*
X94990001Y-50480000D01*
X94990001Y-50480000D02*
X88050001Y-50480000D01*
X88050001Y-50480000D02*
X88050001Y-50480000D01*
X88050001Y-50480000D02*
X88050001Y-51790000D01*
X80920001Y-52180000D02*
X80420001Y-53180000D01*
X80420001Y-53180000D02*
X81420001Y-53180000D01*
X81420001Y-53180000D02*
X80920001Y-52180000D01*
X145600000Y-61865000D02*
X141540000Y-61865000D01*
X141540000Y-61865000D02*
X141540000Y-64135000D01*
X141540000Y-64135000D02*
X145600000Y-64135000D01*
%LPC*%
D12*
X160040000Y-57660000D03*
X160040000Y-55120000D03*
X160040000Y-52580000D03*
X160040000Y-50040000D03*
X160040000Y-47500000D03*
X157500000Y-57660000D03*
X157500000Y-55120000D03*
X157500000Y-52580000D03*
X157500000Y-50040000D03*
G36*
G01*
X156600000Y-48135295D02*
X156600000Y-46864705D01*
G75*
G02*
X156864705Y-46600000I264705J0D01*
G01*
X158135295Y-46600000D01*
G75*
G02*
X158400000Y-46864705I0J-264705D01*
G01*
X158400000Y-48135295D01*
G75*
G02*
X158135295Y-48400000I-264705J0D01*
G01*
X156864705Y-48400000D01*
G75*
G02*
X156600000Y-48135295I0J264705D01*
G01*
G37*
X148160000Y-45710000D03*
X145620000Y-45710000D03*
X143080000Y-45710000D03*
X140540000Y-45710000D03*
X138000000Y-45710000D03*
X148160000Y-48250000D03*
X145620000Y-48250000D03*
X143080000Y-48250000D03*
X140540000Y-48250000D03*
G36*
G01*
X138635295Y-49150000D02*
X137364705Y-49150000D01*
G75*
G02*
X137100000Y-48885295I0J264705D01*
G01*
X137100000Y-47614705D01*
G75*
G02*
X137364705Y-47350000I264705J0D01*
G01*
X138635295Y-47350000D01*
G75*
G02*
X138900000Y-47614705I0J-264705D01*
G01*
X138900000Y-48885295D01*
G75*
G02*
X138635295Y-49150000I-264705J0D01*
G01*
G37*
G36*
G01*
X153050000Y-61475000D02*
X152450000Y-61475000D01*
G75*
G02*
X152400000Y-61425000I0J50000D01*
G01*
X152400000Y-59925000D01*
G75*
G02*
X152450000Y-59875000I50000J0D01*
G01*
X153050000Y-59875000D01*
G75*
G02*
X153100000Y-59925000I0J-50000D01*
G01*
X153100000Y-61425000D01*
G75*
G02*
X153050000Y-61475000I-50000J0D01*
G01*
G37*
G36*
G01*
X153050000Y-69125000D02*
X152450000Y-69125000D01*
G75*
G02*
X152400000Y-69075000I0J50000D01*
G01*
X152400000Y-67575000D01*
G75*
G02*
X152450000Y-67525000I50000J0D01*
G01*
X153050000Y-67525000D01*
G75*
G02*
X153100000Y-67575000I0J-50000D01*
G01*
X153100000Y-69075000D01*
G75*
G02*
X153050000Y-69125000I-50000J0D01*
G01*
G37*
G36*
G01*
X144850000Y-66655770D02*
X144850000Y-65344230D01*
G75*
G02*
X145119230Y-65075000I269230J0D01*
G01*
X145980770Y-65075000D01*
G75*
G02*
X146250000Y-65344230I0J-269230D01*
G01*
X146250000Y-66655770D01*
G75*
G02*
X145980770Y-66925000I-269230J0D01*
G01*
X145119230Y-66925000D01*
G75*
G02*
X144850000Y-66655770I0J269230D01*
G01*
G37*
G36*
G01*
X141750000Y-66655770D02*
X141750000Y-65344230D01*
G75*
G02*
X142019230Y-65075000I269230J0D01*
G01*
X142880770Y-65075000D01*
G75*
G02*
X143150000Y-65344230I0J-269230D01*
G01*
X143150000Y-66655770D01*
G75*
G02*
X142880770Y-66925000I-269230J0D01*
G01*
X142019230Y-66925000D01*
G75*
G02*
X141750000Y-66655770I0J269230D01*
G01*
G37*
D13*
X98160000Y-66500000D03*
X95620000Y-66500000D03*
X93080000Y-66500000D03*
X90540000Y-66500000D03*
G36*
G01*
X88850000Y-67400000D02*
X87150000Y-67400000D01*
G75*
G02*
X87100000Y-67350000I0J50000D01*
G01*
X87100000Y-65650000D01*
G75*
G02*
X87150000Y-65600000I50000J0D01*
G01*
X88850000Y-65600000D01*
G75*
G02*
X88900000Y-65650000I0J-50000D01*
G01*
X88900000Y-67350000D01*
G75*
G02*
X88850000Y-67400000I-50000J0D01*
G01*
G37*
X111580000Y-66500000D03*
X109040000Y-66500000D03*
X106500000Y-66500000D03*
G36*
G01*
X104810000Y-67400000D02*
X103110000Y-67400000D01*
G75*
G02*
X103060000Y-67350000I0J50000D01*
G01*
X103060000Y-65650000D01*
G75*
G02*
X103110000Y-65600000I50000J0D01*
G01*
X104810000Y-65600000D01*
G75*
G02*
X104860000Y-65650000I0J-50000D01*
G01*
X104860000Y-67350000D01*
G75*
G02*
X104810000Y-67400000I-50000J0D01*
G01*
G37*
D12*
X125040000Y-62000000D03*
X122500000Y-62000000D03*
X119960000Y-62000000D03*
X125040000Y-64540000D03*
X122500000Y-64540000D03*
G36*
G01*
X120595295Y-65440000D02*
X119324705Y-65440000D01*
G75*
G02*
X119060000Y-65175295I0J264705D01*
G01*
X119060000Y-63904705D01*
G75*
G02*
X119324705Y-63640000I264705J0D01*
G01*
X120595295Y-63640000D01*
G75*
G02*
X120860000Y-63904705I0J-264705D01*
G01*
X120860000Y-65175295D01*
G75*
G02*
X120595295Y-65440000I-264705J0D01*
G01*
G37*
D13*
X137000000Y-65540000D03*
G36*
G01*
X136100000Y-63850000D02*
X136100000Y-62150000D01*
G75*
G02*
X136150000Y-62100000I50000J0D01*
G01*
X137850000Y-62100000D01*
G75*
G02*
X137900000Y-62150000I0J-50000D01*
G01*
X137900000Y-63850000D01*
G75*
G02*
X137850000Y-63900000I-50000J0D01*
G01*
X136150000Y-63900000D01*
G75*
G02*
X136100000Y-63850000I0J50000D01*
G01*
G37*
D12*
X125860000Y-45740000D03*
X123320000Y-45740000D03*
X120780000Y-45740000D03*
X118240000Y-45740000D03*
X115700000Y-45740000D03*
X113160000Y-45740000D03*
X110620000Y-45740000D03*
X108080000Y-45740000D03*
X105540000Y-45740000D03*
X103000000Y-45740000D03*
X125860000Y-48280000D03*
X123320000Y-48280000D03*
X120780000Y-48280000D03*
X118240000Y-48280000D03*
X115700000Y-48280000D03*
X113160000Y-48280000D03*
X110620000Y-48280000D03*
X108080000Y-48280000D03*
X105540000Y-48280000D03*
G36*
G01*
X103635295Y-49180000D02*
X102364705Y-49180000D01*
G75*
G02*
X102100000Y-48915295I0J264705D01*
G01*
X102100000Y-47644705D01*
G75*
G02*
X102364705Y-47380000I264705J0D01*
G01*
X103635295Y-47380000D01*
G75*
G02*
X103900000Y-47644705I0J-264705D01*
G01*
X103900000Y-48915295D01*
G75*
G02*
X103635295Y-49180000I-264705J0D01*
G01*
G37*
X91080001Y-45960000D03*
X88540001Y-45960000D03*
X86000001Y-45960000D03*
X83460001Y-45960000D03*
X80920001Y-45960000D03*
X91080001Y-48500000D03*
X88540001Y-48500000D03*
X86000001Y-48500000D03*
X83460001Y-48500000D03*
G36*
G01*
X81555296Y-49400000D02*
X80284706Y-49400000D01*
G75*
G02*
X80020001Y-49135295I0J264705D01*
G01*
X80020001Y-47864705D01*
G75*
G02*
X80284706Y-47600000I264705J0D01*
G01*
X81555296Y-47600000D01*
G75*
G02*
X81820001Y-47864705I0J-264705D01*
G01*
X81820001Y-49135295D01*
G75*
G02*
X81555296Y-49400000I-264705J0D01*
G01*
G37*
G36*
G01*
X144725000Y-63657457D02*
X144725000Y-62342543D01*
G75*
G02*
X144992543Y-62075000I267543J0D01*
G01*
X145982457Y-62075000D01*
G75*
G02*
X146250000Y-62342543I0J-267543D01*
G01*
X146250000Y-63657457D01*
G75*
G02*
X145982457Y-63925000I-267543J0D01*
G01*
X144992543Y-63925000D01*
G75*
G02*
X144725000Y-63657457I0J267543D01*
G01*
G37*
G36*
G01*
X141750000Y-63657457D02*
X141750000Y-62342543D01*
G75*
G02*
X142017543Y-62075000I267543J0D01*
G01*
X143007457Y-62075000D01*
G75*
G02*
X143275000Y-62342543I0J-267543D01*
G01*
X143275000Y-63657457D01*
G75*
G02*
X143007457Y-63925000I-267543J0D01*
G01*
X142017543Y-63925000D01*
G75*
G02*
X141750000Y-63657457I0J267543D01*
G01*
G37*
M02*
