%FSLAX45Y45*%
G04 Gerber Fmt 4.5, Leading zero omitted, Abs format (unit mm)*
G04 Created by KiCad (PCBNEW (5.1.10)-1) date 2021-11-05 12:16:40*
%MOMM*%
%LPD*%
G01*
G04 APERTURE LIST*
%TA.AperFunction,Profile*%
%ADD10C,0.025400*%
%TD*%
%ADD11C,0.200000*%
%ADD12C,0.300000*%
G04 APERTURE END LIST*
D10*
X14859000Y-4191000D02*
X8001000Y-4191000D01*
X14859000Y-8001000D02*
X14859000Y-4191000D01*
X8001000Y-8001000D02*
X14859000Y-8001000D01*
X8001000Y-4191000D02*
X8001000Y-8001000D01*
D11*
X11283000Y-5060000D02*
X11323000Y-5100000D01*
X11323000Y-5060000D02*
X11283000Y-5100000D01*
X8940000Y-4953000D02*
G75*
G03*
X8940000Y-4953000I-50000J0D01*
G01*
X8940000Y-5207000D02*
G75*
G03*
X8940000Y-5207000I-50000J0D01*
G01*
X8940000Y-5461000D02*
G75*
G03*
X8940000Y-5461000I-50000J0D01*
G01*
X8940000Y-5715000D02*
G75*
G03*
X8940000Y-5715000I-50000J0D01*
G01*
X8940000Y-5969000D02*
G75*
G03*
X8940000Y-5969000I-50000J0D01*
G01*
X8940000Y-6223000D02*
G75*
G03*
X8940000Y-6223000I-50000J0D01*
G01*
X8940000Y-6477000D02*
G75*
G03*
X8940000Y-6477000I-50000J0D01*
G01*
X8940000Y-6731000D02*
G75*
G03*
X8940000Y-6731000I-50000J0D01*
G01*
X8940000Y-6985000D02*
G75*
G03*
X8940000Y-6985000I-50000J0D01*
G01*
X8940000Y-7239000D02*
G75*
G03*
X8940000Y-7239000I-50000J0D01*
G01*
X9194000Y-4953000D02*
G75*
G03*
X9194000Y-4953000I-50000J0D01*
G01*
X9194000Y-5207000D02*
G75*
G03*
X9194000Y-5207000I-50000J0D01*
G01*
X9194000Y-5461000D02*
G75*
G03*
X9194000Y-5461000I-50000J0D01*
G01*
X9194000Y-5715000D02*
G75*
G03*
X9194000Y-5715000I-50000J0D01*
G01*
X9194000Y-5969000D02*
G75*
G03*
X9194000Y-5969000I-50000J0D01*
G01*
X9194000Y-6223000D02*
G75*
G03*
X9194000Y-6223000I-50000J0D01*
G01*
X9194000Y-6477000D02*
G75*
G03*
X9194000Y-6477000I-50000J0D01*
G01*
X9194000Y-6731000D02*
G75*
G03*
X9194000Y-6731000I-50000J0D01*
G01*
X9194000Y-6985000D02*
G75*
G03*
X9194000Y-6985000I-50000J0D01*
G01*
X9194000Y-7239000D02*
G75*
G03*
X9194000Y-7239000I-50000J0D01*
G01*
X10591000Y-4953000D02*
G75*
G03*
X10591000Y-4953000I-50000J0D01*
G01*
X10591000Y-5207000D02*
G75*
G03*
X10591000Y-5207000I-50000J0D01*
G01*
X10591000Y-5461000D02*
G75*
G03*
X10591000Y-5461000I-50000J0D01*
G01*
X10591000Y-5715000D02*
G75*
G03*
X10591000Y-5715000I-50000J0D01*
G01*
X10591000Y-5969000D02*
G75*
G03*
X10591000Y-5969000I-50000J0D01*
G01*
X10845000Y-4953000D02*
G75*
G03*
X10845000Y-4953000I-50000J0D01*
G01*
X10845000Y-5207000D02*
G75*
G03*
X10845000Y-5207000I-50000J0D01*
G01*
X10845000Y-5461000D02*
G75*
G03*
X10845000Y-5461000I-50000J0D01*
G01*
X10845000Y-5715000D02*
G75*
G03*
X10845000Y-5715000I-50000J0D01*
G01*
X10845000Y-5969000D02*
G75*
G03*
X10845000Y-5969000I-50000J0D01*
G01*
X11226000Y-7366000D02*
G75*
G03*
X11226000Y-7366000I-50000J0D01*
G01*
X11480000Y-7366000D02*
G75*
G03*
X11480000Y-7366000I-50000J0D01*
G01*
X11734000Y-7366000D02*
G75*
G03*
X11734000Y-7366000I-50000J0D01*
G01*
X11988000Y-7366000D02*
G75*
G03*
X11988000Y-7366000I-50000J0D01*
G01*
X12352000Y-4953000D02*
G75*
G03*
X12352000Y-4953000I-50000J0D01*
G01*
X12352000Y-5207000D02*
G75*
G03*
X12352000Y-5207000I-50000J0D01*
G01*
X12352000Y-5461000D02*
G75*
G03*
X12352000Y-5461000I-50000J0D01*
G01*
X12352000Y-5715000D02*
G75*
G03*
X12352000Y-5715000I-50000J0D01*
G01*
X12352000Y-5969000D02*
G75*
G03*
X12352000Y-5969000I-50000J0D01*
G01*
X12606000Y-4953000D02*
G75*
G03*
X12606000Y-4953000I-50000J0D01*
G01*
X12606000Y-5207000D02*
G75*
G03*
X12606000Y-5207000I-50000J0D01*
G01*
X12606000Y-5461000D02*
G75*
G03*
X12606000Y-5461000I-50000J0D01*
G01*
X12606000Y-5715000D02*
G75*
G03*
X12606000Y-5715000I-50000J0D01*
G01*
X12606000Y-5969000D02*
G75*
G03*
X12606000Y-5969000I-50000J0D01*
G01*
X13385000Y-7366000D02*
G75*
G03*
X13385000Y-7366000I-50000J0D01*
G01*
X13639000Y-7366000D02*
G75*
G03*
X13639000Y-7366000I-50000J0D01*
G01*
X14147000Y-4953000D02*
G75*
G03*
X14147000Y-4953000I-50000J0D01*
G01*
X14147000Y-5207000D02*
G75*
G03*
X14147000Y-5207000I-50000J0D01*
G01*
X14147000Y-5461000D02*
G75*
G03*
X14147000Y-5461000I-50000J0D01*
G01*
X14147000Y-5715000D02*
G75*
G03*
X14147000Y-5715000I-50000J0D01*
G01*
X14147000Y-5969000D02*
G75*
G03*
X14147000Y-5969000I-50000J0D01*
G01*
X14401000Y-4953000D02*
G75*
G03*
X14401000Y-4953000I-50000J0D01*
G01*
X14401000Y-5207000D02*
G75*
G03*
X14401000Y-5207000I-50000J0D01*
G01*
X14401000Y-5461000D02*
G75*
G03*
X14401000Y-5461000I-50000J0D01*
G01*
X14401000Y-5715000D02*
G75*
G03*
X14401000Y-5715000I-50000J0D01*
G01*
X14401000Y-5969000D02*
G75*
G03*
X14401000Y-5969000I-50000J0D01*
G01*
D12*
X8286158Y-8467984D02*
X8286158Y-8167984D01*
X8357587Y-8167984D01*
X8400444Y-8182270D01*
X8429016Y-8210841D01*
X8443301Y-8239413D01*
X8457587Y-8296556D01*
X8457587Y-8339413D01*
X8443301Y-8396556D01*
X8429016Y-8425127D01*
X8400444Y-8453699D01*
X8357587Y-8467984D01*
X8286158Y-8467984D01*
X8586158Y-8467984D02*
X8586158Y-8267984D01*
X8586158Y-8325127D02*
X8600444Y-8296556D01*
X8614730Y-8282270D01*
X8643301Y-8267984D01*
X8671873Y-8267984D01*
X8771873Y-8467984D02*
X8771873Y-8267984D01*
X8771873Y-8167984D02*
X8757587Y-8182270D01*
X8771873Y-8196556D01*
X8786158Y-8182270D01*
X8771873Y-8167984D01*
X8771873Y-8196556D01*
X8957587Y-8467984D02*
X8929016Y-8453699D01*
X8914730Y-8425127D01*
X8914730Y-8167984D01*
X9114730Y-8467984D02*
X9086158Y-8453699D01*
X9071873Y-8425127D01*
X9071873Y-8167984D01*
X9457587Y-8467984D02*
X9457587Y-8167984D01*
X9557587Y-8382270D01*
X9657587Y-8167984D01*
X9657587Y-8467984D01*
X9929016Y-8467984D02*
X9929016Y-8310841D01*
X9914730Y-8282270D01*
X9886158Y-8267984D01*
X9829016Y-8267984D01*
X9800444Y-8282270D01*
X9929016Y-8453699D02*
X9900444Y-8467984D01*
X9829016Y-8467984D01*
X9800444Y-8453699D01*
X9786158Y-8425127D01*
X9786158Y-8396556D01*
X9800444Y-8367984D01*
X9829016Y-8353699D01*
X9900444Y-8353699D01*
X9929016Y-8339413D01*
X10071873Y-8267984D02*
X10071873Y-8567984D01*
X10071873Y-8282270D02*
X10100444Y-8267984D01*
X10157587Y-8267984D01*
X10186158Y-8282270D01*
X10200444Y-8296556D01*
X10214730Y-8325127D01*
X10214730Y-8410842D01*
X10200444Y-8439413D01*
X10186158Y-8453699D01*
X10157587Y-8467984D01*
X10100444Y-8467984D01*
X10071873Y-8453699D01*
X10343301Y-8439413D02*
X10357587Y-8453699D01*
X10343301Y-8467984D01*
X10329016Y-8453699D01*
X10343301Y-8439413D01*
X10343301Y-8467984D01*
X10343301Y-8282270D02*
X10357587Y-8296556D01*
X10343301Y-8310841D01*
X10329016Y-8296556D01*
X10343301Y-8282270D01*
X10343301Y-8310841D01*
X7959730Y-8942270D02*
X7999730Y-8982270D01*
X7999730Y-8942270D02*
X7959730Y-8982270D01*
X8343301Y-8797984D02*
X8371873Y-8797984D01*
X8400444Y-8812270D01*
X8414730Y-8826556D01*
X8429016Y-8855127D01*
X8443301Y-8912270D01*
X8443301Y-8983699D01*
X8429016Y-9040842D01*
X8414730Y-9069413D01*
X8400444Y-9083699D01*
X8371873Y-9097984D01*
X8343301Y-9097984D01*
X8314730Y-9083699D01*
X8300444Y-9069413D01*
X8286158Y-9040842D01*
X8271873Y-8983699D01*
X8271873Y-8912270D01*
X8286158Y-8855127D01*
X8300444Y-8826556D01*
X8314730Y-8812270D01*
X8343301Y-8797984D01*
X8571873Y-9069413D02*
X8586158Y-9083699D01*
X8571873Y-9097984D01*
X8557587Y-9083699D01*
X8571873Y-9069413D01*
X8571873Y-9097984D01*
X8843301Y-8897984D02*
X8843301Y-9097984D01*
X8771873Y-8783699D02*
X8700444Y-8997984D01*
X8886158Y-8997984D01*
X9057587Y-8797984D02*
X9086158Y-8797984D01*
X9114730Y-8812270D01*
X9129016Y-8826556D01*
X9143301Y-8855127D01*
X9157587Y-8912270D01*
X9157587Y-8983699D01*
X9143301Y-9040842D01*
X9129016Y-9069413D01*
X9114730Y-9083699D01*
X9086158Y-9097984D01*
X9057587Y-9097984D01*
X9029016Y-9083699D01*
X9014730Y-9069413D01*
X9000444Y-9040842D01*
X8986158Y-8983699D01*
X8986158Y-8912270D01*
X9000444Y-8855127D01*
X9014730Y-8826556D01*
X9029016Y-8812270D01*
X9057587Y-8797984D01*
X9343301Y-8797984D02*
X9371873Y-8797984D01*
X9400444Y-8812270D01*
X9414730Y-8826556D01*
X9429016Y-8855127D01*
X9443301Y-8912270D01*
X9443301Y-8983699D01*
X9429016Y-9040842D01*
X9414730Y-9069413D01*
X9400444Y-9083699D01*
X9371873Y-9097984D01*
X9343301Y-9097984D01*
X9314730Y-9083699D01*
X9300444Y-9069413D01*
X9286158Y-9040842D01*
X9271873Y-8983699D01*
X9271873Y-8912270D01*
X9286158Y-8855127D01*
X9300444Y-8826556D01*
X9314730Y-8812270D01*
X9343301Y-8797984D01*
X9571873Y-9097984D02*
X9571873Y-8897984D01*
X9571873Y-8926556D02*
X9586158Y-8912270D01*
X9614730Y-8897984D01*
X9657587Y-8897984D01*
X9686158Y-8912270D01*
X9700444Y-8940842D01*
X9700444Y-9097984D01*
X9700444Y-8940842D02*
X9714730Y-8912270D01*
X9743301Y-8897984D01*
X9786158Y-8897984D01*
X9814730Y-8912270D01*
X9829016Y-8940842D01*
X9829016Y-9097984D01*
X9971873Y-9097984D02*
X9971873Y-8897984D01*
X9971873Y-8926556D02*
X9986158Y-8912270D01*
X10014730Y-8897984D01*
X10057587Y-8897984D01*
X10086158Y-8912270D01*
X10100444Y-8940842D01*
X10100444Y-9097984D01*
X10100444Y-8940842D02*
X10114730Y-8912270D01*
X10143301Y-8897984D01*
X10186158Y-8897984D01*
X10214730Y-8912270D01*
X10229016Y-8940842D01*
X10229016Y-9097984D01*
X10814730Y-8783699D02*
X10557587Y-9169413D01*
X11200444Y-8797984D02*
X11229016Y-8797984D01*
X11257587Y-8812270D01*
X11271873Y-8826556D01*
X11286158Y-8855127D01*
X11300444Y-8912270D01*
X11300444Y-8983699D01*
X11286158Y-9040842D01*
X11271873Y-9069413D01*
X11257587Y-9083699D01*
X11229016Y-9097984D01*
X11200444Y-9097984D01*
X11171873Y-9083699D01*
X11157587Y-9069413D01*
X11143301Y-9040842D01*
X11129016Y-8983699D01*
X11129016Y-8912270D01*
X11143301Y-8855127D01*
X11157587Y-8826556D01*
X11171873Y-8812270D01*
X11200444Y-8797984D01*
X11429016Y-9069413D02*
X11443301Y-9083699D01*
X11429016Y-9097984D01*
X11414730Y-9083699D01*
X11429016Y-9069413D01*
X11429016Y-9097984D01*
X11629016Y-8797984D02*
X11657587Y-8797984D01*
X11686158Y-8812270D01*
X11700444Y-8826556D01*
X11714730Y-8855127D01*
X11729016Y-8912270D01*
X11729016Y-8983699D01*
X11714730Y-9040842D01*
X11700444Y-9069413D01*
X11686158Y-9083699D01*
X11657587Y-9097984D01*
X11629016Y-9097984D01*
X11600444Y-9083699D01*
X11586158Y-9069413D01*
X11571873Y-9040842D01*
X11557587Y-8983699D01*
X11557587Y-8912270D01*
X11571873Y-8855127D01*
X11586158Y-8826556D01*
X11600444Y-8812270D01*
X11629016Y-8797984D01*
X12014730Y-9097984D02*
X11843301Y-9097984D01*
X11929016Y-9097984D02*
X11929016Y-8797984D01*
X11900444Y-8840842D01*
X11871873Y-8869413D01*
X11843301Y-8883699D01*
X12286158Y-8797984D02*
X12143301Y-8797984D01*
X12129016Y-8940842D01*
X12143301Y-8926556D01*
X12171873Y-8912270D01*
X12243301Y-8912270D01*
X12271873Y-8926556D01*
X12286158Y-8940842D01*
X12300444Y-8969413D01*
X12300444Y-9040842D01*
X12286158Y-9069413D01*
X12271873Y-9083699D01*
X12243301Y-9097984D01*
X12171873Y-9097984D01*
X12143301Y-9083699D01*
X12129016Y-9069413D01*
X12400444Y-8797984D02*
X12600444Y-8797984D01*
X12471873Y-9097984D01*
X12700444Y-8797984D02*
X12700444Y-8855127D01*
X12814730Y-8797984D02*
X12814730Y-8855127D01*
X13257587Y-9212270D02*
X13243301Y-9197984D01*
X13214730Y-9155127D01*
X13200444Y-9126556D01*
X13186158Y-9083699D01*
X13171873Y-9012270D01*
X13171873Y-8955127D01*
X13186158Y-8883699D01*
X13200444Y-8840842D01*
X13214730Y-8812270D01*
X13243301Y-8769413D01*
X13257587Y-8755127D01*
X13529016Y-9097984D02*
X13357587Y-9097984D01*
X13443301Y-9097984D02*
X13443301Y-8797984D01*
X13414730Y-8840842D01*
X13386158Y-8869413D01*
X13357587Y-8883699D01*
X13886158Y-9097984D02*
X13886158Y-8797984D01*
X14014730Y-9097984D02*
X14014730Y-8940842D01*
X14000444Y-8912270D01*
X13971873Y-8897984D01*
X13929016Y-8897984D01*
X13900444Y-8912270D01*
X13886158Y-8926556D01*
X14200444Y-9097984D02*
X14171873Y-9083699D01*
X14157587Y-9069413D01*
X14143301Y-9040842D01*
X14143301Y-8955127D01*
X14157587Y-8926556D01*
X14171873Y-8912270D01*
X14200444Y-8897984D01*
X14243301Y-8897984D01*
X14271873Y-8912270D01*
X14286158Y-8926556D01*
X14300444Y-8955127D01*
X14300444Y-9040842D01*
X14286158Y-9069413D01*
X14271873Y-9083699D01*
X14243301Y-9097984D01*
X14200444Y-9097984D01*
X14471873Y-9097984D02*
X14443301Y-9083699D01*
X14429016Y-9055127D01*
X14429016Y-8797984D01*
X14700444Y-9083699D02*
X14671873Y-9097984D01*
X14614730Y-9097984D01*
X14586158Y-9083699D01*
X14571873Y-9055127D01*
X14571873Y-8940842D01*
X14586158Y-8912270D01*
X14614730Y-8897984D01*
X14671873Y-8897984D01*
X14700444Y-8912270D01*
X14714730Y-8940842D01*
X14714730Y-8969413D01*
X14571873Y-8997984D01*
X14814730Y-9212270D02*
X14829016Y-9197984D01*
X14857587Y-9155127D01*
X14871873Y-9126556D01*
X14886158Y-9083699D01*
X14900444Y-9012270D01*
X14900444Y-8955127D01*
X14886158Y-8883699D01*
X14871873Y-8840842D01*
X14857587Y-8812270D01*
X14829016Y-8769413D01*
X14814730Y-8755127D01*
X7999730Y-9358270D02*
G75*
G03*
X7999730Y-9358270I-50000J0D01*
G01*
X8443301Y-9493984D02*
X8271873Y-9493984D01*
X8357587Y-9493984D02*
X8357587Y-9193984D01*
X8329016Y-9236842D01*
X8300444Y-9265413D01*
X8271873Y-9279699D01*
X8571873Y-9465413D02*
X8586158Y-9479699D01*
X8571873Y-9493984D01*
X8557587Y-9479699D01*
X8571873Y-9465413D01*
X8571873Y-9493984D01*
X8771873Y-9193984D02*
X8800444Y-9193984D01*
X8829016Y-9208270D01*
X8843301Y-9222556D01*
X8857587Y-9251127D01*
X8871873Y-9308270D01*
X8871873Y-9379699D01*
X8857587Y-9436842D01*
X8843301Y-9465413D01*
X8829016Y-9479699D01*
X8800444Y-9493984D01*
X8771873Y-9493984D01*
X8743301Y-9479699D01*
X8729016Y-9465413D01*
X8714730Y-9436842D01*
X8700444Y-9379699D01*
X8700444Y-9308270D01*
X8714730Y-9251127D01*
X8729016Y-9222556D01*
X8743301Y-9208270D01*
X8771873Y-9193984D01*
X9057587Y-9193984D02*
X9086158Y-9193984D01*
X9114730Y-9208270D01*
X9129016Y-9222556D01*
X9143301Y-9251127D01*
X9157587Y-9308270D01*
X9157587Y-9379699D01*
X9143301Y-9436842D01*
X9129016Y-9465413D01*
X9114730Y-9479699D01*
X9086158Y-9493984D01*
X9057587Y-9493984D01*
X9029016Y-9479699D01*
X9014730Y-9465413D01*
X9000444Y-9436842D01*
X8986158Y-9379699D01*
X8986158Y-9308270D01*
X9000444Y-9251127D01*
X9014730Y-9222556D01*
X9029016Y-9208270D01*
X9057587Y-9193984D01*
X9343301Y-9193984D02*
X9371873Y-9193984D01*
X9400444Y-9208270D01*
X9414730Y-9222556D01*
X9429016Y-9251127D01*
X9443301Y-9308270D01*
X9443301Y-9379699D01*
X9429016Y-9436842D01*
X9414730Y-9465413D01*
X9400444Y-9479699D01*
X9371873Y-9493984D01*
X9343301Y-9493984D01*
X9314730Y-9479699D01*
X9300444Y-9465413D01*
X9286158Y-9436842D01*
X9271873Y-9379699D01*
X9271873Y-9308270D01*
X9286158Y-9251127D01*
X9300444Y-9222556D01*
X9314730Y-9208270D01*
X9343301Y-9193984D01*
X9571873Y-9493984D02*
X9571873Y-9293984D01*
X9571873Y-9322556D02*
X9586158Y-9308270D01*
X9614730Y-9293984D01*
X9657587Y-9293984D01*
X9686158Y-9308270D01*
X9700444Y-9336842D01*
X9700444Y-9493984D01*
X9700444Y-9336842D02*
X9714730Y-9308270D01*
X9743301Y-9293984D01*
X9786158Y-9293984D01*
X9814730Y-9308270D01*
X9829016Y-9336842D01*
X9829016Y-9493984D01*
X9971873Y-9493984D02*
X9971873Y-9293984D01*
X9971873Y-9322556D02*
X9986158Y-9308270D01*
X10014730Y-9293984D01*
X10057587Y-9293984D01*
X10086158Y-9308270D01*
X10100444Y-9336842D01*
X10100444Y-9493984D01*
X10100444Y-9336842D02*
X10114730Y-9308270D01*
X10143301Y-9293984D01*
X10186158Y-9293984D01*
X10214730Y-9308270D01*
X10229016Y-9336842D01*
X10229016Y-9493984D01*
X10814730Y-9179699D02*
X10557587Y-9565413D01*
X11200444Y-9193984D02*
X11229016Y-9193984D01*
X11257587Y-9208270D01*
X11271873Y-9222556D01*
X11286158Y-9251127D01*
X11300444Y-9308270D01*
X11300444Y-9379699D01*
X11286158Y-9436842D01*
X11271873Y-9465413D01*
X11257587Y-9479699D01*
X11229016Y-9493984D01*
X11200444Y-9493984D01*
X11171873Y-9479699D01*
X11157587Y-9465413D01*
X11143301Y-9436842D01*
X11129016Y-9379699D01*
X11129016Y-9308270D01*
X11143301Y-9251127D01*
X11157587Y-9222556D01*
X11171873Y-9208270D01*
X11200444Y-9193984D01*
X11429016Y-9465413D02*
X11443301Y-9479699D01*
X11429016Y-9493984D01*
X11414730Y-9479699D01*
X11429016Y-9465413D01*
X11429016Y-9493984D01*
X11629016Y-9193984D02*
X11657587Y-9193984D01*
X11686158Y-9208270D01*
X11700444Y-9222556D01*
X11714730Y-9251127D01*
X11729016Y-9308270D01*
X11729016Y-9379699D01*
X11714730Y-9436842D01*
X11700444Y-9465413D01*
X11686158Y-9479699D01*
X11657587Y-9493984D01*
X11629016Y-9493984D01*
X11600444Y-9479699D01*
X11586158Y-9465413D01*
X11571873Y-9436842D01*
X11557587Y-9379699D01*
X11557587Y-9308270D01*
X11571873Y-9251127D01*
X11586158Y-9222556D01*
X11600444Y-9208270D01*
X11629016Y-9193984D01*
X11829016Y-9193984D02*
X12014730Y-9193984D01*
X11914730Y-9308270D01*
X11957587Y-9308270D01*
X11986158Y-9322556D01*
X12000444Y-9336842D01*
X12014730Y-9365413D01*
X12014730Y-9436842D01*
X12000444Y-9465413D01*
X11986158Y-9479699D01*
X11957587Y-9493984D01*
X11871873Y-9493984D01*
X11843301Y-9479699D01*
X11829016Y-9465413D01*
X12157587Y-9493984D02*
X12214730Y-9493984D01*
X12243301Y-9479699D01*
X12257587Y-9465413D01*
X12286158Y-9422556D01*
X12300444Y-9365413D01*
X12300444Y-9251127D01*
X12286158Y-9222556D01*
X12271873Y-9208270D01*
X12243301Y-9193984D01*
X12186158Y-9193984D01*
X12157587Y-9208270D01*
X12143301Y-9222556D01*
X12129016Y-9251127D01*
X12129016Y-9322556D01*
X12143301Y-9351127D01*
X12157587Y-9365413D01*
X12186158Y-9379699D01*
X12243301Y-9379699D01*
X12271873Y-9365413D01*
X12286158Y-9351127D01*
X12300444Y-9322556D01*
X12557587Y-9293984D02*
X12557587Y-9493984D01*
X12486158Y-9179699D02*
X12414730Y-9393984D01*
X12600444Y-9393984D01*
X12700444Y-9193984D02*
X12700444Y-9251127D01*
X12814730Y-9193984D02*
X12814730Y-9251127D01*
X13257587Y-9608270D02*
X13243301Y-9593984D01*
X13214730Y-9551127D01*
X13200444Y-9522556D01*
X13186158Y-9479699D01*
X13171873Y-9408270D01*
X13171873Y-9351127D01*
X13186158Y-9279699D01*
X13200444Y-9236842D01*
X13214730Y-9208270D01*
X13243301Y-9165413D01*
X13257587Y-9151127D01*
X13514730Y-9193984D02*
X13371873Y-9193984D01*
X13357587Y-9336842D01*
X13371873Y-9322556D01*
X13400444Y-9308270D01*
X13471873Y-9308270D01*
X13500444Y-9322556D01*
X13514730Y-9336842D01*
X13529016Y-9365413D01*
X13529016Y-9436842D01*
X13514730Y-9465413D01*
X13500444Y-9479699D01*
X13471873Y-9493984D01*
X13400444Y-9493984D01*
X13371873Y-9479699D01*
X13357587Y-9465413D01*
X13786158Y-9193984D02*
X13729016Y-9193984D01*
X13700444Y-9208270D01*
X13686158Y-9222556D01*
X13657587Y-9265413D01*
X13643301Y-9322556D01*
X13643301Y-9436842D01*
X13657587Y-9465413D01*
X13671873Y-9479699D01*
X13700444Y-9493984D01*
X13757587Y-9493984D01*
X13786158Y-9479699D01*
X13800444Y-9465413D01*
X13814730Y-9436842D01*
X13814730Y-9365413D01*
X13800444Y-9336842D01*
X13786158Y-9322556D01*
X13757587Y-9308270D01*
X13700444Y-9308270D01*
X13671873Y-9322556D01*
X13657587Y-9336842D01*
X13643301Y-9365413D01*
X14171873Y-9493984D02*
X14171873Y-9193984D01*
X14300444Y-9493984D02*
X14300444Y-9336842D01*
X14286158Y-9308270D01*
X14257587Y-9293984D01*
X14214730Y-9293984D01*
X14186158Y-9308270D01*
X14171873Y-9322556D01*
X14486158Y-9493984D02*
X14457587Y-9479699D01*
X14443301Y-9465413D01*
X14429016Y-9436842D01*
X14429016Y-9351127D01*
X14443301Y-9322556D01*
X14457587Y-9308270D01*
X14486158Y-9293984D01*
X14529016Y-9293984D01*
X14557587Y-9308270D01*
X14571873Y-9322556D01*
X14586158Y-9351127D01*
X14586158Y-9436842D01*
X14571873Y-9465413D01*
X14557587Y-9479699D01*
X14529016Y-9493984D01*
X14486158Y-9493984D01*
X14757587Y-9493984D02*
X14729016Y-9479699D01*
X14714730Y-9451127D01*
X14714730Y-9193984D01*
X14986158Y-9479699D02*
X14957587Y-9493984D01*
X14900444Y-9493984D01*
X14871873Y-9479699D01*
X14857587Y-9451127D01*
X14857587Y-9336842D01*
X14871873Y-9308270D01*
X14900444Y-9293984D01*
X14957587Y-9293984D01*
X14986158Y-9308270D01*
X15000444Y-9336842D01*
X15000444Y-9365413D01*
X14857587Y-9393984D01*
X15114730Y-9479699D02*
X15143301Y-9493984D01*
X15200444Y-9493984D01*
X15229016Y-9479699D01*
X15243301Y-9451127D01*
X15243301Y-9436842D01*
X15229016Y-9408270D01*
X15200444Y-9393984D01*
X15157587Y-9393984D01*
X15129016Y-9379699D01*
X15114730Y-9351127D01*
X15114730Y-9336842D01*
X15129016Y-9308270D01*
X15157587Y-9293984D01*
X15200444Y-9293984D01*
X15229016Y-9308270D01*
X15343301Y-9608270D02*
X15357587Y-9593984D01*
X15386158Y-9551127D01*
X15400444Y-9522556D01*
X15414730Y-9479699D01*
X15429016Y-9408270D01*
X15429016Y-9351127D01*
X15414730Y-9279699D01*
X15400444Y-9236842D01*
X15386158Y-9208270D01*
X15357587Y-9165413D01*
X15343301Y-9151127D01*
M02*
