M48
; DRILL file {KiCad (5.1.10)-1} date 11/05/21 12:16:34
; FORMAT={-:-/ absolute / metric / decimal}
; #@! TF.CreationDate,2021-11-05T12:16:34+01:00
; #@! TF.GenerationSoftware,Kicad,Pcbnew,(5.1.10)-1
; #@! TF.FileFunction,Plated,1,2,PTH
FMAT,2
METRIC
T1C0.400
T2C1.000
%
G90
G05
T1
X113.03Y-50.8
T2
X88.9Y-49.53
X88.9Y-52.07
X88.9Y-54.61
X88.9Y-57.15
X88.9Y-59.69
X88.9Y-62.23
X88.9Y-64.77
X88.9Y-67.31
X88.9Y-69.85
X88.9Y-72.39
X91.44Y-49.53
X91.44Y-52.07
X91.44Y-54.61
X91.44Y-57.15
X91.44Y-59.69
X91.44Y-62.23
X91.44Y-64.77
X91.44Y-67.31
X91.44Y-69.85
X91.44Y-72.39
X105.41Y-49.53
X105.41Y-52.07
X105.41Y-54.61
X105.41Y-57.15
X105.41Y-59.69
X107.95Y-49.53
X107.95Y-52.07
X107.95Y-54.61
X107.95Y-57.15
X107.95Y-59.69
X111.76Y-73.66
X114.3Y-73.66
X116.84Y-73.66
X119.38Y-73.66
X123.02Y-49.53
X123.02Y-52.07
X123.02Y-54.61
X123.02Y-57.15
X123.02Y-59.69
X125.56Y-49.53
X125.56Y-52.07
X125.56Y-54.61
X125.56Y-57.15
X125.56Y-59.69
X133.35Y-73.66
X135.89Y-73.66
X140.97Y-49.53
X140.97Y-52.07
X140.97Y-54.61
X140.97Y-57.15
X140.97Y-59.69
X143.51Y-49.53
X143.51Y-52.07
X143.51Y-54.61
X143.51Y-57.15
X143.51Y-59.69
T0
M30
