M48
; DRILL file {KiCad (5.1.10)-1} date 05/27/22 16:58:47
; FORMAT={-:-/ absolute / metric / decimal}
; #@! TF.CreationDate,2022-05-27T16:58:47+02:00
; #@! TF.GenerationSoftware,Kicad,Pcbnew,(5.1.10)-1
; #@! TF.FileFunction,Plated,1,2,PTH
FMAT,2
METRIC
T1C0.400
T2C1.000
%
G90
G05
T1
X91.5Y-54.0
X91.5Y-55.054
X93.446Y-53.054
X97.12Y-52.0
X103.0Y-56.5
X106.588Y-55.162
X110.554Y-53.054
X113.162Y-55.162
X118.392Y-54.108
X121.254Y-53.054
X122.5Y-52.0
X126.108Y-54.108
X137.838Y-55.162
X139.25Y-53.0
X139.25Y-58.0
X140.5Y-50.5
X142.0Y-56.5
X143.108Y-54.108
X144.25Y-50.25
X152.75Y-58.75
T2
X80.92Y-45.96
X80.92Y-48.5
X83.46Y-45.96
X83.46Y-48.5
X86.0Y-45.96
X86.0Y-48.5
X88.0Y-66.5
X88.54Y-45.96
X88.54Y-48.5
X90.54Y-66.5
X91.08Y-45.96
X91.08Y-48.5
X93.08Y-66.5
X95.62Y-66.5
X98.16Y-66.5
X103.0Y-45.74
X103.0Y-48.28
X103.96Y-66.5
X105.54Y-45.74
X105.54Y-48.28
X106.5Y-66.5
X108.08Y-45.74
X108.08Y-48.28
X109.04Y-66.5
X110.62Y-45.74
X110.62Y-48.28
X111.58Y-66.5
X113.16Y-45.74
X113.16Y-48.28
X115.7Y-45.74
X115.7Y-48.28
X118.24Y-45.74
X118.24Y-48.28
X119.96Y-62.0
X119.96Y-64.54
X120.78Y-45.74
X120.78Y-48.28
X122.5Y-62.0
X122.5Y-64.54
X123.32Y-45.74
X123.32Y-48.28
X125.04Y-62.0
X125.04Y-64.54
X125.86Y-45.74
X125.86Y-48.28
X137.0Y-63.0
X137.0Y-65.54
X138.0Y-45.71
X138.0Y-48.25
X140.54Y-45.71
X140.54Y-48.25
X143.08Y-45.71
X143.08Y-48.25
X145.62Y-45.71
X145.62Y-48.25
X148.16Y-45.71
X148.16Y-48.25
X157.5Y-47.5
X157.5Y-50.04
X157.5Y-52.58
X157.5Y-55.12
X157.5Y-57.66
X160.04Y-47.5
X160.04Y-50.04
X160.04Y-52.58
X160.04Y-55.12
X160.04Y-57.66
T0
M30
