G04 #@! TF.GenerationSoftware,KiCad,Pcbnew,(5.1.10)-1*
G04 #@! TF.CreationDate,2021-11-05T12:16:12+01:00*
G04 #@! TF.ProjectId,STM_programming_ports,53544d5f-7072-46f6-9772-616d6d696e67,rev?*
G04 #@! TF.SameCoordinates,Original*
G04 #@! TF.FileFunction,Copper,L2,Bot*
G04 #@! TF.FilePolarity,Positive*
%FSLAX46Y46*%
G04 Gerber Fmt 4.6, Leading zero omitted, Abs format (unit mm)*
G04 Created by KiCad (PCBNEW (5.1.10)-1) date 2021-11-05 12:16:12*
%MOMM*%
%LPD*%
G01*
G04 APERTURE LIST*
G04 #@! TA.AperFunction,ComponentPad*
%ADD10C,1.700000*%
G04 #@! TD*
G04 #@! TA.AperFunction,ComponentPad*
%ADD11O,1.700000X1.700000*%
G04 #@! TD*
G04 #@! TA.AperFunction,ComponentPad*
%ADD12R,1.700000X1.700000*%
G04 #@! TD*
G04 #@! TA.AperFunction,ViaPad*
%ADD13C,0.800000*%
G04 #@! TD*
G04 #@! TA.AperFunction,Conductor*
%ADD14C,0.254000*%
G04 #@! TD*
G04 #@! TA.AperFunction,Conductor*
%ADD15C,0.150000*%
G04 #@! TD*
G04 APERTURE END LIST*
D10*
X125560000Y-59690000D03*
X125560000Y-57150000D03*
X125560000Y-54610000D03*
X125560000Y-52070000D03*
X125560000Y-49530000D03*
X123020000Y-59690000D03*
X123020000Y-57150000D03*
X123020000Y-54610000D03*
X123020000Y-52070000D03*
G04 #@! TA.AperFunction,ComponentPad*
G36*
G01*
X122170000Y-50130000D02*
X122170000Y-48930000D01*
G75*
G02*
X122420000Y-48680000I250000J0D01*
G01*
X123620000Y-48680000D01*
G75*
G02*
X123870000Y-48930000I0J-250000D01*
G01*
X123870000Y-50130000D01*
G75*
G02*
X123620000Y-50380000I-250000J0D01*
G01*
X122420000Y-50380000D01*
G75*
G02*
X122170000Y-50130000I0J250000D01*
G01*
G37*
G04 #@! TD.AperFunction*
X143510000Y-59690000D03*
X143510000Y-57150000D03*
X143510000Y-54610000D03*
X143510000Y-52070000D03*
X143510000Y-49530000D03*
X140970000Y-59690000D03*
X140970000Y-57150000D03*
X140970000Y-54610000D03*
X140970000Y-52070000D03*
G04 #@! TA.AperFunction,ComponentPad*
G36*
G01*
X140120000Y-50130000D02*
X140120000Y-48930000D01*
G75*
G02*
X140370000Y-48680000I250000J0D01*
G01*
X141570000Y-48680000D01*
G75*
G02*
X141820000Y-48930000I0J-250000D01*
G01*
X141820000Y-50130000D01*
G75*
G02*
X141570000Y-50380000I-250000J0D01*
G01*
X140370000Y-50380000D01*
G75*
G02*
X140120000Y-50130000I0J250000D01*
G01*
G37*
G04 #@! TD.AperFunction*
D11*
X119380000Y-73660000D03*
X116840000Y-73660000D03*
X114300000Y-73660000D03*
D12*
X111760000Y-73660000D03*
D11*
X133350000Y-73660000D03*
D12*
X135890000Y-73660000D03*
D10*
X91440000Y-72390000D03*
X91440000Y-69850000D03*
X91440000Y-67310000D03*
X91440000Y-64770000D03*
X91440000Y-62230000D03*
X91440000Y-59690000D03*
X91440000Y-57150000D03*
X91440000Y-54610000D03*
X91440000Y-52070000D03*
X91440000Y-49530000D03*
X88900000Y-72390000D03*
X88900000Y-69850000D03*
X88900000Y-67310000D03*
X88900000Y-64770000D03*
X88900000Y-62230000D03*
X88900000Y-59690000D03*
X88900000Y-57150000D03*
X88900000Y-54610000D03*
X88900000Y-52070000D03*
G04 #@! TA.AperFunction,ComponentPad*
G36*
G01*
X88050000Y-50130000D02*
X88050000Y-48930000D01*
G75*
G02*
X88300000Y-48680000I250000J0D01*
G01*
X89500000Y-48680000D01*
G75*
G02*
X89750000Y-48930000I0J-250000D01*
G01*
X89750000Y-50130000D01*
G75*
G02*
X89500000Y-50380000I-250000J0D01*
G01*
X88300000Y-50380000D01*
G75*
G02*
X88050000Y-50130000I0J250000D01*
G01*
G37*
G04 #@! TD.AperFunction*
X107950000Y-59690000D03*
X107950000Y-57150000D03*
X107950000Y-54610000D03*
X107950000Y-52070000D03*
X107950000Y-49530000D03*
X105410000Y-59690000D03*
X105410000Y-57150000D03*
X105410000Y-54610000D03*
X105410000Y-52070000D03*
G04 #@! TA.AperFunction,ComponentPad*
G36*
G01*
X104560000Y-50130000D02*
X104560000Y-48930000D01*
G75*
G02*
X104810000Y-48680000I250000J0D01*
G01*
X106010000Y-48680000D01*
G75*
G02*
X106260000Y-48930000I0J-250000D01*
G01*
X106260000Y-50130000D01*
G75*
G02*
X106010000Y-50380000I-250000J0D01*
G01*
X104810000Y-50380000D01*
G75*
G02*
X104560000Y-50130000I0J250000D01*
G01*
G37*
G04 #@! TD.AperFunction*
D13*
X113030000Y-50800000D03*
D14*
X114300000Y-49530000D02*
X113030000Y-50800000D01*
X123020000Y-49530000D02*
X114300000Y-49530000D01*
X123020000Y-54610000D02*
X107950000Y-54610000D01*
X109181001Y-53301001D02*
X107950000Y-52070000D01*
X124251001Y-53301001D02*
X109181001Y-53301001D01*
X125560000Y-54610000D02*
X124251001Y-53301001D01*
X116840000Y-61508118D02*
X116840000Y-73660000D01*
X122429119Y-55918999D02*
X116840000Y-61508118D01*
X124251001Y-55918999D02*
X122429119Y-55918999D01*
X125560000Y-54610000D02*
X124251001Y-55918999D01*
X109181010Y-48298990D02*
X107950000Y-49530000D01*
X124328990Y-48298990D02*
X109181010Y-48298990D01*
X125560000Y-49530000D02*
X124328990Y-48298990D01*
X113068999Y-72428999D02*
X113068999Y-69888999D01*
X114300000Y-73660000D02*
X113068999Y-72428999D01*
X106718999Y-50761001D02*
X107950000Y-49530000D01*
X106718999Y-63538999D02*
X106718999Y-50761001D01*
X113068999Y-69888999D02*
X106718999Y-63538999D01*
X147942300Y-79362300D02*
X80657700Y-79362300D01*
X80657700Y-48930000D01*
X87411928Y-48930000D01*
X87411928Y-50130000D01*
X87428992Y-50303254D01*
X87479528Y-50469850D01*
X87561595Y-50623386D01*
X87672038Y-50757962D01*
X87806614Y-50868405D01*
X87933608Y-50936285D01*
X87746525Y-51123368D01*
X87584010Y-51366589D01*
X87472068Y-51636842D01*
X87415000Y-51923740D01*
X87415000Y-52216260D01*
X87472068Y-52503158D01*
X87584010Y-52773411D01*
X87746525Y-53016632D01*
X87953368Y-53223475D01*
X88127760Y-53340000D01*
X87953368Y-53456525D01*
X87746525Y-53663368D01*
X87584010Y-53906589D01*
X87472068Y-54176842D01*
X87415000Y-54463740D01*
X87415000Y-54756260D01*
X87472068Y-55043158D01*
X87584010Y-55313411D01*
X87746525Y-55556632D01*
X87953368Y-55763475D01*
X88127760Y-55880000D01*
X87953368Y-55996525D01*
X87746525Y-56203368D01*
X87584010Y-56446589D01*
X87472068Y-56716842D01*
X87415000Y-57003740D01*
X87415000Y-57296260D01*
X87472068Y-57583158D01*
X87584010Y-57853411D01*
X87746525Y-58096632D01*
X87953368Y-58303475D01*
X88127760Y-58420000D01*
X87953368Y-58536525D01*
X87746525Y-58743368D01*
X87584010Y-58986589D01*
X87472068Y-59256842D01*
X87415000Y-59543740D01*
X87415000Y-59836260D01*
X87472068Y-60123158D01*
X87584010Y-60393411D01*
X87746525Y-60636632D01*
X87953368Y-60843475D01*
X88127760Y-60960000D01*
X87953368Y-61076525D01*
X87746525Y-61283368D01*
X87584010Y-61526589D01*
X87472068Y-61796842D01*
X87415000Y-62083740D01*
X87415000Y-62376260D01*
X87472068Y-62663158D01*
X87584010Y-62933411D01*
X87746525Y-63176632D01*
X87953368Y-63383475D01*
X88127760Y-63500000D01*
X87953368Y-63616525D01*
X87746525Y-63823368D01*
X87584010Y-64066589D01*
X87472068Y-64336842D01*
X87415000Y-64623740D01*
X87415000Y-64916260D01*
X87472068Y-65203158D01*
X87584010Y-65473411D01*
X87746525Y-65716632D01*
X87953368Y-65923475D01*
X88127760Y-66040000D01*
X87953368Y-66156525D01*
X87746525Y-66363368D01*
X87584010Y-66606589D01*
X87472068Y-66876842D01*
X87415000Y-67163740D01*
X87415000Y-67456260D01*
X87472068Y-67743158D01*
X87584010Y-68013411D01*
X87746525Y-68256632D01*
X87953368Y-68463475D01*
X88127760Y-68580000D01*
X87953368Y-68696525D01*
X87746525Y-68903368D01*
X87584010Y-69146589D01*
X87472068Y-69416842D01*
X87415000Y-69703740D01*
X87415000Y-69996260D01*
X87472068Y-70283158D01*
X87584010Y-70553411D01*
X87746525Y-70796632D01*
X87953368Y-71003475D01*
X88127760Y-71120000D01*
X87953368Y-71236525D01*
X87746525Y-71443368D01*
X87584010Y-71686589D01*
X87472068Y-71956842D01*
X87415000Y-72243740D01*
X87415000Y-72536260D01*
X87472068Y-72823158D01*
X87584010Y-73093411D01*
X87746525Y-73336632D01*
X87953368Y-73543475D01*
X88196589Y-73705990D01*
X88466842Y-73817932D01*
X88753740Y-73875000D01*
X89046260Y-73875000D01*
X89333158Y-73817932D01*
X89603411Y-73705990D01*
X89846632Y-73543475D01*
X89971710Y-73418397D01*
X90591208Y-73418397D01*
X90668843Y-73667472D01*
X90932883Y-73793371D01*
X91216411Y-73865339D01*
X91508531Y-73880611D01*
X91798019Y-73838599D01*
X92073747Y-73740919D01*
X92211157Y-73667472D01*
X92288792Y-73418397D01*
X91440000Y-72569605D01*
X90591208Y-73418397D01*
X89971710Y-73418397D01*
X90053475Y-73336632D01*
X90169311Y-73163271D01*
X90411603Y-73238792D01*
X91260395Y-72390000D01*
X91619605Y-72390000D01*
X92468397Y-73238792D01*
X92717472Y-73161157D01*
X92843371Y-72897117D01*
X92915339Y-72613589D01*
X92930611Y-72321469D01*
X92888599Y-72031981D01*
X92790919Y-71756253D01*
X92717472Y-71618843D01*
X92468397Y-71541208D01*
X91619605Y-72390000D01*
X91260395Y-72390000D01*
X90411603Y-71541208D01*
X90169311Y-71616729D01*
X90053475Y-71443368D01*
X89846632Y-71236525D01*
X89672240Y-71120000D01*
X89846632Y-71003475D01*
X89971710Y-70878397D01*
X90591208Y-70878397D01*
X90666514Y-71120000D01*
X90591208Y-71361603D01*
X91440000Y-72210395D01*
X92288792Y-71361603D01*
X92213486Y-71120000D01*
X92288792Y-70878397D01*
X91440000Y-70029605D01*
X90591208Y-70878397D01*
X89971710Y-70878397D01*
X90053475Y-70796632D01*
X90169311Y-70623271D01*
X90411603Y-70698792D01*
X91260395Y-69850000D01*
X91619605Y-69850000D01*
X92468397Y-70698792D01*
X92717472Y-70621157D01*
X92843371Y-70357117D01*
X92915339Y-70073589D01*
X92930611Y-69781469D01*
X92888599Y-69491981D01*
X92790919Y-69216253D01*
X92717472Y-69078843D01*
X92468397Y-69001208D01*
X91619605Y-69850000D01*
X91260395Y-69850000D01*
X90411603Y-69001208D01*
X90169311Y-69076729D01*
X90053475Y-68903368D01*
X89846632Y-68696525D01*
X89672240Y-68580000D01*
X89846632Y-68463475D01*
X89971710Y-68338397D01*
X90591208Y-68338397D01*
X90666514Y-68580000D01*
X90591208Y-68821603D01*
X91440000Y-69670395D01*
X92288792Y-68821603D01*
X92213486Y-68580000D01*
X92288792Y-68338397D01*
X91440000Y-67489605D01*
X90591208Y-68338397D01*
X89971710Y-68338397D01*
X90053475Y-68256632D01*
X90169311Y-68083271D01*
X90411603Y-68158792D01*
X91260395Y-67310000D01*
X91619605Y-67310000D01*
X92468397Y-68158792D01*
X92717472Y-68081157D01*
X92843371Y-67817117D01*
X92915339Y-67533589D01*
X92930611Y-67241469D01*
X92888599Y-66951981D01*
X92790919Y-66676253D01*
X92717472Y-66538843D01*
X92468397Y-66461208D01*
X91619605Y-67310000D01*
X91260395Y-67310000D01*
X90411603Y-66461208D01*
X90169311Y-66536729D01*
X90053475Y-66363368D01*
X89846632Y-66156525D01*
X89672240Y-66040000D01*
X89846632Y-65923475D01*
X89971710Y-65798397D01*
X90591208Y-65798397D01*
X90666514Y-66040000D01*
X90591208Y-66281603D01*
X91440000Y-67130395D01*
X92288792Y-66281603D01*
X92213486Y-66040000D01*
X92288792Y-65798397D01*
X91440000Y-64949605D01*
X90591208Y-65798397D01*
X89971710Y-65798397D01*
X90053475Y-65716632D01*
X90169311Y-65543271D01*
X90411603Y-65618792D01*
X91260395Y-64770000D01*
X91619605Y-64770000D01*
X92468397Y-65618792D01*
X92717472Y-65541157D01*
X92843371Y-65277117D01*
X92915339Y-64993589D01*
X92930611Y-64701469D01*
X92888599Y-64411981D01*
X92790919Y-64136253D01*
X92717472Y-63998843D01*
X92468397Y-63921208D01*
X91619605Y-64770000D01*
X91260395Y-64770000D01*
X90411603Y-63921208D01*
X90169311Y-63996729D01*
X90053475Y-63823368D01*
X89846632Y-63616525D01*
X89672240Y-63500000D01*
X89846632Y-63383475D01*
X89971710Y-63258397D01*
X90591208Y-63258397D01*
X90666514Y-63500000D01*
X90591208Y-63741603D01*
X91440000Y-64590395D01*
X92288792Y-63741603D01*
X92213486Y-63500000D01*
X92288792Y-63258397D01*
X91440000Y-62409605D01*
X90591208Y-63258397D01*
X89971710Y-63258397D01*
X90053475Y-63176632D01*
X90169311Y-63003271D01*
X90411603Y-63078792D01*
X91260395Y-62230000D01*
X91619605Y-62230000D01*
X92468397Y-63078792D01*
X92717472Y-63001157D01*
X92843371Y-62737117D01*
X92915339Y-62453589D01*
X92930611Y-62161469D01*
X92888599Y-61871981D01*
X92790919Y-61596253D01*
X92717472Y-61458843D01*
X92468397Y-61381208D01*
X91619605Y-62230000D01*
X91260395Y-62230000D01*
X90411603Y-61381208D01*
X90169311Y-61456729D01*
X90053475Y-61283368D01*
X89846632Y-61076525D01*
X89672240Y-60960000D01*
X89846632Y-60843475D01*
X89971710Y-60718397D01*
X90591208Y-60718397D01*
X90666514Y-60960000D01*
X90591208Y-61201603D01*
X91440000Y-62050395D01*
X92288792Y-61201603D01*
X92213486Y-60960000D01*
X92288792Y-60718397D01*
X91440000Y-59869605D01*
X90591208Y-60718397D01*
X89971710Y-60718397D01*
X90053475Y-60636632D01*
X90169311Y-60463271D01*
X90411603Y-60538792D01*
X91260395Y-59690000D01*
X91619605Y-59690000D01*
X92468397Y-60538792D01*
X92717472Y-60461157D01*
X92843371Y-60197117D01*
X92915339Y-59913589D01*
X92923445Y-59758531D01*
X103919389Y-59758531D01*
X103961401Y-60048019D01*
X104059081Y-60323747D01*
X104132528Y-60461157D01*
X104381603Y-60538792D01*
X105230395Y-59690000D01*
X104381603Y-58841208D01*
X104132528Y-58918843D01*
X104006629Y-59182883D01*
X103934661Y-59466411D01*
X103919389Y-59758531D01*
X92923445Y-59758531D01*
X92930611Y-59621469D01*
X92888599Y-59331981D01*
X92790919Y-59056253D01*
X92717472Y-58918843D01*
X92468397Y-58841208D01*
X91619605Y-59690000D01*
X91260395Y-59690000D01*
X90411603Y-58841208D01*
X90169311Y-58916729D01*
X90053475Y-58743368D01*
X89846632Y-58536525D01*
X89672240Y-58420000D01*
X89846632Y-58303475D01*
X89971710Y-58178397D01*
X90591208Y-58178397D01*
X90666514Y-58420000D01*
X90591208Y-58661603D01*
X91440000Y-59510395D01*
X92288792Y-58661603D01*
X92213486Y-58420000D01*
X92288792Y-58178397D01*
X91440000Y-57329605D01*
X90591208Y-58178397D01*
X89971710Y-58178397D01*
X90053475Y-58096632D01*
X90169311Y-57923271D01*
X90411603Y-57998792D01*
X91260395Y-57150000D01*
X91619605Y-57150000D01*
X92468397Y-57998792D01*
X92717472Y-57921157D01*
X92843371Y-57657117D01*
X92915339Y-57373589D01*
X92930611Y-57081469D01*
X92888599Y-56791981D01*
X92790919Y-56516253D01*
X92717472Y-56378843D01*
X92468397Y-56301208D01*
X91619605Y-57150000D01*
X91260395Y-57150000D01*
X90411603Y-56301208D01*
X90169311Y-56376729D01*
X90053475Y-56203368D01*
X89846632Y-55996525D01*
X89672240Y-55880000D01*
X89846632Y-55763475D01*
X89971710Y-55638397D01*
X90591208Y-55638397D01*
X90666514Y-55880000D01*
X90591208Y-56121603D01*
X91440000Y-56970395D01*
X92288792Y-56121603D01*
X92213486Y-55880000D01*
X92288792Y-55638397D01*
X91440000Y-54789605D01*
X90591208Y-55638397D01*
X89971710Y-55638397D01*
X90053475Y-55556632D01*
X90169311Y-55383271D01*
X90411603Y-55458792D01*
X91260395Y-54610000D01*
X91619605Y-54610000D01*
X92468397Y-55458792D01*
X92717472Y-55381157D01*
X92843371Y-55117117D01*
X92915339Y-54833589D01*
X92923445Y-54678531D01*
X103919389Y-54678531D01*
X103961401Y-54968019D01*
X104059081Y-55243747D01*
X104132528Y-55381157D01*
X104381603Y-55458792D01*
X105230395Y-54610000D01*
X104381603Y-53761208D01*
X104132528Y-53838843D01*
X104006629Y-54102883D01*
X103934661Y-54386411D01*
X103919389Y-54678531D01*
X92923445Y-54678531D01*
X92930611Y-54541469D01*
X92888599Y-54251981D01*
X92790919Y-53976253D01*
X92717472Y-53838843D01*
X92468397Y-53761208D01*
X91619605Y-54610000D01*
X91260395Y-54610000D01*
X90411603Y-53761208D01*
X90169311Y-53836729D01*
X90053475Y-53663368D01*
X89846632Y-53456525D01*
X89672240Y-53340000D01*
X89846632Y-53223475D01*
X89971710Y-53098397D01*
X90591208Y-53098397D01*
X90666514Y-53340000D01*
X90591208Y-53581603D01*
X91440000Y-54430395D01*
X92288792Y-53581603D01*
X92213486Y-53340000D01*
X92288792Y-53098397D01*
X91440000Y-52249605D01*
X90591208Y-53098397D01*
X89971710Y-53098397D01*
X90053475Y-53016632D01*
X90169311Y-52843271D01*
X90411603Y-52918792D01*
X91260395Y-52070000D01*
X91619605Y-52070000D01*
X92468397Y-52918792D01*
X92717472Y-52841157D01*
X92843371Y-52577117D01*
X92915339Y-52293589D01*
X92923445Y-52138531D01*
X103919389Y-52138531D01*
X103961401Y-52428019D01*
X104059081Y-52703747D01*
X104132528Y-52841157D01*
X104381603Y-52918792D01*
X105230395Y-52070000D01*
X104381603Y-51221208D01*
X104132528Y-51298843D01*
X104006629Y-51562883D01*
X103934661Y-51846411D01*
X103919389Y-52138531D01*
X92923445Y-52138531D01*
X92930611Y-52001469D01*
X92888599Y-51711981D01*
X92790919Y-51436253D01*
X92717472Y-51298843D01*
X92468397Y-51221208D01*
X91619605Y-52070000D01*
X91260395Y-52070000D01*
X90411603Y-51221208D01*
X90169311Y-51296729D01*
X90053475Y-51123368D01*
X89866392Y-50936285D01*
X89993386Y-50868405D01*
X90127962Y-50757962D01*
X90238405Y-50623386D01*
X90306285Y-50496392D01*
X90493368Y-50683475D01*
X90666729Y-50799311D01*
X90591208Y-51041603D01*
X91440000Y-51890395D01*
X92288792Y-51041603D01*
X92213271Y-50799311D01*
X92386632Y-50683475D01*
X92593475Y-50476632D01*
X92755990Y-50233411D01*
X92867932Y-49963158D01*
X92925000Y-49676260D01*
X92925000Y-49383740D01*
X92867932Y-49096842D01*
X92798825Y-48930000D01*
X103921928Y-48930000D01*
X103921928Y-50130000D01*
X103938992Y-50303254D01*
X103989528Y-50469850D01*
X104071595Y-50623386D01*
X104182038Y-50757962D01*
X104316614Y-50868405D01*
X104470150Y-50950472D01*
X104579293Y-50983580D01*
X104561208Y-51041603D01*
X105410000Y-51890395D01*
X105424143Y-51876253D01*
X105603748Y-52055858D01*
X105589605Y-52070000D01*
X105603748Y-52084143D01*
X105424143Y-52263748D01*
X105410000Y-52249605D01*
X104561208Y-53098397D01*
X104636514Y-53340000D01*
X104561208Y-53581603D01*
X105410000Y-54430395D01*
X105424143Y-54416253D01*
X105603748Y-54595858D01*
X105589605Y-54610000D01*
X105603748Y-54624143D01*
X105424143Y-54803748D01*
X105410000Y-54789605D01*
X104561208Y-55638397D01*
X104636729Y-55880689D01*
X104463368Y-55996525D01*
X104256525Y-56203368D01*
X104094010Y-56446589D01*
X103982068Y-56716842D01*
X103925000Y-57003740D01*
X103925000Y-57296260D01*
X103982068Y-57583158D01*
X104094010Y-57853411D01*
X104256525Y-58096632D01*
X104463368Y-58303475D01*
X104636729Y-58419311D01*
X104561208Y-58661603D01*
X105410000Y-59510395D01*
X105424143Y-59496253D01*
X105603748Y-59675858D01*
X105589605Y-59690000D01*
X105603748Y-59704143D01*
X105424143Y-59883748D01*
X105410000Y-59869605D01*
X104561208Y-60718397D01*
X104638843Y-60967472D01*
X104902883Y-61093371D01*
X105186411Y-61165339D01*
X105478531Y-61180611D01*
X105768019Y-61138599D01*
X105956999Y-61071650D01*
X105956999Y-63501576D01*
X105953313Y-63538999D01*
X105956999Y-63576422D01*
X105956999Y-63576424D01*
X105968025Y-63688376D01*
X106011597Y-63832013D01*
X106011598Y-63832014D01*
X106082354Y-63964391D01*
X106110628Y-63998843D01*
X106177577Y-64080421D01*
X106206653Y-64104283D01*
X112307000Y-70204631D01*
X112306999Y-72171928D01*
X110910000Y-72171928D01*
X110785518Y-72184188D01*
X110665820Y-72220498D01*
X110555506Y-72279463D01*
X110458815Y-72358815D01*
X110379463Y-72455506D01*
X110320498Y-72565820D01*
X110284188Y-72685518D01*
X110271928Y-72810000D01*
X110271928Y-74510000D01*
X110284188Y-74634482D01*
X110320498Y-74754180D01*
X110379463Y-74864494D01*
X110458815Y-74961185D01*
X110555506Y-75040537D01*
X110665820Y-75099502D01*
X110785518Y-75135812D01*
X110910000Y-75148072D01*
X112610000Y-75148072D01*
X112734482Y-75135812D01*
X112854180Y-75099502D01*
X112964494Y-75040537D01*
X113061185Y-74961185D01*
X113140537Y-74864494D01*
X113199502Y-74754180D01*
X113221513Y-74681620D01*
X113353368Y-74813475D01*
X113596589Y-74975990D01*
X113866842Y-75087932D01*
X114153740Y-75145000D01*
X114446260Y-75145000D01*
X114733158Y-75087932D01*
X115003411Y-74975990D01*
X115246632Y-74813475D01*
X115453475Y-74606632D01*
X115570000Y-74432240D01*
X115686525Y-74606632D01*
X115893368Y-74813475D01*
X116136589Y-74975990D01*
X116406842Y-75087932D01*
X116693740Y-75145000D01*
X116986260Y-75145000D01*
X117273158Y-75087932D01*
X117543411Y-74975990D01*
X117786632Y-74813475D01*
X117993475Y-74606632D01*
X118115195Y-74424466D01*
X118184822Y-74541355D01*
X118379731Y-74757588D01*
X118613080Y-74931641D01*
X118875901Y-75056825D01*
X119023110Y-75101476D01*
X119253000Y-74980155D01*
X119253000Y-73787000D01*
X119507000Y-73787000D01*
X119507000Y-74980155D01*
X119736890Y-75101476D01*
X119884099Y-75056825D01*
X120146920Y-74931641D01*
X120380269Y-74757588D01*
X120575178Y-74541355D01*
X120724157Y-74291252D01*
X120821481Y-74016891D01*
X120700814Y-73787000D01*
X119507000Y-73787000D01*
X119253000Y-73787000D01*
X119233000Y-73787000D01*
X119233000Y-73533000D01*
X119253000Y-73533000D01*
X119253000Y-72339845D01*
X119507000Y-72339845D01*
X119507000Y-73533000D01*
X120700814Y-73533000D01*
X120710923Y-73513740D01*
X131865000Y-73513740D01*
X131865000Y-73806260D01*
X131922068Y-74093158D01*
X132034010Y-74363411D01*
X132196525Y-74606632D01*
X132403368Y-74813475D01*
X132646589Y-74975990D01*
X132916842Y-75087932D01*
X133203740Y-75145000D01*
X133496260Y-75145000D01*
X133783158Y-75087932D01*
X134053411Y-74975990D01*
X134296632Y-74813475D01*
X134428487Y-74681620D01*
X134450498Y-74754180D01*
X134509463Y-74864494D01*
X134588815Y-74961185D01*
X134685506Y-75040537D01*
X134795820Y-75099502D01*
X134915518Y-75135812D01*
X135040000Y-75148072D01*
X136740000Y-75148072D01*
X136864482Y-75135812D01*
X136984180Y-75099502D01*
X137094494Y-75040537D01*
X137191185Y-74961185D01*
X137270537Y-74864494D01*
X137329502Y-74754180D01*
X137365812Y-74634482D01*
X137378072Y-74510000D01*
X137378072Y-72810000D01*
X137365812Y-72685518D01*
X137329502Y-72565820D01*
X137270537Y-72455506D01*
X137191185Y-72358815D01*
X137094494Y-72279463D01*
X136984180Y-72220498D01*
X136864482Y-72184188D01*
X136740000Y-72171928D01*
X135040000Y-72171928D01*
X134915518Y-72184188D01*
X134795820Y-72220498D01*
X134685506Y-72279463D01*
X134588815Y-72358815D01*
X134509463Y-72455506D01*
X134450498Y-72565820D01*
X134428487Y-72638380D01*
X134296632Y-72506525D01*
X134053411Y-72344010D01*
X133783158Y-72232068D01*
X133496260Y-72175000D01*
X133203740Y-72175000D01*
X132916842Y-72232068D01*
X132646589Y-72344010D01*
X132403368Y-72506525D01*
X132196525Y-72713368D01*
X132034010Y-72956589D01*
X131922068Y-73226842D01*
X131865000Y-73513740D01*
X120710923Y-73513740D01*
X120821481Y-73303109D01*
X120724157Y-73028748D01*
X120575178Y-72778645D01*
X120380269Y-72562412D01*
X120146920Y-72388359D01*
X119884099Y-72263175D01*
X119736890Y-72218524D01*
X119507000Y-72339845D01*
X119253000Y-72339845D01*
X119023110Y-72218524D01*
X118875901Y-72263175D01*
X118613080Y-72388359D01*
X118379731Y-72562412D01*
X118184822Y-72778645D01*
X118115195Y-72895534D01*
X117993475Y-72713368D01*
X117786632Y-72506525D01*
X117602000Y-72383158D01*
X117602000Y-61823748D01*
X121665444Y-57760305D01*
X121704010Y-57853411D01*
X121866525Y-58096632D01*
X122073368Y-58303475D01*
X122247760Y-58420000D01*
X122073368Y-58536525D01*
X121866525Y-58743368D01*
X121704010Y-58986589D01*
X121592068Y-59256842D01*
X121535000Y-59543740D01*
X121535000Y-59836260D01*
X121592068Y-60123158D01*
X121704010Y-60393411D01*
X121866525Y-60636632D01*
X122073368Y-60843475D01*
X122316589Y-61005990D01*
X122586842Y-61117932D01*
X122873740Y-61175000D01*
X123166260Y-61175000D01*
X123453158Y-61117932D01*
X123723411Y-61005990D01*
X123966632Y-60843475D01*
X124173475Y-60636632D01*
X124290000Y-60462240D01*
X124406525Y-60636632D01*
X124613368Y-60843475D01*
X124856589Y-61005990D01*
X125126842Y-61117932D01*
X125413740Y-61175000D01*
X125706260Y-61175000D01*
X125993158Y-61117932D01*
X126263411Y-61005990D01*
X126506632Y-60843475D01*
X126713475Y-60636632D01*
X126875990Y-60393411D01*
X126987932Y-60123158D01*
X127045000Y-59836260D01*
X127045000Y-59543740D01*
X126987932Y-59256842D01*
X126875990Y-58986589D01*
X126713475Y-58743368D01*
X126506632Y-58536525D01*
X126332240Y-58420000D01*
X126506632Y-58303475D01*
X126713475Y-58096632D01*
X126875990Y-57853411D01*
X126987932Y-57583158D01*
X127045000Y-57296260D01*
X127045000Y-57003740D01*
X126987932Y-56716842D01*
X126875990Y-56446589D01*
X126713475Y-56203368D01*
X126506632Y-55996525D01*
X126332240Y-55880000D01*
X126506632Y-55763475D01*
X126713475Y-55556632D01*
X126875990Y-55313411D01*
X126987932Y-55043158D01*
X127045000Y-54756260D01*
X127045000Y-54463740D01*
X139485000Y-54463740D01*
X139485000Y-54756260D01*
X139542068Y-55043158D01*
X139654010Y-55313411D01*
X139816525Y-55556632D01*
X140023368Y-55763475D01*
X140197760Y-55880000D01*
X140023368Y-55996525D01*
X139816525Y-56203368D01*
X139654010Y-56446589D01*
X139542068Y-56716842D01*
X139485000Y-57003740D01*
X139485000Y-57296260D01*
X139542068Y-57583158D01*
X139654010Y-57853411D01*
X139816525Y-58096632D01*
X140023368Y-58303475D01*
X140197760Y-58420000D01*
X140023368Y-58536525D01*
X139816525Y-58743368D01*
X139654010Y-58986589D01*
X139542068Y-59256842D01*
X139485000Y-59543740D01*
X139485000Y-59836260D01*
X139542068Y-60123158D01*
X139654010Y-60393411D01*
X139816525Y-60636632D01*
X140023368Y-60843475D01*
X140266589Y-61005990D01*
X140536842Y-61117932D01*
X140823740Y-61175000D01*
X141116260Y-61175000D01*
X141403158Y-61117932D01*
X141673411Y-61005990D01*
X141916632Y-60843475D01*
X142123475Y-60636632D01*
X142240000Y-60462240D01*
X142356525Y-60636632D01*
X142563368Y-60843475D01*
X142806589Y-61005990D01*
X143076842Y-61117932D01*
X143363740Y-61175000D01*
X143656260Y-61175000D01*
X143943158Y-61117932D01*
X144213411Y-61005990D01*
X144456632Y-60843475D01*
X144663475Y-60636632D01*
X144825990Y-60393411D01*
X144937932Y-60123158D01*
X144995000Y-59836260D01*
X144995000Y-59543740D01*
X144937932Y-59256842D01*
X144825990Y-58986589D01*
X144663475Y-58743368D01*
X144456632Y-58536525D01*
X144282240Y-58420000D01*
X144456632Y-58303475D01*
X144663475Y-58096632D01*
X144825990Y-57853411D01*
X144937932Y-57583158D01*
X144995000Y-57296260D01*
X144995000Y-57003740D01*
X144937932Y-56716842D01*
X144825990Y-56446589D01*
X144663475Y-56203368D01*
X144456632Y-55996525D01*
X144282240Y-55880000D01*
X144456632Y-55763475D01*
X144663475Y-55556632D01*
X144825990Y-55313411D01*
X144937932Y-55043158D01*
X144995000Y-54756260D01*
X144995000Y-54463740D01*
X144937932Y-54176842D01*
X144825990Y-53906589D01*
X144663475Y-53663368D01*
X144456632Y-53456525D01*
X144283271Y-53340689D01*
X144358792Y-53098397D01*
X143510000Y-52249605D01*
X142661208Y-53098397D01*
X142736729Y-53340689D01*
X142563368Y-53456525D01*
X142356525Y-53663368D01*
X142240000Y-53837760D01*
X142123475Y-53663368D01*
X141916632Y-53456525D01*
X141743271Y-53340689D01*
X141818792Y-53098397D01*
X140970000Y-52249605D01*
X140121208Y-53098397D01*
X140196729Y-53340689D01*
X140023368Y-53456525D01*
X139816525Y-53663368D01*
X139654010Y-53906589D01*
X139542068Y-54176842D01*
X139485000Y-54463740D01*
X127045000Y-54463740D01*
X126987932Y-54176842D01*
X126875990Y-53906589D01*
X126713475Y-53663368D01*
X126506632Y-53456525D01*
X126333271Y-53340689D01*
X126408792Y-53098397D01*
X125560000Y-52249605D01*
X125545858Y-52263748D01*
X125366253Y-52084143D01*
X125380395Y-52070000D01*
X125739605Y-52070000D01*
X126588397Y-52918792D01*
X126837472Y-52841157D01*
X126963371Y-52577117D01*
X127035339Y-52293589D01*
X127043445Y-52138531D01*
X139479389Y-52138531D01*
X139521401Y-52428019D01*
X139619081Y-52703747D01*
X139692528Y-52841157D01*
X139941603Y-52918792D01*
X140790395Y-52070000D01*
X141149605Y-52070000D01*
X141998397Y-52918792D01*
X142240000Y-52843486D01*
X142481603Y-52918792D01*
X143330395Y-52070000D01*
X143689605Y-52070000D01*
X144538397Y-52918792D01*
X144787472Y-52841157D01*
X144913371Y-52577117D01*
X144985339Y-52293589D01*
X145000611Y-52001469D01*
X144958599Y-51711981D01*
X144860919Y-51436253D01*
X144787472Y-51298843D01*
X144538397Y-51221208D01*
X143689605Y-52070000D01*
X143330395Y-52070000D01*
X142481603Y-51221208D01*
X142240000Y-51296514D01*
X141998397Y-51221208D01*
X141149605Y-52070000D01*
X140790395Y-52070000D01*
X139941603Y-51221208D01*
X139692528Y-51298843D01*
X139566629Y-51562883D01*
X139494661Y-51846411D01*
X139479389Y-52138531D01*
X127043445Y-52138531D01*
X127050611Y-52001469D01*
X127008599Y-51711981D01*
X126910919Y-51436253D01*
X126837472Y-51298843D01*
X126588397Y-51221208D01*
X125739605Y-52070000D01*
X125380395Y-52070000D01*
X124531603Y-51221208D01*
X124290000Y-51296514D01*
X124048397Y-51221208D01*
X123199605Y-52070000D01*
X123213748Y-52084143D01*
X123034143Y-52263748D01*
X123020000Y-52249605D01*
X123005858Y-52263748D01*
X122826253Y-52084143D01*
X122840395Y-52070000D01*
X121991603Y-51221208D01*
X121742528Y-51298843D01*
X121616629Y-51562883D01*
X121544661Y-51846411D01*
X121529389Y-52138531D01*
X121571401Y-52428019D01*
X121610718Y-52539001D01*
X109496632Y-52539001D01*
X109391679Y-52434048D01*
X109435000Y-52216260D01*
X109435000Y-51923740D01*
X109377932Y-51636842D01*
X109265990Y-51366589D01*
X109103475Y-51123368D01*
X108896632Y-50916525D01*
X108722240Y-50800000D01*
X108896632Y-50683475D01*
X109103475Y-50476632D01*
X109265990Y-50233411D01*
X109377932Y-49963158D01*
X109435000Y-49676260D01*
X109435000Y-49383740D01*
X109391679Y-49165952D01*
X109496641Y-49060990D01*
X113691379Y-49060990D01*
X112987370Y-49765000D01*
X112928061Y-49765000D01*
X112728102Y-49804774D01*
X112539744Y-49882795D01*
X112370226Y-49996063D01*
X112226063Y-50140226D01*
X112112795Y-50309744D01*
X112034774Y-50498102D01*
X111995000Y-50698061D01*
X111995000Y-50901939D01*
X112034774Y-51101898D01*
X112112795Y-51290256D01*
X112226063Y-51459774D01*
X112370226Y-51603937D01*
X112539744Y-51717205D01*
X112728102Y-51795226D01*
X112928061Y-51835000D01*
X113131939Y-51835000D01*
X113331898Y-51795226D01*
X113520256Y-51717205D01*
X113689774Y-51603937D01*
X113833937Y-51459774D01*
X113947205Y-51290256D01*
X114025226Y-51101898D01*
X114065000Y-50901939D01*
X114065000Y-50842630D01*
X114615631Y-50292000D01*
X121547884Y-50292000D01*
X121548992Y-50303254D01*
X121599528Y-50469850D01*
X121681595Y-50623386D01*
X121792038Y-50757962D01*
X121926614Y-50868405D01*
X122080150Y-50950472D01*
X122189293Y-50983580D01*
X122171208Y-51041603D01*
X123020000Y-51890395D01*
X123868792Y-51041603D01*
X123850707Y-50983580D01*
X123959850Y-50950472D01*
X124113386Y-50868405D01*
X124247962Y-50757962D01*
X124358405Y-50623386D01*
X124426285Y-50496392D01*
X124613368Y-50683475D01*
X124786729Y-50799311D01*
X124711208Y-51041603D01*
X125560000Y-51890395D01*
X126408792Y-51041603D01*
X126333271Y-50799311D01*
X126506632Y-50683475D01*
X126713475Y-50476632D01*
X126875990Y-50233411D01*
X126987932Y-49963158D01*
X127045000Y-49676260D01*
X127045000Y-49383740D01*
X126987932Y-49096842D01*
X126918825Y-48930000D01*
X139481928Y-48930000D01*
X139481928Y-50130000D01*
X139498992Y-50303254D01*
X139549528Y-50469850D01*
X139631595Y-50623386D01*
X139742038Y-50757962D01*
X139876614Y-50868405D01*
X140030150Y-50950472D01*
X140139293Y-50983580D01*
X140121208Y-51041603D01*
X140970000Y-51890395D01*
X141818792Y-51041603D01*
X141800707Y-50983580D01*
X141909850Y-50950472D01*
X142063386Y-50868405D01*
X142197962Y-50757962D01*
X142308405Y-50623386D01*
X142376285Y-50496392D01*
X142563368Y-50683475D01*
X142736729Y-50799311D01*
X142661208Y-51041603D01*
X143510000Y-51890395D01*
X144358792Y-51041603D01*
X144283271Y-50799311D01*
X144456632Y-50683475D01*
X144663475Y-50476632D01*
X144825990Y-50233411D01*
X144937932Y-49963158D01*
X144995000Y-49676260D01*
X144995000Y-49383740D01*
X144937932Y-49096842D01*
X144825990Y-48826589D01*
X144663475Y-48583368D01*
X144456632Y-48376525D01*
X144213411Y-48214010D01*
X143943158Y-48102068D01*
X143656260Y-48045000D01*
X143363740Y-48045000D01*
X143076842Y-48102068D01*
X142806589Y-48214010D01*
X142563368Y-48376525D01*
X142376285Y-48563608D01*
X142308405Y-48436614D01*
X142197962Y-48302038D01*
X142063386Y-48191595D01*
X141909850Y-48109528D01*
X141743254Y-48058992D01*
X141570000Y-48041928D01*
X140370000Y-48041928D01*
X140196746Y-48058992D01*
X140030150Y-48109528D01*
X139876614Y-48191595D01*
X139742038Y-48302038D01*
X139631595Y-48436614D01*
X139549528Y-48590150D01*
X139498992Y-48756746D01*
X139481928Y-48930000D01*
X126918825Y-48930000D01*
X126875990Y-48826589D01*
X126713475Y-48583368D01*
X126506632Y-48376525D01*
X126263411Y-48214010D01*
X125993158Y-48102068D01*
X125706260Y-48045000D01*
X125413740Y-48045000D01*
X125195951Y-48088321D01*
X124894274Y-47786644D01*
X124870412Y-47757568D01*
X124754382Y-47662345D01*
X124622005Y-47591588D01*
X124478368Y-47548016D01*
X124366416Y-47536990D01*
X124366413Y-47536990D01*
X124328990Y-47533304D01*
X124291567Y-47536990D01*
X109218432Y-47536990D01*
X109181009Y-47533304D01*
X109143586Y-47536990D01*
X109143584Y-47536990D01*
X109031632Y-47548016D01*
X108887995Y-47591588D01*
X108755618Y-47662345D01*
X108639588Y-47757568D01*
X108615731Y-47786638D01*
X108314048Y-48088321D01*
X108096260Y-48045000D01*
X107803740Y-48045000D01*
X107516842Y-48102068D01*
X107246589Y-48214010D01*
X107003368Y-48376525D01*
X106816285Y-48563608D01*
X106748405Y-48436614D01*
X106637962Y-48302038D01*
X106503386Y-48191595D01*
X106349850Y-48109528D01*
X106183254Y-48058992D01*
X106010000Y-48041928D01*
X104810000Y-48041928D01*
X104636746Y-48058992D01*
X104470150Y-48109528D01*
X104316614Y-48191595D01*
X104182038Y-48302038D01*
X104071595Y-48436614D01*
X103989528Y-48590150D01*
X103938992Y-48756746D01*
X103921928Y-48930000D01*
X92798825Y-48930000D01*
X92755990Y-48826589D01*
X92593475Y-48583368D01*
X92386632Y-48376525D01*
X92143411Y-48214010D01*
X91873158Y-48102068D01*
X91586260Y-48045000D01*
X91293740Y-48045000D01*
X91006842Y-48102068D01*
X90736589Y-48214010D01*
X90493368Y-48376525D01*
X90306285Y-48563608D01*
X90238405Y-48436614D01*
X90127962Y-48302038D01*
X89993386Y-48191595D01*
X89839850Y-48109528D01*
X89673254Y-48058992D01*
X89500000Y-48041928D01*
X88300000Y-48041928D01*
X88126746Y-48058992D01*
X87960150Y-48109528D01*
X87806614Y-48191595D01*
X87672038Y-48302038D01*
X87561595Y-48436614D01*
X87479528Y-48590150D01*
X87428992Y-48756746D01*
X87411928Y-48930000D01*
X80657700Y-48930000D01*
X80657700Y-42557700D01*
X147942301Y-42557700D01*
X147942300Y-79362300D01*
G04 #@! TA.AperFunction,Conductor*
D15*
G36*
X147942300Y-79362300D02*
G01*
X80657700Y-79362300D01*
X80657700Y-48930000D01*
X87411928Y-48930000D01*
X87411928Y-50130000D01*
X87428992Y-50303254D01*
X87479528Y-50469850D01*
X87561595Y-50623386D01*
X87672038Y-50757962D01*
X87806614Y-50868405D01*
X87933608Y-50936285D01*
X87746525Y-51123368D01*
X87584010Y-51366589D01*
X87472068Y-51636842D01*
X87415000Y-51923740D01*
X87415000Y-52216260D01*
X87472068Y-52503158D01*
X87584010Y-52773411D01*
X87746525Y-53016632D01*
X87953368Y-53223475D01*
X88127760Y-53340000D01*
X87953368Y-53456525D01*
X87746525Y-53663368D01*
X87584010Y-53906589D01*
X87472068Y-54176842D01*
X87415000Y-54463740D01*
X87415000Y-54756260D01*
X87472068Y-55043158D01*
X87584010Y-55313411D01*
X87746525Y-55556632D01*
X87953368Y-55763475D01*
X88127760Y-55880000D01*
X87953368Y-55996525D01*
X87746525Y-56203368D01*
X87584010Y-56446589D01*
X87472068Y-56716842D01*
X87415000Y-57003740D01*
X87415000Y-57296260D01*
X87472068Y-57583158D01*
X87584010Y-57853411D01*
X87746525Y-58096632D01*
X87953368Y-58303475D01*
X88127760Y-58420000D01*
X87953368Y-58536525D01*
X87746525Y-58743368D01*
X87584010Y-58986589D01*
X87472068Y-59256842D01*
X87415000Y-59543740D01*
X87415000Y-59836260D01*
X87472068Y-60123158D01*
X87584010Y-60393411D01*
X87746525Y-60636632D01*
X87953368Y-60843475D01*
X88127760Y-60960000D01*
X87953368Y-61076525D01*
X87746525Y-61283368D01*
X87584010Y-61526589D01*
X87472068Y-61796842D01*
X87415000Y-62083740D01*
X87415000Y-62376260D01*
X87472068Y-62663158D01*
X87584010Y-62933411D01*
X87746525Y-63176632D01*
X87953368Y-63383475D01*
X88127760Y-63500000D01*
X87953368Y-63616525D01*
X87746525Y-63823368D01*
X87584010Y-64066589D01*
X87472068Y-64336842D01*
X87415000Y-64623740D01*
X87415000Y-64916260D01*
X87472068Y-65203158D01*
X87584010Y-65473411D01*
X87746525Y-65716632D01*
X87953368Y-65923475D01*
X88127760Y-66040000D01*
X87953368Y-66156525D01*
X87746525Y-66363368D01*
X87584010Y-66606589D01*
X87472068Y-66876842D01*
X87415000Y-67163740D01*
X87415000Y-67456260D01*
X87472068Y-67743158D01*
X87584010Y-68013411D01*
X87746525Y-68256632D01*
X87953368Y-68463475D01*
X88127760Y-68580000D01*
X87953368Y-68696525D01*
X87746525Y-68903368D01*
X87584010Y-69146589D01*
X87472068Y-69416842D01*
X87415000Y-69703740D01*
X87415000Y-69996260D01*
X87472068Y-70283158D01*
X87584010Y-70553411D01*
X87746525Y-70796632D01*
X87953368Y-71003475D01*
X88127760Y-71120000D01*
X87953368Y-71236525D01*
X87746525Y-71443368D01*
X87584010Y-71686589D01*
X87472068Y-71956842D01*
X87415000Y-72243740D01*
X87415000Y-72536260D01*
X87472068Y-72823158D01*
X87584010Y-73093411D01*
X87746525Y-73336632D01*
X87953368Y-73543475D01*
X88196589Y-73705990D01*
X88466842Y-73817932D01*
X88753740Y-73875000D01*
X89046260Y-73875000D01*
X89333158Y-73817932D01*
X89603411Y-73705990D01*
X89846632Y-73543475D01*
X89971710Y-73418397D01*
X90591208Y-73418397D01*
X90668843Y-73667472D01*
X90932883Y-73793371D01*
X91216411Y-73865339D01*
X91508531Y-73880611D01*
X91798019Y-73838599D01*
X92073747Y-73740919D01*
X92211157Y-73667472D01*
X92288792Y-73418397D01*
X91440000Y-72569605D01*
X90591208Y-73418397D01*
X89971710Y-73418397D01*
X90053475Y-73336632D01*
X90169311Y-73163271D01*
X90411603Y-73238792D01*
X91260395Y-72390000D01*
X91619605Y-72390000D01*
X92468397Y-73238792D01*
X92717472Y-73161157D01*
X92843371Y-72897117D01*
X92915339Y-72613589D01*
X92930611Y-72321469D01*
X92888599Y-72031981D01*
X92790919Y-71756253D01*
X92717472Y-71618843D01*
X92468397Y-71541208D01*
X91619605Y-72390000D01*
X91260395Y-72390000D01*
X90411603Y-71541208D01*
X90169311Y-71616729D01*
X90053475Y-71443368D01*
X89846632Y-71236525D01*
X89672240Y-71120000D01*
X89846632Y-71003475D01*
X89971710Y-70878397D01*
X90591208Y-70878397D01*
X90666514Y-71120000D01*
X90591208Y-71361603D01*
X91440000Y-72210395D01*
X92288792Y-71361603D01*
X92213486Y-71120000D01*
X92288792Y-70878397D01*
X91440000Y-70029605D01*
X90591208Y-70878397D01*
X89971710Y-70878397D01*
X90053475Y-70796632D01*
X90169311Y-70623271D01*
X90411603Y-70698792D01*
X91260395Y-69850000D01*
X91619605Y-69850000D01*
X92468397Y-70698792D01*
X92717472Y-70621157D01*
X92843371Y-70357117D01*
X92915339Y-70073589D01*
X92930611Y-69781469D01*
X92888599Y-69491981D01*
X92790919Y-69216253D01*
X92717472Y-69078843D01*
X92468397Y-69001208D01*
X91619605Y-69850000D01*
X91260395Y-69850000D01*
X90411603Y-69001208D01*
X90169311Y-69076729D01*
X90053475Y-68903368D01*
X89846632Y-68696525D01*
X89672240Y-68580000D01*
X89846632Y-68463475D01*
X89971710Y-68338397D01*
X90591208Y-68338397D01*
X90666514Y-68580000D01*
X90591208Y-68821603D01*
X91440000Y-69670395D01*
X92288792Y-68821603D01*
X92213486Y-68580000D01*
X92288792Y-68338397D01*
X91440000Y-67489605D01*
X90591208Y-68338397D01*
X89971710Y-68338397D01*
X90053475Y-68256632D01*
X90169311Y-68083271D01*
X90411603Y-68158792D01*
X91260395Y-67310000D01*
X91619605Y-67310000D01*
X92468397Y-68158792D01*
X92717472Y-68081157D01*
X92843371Y-67817117D01*
X92915339Y-67533589D01*
X92930611Y-67241469D01*
X92888599Y-66951981D01*
X92790919Y-66676253D01*
X92717472Y-66538843D01*
X92468397Y-66461208D01*
X91619605Y-67310000D01*
X91260395Y-67310000D01*
X90411603Y-66461208D01*
X90169311Y-66536729D01*
X90053475Y-66363368D01*
X89846632Y-66156525D01*
X89672240Y-66040000D01*
X89846632Y-65923475D01*
X89971710Y-65798397D01*
X90591208Y-65798397D01*
X90666514Y-66040000D01*
X90591208Y-66281603D01*
X91440000Y-67130395D01*
X92288792Y-66281603D01*
X92213486Y-66040000D01*
X92288792Y-65798397D01*
X91440000Y-64949605D01*
X90591208Y-65798397D01*
X89971710Y-65798397D01*
X90053475Y-65716632D01*
X90169311Y-65543271D01*
X90411603Y-65618792D01*
X91260395Y-64770000D01*
X91619605Y-64770000D01*
X92468397Y-65618792D01*
X92717472Y-65541157D01*
X92843371Y-65277117D01*
X92915339Y-64993589D01*
X92930611Y-64701469D01*
X92888599Y-64411981D01*
X92790919Y-64136253D01*
X92717472Y-63998843D01*
X92468397Y-63921208D01*
X91619605Y-64770000D01*
X91260395Y-64770000D01*
X90411603Y-63921208D01*
X90169311Y-63996729D01*
X90053475Y-63823368D01*
X89846632Y-63616525D01*
X89672240Y-63500000D01*
X89846632Y-63383475D01*
X89971710Y-63258397D01*
X90591208Y-63258397D01*
X90666514Y-63500000D01*
X90591208Y-63741603D01*
X91440000Y-64590395D01*
X92288792Y-63741603D01*
X92213486Y-63500000D01*
X92288792Y-63258397D01*
X91440000Y-62409605D01*
X90591208Y-63258397D01*
X89971710Y-63258397D01*
X90053475Y-63176632D01*
X90169311Y-63003271D01*
X90411603Y-63078792D01*
X91260395Y-62230000D01*
X91619605Y-62230000D01*
X92468397Y-63078792D01*
X92717472Y-63001157D01*
X92843371Y-62737117D01*
X92915339Y-62453589D01*
X92930611Y-62161469D01*
X92888599Y-61871981D01*
X92790919Y-61596253D01*
X92717472Y-61458843D01*
X92468397Y-61381208D01*
X91619605Y-62230000D01*
X91260395Y-62230000D01*
X90411603Y-61381208D01*
X90169311Y-61456729D01*
X90053475Y-61283368D01*
X89846632Y-61076525D01*
X89672240Y-60960000D01*
X89846632Y-60843475D01*
X89971710Y-60718397D01*
X90591208Y-60718397D01*
X90666514Y-60960000D01*
X90591208Y-61201603D01*
X91440000Y-62050395D01*
X92288792Y-61201603D01*
X92213486Y-60960000D01*
X92288792Y-60718397D01*
X91440000Y-59869605D01*
X90591208Y-60718397D01*
X89971710Y-60718397D01*
X90053475Y-60636632D01*
X90169311Y-60463271D01*
X90411603Y-60538792D01*
X91260395Y-59690000D01*
X91619605Y-59690000D01*
X92468397Y-60538792D01*
X92717472Y-60461157D01*
X92843371Y-60197117D01*
X92915339Y-59913589D01*
X92923445Y-59758531D01*
X103919389Y-59758531D01*
X103961401Y-60048019D01*
X104059081Y-60323747D01*
X104132528Y-60461157D01*
X104381603Y-60538792D01*
X105230395Y-59690000D01*
X104381603Y-58841208D01*
X104132528Y-58918843D01*
X104006629Y-59182883D01*
X103934661Y-59466411D01*
X103919389Y-59758531D01*
X92923445Y-59758531D01*
X92930611Y-59621469D01*
X92888599Y-59331981D01*
X92790919Y-59056253D01*
X92717472Y-58918843D01*
X92468397Y-58841208D01*
X91619605Y-59690000D01*
X91260395Y-59690000D01*
X90411603Y-58841208D01*
X90169311Y-58916729D01*
X90053475Y-58743368D01*
X89846632Y-58536525D01*
X89672240Y-58420000D01*
X89846632Y-58303475D01*
X89971710Y-58178397D01*
X90591208Y-58178397D01*
X90666514Y-58420000D01*
X90591208Y-58661603D01*
X91440000Y-59510395D01*
X92288792Y-58661603D01*
X92213486Y-58420000D01*
X92288792Y-58178397D01*
X91440000Y-57329605D01*
X90591208Y-58178397D01*
X89971710Y-58178397D01*
X90053475Y-58096632D01*
X90169311Y-57923271D01*
X90411603Y-57998792D01*
X91260395Y-57150000D01*
X91619605Y-57150000D01*
X92468397Y-57998792D01*
X92717472Y-57921157D01*
X92843371Y-57657117D01*
X92915339Y-57373589D01*
X92930611Y-57081469D01*
X92888599Y-56791981D01*
X92790919Y-56516253D01*
X92717472Y-56378843D01*
X92468397Y-56301208D01*
X91619605Y-57150000D01*
X91260395Y-57150000D01*
X90411603Y-56301208D01*
X90169311Y-56376729D01*
X90053475Y-56203368D01*
X89846632Y-55996525D01*
X89672240Y-55880000D01*
X89846632Y-55763475D01*
X89971710Y-55638397D01*
X90591208Y-55638397D01*
X90666514Y-55880000D01*
X90591208Y-56121603D01*
X91440000Y-56970395D01*
X92288792Y-56121603D01*
X92213486Y-55880000D01*
X92288792Y-55638397D01*
X91440000Y-54789605D01*
X90591208Y-55638397D01*
X89971710Y-55638397D01*
X90053475Y-55556632D01*
X90169311Y-55383271D01*
X90411603Y-55458792D01*
X91260395Y-54610000D01*
X91619605Y-54610000D01*
X92468397Y-55458792D01*
X92717472Y-55381157D01*
X92843371Y-55117117D01*
X92915339Y-54833589D01*
X92923445Y-54678531D01*
X103919389Y-54678531D01*
X103961401Y-54968019D01*
X104059081Y-55243747D01*
X104132528Y-55381157D01*
X104381603Y-55458792D01*
X105230395Y-54610000D01*
X104381603Y-53761208D01*
X104132528Y-53838843D01*
X104006629Y-54102883D01*
X103934661Y-54386411D01*
X103919389Y-54678531D01*
X92923445Y-54678531D01*
X92930611Y-54541469D01*
X92888599Y-54251981D01*
X92790919Y-53976253D01*
X92717472Y-53838843D01*
X92468397Y-53761208D01*
X91619605Y-54610000D01*
X91260395Y-54610000D01*
X90411603Y-53761208D01*
X90169311Y-53836729D01*
X90053475Y-53663368D01*
X89846632Y-53456525D01*
X89672240Y-53340000D01*
X89846632Y-53223475D01*
X89971710Y-53098397D01*
X90591208Y-53098397D01*
X90666514Y-53340000D01*
X90591208Y-53581603D01*
X91440000Y-54430395D01*
X92288792Y-53581603D01*
X92213486Y-53340000D01*
X92288792Y-53098397D01*
X91440000Y-52249605D01*
X90591208Y-53098397D01*
X89971710Y-53098397D01*
X90053475Y-53016632D01*
X90169311Y-52843271D01*
X90411603Y-52918792D01*
X91260395Y-52070000D01*
X91619605Y-52070000D01*
X92468397Y-52918792D01*
X92717472Y-52841157D01*
X92843371Y-52577117D01*
X92915339Y-52293589D01*
X92923445Y-52138531D01*
X103919389Y-52138531D01*
X103961401Y-52428019D01*
X104059081Y-52703747D01*
X104132528Y-52841157D01*
X104381603Y-52918792D01*
X105230395Y-52070000D01*
X104381603Y-51221208D01*
X104132528Y-51298843D01*
X104006629Y-51562883D01*
X103934661Y-51846411D01*
X103919389Y-52138531D01*
X92923445Y-52138531D01*
X92930611Y-52001469D01*
X92888599Y-51711981D01*
X92790919Y-51436253D01*
X92717472Y-51298843D01*
X92468397Y-51221208D01*
X91619605Y-52070000D01*
X91260395Y-52070000D01*
X90411603Y-51221208D01*
X90169311Y-51296729D01*
X90053475Y-51123368D01*
X89866392Y-50936285D01*
X89993386Y-50868405D01*
X90127962Y-50757962D01*
X90238405Y-50623386D01*
X90306285Y-50496392D01*
X90493368Y-50683475D01*
X90666729Y-50799311D01*
X90591208Y-51041603D01*
X91440000Y-51890395D01*
X92288792Y-51041603D01*
X92213271Y-50799311D01*
X92386632Y-50683475D01*
X92593475Y-50476632D01*
X92755990Y-50233411D01*
X92867932Y-49963158D01*
X92925000Y-49676260D01*
X92925000Y-49383740D01*
X92867932Y-49096842D01*
X92798825Y-48930000D01*
X103921928Y-48930000D01*
X103921928Y-50130000D01*
X103938992Y-50303254D01*
X103989528Y-50469850D01*
X104071595Y-50623386D01*
X104182038Y-50757962D01*
X104316614Y-50868405D01*
X104470150Y-50950472D01*
X104579293Y-50983580D01*
X104561208Y-51041603D01*
X105410000Y-51890395D01*
X105424143Y-51876253D01*
X105603748Y-52055858D01*
X105589605Y-52070000D01*
X105603748Y-52084143D01*
X105424143Y-52263748D01*
X105410000Y-52249605D01*
X104561208Y-53098397D01*
X104636514Y-53340000D01*
X104561208Y-53581603D01*
X105410000Y-54430395D01*
X105424143Y-54416253D01*
X105603748Y-54595858D01*
X105589605Y-54610000D01*
X105603748Y-54624143D01*
X105424143Y-54803748D01*
X105410000Y-54789605D01*
X104561208Y-55638397D01*
X104636729Y-55880689D01*
X104463368Y-55996525D01*
X104256525Y-56203368D01*
X104094010Y-56446589D01*
X103982068Y-56716842D01*
X103925000Y-57003740D01*
X103925000Y-57296260D01*
X103982068Y-57583158D01*
X104094010Y-57853411D01*
X104256525Y-58096632D01*
X104463368Y-58303475D01*
X104636729Y-58419311D01*
X104561208Y-58661603D01*
X105410000Y-59510395D01*
X105424143Y-59496253D01*
X105603748Y-59675858D01*
X105589605Y-59690000D01*
X105603748Y-59704143D01*
X105424143Y-59883748D01*
X105410000Y-59869605D01*
X104561208Y-60718397D01*
X104638843Y-60967472D01*
X104902883Y-61093371D01*
X105186411Y-61165339D01*
X105478531Y-61180611D01*
X105768019Y-61138599D01*
X105956999Y-61071650D01*
X105956999Y-63501576D01*
X105953313Y-63538999D01*
X105956999Y-63576422D01*
X105956999Y-63576424D01*
X105968025Y-63688376D01*
X106011597Y-63832013D01*
X106011598Y-63832014D01*
X106082354Y-63964391D01*
X106110628Y-63998843D01*
X106177577Y-64080421D01*
X106206653Y-64104283D01*
X112307000Y-70204631D01*
X112306999Y-72171928D01*
X110910000Y-72171928D01*
X110785518Y-72184188D01*
X110665820Y-72220498D01*
X110555506Y-72279463D01*
X110458815Y-72358815D01*
X110379463Y-72455506D01*
X110320498Y-72565820D01*
X110284188Y-72685518D01*
X110271928Y-72810000D01*
X110271928Y-74510000D01*
X110284188Y-74634482D01*
X110320498Y-74754180D01*
X110379463Y-74864494D01*
X110458815Y-74961185D01*
X110555506Y-75040537D01*
X110665820Y-75099502D01*
X110785518Y-75135812D01*
X110910000Y-75148072D01*
X112610000Y-75148072D01*
X112734482Y-75135812D01*
X112854180Y-75099502D01*
X112964494Y-75040537D01*
X113061185Y-74961185D01*
X113140537Y-74864494D01*
X113199502Y-74754180D01*
X113221513Y-74681620D01*
X113353368Y-74813475D01*
X113596589Y-74975990D01*
X113866842Y-75087932D01*
X114153740Y-75145000D01*
X114446260Y-75145000D01*
X114733158Y-75087932D01*
X115003411Y-74975990D01*
X115246632Y-74813475D01*
X115453475Y-74606632D01*
X115570000Y-74432240D01*
X115686525Y-74606632D01*
X115893368Y-74813475D01*
X116136589Y-74975990D01*
X116406842Y-75087932D01*
X116693740Y-75145000D01*
X116986260Y-75145000D01*
X117273158Y-75087932D01*
X117543411Y-74975990D01*
X117786632Y-74813475D01*
X117993475Y-74606632D01*
X118115195Y-74424466D01*
X118184822Y-74541355D01*
X118379731Y-74757588D01*
X118613080Y-74931641D01*
X118875901Y-75056825D01*
X119023110Y-75101476D01*
X119253000Y-74980155D01*
X119253000Y-73787000D01*
X119507000Y-73787000D01*
X119507000Y-74980155D01*
X119736890Y-75101476D01*
X119884099Y-75056825D01*
X120146920Y-74931641D01*
X120380269Y-74757588D01*
X120575178Y-74541355D01*
X120724157Y-74291252D01*
X120821481Y-74016891D01*
X120700814Y-73787000D01*
X119507000Y-73787000D01*
X119253000Y-73787000D01*
X119233000Y-73787000D01*
X119233000Y-73533000D01*
X119253000Y-73533000D01*
X119253000Y-72339845D01*
X119507000Y-72339845D01*
X119507000Y-73533000D01*
X120700814Y-73533000D01*
X120710923Y-73513740D01*
X131865000Y-73513740D01*
X131865000Y-73806260D01*
X131922068Y-74093158D01*
X132034010Y-74363411D01*
X132196525Y-74606632D01*
X132403368Y-74813475D01*
X132646589Y-74975990D01*
X132916842Y-75087932D01*
X133203740Y-75145000D01*
X133496260Y-75145000D01*
X133783158Y-75087932D01*
X134053411Y-74975990D01*
X134296632Y-74813475D01*
X134428487Y-74681620D01*
X134450498Y-74754180D01*
X134509463Y-74864494D01*
X134588815Y-74961185D01*
X134685506Y-75040537D01*
X134795820Y-75099502D01*
X134915518Y-75135812D01*
X135040000Y-75148072D01*
X136740000Y-75148072D01*
X136864482Y-75135812D01*
X136984180Y-75099502D01*
X137094494Y-75040537D01*
X137191185Y-74961185D01*
X137270537Y-74864494D01*
X137329502Y-74754180D01*
X137365812Y-74634482D01*
X137378072Y-74510000D01*
X137378072Y-72810000D01*
X137365812Y-72685518D01*
X137329502Y-72565820D01*
X137270537Y-72455506D01*
X137191185Y-72358815D01*
X137094494Y-72279463D01*
X136984180Y-72220498D01*
X136864482Y-72184188D01*
X136740000Y-72171928D01*
X135040000Y-72171928D01*
X134915518Y-72184188D01*
X134795820Y-72220498D01*
X134685506Y-72279463D01*
X134588815Y-72358815D01*
X134509463Y-72455506D01*
X134450498Y-72565820D01*
X134428487Y-72638380D01*
X134296632Y-72506525D01*
X134053411Y-72344010D01*
X133783158Y-72232068D01*
X133496260Y-72175000D01*
X133203740Y-72175000D01*
X132916842Y-72232068D01*
X132646589Y-72344010D01*
X132403368Y-72506525D01*
X132196525Y-72713368D01*
X132034010Y-72956589D01*
X131922068Y-73226842D01*
X131865000Y-73513740D01*
X120710923Y-73513740D01*
X120821481Y-73303109D01*
X120724157Y-73028748D01*
X120575178Y-72778645D01*
X120380269Y-72562412D01*
X120146920Y-72388359D01*
X119884099Y-72263175D01*
X119736890Y-72218524D01*
X119507000Y-72339845D01*
X119253000Y-72339845D01*
X119023110Y-72218524D01*
X118875901Y-72263175D01*
X118613080Y-72388359D01*
X118379731Y-72562412D01*
X118184822Y-72778645D01*
X118115195Y-72895534D01*
X117993475Y-72713368D01*
X117786632Y-72506525D01*
X117602000Y-72383158D01*
X117602000Y-61823748D01*
X121665444Y-57760305D01*
X121704010Y-57853411D01*
X121866525Y-58096632D01*
X122073368Y-58303475D01*
X122247760Y-58420000D01*
X122073368Y-58536525D01*
X121866525Y-58743368D01*
X121704010Y-58986589D01*
X121592068Y-59256842D01*
X121535000Y-59543740D01*
X121535000Y-59836260D01*
X121592068Y-60123158D01*
X121704010Y-60393411D01*
X121866525Y-60636632D01*
X122073368Y-60843475D01*
X122316589Y-61005990D01*
X122586842Y-61117932D01*
X122873740Y-61175000D01*
X123166260Y-61175000D01*
X123453158Y-61117932D01*
X123723411Y-61005990D01*
X123966632Y-60843475D01*
X124173475Y-60636632D01*
X124290000Y-60462240D01*
X124406525Y-60636632D01*
X124613368Y-60843475D01*
X124856589Y-61005990D01*
X125126842Y-61117932D01*
X125413740Y-61175000D01*
X125706260Y-61175000D01*
X125993158Y-61117932D01*
X126263411Y-61005990D01*
X126506632Y-60843475D01*
X126713475Y-60636632D01*
X126875990Y-60393411D01*
X126987932Y-60123158D01*
X127045000Y-59836260D01*
X127045000Y-59543740D01*
X126987932Y-59256842D01*
X126875990Y-58986589D01*
X126713475Y-58743368D01*
X126506632Y-58536525D01*
X126332240Y-58420000D01*
X126506632Y-58303475D01*
X126713475Y-58096632D01*
X126875990Y-57853411D01*
X126987932Y-57583158D01*
X127045000Y-57296260D01*
X127045000Y-57003740D01*
X126987932Y-56716842D01*
X126875990Y-56446589D01*
X126713475Y-56203368D01*
X126506632Y-55996525D01*
X126332240Y-55880000D01*
X126506632Y-55763475D01*
X126713475Y-55556632D01*
X126875990Y-55313411D01*
X126987932Y-55043158D01*
X127045000Y-54756260D01*
X127045000Y-54463740D01*
X139485000Y-54463740D01*
X139485000Y-54756260D01*
X139542068Y-55043158D01*
X139654010Y-55313411D01*
X139816525Y-55556632D01*
X140023368Y-55763475D01*
X140197760Y-55880000D01*
X140023368Y-55996525D01*
X139816525Y-56203368D01*
X139654010Y-56446589D01*
X139542068Y-56716842D01*
X139485000Y-57003740D01*
X139485000Y-57296260D01*
X139542068Y-57583158D01*
X139654010Y-57853411D01*
X139816525Y-58096632D01*
X140023368Y-58303475D01*
X140197760Y-58420000D01*
X140023368Y-58536525D01*
X139816525Y-58743368D01*
X139654010Y-58986589D01*
X139542068Y-59256842D01*
X139485000Y-59543740D01*
X139485000Y-59836260D01*
X139542068Y-60123158D01*
X139654010Y-60393411D01*
X139816525Y-60636632D01*
X140023368Y-60843475D01*
X140266589Y-61005990D01*
X140536842Y-61117932D01*
X140823740Y-61175000D01*
X141116260Y-61175000D01*
X141403158Y-61117932D01*
X141673411Y-61005990D01*
X141916632Y-60843475D01*
X142123475Y-60636632D01*
X142240000Y-60462240D01*
X142356525Y-60636632D01*
X142563368Y-60843475D01*
X142806589Y-61005990D01*
X143076842Y-61117932D01*
X143363740Y-61175000D01*
X143656260Y-61175000D01*
X143943158Y-61117932D01*
X144213411Y-61005990D01*
X144456632Y-60843475D01*
X144663475Y-60636632D01*
X144825990Y-60393411D01*
X144937932Y-60123158D01*
X144995000Y-59836260D01*
X144995000Y-59543740D01*
X144937932Y-59256842D01*
X144825990Y-58986589D01*
X144663475Y-58743368D01*
X144456632Y-58536525D01*
X144282240Y-58420000D01*
X144456632Y-58303475D01*
X144663475Y-58096632D01*
X144825990Y-57853411D01*
X144937932Y-57583158D01*
X144995000Y-57296260D01*
X144995000Y-57003740D01*
X144937932Y-56716842D01*
X144825990Y-56446589D01*
X144663475Y-56203368D01*
X144456632Y-55996525D01*
X144282240Y-55880000D01*
X144456632Y-55763475D01*
X144663475Y-55556632D01*
X144825990Y-55313411D01*
X144937932Y-55043158D01*
X144995000Y-54756260D01*
X144995000Y-54463740D01*
X144937932Y-54176842D01*
X144825990Y-53906589D01*
X144663475Y-53663368D01*
X144456632Y-53456525D01*
X144283271Y-53340689D01*
X144358792Y-53098397D01*
X143510000Y-52249605D01*
X142661208Y-53098397D01*
X142736729Y-53340689D01*
X142563368Y-53456525D01*
X142356525Y-53663368D01*
X142240000Y-53837760D01*
X142123475Y-53663368D01*
X141916632Y-53456525D01*
X141743271Y-53340689D01*
X141818792Y-53098397D01*
X140970000Y-52249605D01*
X140121208Y-53098397D01*
X140196729Y-53340689D01*
X140023368Y-53456525D01*
X139816525Y-53663368D01*
X139654010Y-53906589D01*
X139542068Y-54176842D01*
X139485000Y-54463740D01*
X127045000Y-54463740D01*
X126987932Y-54176842D01*
X126875990Y-53906589D01*
X126713475Y-53663368D01*
X126506632Y-53456525D01*
X126333271Y-53340689D01*
X126408792Y-53098397D01*
X125560000Y-52249605D01*
X125545858Y-52263748D01*
X125366253Y-52084143D01*
X125380395Y-52070000D01*
X125739605Y-52070000D01*
X126588397Y-52918792D01*
X126837472Y-52841157D01*
X126963371Y-52577117D01*
X127035339Y-52293589D01*
X127043445Y-52138531D01*
X139479389Y-52138531D01*
X139521401Y-52428019D01*
X139619081Y-52703747D01*
X139692528Y-52841157D01*
X139941603Y-52918792D01*
X140790395Y-52070000D01*
X141149605Y-52070000D01*
X141998397Y-52918792D01*
X142240000Y-52843486D01*
X142481603Y-52918792D01*
X143330395Y-52070000D01*
X143689605Y-52070000D01*
X144538397Y-52918792D01*
X144787472Y-52841157D01*
X144913371Y-52577117D01*
X144985339Y-52293589D01*
X145000611Y-52001469D01*
X144958599Y-51711981D01*
X144860919Y-51436253D01*
X144787472Y-51298843D01*
X144538397Y-51221208D01*
X143689605Y-52070000D01*
X143330395Y-52070000D01*
X142481603Y-51221208D01*
X142240000Y-51296514D01*
X141998397Y-51221208D01*
X141149605Y-52070000D01*
X140790395Y-52070000D01*
X139941603Y-51221208D01*
X139692528Y-51298843D01*
X139566629Y-51562883D01*
X139494661Y-51846411D01*
X139479389Y-52138531D01*
X127043445Y-52138531D01*
X127050611Y-52001469D01*
X127008599Y-51711981D01*
X126910919Y-51436253D01*
X126837472Y-51298843D01*
X126588397Y-51221208D01*
X125739605Y-52070000D01*
X125380395Y-52070000D01*
X124531603Y-51221208D01*
X124290000Y-51296514D01*
X124048397Y-51221208D01*
X123199605Y-52070000D01*
X123213748Y-52084143D01*
X123034143Y-52263748D01*
X123020000Y-52249605D01*
X123005858Y-52263748D01*
X122826253Y-52084143D01*
X122840395Y-52070000D01*
X121991603Y-51221208D01*
X121742528Y-51298843D01*
X121616629Y-51562883D01*
X121544661Y-51846411D01*
X121529389Y-52138531D01*
X121571401Y-52428019D01*
X121610718Y-52539001D01*
X109496632Y-52539001D01*
X109391679Y-52434048D01*
X109435000Y-52216260D01*
X109435000Y-51923740D01*
X109377932Y-51636842D01*
X109265990Y-51366589D01*
X109103475Y-51123368D01*
X108896632Y-50916525D01*
X108722240Y-50800000D01*
X108896632Y-50683475D01*
X109103475Y-50476632D01*
X109265990Y-50233411D01*
X109377932Y-49963158D01*
X109435000Y-49676260D01*
X109435000Y-49383740D01*
X109391679Y-49165952D01*
X109496641Y-49060990D01*
X113691379Y-49060990D01*
X112987370Y-49765000D01*
X112928061Y-49765000D01*
X112728102Y-49804774D01*
X112539744Y-49882795D01*
X112370226Y-49996063D01*
X112226063Y-50140226D01*
X112112795Y-50309744D01*
X112034774Y-50498102D01*
X111995000Y-50698061D01*
X111995000Y-50901939D01*
X112034774Y-51101898D01*
X112112795Y-51290256D01*
X112226063Y-51459774D01*
X112370226Y-51603937D01*
X112539744Y-51717205D01*
X112728102Y-51795226D01*
X112928061Y-51835000D01*
X113131939Y-51835000D01*
X113331898Y-51795226D01*
X113520256Y-51717205D01*
X113689774Y-51603937D01*
X113833937Y-51459774D01*
X113947205Y-51290256D01*
X114025226Y-51101898D01*
X114065000Y-50901939D01*
X114065000Y-50842630D01*
X114615631Y-50292000D01*
X121547884Y-50292000D01*
X121548992Y-50303254D01*
X121599528Y-50469850D01*
X121681595Y-50623386D01*
X121792038Y-50757962D01*
X121926614Y-50868405D01*
X122080150Y-50950472D01*
X122189293Y-50983580D01*
X122171208Y-51041603D01*
X123020000Y-51890395D01*
X123868792Y-51041603D01*
X123850707Y-50983580D01*
X123959850Y-50950472D01*
X124113386Y-50868405D01*
X124247962Y-50757962D01*
X124358405Y-50623386D01*
X124426285Y-50496392D01*
X124613368Y-50683475D01*
X124786729Y-50799311D01*
X124711208Y-51041603D01*
X125560000Y-51890395D01*
X126408792Y-51041603D01*
X126333271Y-50799311D01*
X126506632Y-50683475D01*
X126713475Y-50476632D01*
X126875990Y-50233411D01*
X126987932Y-49963158D01*
X127045000Y-49676260D01*
X127045000Y-49383740D01*
X126987932Y-49096842D01*
X126918825Y-48930000D01*
X139481928Y-48930000D01*
X139481928Y-50130000D01*
X139498992Y-50303254D01*
X139549528Y-50469850D01*
X139631595Y-50623386D01*
X139742038Y-50757962D01*
X139876614Y-50868405D01*
X140030150Y-50950472D01*
X140139293Y-50983580D01*
X140121208Y-51041603D01*
X140970000Y-51890395D01*
X141818792Y-51041603D01*
X141800707Y-50983580D01*
X141909850Y-50950472D01*
X142063386Y-50868405D01*
X142197962Y-50757962D01*
X142308405Y-50623386D01*
X142376285Y-50496392D01*
X142563368Y-50683475D01*
X142736729Y-50799311D01*
X142661208Y-51041603D01*
X143510000Y-51890395D01*
X144358792Y-51041603D01*
X144283271Y-50799311D01*
X144456632Y-50683475D01*
X144663475Y-50476632D01*
X144825990Y-50233411D01*
X144937932Y-49963158D01*
X144995000Y-49676260D01*
X144995000Y-49383740D01*
X144937932Y-49096842D01*
X144825990Y-48826589D01*
X144663475Y-48583368D01*
X144456632Y-48376525D01*
X144213411Y-48214010D01*
X143943158Y-48102068D01*
X143656260Y-48045000D01*
X143363740Y-48045000D01*
X143076842Y-48102068D01*
X142806589Y-48214010D01*
X142563368Y-48376525D01*
X142376285Y-48563608D01*
X142308405Y-48436614D01*
X142197962Y-48302038D01*
X142063386Y-48191595D01*
X141909850Y-48109528D01*
X141743254Y-48058992D01*
X141570000Y-48041928D01*
X140370000Y-48041928D01*
X140196746Y-48058992D01*
X140030150Y-48109528D01*
X139876614Y-48191595D01*
X139742038Y-48302038D01*
X139631595Y-48436614D01*
X139549528Y-48590150D01*
X139498992Y-48756746D01*
X139481928Y-48930000D01*
X126918825Y-48930000D01*
X126875990Y-48826589D01*
X126713475Y-48583368D01*
X126506632Y-48376525D01*
X126263411Y-48214010D01*
X125993158Y-48102068D01*
X125706260Y-48045000D01*
X125413740Y-48045000D01*
X125195951Y-48088321D01*
X124894274Y-47786644D01*
X124870412Y-47757568D01*
X124754382Y-47662345D01*
X124622005Y-47591588D01*
X124478368Y-47548016D01*
X124366416Y-47536990D01*
X124366413Y-47536990D01*
X124328990Y-47533304D01*
X124291567Y-47536990D01*
X109218432Y-47536990D01*
X109181009Y-47533304D01*
X109143586Y-47536990D01*
X109143584Y-47536990D01*
X109031632Y-47548016D01*
X108887995Y-47591588D01*
X108755618Y-47662345D01*
X108639588Y-47757568D01*
X108615731Y-47786638D01*
X108314048Y-48088321D01*
X108096260Y-48045000D01*
X107803740Y-48045000D01*
X107516842Y-48102068D01*
X107246589Y-48214010D01*
X107003368Y-48376525D01*
X106816285Y-48563608D01*
X106748405Y-48436614D01*
X106637962Y-48302038D01*
X106503386Y-48191595D01*
X106349850Y-48109528D01*
X106183254Y-48058992D01*
X106010000Y-48041928D01*
X104810000Y-48041928D01*
X104636746Y-48058992D01*
X104470150Y-48109528D01*
X104316614Y-48191595D01*
X104182038Y-48302038D01*
X104071595Y-48436614D01*
X103989528Y-48590150D01*
X103938992Y-48756746D01*
X103921928Y-48930000D01*
X92798825Y-48930000D01*
X92755990Y-48826589D01*
X92593475Y-48583368D01*
X92386632Y-48376525D01*
X92143411Y-48214010D01*
X91873158Y-48102068D01*
X91586260Y-48045000D01*
X91293740Y-48045000D01*
X91006842Y-48102068D01*
X90736589Y-48214010D01*
X90493368Y-48376525D01*
X90306285Y-48563608D01*
X90238405Y-48436614D01*
X90127962Y-48302038D01*
X89993386Y-48191595D01*
X89839850Y-48109528D01*
X89673254Y-48058992D01*
X89500000Y-48041928D01*
X88300000Y-48041928D01*
X88126746Y-48058992D01*
X87960150Y-48109528D01*
X87806614Y-48191595D01*
X87672038Y-48302038D01*
X87561595Y-48436614D01*
X87479528Y-48590150D01*
X87428992Y-48756746D01*
X87411928Y-48930000D01*
X80657700Y-48930000D01*
X80657700Y-42557700D01*
X147942301Y-42557700D01*
X147942300Y-79362300D01*
G37*
G04 #@! TD.AperFunction*
M02*
